%TF.GenerationSoftware,KiCad,Pcbnew,8.0.7*%
%TF.CreationDate,2025-02-10T19:55:48+01:00*%
%TF.ProjectId,0004-MCU-Datalogger,30303034-2d4d-4435-952d-446174616c6f,1*%
%TF.SameCoordinates,Original*%
%TF.FileFunction,Plated,1,2,PTH,Drill*%
%TF.FilePolarity,Positive*%
%FSLAX46Y46*%
G04 Gerber Fmt 4.6, Leading zero omitted, Abs format (unit mm)*
G04 Created by KiCad (PCBNEW 8.0.7) date 2025-02-10 19:55:48*
%MOMM*%
%LPD*%
G01*
G04 APERTURE LIST*
%TA.AperFunction,ViaDrill*%
%ADD10C,0.400000*%
%TD*%
%TA.AperFunction,ComponentDrill*%
%ADD11C,1.000000*%
%TD*%
G04 APERTURE END LIST*
D10*
X131084068Y-80515000D03*
X131216400Y-70665000D03*
X131826000Y-66192400D03*
X132537200Y-73609200D03*
X133400800Y-68605000D03*
X138074400Y-64109600D03*
X139090400Y-63246000D03*
X141408199Y-67313199D03*
X141579600Y-69425000D03*
X142290800Y-72685000D03*
X143020001Y-75683304D03*
X143510000Y-71882000D03*
X143694740Y-69383575D03*
X143967200Y-67208400D03*
X144068800Y-81229200D03*
X144526000Y-63246000D03*
X144526000Y-70104000D03*
X144729200Y-75700000D03*
X145029347Y-71886653D03*
X145542000Y-64025000D03*
X146558000Y-70612000D03*
X146621000Y-69240400D03*
X148285200Y-75475000D03*
X148386800Y-63437000D03*
X149906147Y-67254547D03*
X150012400Y-72898000D03*
X150063200Y-70975000D03*
X150368000Y-76962000D03*
X151333200Y-66446400D03*
X151638000Y-64516000D03*
X151791300Y-75475001D03*
X153365200Y-68079547D03*
X153365200Y-77687000D03*
X155194000Y-74168000D03*
X158394400Y-79146400D03*
X162915600Y-79146400D03*
D11*
%TO.C,BT1*%
X124460000Y-67945000D03*
X124460000Y-70485000D03*
%TO.C,J3*%
X127645000Y-85725000D03*
X130185000Y-85725000D03*
X132725000Y-85725000D03*
X135265000Y-85725000D03*
X137805000Y-85725000D03*
X140345000Y-85725000D03*
X142885000Y-85725000D03*
X145425000Y-85725000D03*
X147965000Y-85725000D03*
%TO.C,J2*%
X153670000Y-85725000D03*
X156210000Y-85725000D03*
%TO.C,J4*%
X158115000Y-71105000D03*
X158115000Y-73645000D03*
X158115000Y-76185000D03*
%TO.C,J2*%
X158750000Y-85725000D03*
%TO.C,J4*%
X160655000Y-71105000D03*
X160655000Y-73645000D03*
X160655000Y-76185000D03*
%TO.C,J2*%
X161290000Y-85725000D03*
%TO.C,J1*%
X165735000Y-69850000D03*
X165735000Y-72390000D03*
X165735000Y-74930000D03*
X165735000Y-77470000D03*
M02*
