%TF.GenerationSoftware,KiCad,Pcbnew,8.0.7*%
%TF.CreationDate,2025-02-10T19:55:19+01:00*%
%TF.ProjectId,0004-MCU-Datalogger,30303034-2d4d-4435-952d-446174616c6f,1*%
%TF.SameCoordinates,Original*%
%TF.FileFunction,Copper,L2,Bot*%
%TF.FilePolarity,Positive*%
%FSLAX46Y46*%
G04 Gerber Fmt 4.6, Leading zero omitted, Abs format (unit mm)*
G04 Created by KiCad (PCBNEW 8.0.7) date 2025-02-10 19:55:19*
%MOMM*%
%LPD*%
G01*
G04 APERTURE LIST*
%TA.AperFunction,ComponentPad*%
%ADD10R,1.700000X1.700000*%
%TD*%
%TA.AperFunction,ComponentPad*%
%ADD11O,1.700000X1.700000*%
%TD*%
%TA.AperFunction,ViaPad*%
%ADD12C,0.800000*%
%TD*%
%TA.AperFunction,ViaPad*%
%ADD13C,0.900000*%
%TD*%
%TA.AperFunction,Conductor*%
%ADD14C,0.250000*%
%TD*%
%TA.AperFunction,Conductor*%
%ADD15C,0.350000*%
%TD*%
G04 APERTURE END LIST*
D10*
%TO.P,BT1,1,+*%
%TO.N,/Vcc*%
X124460000Y-67945000D03*
D11*
%TO.P,BT1,2,-*%
%TO.N,GND*%
X124460000Y-70485000D03*
%TD*%
D10*
%TO.P,J3,1,Pin_1*%
%TO.N,/D2*%
X127645000Y-85725000D03*
D11*
%TO.P,J3,2,Pin_2*%
%TO.N,/D3*%
X130185000Y-85725000D03*
%TO.P,J3,3,Pin_3*%
%TO.N,/D4*%
X132725000Y-85725000D03*
%TO.P,J3,4,Pin_4*%
%TO.N,/D5*%
X135265000Y-85725000D03*
%TO.P,J3,5,Pin_5*%
%TO.N,/D6*%
X137805000Y-85725000D03*
%TO.P,J3,6,Pin_6*%
%TO.N,/D7*%
X140345000Y-85725000D03*
%TO.P,J3,7,Pin_7*%
%TO.N,/D8*%
X142885000Y-85725000D03*
%TO.P,J3,8,Pin_8*%
%TO.N,GND*%
X145425000Y-85725000D03*
%TO.P,J3,9,Pin_9*%
%TO.N,/Vcc*%
X147965000Y-85725000D03*
%TD*%
D10*
%TO.P,J4,1,Pin_1*%
%TO.N,/MISO*%
X160655000Y-76185000D03*
D11*
%TO.P,J4,2,Pin_2*%
%TO.N,/Vcc*%
X158115000Y-76185000D03*
%TO.P,J4,3,Pin_3*%
%TO.N,/SCK*%
X160655000Y-73645000D03*
%TO.P,J4,4,Pin_4*%
%TO.N,/MOSI*%
X158115000Y-73645000D03*
%TO.P,J4,5,Pin_5*%
%TO.N,/RESET*%
X160655000Y-71105000D03*
%TO.P,J4,6,Pin_6*%
%TO.N,GND*%
X158115000Y-71105000D03*
%TD*%
D10*
%TO.P,J1,1,Pin_1*%
%TO.N,GND*%
X165735000Y-69850000D03*
D11*
%TO.P,J1,2,Pin_2*%
%TO.N,/Vcc*%
X165735000Y-72390000D03*
%TO.P,J1,3,Pin_3*%
%TO.N,/SDA*%
X165735000Y-74930000D03*
%TO.P,J1,4,Pin_4*%
%TO.N,/SCL*%
X165735000Y-77470000D03*
%TD*%
D10*
%TO.P,J2,1,Pin_1*%
%TO.N,GND*%
X153670000Y-85725000D03*
D11*
%TO.P,J2,2,Pin_2*%
%TO.N,/Vcc*%
X156210000Y-85725000D03*
%TO.P,J2,3,Pin_3*%
%TO.N,/RX*%
X158750000Y-85725000D03*
%TO.P,J2,4,Pin_4*%
%TO.N,/TX*%
X161290000Y-85725000D03*
%TD*%
D12*
%TO.N,/SCL*%
X146558000Y-70612000D03*
X150012400Y-72898000D03*
X151791300Y-75475001D03*
X153365200Y-77687000D03*
X158394400Y-79146400D03*
X162915600Y-79146400D03*
D13*
%TO.N,GND*%
X133400800Y-68605000D03*
X151638000Y-64516000D03*
X131826000Y-66192400D03*
X143694740Y-69383575D03*
X153365200Y-68079547D03*
X144068800Y-81229200D03*
X131084068Y-80515000D03*
X141408199Y-67313199D03*
X146621000Y-69240400D03*
D12*
%TO.N,Net-(U4-PB7)*%
X142290800Y-72685000D03*
X143020001Y-75683304D03*
%TO.N,Net-(U4-PB6)*%
X143510000Y-71882000D03*
X144729200Y-75700000D03*
%TO.N,/Vcc*%
X141579600Y-69425000D03*
X151333200Y-66446400D03*
D13*
X131216400Y-70665000D03*
X148386800Y-63437000D03*
X155194000Y-74168000D03*
X132537200Y-73609200D03*
D12*
X150063200Y-70975000D03*
%TO.N,/SCL*%
X139090400Y-63246000D03*
X144526000Y-63246000D03*
%TO.N,/SDA*%
X138074400Y-64109600D03*
X145542000Y-64025000D03*
%TO.N,/RX*%
X145029347Y-71886653D03*
%TO.N,/TX*%
X144526000Y-70104000D03*
%TO.N,/MISO*%
X150368000Y-76962000D03*
X148285200Y-75475000D03*
%TO.N,/RESET*%
X143967200Y-67208400D03*
X149906147Y-67254547D03*
%TD*%
D14*
%TO.N,/SCL*%
X150012400Y-72898000D02*
X149606000Y-72898000D01*
X149606000Y-72898000D02*
X147320000Y-70612000D01*
X147320000Y-70612000D02*
X146558000Y-70612000D01*
X153162000Y-76845701D02*
X151791300Y-75475001D01*
X153162000Y-77483800D02*
X153162000Y-76845701D01*
X153365200Y-77687000D02*
X153162000Y-77483800D01*
X162915600Y-79146400D02*
X158394400Y-79146400D01*
D15*
%TO.N,GND*%
X131826000Y-66192400D02*
X140287400Y-66192400D01*
X151638000Y-64516000D02*
X153365200Y-66243200D01*
X143354600Y-80515000D02*
X144068800Y-81229200D01*
X131826000Y-66192400D02*
X131826000Y-67030200D01*
X140287400Y-66192400D02*
X141408199Y-67313199D01*
X131826000Y-67030200D02*
X133400800Y-68605000D01*
X140459000Y-80515000D02*
X143354600Y-80515000D01*
X146582400Y-69279000D02*
X146621000Y-69240400D01*
X143799315Y-69279000D02*
X146582400Y-69279000D01*
X153365200Y-66243200D02*
X153365200Y-68079547D01*
X131084068Y-80515000D02*
X140459000Y-80515000D01*
X143694740Y-69383575D02*
X143799315Y-69279000D01*
D14*
%TO.N,Net-(U4-PB7)*%
X143020001Y-73414201D02*
X142290800Y-72685000D01*
X143020001Y-75683304D02*
X143020001Y-73414201D01*
%TO.N,Net-(U4-PB6)*%
X144729200Y-73101200D02*
X143510000Y-71882000D01*
X144729200Y-75700000D02*
X144729200Y-73101200D01*
D15*
%TO.N,/Vcc*%
X155229000Y-67310000D02*
X160655000Y-67310000D01*
D14*
X151333200Y-67360800D02*
X150622000Y-68072000D01*
D15*
X152146000Y-63500000D02*
X148449800Y-63500000D01*
X156352000Y-74422000D02*
X158115000Y-76185000D01*
X155448000Y-74422000D02*
X156352000Y-74422000D01*
D14*
X141579600Y-69425000D02*
X141649000Y-69425000D01*
D15*
X160655000Y-67310000D02*
X165735000Y-72390000D01*
X155194000Y-66548000D02*
X152146000Y-63500000D01*
X132537200Y-73609200D02*
X132537200Y-71985800D01*
D14*
X151333200Y-66446400D02*
X151333200Y-67360800D01*
D15*
X155194000Y-74168000D02*
X155194000Y-66548000D01*
D14*
X133096000Y-69596000D02*
X141408600Y-69596000D01*
X150063200Y-69900800D02*
X150113999Y-69850001D01*
X143002000Y-68072000D02*
X150113999Y-68072000D01*
D15*
X155194000Y-67275000D02*
X155229000Y-67310000D01*
X148449800Y-63500000D02*
X148386800Y-63437000D01*
D14*
X150063200Y-70975000D02*
X150114000Y-70924200D01*
X150063200Y-70975000D02*
X150063200Y-69900800D01*
X141408600Y-69596000D02*
X141579600Y-69425000D01*
X124460000Y-67945000D02*
X131445000Y-67945000D01*
X150622000Y-68072000D02*
X150113999Y-68072000D01*
D15*
X155194000Y-74168000D02*
X155448000Y-74422000D01*
D14*
X141649000Y-69425000D02*
X143002000Y-68072000D01*
X150113999Y-69850001D02*
X150113999Y-68072000D01*
D15*
X132537200Y-71985800D02*
X131216400Y-70665000D01*
D14*
X131445000Y-67945000D02*
X133096000Y-69596000D01*
%TO.N,/SCL*%
X144526000Y-63246000D02*
X139446000Y-63246000D01*
X139446000Y-63246000D02*
X139090400Y-63246000D01*
%TO.N,/SDA*%
X151130000Y-65532000D02*
X149860000Y-64262000D01*
X152464198Y-73849802D02*
X152464198Y-66120016D01*
X156024396Y-77410000D02*
X152464198Y-73849802D01*
X151876182Y-65532000D02*
X151130000Y-65532000D01*
X138159000Y-64025000D02*
X138074400Y-64109600D01*
X145542000Y-64025000D02*
X138159000Y-64025000D01*
X152464198Y-66120016D02*
X151876182Y-65532000D01*
X149860000Y-64262000D02*
X145779000Y-64262000D01*
X163255000Y-77410000D02*
X156024396Y-77410000D01*
X145779000Y-64262000D02*
X145542000Y-64025000D01*
X165735000Y-74930000D02*
X163255000Y-77410000D01*
%TO.N,/RX*%
X152017604Y-74676000D02*
X158750000Y-81408396D01*
X145292653Y-71886653D02*
X148082000Y-74676000D01*
X158750000Y-81408396D02*
X158750000Y-85725000D01*
X148082000Y-74676000D02*
X152017604Y-74676000D01*
X145029347Y-71886653D02*
X145292653Y-71886653D01*
%TO.N,/TX*%
X152204000Y-74226000D02*
X161290000Y-83312000D01*
X144526000Y-70358000D02*
X148394000Y-74226000D01*
X161290000Y-83312000D02*
X161290000Y-85725000D01*
X148394000Y-74226000D02*
X152204000Y-74226000D01*
X144526000Y-70104000D02*
X144526000Y-70358000D01*
%TO.N,/MISO*%
X149772200Y-76962000D02*
X148285200Y-75475000D01*
X150368000Y-76962000D02*
X149772200Y-76962000D01*
%TO.N,/RESET*%
X145034000Y-67254547D02*
X144013347Y-67254547D01*
X144013347Y-67254547D02*
X143967200Y-67208400D01*
X149906147Y-67254547D02*
X145034000Y-67254547D01*
%TD*%
%TA.AperFunction,Conductor*%
%TO.N,GND*%
G36*
X160390876Y-68005185D02*
G01*
X160411518Y-68021819D01*
X164379819Y-71990120D01*
X164413304Y-72051443D01*
X164411913Y-72109893D01*
X164399939Y-72154583D01*
X164399936Y-72154596D01*
X164379341Y-72389999D01*
X164379341Y-72390000D01*
X164399936Y-72625403D01*
X164399938Y-72625413D01*
X164461094Y-72853655D01*
X164461096Y-72853659D01*
X164461097Y-72853663D01*
X164536548Y-73015468D01*
X164560965Y-73067830D01*
X164560967Y-73067834D01*
X164696501Y-73261395D01*
X164696506Y-73261402D01*
X164863597Y-73428493D01*
X164863603Y-73428498D01*
X165049158Y-73558425D01*
X165092783Y-73613002D01*
X165099977Y-73682500D01*
X165068454Y-73744855D01*
X165049158Y-73761575D01*
X164863597Y-73891505D01*
X164696505Y-74058597D01*
X164560965Y-74252169D01*
X164560964Y-74252171D01*
X164461098Y-74466335D01*
X164461094Y-74466344D01*
X164399938Y-74694586D01*
X164399936Y-74694596D01*
X164379341Y-74929999D01*
X164379341Y-74930000D01*
X164399936Y-75165403D01*
X164399938Y-75165413D01*
X164426856Y-75265872D01*
X164425193Y-75335722D01*
X164394762Y-75385646D01*
X163032229Y-76748181D01*
X162970906Y-76781666D01*
X162944548Y-76784500D01*
X162129500Y-76784500D01*
X162062461Y-76764815D01*
X162016706Y-76712011D01*
X162005500Y-76660500D01*
X162005499Y-75287129D01*
X162005498Y-75287123D01*
X162005457Y-75286744D01*
X161999091Y-75227517D01*
X161997810Y-75224083D01*
X161948797Y-75092671D01*
X161948793Y-75092664D01*
X161862547Y-74977455D01*
X161862544Y-74977452D01*
X161747335Y-74891206D01*
X161747328Y-74891202D01*
X161615917Y-74842189D01*
X161559983Y-74800318D01*
X161535566Y-74734853D01*
X161550418Y-74666580D01*
X161571563Y-74638332D01*
X161693495Y-74516401D01*
X161829035Y-74322830D01*
X161928903Y-74108663D01*
X161990063Y-73880408D01*
X162010659Y-73645000D01*
X162008753Y-73623220D01*
X162000567Y-73529654D01*
X161990063Y-73409592D01*
X161937884Y-73214854D01*
X161928905Y-73181344D01*
X161928904Y-73181343D01*
X161928903Y-73181337D01*
X161829035Y-72967171D01*
X161823425Y-72959158D01*
X161693494Y-72773597D01*
X161577700Y-72657804D01*
X162785947Y-72657804D01*
X162842598Y-72779292D01*
X162844777Y-72784244D01*
X162857295Y-72814465D01*
X162859253Y-72819500D01*
X162874154Y-72860432D01*
X162875895Y-72865560D01*
X162885744Y-72896795D01*
X162887259Y-72901992D01*
X162959695Y-73172334D01*
X162960981Y-73177588D01*
X162968066Y-73209546D01*
X162969121Y-73214854D01*
X162976684Y-73257749D01*
X162977507Y-73263096D01*
X162981778Y-73295539D01*
X162982367Y-73300916D01*
X163006759Y-73579713D01*
X163007113Y-73585110D01*
X163008541Y-73617810D01*
X163008659Y-73623220D01*
X163008659Y-73666780D01*
X163008541Y-73672190D01*
X163007113Y-73704890D01*
X163006759Y-73710287D01*
X162982367Y-73989084D01*
X162981778Y-73994461D01*
X162977507Y-74026904D01*
X162976684Y-74032251D01*
X162969121Y-74075146D01*
X162968066Y-74080454D01*
X162960981Y-74112412D01*
X162959695Y-74117666D01*
X162949754Y-74154768D01*
X163512778Y-74154768D01*
X163514105Y-74150560D01*
X163515846Y-74145432D01*
X163530747Y-74104500D01*
X163532705Y-74099465D01*
X163545223Y-74069244D01*
X163547402Y-74064292D01*
X163665676Y-73810655D01*
X163668070Y-73805801D01*
X163683186Y-73776765D01*
X163685788Y-73772022D01*
X163707567Y-73734301D01*
X163710372Y-73729679D01*
X163727954Y-73702080D01*
X163730960Y-73697581D01*
X163757274Y-73659999D01*
X163730957Y-73622415D01*
X163727950Y-73617916D01*
X163710358Y-73590302D01*
X163707549Y-73585673D01*
X163685771Y-73547949D01*
X163683171Y-73543209D01*
X163668064Y-73514188D01*
X163665672Y-73509337D01*
X163547402Y-73255708D01*
X163545223Y-73250756D01*
X163532705Y-73220535D01*
X163530747Y-73215500D01*
X163515846Y-73174568D01*
X163514105Y-73169440D01*
X163504256Y-73138205D01*
X163502741Y-73133008D01*
X163430305Y-72862666D01*
X163429019Y-72857412D01*
X163421934Y-72825454D01*
X163420879Y-72820146D01*
X163413316Y-72777251D01*
X163412493Y-72771904D01*
X163408222Y-72739461D01*
X163407633Y-72734085D01*
X163400518Y-72652768D01*
X162785947Y-72652768D01*
X162785947Y-72657804D01*
X161577700Y-72657804D01*
X161526402Y-72606506D01*
X161526396Y-72606501D01*
X161340842Y-72476575D01*
X161297217Y-72421998D01*
X161290023Y-72352500D01*
X161321546Y-72290145D01*
X161340842Y-72273425D01*
X161363026Y-72257891D01*
X161526401Y-72143495D01*
X161693495Y-71976401D01*
X161829035Y-71782830D01*
X161928903Y-71568663D01*
X161990063Y-71340408D01*
X162010659Y-71105000D01*
X161990063Y-70869592D01*
X161928903Y-70641337D01*
X161829035Y-70427171D01*
X161826636Y-70423744D01*
X161693494Y-70233597D01*
X161526402Y-70066506D01*
X161526395Y-70066501D01*
X161332834Y-69930967D01*
X161332830Y-69930965D01*
X161300364Y-69915826D01*
X161118663Y-69831097D01*
X161118659Y-69831096D01*
X161118655Y-69831094D01*
X160890413Y-69769938D01*
X160890403Y-69769936D01*
X160655001Y-69749341D01*
X160654999Y-69749341D01*
X160419596Y-69769936D01*
X160419586Y-69769938D01*
X160191344Y-69831094D01*
X160191335Y-69831098D01*
X159977171Y-69930964D01*
X159977169Y-69930965D01*
X159783597Y-70066505D01*
X159616508Y-70233594D01*
X159486269Y-70419595D01*
X159431692Y-70463219D01*
X159362193Y-70470412D01*
X159299839Y-70438890D01*
X159283119Y-70419594D01*
X159153113Y-70233926D01*
X159153108Y-70233920D01*
X158986082Y-70066894D01*
X158792578Y-69931399D01*
X158578492Y-69831570D01*
X158578486Y-69831567D01*
X158365000Y-69774364D01*
X158365000Y-70671988D01*
X158307993Y-70639075D01*
X158180826Y-70605000D01*
X158049174Y-70605000D01*
X157922007Y-70639075D01*
X157865000Y-70671988D01*
X157865000Y-69774364D01*
X157864999Y-69774364D01*
X157651513Y-69831567D01*
X157651507Y-69831570D01*
X157437422Y-69931399D01*
X157437420Y-69931400D01*
X157243926Y-70066886D01*
X157243920Y-70066891D01*
X157076891Y-70233920D01*
X157076886Y-70233926D01*
X156941400Y-70427420D01*
X156941399Y-70427422D01*
X156841570Y-70641507D01*
X156841567Y-70641513D01*
X156784364Y-70854999D01*
X156784364Y-70855000D01*
X157681988Y-70855000D01*
X157649075Y-70912007D01*
X157615000Y-71039174D01*
X157615000Y-71170826D01*
X157649075Y-71297993D01*
X157681988Y-71355000D01*
X156784364Y-71355000D01*
X156841567Y-71568486D01*
X156841570Y-71568492D01*
X156941399Y-71782578D01*
X157076894Y-71976082D01*
X157243917Y-72143105D01*
X157429595Y-72273119D01*
X157473219Y-72327696D01*
X157480412Y-72397195D01*
X157448890Y-72459549D01*
X157429595Y-72476269D01*
X157243594Y-72606508D01*
X157076505Y-72773597D01*
X156940965Y-72967169D01*
X156940964Y-72967171D01*
X156841098Y-73181335D01*
X156841094Y-73181344D01*
X156779938Y-73409586D01*
X156779936Y-73409596D01*
X156759341Y-73644999D01*
X156759341Y-73645003D01*
X156761009Y-73664071D01*
X156747242Y-73732571D01*
X156698626Y-73782753D01*
X156630597Y-73798686D01*
X156590030Y-73789439D01*
X156560824Y-73777342D01*
X156549036Y-73772459D01*
X156549032Y-73772458D01*
X156549028Y-73772457D01*
X156418535Y-73746500D01*
X156418531Y-73746500D01*
X156120787Y-73746500D01*
X156053748Y-73726815D01*
X156011429Y-73680954D01*
X155988136Y-73637375D01*
X155987805Y-73636972D01*
X155897647Y-73527114D01*
X155870334Y-73462804D01*
X155869500Y-73448449D01*
X155869500Y-68109500D01*
X155889185Y-68042461D01*
X155941989Y-67996706D01*
X155993500Y-67985500D01*
X160323837Y-67985500D01*
X160390876Y-68005185D01*
G37*
%TD.AperFunction*%
%TA.AperFunction,Conductor*%
G36*
X151881876Y-64195185D02*
G01*
X151902518Y-64211819D01*
X154482181Y-66791482D01*
X154515666Y-66852805D01*
X154518500Y-66879163D01*
X154518500Y-73448449D01*
X154498815Y-73515488D01*
X154490353Y-73527114D01*
X154399864Y-73637373D01*
X154399862Y-73637376D01*
X154311604Y-73802497D01*
X154257253Y-73981666D01*
X154257252Y-73981668D01*
X154238901Y-74168000D01*
X154257252Y-74354329D01*
X154289440Y-74460436D01*
X154290063Y-74530302D01*
X154252815Y-74589415D01*
X154189521Y-74619006D01*
X154120276Y-74609681D01*
X154083098Y-74584112D01*
X153126017Y-73627031D01*
X153092532Y-73565708D01*
X153089698Y-73539350D01*
X153089698Y-66058409D01*
X153089697Y-66058405D01*
X153084715Y-66033356D01*
X153065661Y-65937564D01*
X153018509Y-65823730D01*
X153018508Y-65823729D01*
X153018505Y-65823723D01*
X152950056Y-65721283D01*
X152950053Y-65721279D01*
X152859835Y-65631061D01*
X152859804Y-65631032D01*
X152366380Y-65137608D01*
X152366360Y-65137586D01*
X152274917Y-65046143D01*
X152256774Y-65034020D01*
X152220974Y-65010100D01*
X152220975Y-65010100D01*
X152220973Y-65010098D01*
X152172472Y-64977690D01*
X152172468Y-64977688D01*
X152155703Y-64970744D01*
X152091974Y-64944347D01*
X152058635Y-64930537D01*
X152048609Y-64928543D01*
X151998211Y-64918518D01*
X151937792Y-64906500D01*
X151937789Y-64906500D01*
X151937788Y-64906500D01*
X151440452Y-64906500D01*
X151373413Y-64886815D01*
X151352771Y-64870181D01*
X150869771Y-64387181D01*
X150836286Y-64325858D01*
X150841270Y-64256166D01*
X150883142Y-64200233D01*
X150948606Y-64175816D01*
X150957452Y-64175500D01*
X151814837Y-64175500D01*
X151881876Y-64195185D01*
G37*
%TD.AperFunction*%
%TA.AperFunction,Conductor*%
G36*
X125736926Y-59912586D02*
G01*
X125781273Y-59941087D01*
X125803686Y-59963500D01*
X125803689Y-59963502D01*
X125810135Y-59968448D01*
X125809879Y-59968780D01*
X125811312Y-59969840D01*
X125811556Y-59969499D01*
X125818174Y-59974211D01*
X125818176Y-59974213D01*
X125856468Y-59994534D01*
X125866521Y-59999869D01*
X125870395Y-60002014D01*
X125917816Y-60029393D01*
X125925327Y-60032504D01*
X125925165Y-60032893D01*
X125926821Y-60033545D01*
X125926969Y-60033150D01*
X125934584Y-60035991D01*
X125980192Y-60046481D01*
X125987943Y-60048264D01*
X125992189Y-60049320D01*
X126045108Y-60063500D01*
X126045111Y-60063500D01*
X126053168Y-60064561D01*
X126053113Y-60064977D01*
X126054883Y-60065178D01*
X126054923Y-60064760D01*
X126063003Y-60065530D01*
X126063013Y-60065533D01*
X126117732Y-60063579D01*
X126122157Y-60063500D01*
X164072843Y-60063500D01*
X164077268Y-60063579D01*
X164131987Y-60065533D01*
X164131997Y-60065530D01*
X164140077Y-60064760D01*
X164140116Y-60065178D01*
X164141886Y-60064977D01*
X164141832Y-60064561D01*
X164149888Y-60063500D01*
X164149892Y-60063500D01*
X164202823Y-60049316D01*
X164207014Y-60048274D01*
X164228111Y-60043421D01*
X164297855Y-60047578D01*
X164343585Y-60076585D01*
X167482254Y-63215254D01*
X167515739Y-63276577D01*
X167518573Y-63302935D01*
X167518573Y-84087041D01*
X167517856Y-84100358D01*
X167517081Y-84107523D01*
X167517102Y-84107652D01*
X167518573Y-84126697D01*
X167518573Y-84161660D01*
X167533328Y-84216728D01*
X167536082Y-84229778D01*
X167536521Y-84232603D01*
X167527365Y-84301870D01*
X167501673Y-84339325D01*
X164351880Y-87489118D01*
X164290557Y-87522603D01*
X164245049Y-87523949D01*
X164204079Y-87517545D01*
X164191142Y-87514809D01*
X164167857Y-87508571D01*
X164167851Y-87508570D01*
X164167850Y-87508570D01*
X164167848Y-87508570D01*
X164156297Y-87508570D01*
X164137150Y-87507083D01*
X164117632Y-87504032D01*
X164117630Y-87504032D01*
X164081810Y-87507869D01*
X164068610Y-87508574D01*
X126144347Y-87510497D01*
X126131135Y-87509792D01*
X126098803Y-87506328D01*
X126098800Y-87506328D01*
X126098798Y-87506328D01*
X126098797Y-87506328D01*
X126081609Y-87509014D01*
X126062477Y-87510501D01*
X126042878Y-87510503D01*
X125975836Y-87490825D01*
X125955184Y-87474184D01*
X123308135Y-84827135D01*
X126294500Y-84827135D01*
X126294500Y-86622870D01*
X126294501Y-86622876D01*
X126300908Y-86682483D01*
X126351202Y-86817328D01*
X126351206Y-86817335D01*
X126437452Y-86932544D01*
X126437455Y-86932547D01*
X126552664Y-87018793D01*
X126552671Y-87018797D01*
X126687517Y-87069091D01*
X126687516Y-87069091D01*
X126694444Y-87069835D01*
X126747127Y-87075500D01*
X128542872Y-87075499D01*
X128602483Y-87069091D01*
X128737331Y-87018796D01*
X128852546Y-86932546D01*
X128938796Y-86817331D01*
X128987810Y-86685916D01*
X129029681Y-86629984D01*
X129095145Y-86605566D01*
X129163418Y-86620417D01*
X129191673Y-86641569D01*
X129313599Y-86763495D01*
X129410384Y-86831265D01*
X129507165Y-86899032D01*
X129507167Y-86899033D01*
X129507170Y-86899035D01*
X129721337Y-86998903D01*
X129949592Y-87060063D01*
X130126034Y-87075500D01*
X130184999Y-87080659D01*
X130185000Y-87080659D01*
X130185001Y-87080659D01*
X130243966Y-87075500D01*
X130420408Y-87060063D01*
X130648663Y-86998903D01*
X130862830Y-86899035D01*
X131056401Y-86763495D01*
X131223495Y-86596401D01*
X131353425Y-86410842D01*
X131408002Y-86367217D01*
X131477500Y-86360023D01*
X131539855Y-86391546D01*
X131556575Y-86410842D01*
X131686500Y-86596395D01*
X131686505Y-86596401D01*
X131853599Y-86763495D01*
X131950384Y-86831265D01*
X132047165Y-86899032D01*
X132047167Y-86899033D01*
X132047170Y-86899035D01*
X132261337Y-86998903D01*
X132489592Y-87060063D01*
X132666034Y-87075500D01*
X132724999Y-87080659D01*
X132725000Y-87080659D01*
X132725001Y-87080659D01*
X132783966Y-87075500D01*
X132960408Y-87060063D01*
X133188663Y-86998903D01*
X133402830Y-86899035D01*
X133596401Y-86763495D01*
X133763495Y-86596401D01*
X133893425Y-86410842D01*
X133948002Y-86367217D01*
X134017500Y-86360023D01*
X134079855Y-86391546D01*
X134096575Y-86410842D01*
X134226500Y-86596395D01*
X134226505Y-86596401D01*
X134393599Y-86763495D01*
X134490384Y-86831265D01*
X134587165Y-86899032D01*
X134587167Y-86899033D01*
X134587170Y-86899035D01*
X134801337Y-86998903D01*
X135029592Y-87060063D01*
X135206034Y-87075500D01*
X135264999Y-87080659D01*
X135265000Y-87080659D01*
X135265001Y-87080659D01*
X135323966Y-87075500D01*
X135500408Y-87060063D01*
X135728663Y-86998903D01*
X135942830Y-86899035D01*
X136136401Y-86763495D01*
X136303495Y-86596401D01*
X136433425Y-86410842D01*
X136488002Y-86367217D01*
X136557500Y-86360023D01*
X136619855Y-86391546D01*
X136636575Y-86410842D01*
X136766500Y-86596395D01*
X136766505Y-86596401D01*
X136933599Y-86763495D01*
X137030384Y-86831265D01*
X137127165Y-86899032D01*
X137127167Y-86899033D01*
X137127170Y-86899035D01*
X137341337Y-86998903D01*
X137569592Y-87060063D01*
X137746034Y-87075500D01*
X137804999Y-87080659D01*
X137805000Y-87080659D01*
X137805001Y-87080659D01*
X137863966Y-87075500D01*
X138040408Y-87060063D01*
X138268663Y-86998903D01*
X138482830Y-86899035D01*
X138676401Y-86763495D01*
X138843495Y-86596401D01*
X138973425Y-86410842D01*
X139028002Y-86367217D01*
X139097500Y-86360023D01*
X139159855Y-86391546D01*
X139176575Y-86410842D01*
X139306500Y-86596395D01*
X139306505Y-86596401D01*
X139473599Y-86763495D01*
X139570384Y-86831265D01*
X139667165Y-86899032D01*
X139667167Y-86899033D01*
X139667170Y-86899035D01*
X139881337Y-86998903D01*
X140109592Y-87060063D01*
X140286034Y-87075500D01*
X140344999Y-87080659D01*
X140345000Y-87080659D01*
X140345001Y-87080659D01*
X140403966Y-87075500D01*
X140580408Y-87060063D01*
X140808663Y-86998903D01*
X141022830Y-86899035D01*
X141216401Y-86763495D01*
X141383495Y-86596401D01*
X141513425Y-86410842D01*
X141568002Y-86367217D01*
X141637500Y-86360023D01*
X141699855Y-86391546D01*
X141716575Y-86410842D01*
X141846500Y-86596395D01*
X141846505Y-86596401D01*
X142013599Y-86763495D01*
X142110384Y-86831265D01*
X142207165Y-86899032D01*
X142207167Y-86899033D01*
X142207170Y-86899035D01*
X142421337Y-86998903D01*
X142649592Y-87060063D01*
X142826034Y-87075500D01*
X142884999Y-87080659D01*
X142885000Y-87080659D01*
X142885001Y-87080659D01*
X142943966Y-87075500D01*
X143120408Y-87060063D01*
X143348663Y-86998903D01*
X143562830Y-86899035D01*
X143756401Y-86763495D01*
X143923495Y-86596401D01*
X144053730Y-86410405D01*
X144108307Y-86366781D01*
X144177805Y-86359587D01*
X144240160Y-86391110D01*
X144256879Y-86410405D01*
X144386890Y-86596078D01*
X144553917Y-86763105D01*
X144747421Y-86898600D01*
X144961507Y-86998429D01*
X144961516Y-86998433D01*
X145175000Y-87055634D01*
X145175000Y-86158012D01*
X145232007Y-86190925D01*
X145359174Y-86225000D01*
X145490826Y-86225000D01*
X145617993Y-86190925D01*
X145675000Y-86158012D01*
X145675000Y-87055633D01*
X145888483Y-86998433D01*
X145888492Y-86998429D01*
X146102578Y-86898600D01*
X146296082Y-86763105D01*
X146463105Y-86596082D01*
X146593119Y-86410405D01*
X146647696Y-86366781D01*
X146717195Y-86359588D01*
X146779549Y-86391110D01*
X146796269Y-86410405D01*
X146926505Y-86596401D01*
X147093599Y-86763495D01*
X147190384Y-86831265D01*
X147287165Y-86899032D01*
X147287167Y-86899033D01*
X147287170Y-86899035D01*
X147501337Y-86998903D01*
X147729592Y-87060063D01*
X147906034Y-87075500D01*
X147964999Y-87080659D01*
X147965000Y-87080659D01*
X147965001Y-87080659D01*
X148023966Y-87075500D01*
X148200408Y-87060063D01*
X148428663Y-86998903D01*
X148642830Y-86899035D01*
X148836401Y-86763495D01*
X149003495Y-86596401D01*
X149139035Y-86402830D01*
X149238903Y-86188663D01*
X149300063Y-85960408D01*
X149320659Y-85725000D01*
X149318753Y-85703220D01*
X149300063Y-85489596D01*
X149300063Y-85489592D01*
X149258256Y-85333564D01*
X150285947Y-85333564D01*
X150286685Y-85337750D01*
X150287507Y-85343096D01*
X150291778Y-85375539D01*
X150292367Y-85380916D01*
X150316759Y-85659713D01*
X150317113Y-85665110D01*
X150318541Y-85697810D01*
X150318659Y-85703220D01*
X150318659Y-85746780D01*
X150318541Y-85752190D01*
X150317113Y-85784890D01*
X150316759Y-85790287D01*
X150292367Y-86069084D01*
X150291778Y-86074461D01*
X150287507Y-86106904D01*
X150286684Y-86112252D01*
X150285947Y-86116431D01*
X150285947Y-86511271D01*
X151322000Y-86511220D01*
X151322000Y-85774454D01*
X151331439Y-85727002D01*
X151332268Y-85725000D01*
X151331439Y-85722998D01*
X151322000Y-85675546D01*
X151322000Y-85152768D01*
X150285947Y-85152768D01*
X150285947Y-85333564D01*
X149258256Y-85333564D01*
X149247884Y-85294854D01*
X149238905Y-85261344D01*
X149238904Y-85261343D01*
X149238903Y-85261337D01*
X149139035Y-85047171D01*
X149133731Y-85039595D01*
X149003494Y-84853597D01*
X148836402Y-84686506D01*
X148836395Y-84686501D01*
X148642834Y-84550967D01*
X148642830Y-84550965D01*
X148571727Y-84517809D01*
X148428663Y-84451097D01*
X148428659Y-84451096D01*
X148428655Y-84451094D01*
X148200413Y-84389938D01*
X148200403Y-84389936D01*
X147965001Y-84369341D01*
X147964999Y-84369341D01*
X147729596Y-84389936D01*
X147729586Y-84389938D01*
X147501344Y-84451094D01*
X147501335Y-84451098D01*
X147287171Y-84550964D01*
X147287169Y-84550965D01*
X147093597Y-84686505D01*
X146926508Y-84853594D01*
X146796269Y-85039595D01*
X146741692Y-85083219D01*
X146672193Y-85090412D01*
X146609839Y-85058890D01*
X146593119Y-85039594D01*
X146463113Y-84853926D01*
X146463108Y-84853920D01*
X146296082Y-84686894D01*
X146102578Y-84551399D01*
X145888492Y-84451570D01*
X145888486Y-84451567D01*
X145675000Y-84394364D01*
X145675000Y-85291988D01*
X145617993Y-85259075D01*
X145490826Y-85225000D01*
X145359174Y-85225000D01*
X145232007Y-85259075D01*
X145175000Y-85291988D01*
X145175000Y-84394364D01*
X145174999Y-84394364D01*
X144961513Y-84451567D01*
X144961507Y-84451570D01*
X144747422Y-84551399D01*
X144747420Y-84551400D01*
X144553926Y-84686886D01*
X144553920Y-84686891D01*
X144386891Y-84853920D01*
X144386890Y-84853922D01*
X144256880Y-85039595D01*
X144202303Y-85083219D01*
X144132804Y-85090412D01*
X144070450Y-85058890D01*
X144053730Y-85039594D01*
X143923494Y-84853597D01*
X143756402Y-84686506D01*
X143756395Y-84686501D01*
X143562834Y-84550967D01*
X143562830Y-84550965D01*
X143491727Y-84517809D01*
X143348663Y-84451097D01*
X143348659Y-84451096D01*
X143348655Y-84451094D01*
X143120413Y-84389938D01*
X143120403Y-84389936D01*
X142885001Y-84369341D01*
X142884999Y-84369341D01*
X142649596Y-84389936D01*
X142649586Y-84389938D01*
X142421344Y-84451094D01*
X142421335Y-84451098D01*
X142207171Y-84550964D01*
X142207169Y-84550965D01*
X142013597Y-84686505D01*
X141846505Y-84853597D01*
X141716575Y-85039158D01*
X141661998Y-85082783D01*
X141592500Y-85089977D01*
X141530145Y-85058454D01*
X141513425Y-85039158D01*
X141383494Y-84853597D01*
X141216402Y-84686506D01*
X141216395Y-84686501D01*
X141022834Y-84550967D01*
X141022830Y-84550965D01*
X140951727Y-84517809D01*
X140808663Y-84451097D01*
X140808659Y-84451096D01*
X140808655Y-84451094D01*
X140580413Y-84389938D01*
X140580403Y-84389936D01*
X140345001Y-84369341D01*
X140344999Y-84369341D01*
X140109596Y-84389936D01*
X140109586Y-84389938D01*
X139881344Y-84451094D01*
X139881335Y-84451098D01*
X139667171Y-84550964D01*
X139667169Y-84550965D01*
X139473597Y-84686505D01*
X139306505Y-84853597D01*
X139176575Y-85039158D01*
X139121998Y-85082783D01*
X139052500Y-85089977D01*
X138990145Y-85058454D01*
X138973425Y-85039158D01*
X138843494Y-84853597D01*
X138676402Y-84686506D01*
X138676395Y-84686501D01*
X138482834Y-84550967D01*
X138482830Y-84550965D01*
X138411727Y-84517809D01*
X138268663Y-84451097D01*
X138268659Y-84451096D01*
X138268655Y-84451094D01*
X138040413Y-84389938D01*
X138040403Y-84389936D01*
X137805001Y-84369341D01*
X137804999Y-84369341D01*
X137569596Y-84389936D01*
X137569586Y-84389938D01*
X137341344Y-84451094D01*
X137341335Y-84451098D01*
X137127171Y-84550964D01*
X137127169Y-84550965D01*
X136933597Y-84686505D01*
X136766505Y-84853597D01*
X136636575Y-85039158D01*
X136581998Y-85082783D01*
X136512500Y-85089977D01*
X136450145Y-85058454D01*
X136433425Y-85039158D01*
X136303494Y-84853597D01*
X136136402Y-84686506D01*
X136136395Y-84686501D01*
X135942834Y-84550967D01*
X135942830Y-84550965D01*
X135871727Y-84517809D01*
X135728663Y-84451097D01*
X135728659Y-84451096D01*
X135728655Y-84451094D01*
X135500413Y-84389938D01*
X135500403Y-84389936D01*
X135265001Y-84369341D01*
X135264999Y-84369341D01*
X135029596Y-84389936D01*
X135029586Y-84389938D01*
X134801344Y-84451094D01*
X134801335Y-84451098D01*
X134587171Y-84550964D01*
X134587169Y-84550965D01*
X134393597Y-84686505D01*
X134226505Y-84853597D01*
X134096575Y-85039158D01*
X134041998Y-85082783D01*
X133972500Y-85089977D01*
X133910145Y-85058454D01*
X133893425Y-85039158D01*
X133763494Y-84853597D01*
X133596402Y-84686506D01*
X133596395Y-84686501D01*
X133402834Y-84550967D01*
X133402830Y-84550965D01*
X133331727Y-84517809D01*
X133188663Y-84451097D01*
X133188659Y-84451096D01*
X133188655Y-84451094D01*
X132960413Y-84389938D01*
X132960403Y-84389936D01*
X132725001Y-84369341D01*
X132724999Y-84369341D01*
X132489596Y-84389936D01*
X132489586Y-84389938D01*
X132261344Y-84451094D01*
X132261335Y-84451098D01*
X132047171Y-84550964D01*
X132047169Y-84550965D01*
X131853597Y-84686505D01*
X131686505Y-84853597D01*
X131556575Y-85039158D01*
X131501998Y-85082783D01*
X131432500Y-85089977D01*
X131370145Y-85058454D01*
X131353425Y-85039158D01*
X131223494Y-84853597D01*
X131056402Y-84686506D01*
X131056395Y-84686501D01*
X130862834Y-84550967D01*
X130862830Y-84550965D01*
X130791727Y-84517809D01*
X130648663Y-84451097D01*
X130648659Y-84451096D01*
X130648655Y-84451094D01*
X130420413Y-84389938D01*
X130420403Y-84389936D01*
X130185001Y-84369341D01*
X130184999Y-84369341D01*
X129949596Y-84389936D01*
X129949586Y-84389938D01*
X129721344Y-84451094D01*
X129721335Y-84451098D01*
X129507171Y-84550964D01*
X129507169Y-84550965D01*
X129313600Y-84686503D01*
X129191673Y-84808430D01*
X129130350Y-84841914D01*
X129060658Y-84836930D01*
X129004725Y-84795058D01*
X128987810Y-84764081D01*
X128938797Y-84632671D01*
X128938793Y-84632664D01*
X128852547Y-84517455D01*
X128852544Y-84517452D01*
X128737335Y-84431206D01*
X128737328Y-84431202D01*
X128602482Y-84380908D01*
X128602483Y-84380908D01*
X128542883Y-84374501D01*
X128542881Y-84374500D01*
X128542873Y-84374500D01*
X128542864Y-84374500D01*
X126747129Y-84374500D01*
X126747123Y-84374501D01*
X126687516Y-84380908D01*
X126552671Y-84431202D01*
X126552664Y-84431206D01*
X126437455Y-84517452D01*
X126437452Y-84517455D01*
X126351206Y-84632664D01*
X126351202Y-84632671D01*
X126300908Y-84767517D01*
X126294501Y-84827116D01*
X126294500Y-84827135D01*
X123308135Y-84827135D01*
X122586055Y-84105055D01*
X122552570Y-84043732D01*
X122549736Y-84017357D01*
X122549753Y-83891184D01*
X122549810Y-83477233D01*
X123547809Y-83477233D01*
X124225344Y-84154768D01*
X124287947Y-84154768D01*
X125285947Y-84154768D01*
X125475067Y-84154768D01*
X150285947Y-84154768D01*
X151500642Y-84154768D01*
X151517815Y-84123319D01*
X151522333Y-84115705D01*
X151551297Y-84070638D01*
X151556345Y-84063368D01*
X151685243Y-83891184D01*
X151690796Y-83884293D01*
X151725876Y-83843808D01*
X151731908Y-83837329D01*
X151782329Y-83786908D01*
X151787947Y-83781677D01*
X151787947Y-83564608D01*
X155285947Y-83564608D01*
X155344293Y-83537402D01*
X155349244Y-83535223D01*
X155379465Y-83522705D01*
X155384500Y-83520747D01*
X155425432Y-83505846D01*
X155430560Y-83504105D01*
X155461795Y-83494256D01*
X155466992Y-83492741D01*
X155737334Y-83420305D01*
X155742588Y-83419019D01*
X155774546Y-83411934D01*
X155779854Y-83410879D01*
X155822749Y-83403316D01*
X155828096Y-83402493D01*
X155860539Y-83398222D01*
X155865916Y-83397633D01*
X156144713Y-83373241D01*
X156150110Y-83372887D01*
X156182810Y-83371459D01*
X156188220Y-83371341D01*
X156231780Y-83371341D01*
X156237190Y-83371459D01*
X156269890Y-83372887D01*
X156275287Y-83373241D01*
X156554084Y-83397633D01*
X156559461Y-83398222D01*
X156591904Y-83402493D01*
X156597251Y-83403316D01*
X156640146Y-83410879D01*
X156645454Y-83411934D01*
X156677412Y-83419019D01*
X156682666Y-83420305D01*
X156787947Y-83448514D01*
X156787947Y-82652768D01*
X155285947Y-82652768D01*
X155285947Y-83564608D01*
X151787947Y-83564608D01*
X151787947Y-83377000D01*
X152785947Y-83377000D01*
X153620546Y-83377000D01*
X153667998Y-83386439D01*
X153670000Y-83387268D01*
X153672002Y-83386439D01*
X153719454Y-83377000D01*
X154287947Y-83377000D01*
X154287947Y-82652768D01*
X152785947Y-82652768D01*
X152785947Y-83377000D01*
X151787947Y-83377000D01*
X151787947Y-82652768D01*
X150285947Y-82652768D01*
X150285947Y-84154768D01*
X125475067Y-84154768D01*
X125492372Y-84123077D01*
X125496890Y-84115463D01*
X125525854Y-84070396D01*
X125530902Y-84063126D01*
X125659886Y-83890827D01*
X125665439Y-83883936D01*
X125700519Y-83843451D01*
X125706551Y-83836972D01*
X125756972Y-83786551D01*
X125763451Y-83780519D01*
X125803936Y-83745439D01*
X125810827Y-83739886D01*
X125983126Y-83610902D01*
X125990396Y-83605854D01*
X126035463Y-83576890D01*
X126043077Y-83572372D01*
X126105667Y-83538195D01*
X126113581Y-83534233D01*
X126162318Y-83511975D01*
X126170498Y-83508587D01*
X126367982Y-83434931D01*
X126375321Y-83432452D01*
X126420172Y-83418847D01*
X126427648Y-83416832D01*
X126488363Y-83402484D01*
X126495955Y-83400939D01*
X126542160Y-83393028D01*
X126549833Y-83391959D01*
X126653755Y-83380788D01*
X126657064Y-83380477D01*
X126677101Y-83378865D01*
X126680413Y-83378643D01*
X126707095Y-83377214D01*
X126710413Y-83377081D01*
X126730464Y-83376545D01*
X126733777Y-83376501D01*
X126787947Y-83376500D01*
X127785947Y-83376500D01*
X128556248Y-83376500D01*
X128559572Y-83376545D01*
X128579673Y-83377084D01*
X128582993Y-83377217D01*
X128609680Y-83378649D01*
X128612989Y-83378871D01*
X128632982Y-83380481D01*
X128636285Y-83380792D01*
X128740175Y-83391962D01*
X128747843Y-83393029D01*
X128794029Y-83400936D01*
X128801619Y-83402481D01*
X128862330Y-83416826D01*
X128869809Y-83418842D01*
X128914672Y-83432450D01*
X128922012Y-83434929D01*
X129119502Y-83508587D01*
X129127682Y-83511975D01*
X129176419Y-83534233D01*
X129184333Y-83538195D01*
X129245714Y-83571711D01*
X129287947Y-83552018D01*
X129287947Y-83376360D01*
X130285947Y-83376360D01*
X130529084Y-83397633D01*
X130534461Y-83398222D01*
X130566904Y-83402493D01*
X130572251Y-83403316D01*
X130615146Y-83410879D01*
X130620454Y-83411934D01*
X130652412Y-83419019D01*
X130657666Y-83420305D01*
X130928008Y-83492741D01*
X130933205Y-83494256D01*
X130964440Y-83504105D01*
X130969568Y-83505846D01*
X131010500Y-83520747D01*
X131015535Y-83522705D01*
X131045756Y-83535223D01*
X131050708Y-83537402D01*
X131304337Y-83655672D01*
X131309188Y-83658064D01*
X131338209Y-83673171D01*
X131342949Y-83675771D01*
X131380673Y-83697549D01*
X131385302Y-83700358D01*
X131412916Y-83717950D01*
X131417415Y-83720957D01*
X131454999Y-83747274D01*
X131492581Y-83720960D01*
X131497080Y-83717954D01*
X131524679Y-83700372D01*
X131529301Y-83697567D01*
X131567022Y-83675788D01*
X131571765Y-83673186D01*
X131600801Y-83658070D01*
X131605655Y-83655676D01*
X131787947Y-83570671D01*
X131787947Y-83372956D01*
X132785947Y-83372956D01*
X132790287Y-83373241D01*
X133069084Y-83397633D01*
X133074461Y-83398222D01*
X133106904Y-83402493D01*
X133112251Y-83403316D01*
X133155146Y-83410879D01*
X133160454Y-83411934D01*
X133192412Y-83419019D01*
X133197666Y-83420305D01*
X133468008Y-83492741D01*
X133473205Y-83494256D01*
X133504440Y-83504105D01*
X133509568Y-83505846D01*
X133550500Y-83520747D01*
X133555535Y-83522705D01*
X133585756Y-83535223D01*
X133590708Y-83537402D01*
X133844337Y-83655672D01*
X133849188Y-83658064D01*
X133878209Y-83673171D01*
X133882949Y-83675771D01*
X133920673Y-83697549D01*
X133925302Y-83700358D01*
X133952916Y-83717950D01*
X133957415Y-83720957D01*
X133994999Y-83747274D01*
X134032581Y-83720960D01*
X134037080Y-83717954D01*
X134064679Y-83700372D01*
X134069301Y-83697567D01*
X134107022Y-83675788D01*
X134111765Y-83673186D01*
X134140801Y-83658070D01*
X134145655Y-83655676D01*
X134287947Y-83589322D01*
X134287947Y-83371341D01*
X135285947Y-83371341D01*
X135286780Y-83371341D01*
X135292190Y-83371459D01*
X135324890Y-83372887D01*
X135330287Y-83373241D01*
X135609084Y-83397633D01*
X135614461Y-83398222D01*
X135646904Y-83402493D01*
X135652251Y-83403316D01*
X135695146Y-83410879D01*
X135700454Y-83411934D01*
X135732412Y-83419019D01*
X135737666Y-83420305D01*
X136008008Y-83492741D01*
X136013205Y-83494256D01*
X136044440Y-83504105D01*
X136049568Y-83505846D01*
X136090500Y-83520747D01*
X136095535Y-83522705D01*
X136125756Y-83535223D01*
X136130708Y-83537402D01*
X136384337Y-83655672D01*
X136389188Y-83658064D01*
X136418209Y-83673171D01*
X136422949Y-83675771D01*
X136460673Y-83697549D01*
X136465302Y-83700358D01*
X136492916Y-83717950D01*
X136497415Y-83720957D01*
X136534999Y-83747274D01*
X136572581Y-83720960D01*
X136577080Y-83717954D01*
X136604679Y-83700372D01*
X136609301Y-83697567D01*
X136647022Y-83675788D01*
X136651765Y-83673186D01*
X136680801Y-83658070D01*
X136685655Y-83655676D01*
X136787947Y-83607975D01*
X136787947Y-83371341D01*
X137785947Y-83371341D01*
X137826780Y-83371341D01*
X137832190Y-83371459D01*
X137864890Y-83372887D01*
X137870287Y-83373241D01*
X138149084Y-83397633D01*
X138154461Y-83398222D01*
X138186904Y-83402493D01*
X138192251Y-83403316D01*
X138235146Y-83410879D01*
X138240454Y-83411934D01*
X138272412Y-83419019D01*
X138277666Y-83420305D01*
X138548008Y-83492741D01*
X138553205Y-83494256D01*
X138584440Y-83504105D01*
X138589568Y-83505846D01*
X138630500Y-83520747D01*
X138635535Y-83522705D01*
X138665756Y-83535223D01*
X138670708Y-83537402D01*
X138924337Y-83655672D01*
X138929188Y-83658064D01*
X138958209Y-83673171D01*
X138962949Y-83675771D01*
X139000673Y-83697549D01*
X139005302Y-83700358D01*
X139032916Y-83717950D01*
X139037415Y-83720957D01*
X139074999Y-83747274D01*
X139112581Y-83720960D01*
X139117080Y-83717954D01*
X139144679Y-83700372D01*
X139149301Y-83697567D01*
X139187022Y-83675788D01*
X139191765Y-83673186D01*
X139220801Y-83658070D01*
X139225654Y-83655676D01*
X139287947Y-83626627D01*
X139287947Y-83372850D01*
X140285947Y-83372850D01*
X140317810Y-83371459D01*
X140323220Y-83371341D01*
X140366780Y-83371341D01*
X140372190Y-83371459D01*
X140404890Y-83372887D01*
X140410287Y-83373241D01*
X140689084Y-83397633D01*
X140694461Y-83398222D01*
X140726904Y-83402493D01*
X140732251Y-83403316D01*
X140775146Y-83410879D01*
X140780454Y-83411934D01*
X140812412Y-83419019D01*
X140817666Y-83420305D01*
X141088008Y-83492741D01*
X141093205Y-83494256D01*
X141124440Y-83504105D01*
X141129568Y-83505846D01*
X141170500Y-83520747D01*
X141175535Y-83522705D01*
X141205756Y-83535223D01*
X141210708Y-83537402D01*
X141464337Y-83655672D01*
X141469188Y-83658064D01*
X141498209Y-83673171D01*
X141502949Y-83675771D01*
X141540673Y-83697549D01*
X141545302Y-83700358D01*
X141572916Y-83717950D01*
X141577415Y-83720957D01*
X141614999Y-83747274D01*
X141652581Y-83720960D01*
X141657080Y-83717954D01*
X141684679Y-83700372D01*
X141689301Y-83697567D01*
X141727022Y-83675788D01*
X141731765Y-83673186D01*
X141760801Y-83658070D01*
X141765655Y-83655676D01*
X141787947Y-83645280D01*
X141787947Y-83376195D01*
X142785947Y-83376195D01*
X142819713Y-83373241D01*
X142825110Y-83372887D01*
X142857810Y-83371459D01*
X142863220Y-83371341D01*
X142906780Y-83371341D01*
X142912190Y-83371459D01*
X142944890Y-83372887D01*
X142950287Y-83373241D01*
X143229084Y-83397633D01*
X143234461Y-83398222D01*
X143266904Y-83402493D01*
X143272251Y-83403316D01*
X143315146Y-83410879D01*
X143320454Y-83411934D01*
X143352412Y-83419019D01*
X143357666Y-83420305D01*
X143628008Y-83492741D01*
X143633205Y-83494256D01*
X143664440Y-83504105D01*
X143669568Y-83505846D01*
X143710500Y-83520747D01*
X143715535Y-83522705D01*
X143745756Y-83535223D01*
X143750708Y-83537402D01*
X144004337Y-83655672D01*
X144009188Y-83658064D01*
X144038209Y-83673171D01*
X144042949Y-83675771D01*
X144080673Y-83697549D01*
X144085302Y-83700358D01*
X144112916Y-83717950D01*
X144117414Y-83720956D01*
X144155436Y-83747579D01*
X144192831Y-83721396D01*
X144197328Y-83718391D01*
X144224927Y-83700808D01*
X144229550Y-83698002D01*
X144267272Y-83676222D01*
X144272020Y-83673618D01*
X144287947Y-83665327D01*
X144287947Y-83384342D01*
X145285947Y-83384342D01*
X145425000Y-83412002D01*
X145649033Y-83367439D01*
X145705318Y-83369281D01*
X146167840Y-83493214D01*
X146173038Y-83494729D01*
X146204271Y-83504578D01*
X146209395Y-83506318D01*
X146250326Y-83521218D01*
X146255364Y-83523178D01*
X146285584Y-83535696D01*
X146290535Y-83537874D01*
X146544086Y-83656107D01*
X146548937Y-83658499D01*
X146577958Y-83673606D01*
X146582700Y-83676208D01*
X146620424Y-83697987D01*
X146625048Y-83700792D01*
X146652664Y-83718384D01*
X146657166Y-83721392D01*
X146694564Y-83747578D01*
X146732581Y-83720960D01*
X146737080Y-83717954D01*
X146764679Y-83700372D01*
X146769301Y-83697567D01*
X146787947Y-83686801D01*
X146787947Y-83383194D01*
X147785947Y-83383194D01*
X147899713Y-83373241D01*
X147905110Y-83372887D01*
X147937810Y-83371459D01*
X147943220Y-83371341D01*
X147986780Y-83371341D01*
X147992190Y-83371459D01*
X148024890Y-83372887D01*
X148030287Y-83373241D01*
X148309084Y-83397633D01*
X148314461Y-83398222D01*
X148346904Y-83402493D01*
X148352251Y-83403316D01*
X148395146Y-83410879D01*
X148400454Y-83411934D01*
X148432412Y-83419019D01*
X148437666Y-83420305D01*
X148708008Y-83492741D01*
X148713205Y-83494256D01*
X148744440Y-83504105D01*
X148749568Y-83505846D01*
X148790500Y-83520747D01*
X148795535Y-83522705D01*
X148825756Y-83535223D01*
X148830708Y-83537402D01*
X149084337Y-83655672D01*
X149089188Y-83658064D01*
X149118209Y-83673171D01*
X149122949Y-83675771D01*
X149160673Y-83697549D01*
X149165302Y-83700358D01*
X149192916Y-83717950D01*
X149197415Y-83720956D01*
X149287947Y-83784347D01*
X149287947Y-82652768D01*
X147785947Y-82652768D01*
X147785947Y-83383194D01*
X146787947Y-83383194D01*
X146787947Y-82652768D01*
X145285947Y-82652768D01*
X145285947Y-83384342D01*
X144287947Y-83384342D01*
X144287947Y-82652768D01*
X142785947Y-82652768D01*
X142785947Y-83376195D01*
X141787947Y-83376195D01*
X141787947Y-82652768D01*
X140285947Y-82652768D01*
X140285947Y-83372850D01*
X139287947Y-83372850D01*
X139287947Y-82652768D01*
X137785947Y-82652768D01*
X137785947Y-83371341D01*
X136787947Y-83371341D01*
X136787947Y-82652768D01*
X135285947Y-82652768D01*
X135285947Y-83371341D01*
X134287947Y-83371341D01*
X134287947Y-82652768D01*
X132785947Y-82652768D01*
X132785947Y-83372956D01*
X131787947Y-83372956D01*
X131787947Y-82652768D01*
X130285947Y-82652768D01*
X130285947Y-83376360D01*
X129287947Y-83376360D01*
X129287947Y-82652768D01*
X127785947Y-82652768D01*
X127785947Y-83376500D01*
X126787947Y-83376500D01*
X126787947Y-82652768D01*
X125285947Y-82652768D01*
X125285947Y-84154768D01*
X124287947Y-84154768D01*
X124287947Y-82652768D01*
X123547924Y-82652768D01*
X123547809Y-83477233D01*
X122549810Y-83477233D01*
X122550061Y-81654768D01*
X123548061Y-81654768D01*
X124287947Y-81654768D01*
X125285947Y-81654768D01*
X126787947Y-81654768D01*
X127785947Y-81654768D01*
X129287947Y-81654768D01*
X132785947Y-81654768D01*
X134287947Y-81654768D01*
X135285947Y-81654768D01*
X136787947Y-81654768D01*
X137785947Y-81654768D01*
X139287947Y-81654768D01*
X140285947Y-81654768D01*
X141787947Y-81654768D01*
X141787947Y-80703205D01*
X145285947Y-80703205D01*
X145303562Y-80738582D01*
X145311827Y-80759919D01*
X145372687Y-80973822D01*
X145376892Y-80996315D01*
X145397412Y-81217759D01*
X145397412Y-81240641D01*
X145376892Y-81462085D01*
X145372687Y-81484578D01*
X145324264Y-81654768D01*
X146787947Y-81654768D01*
X147785947Y-81654768D01*
X149287947Y-81654768D01*
X150285947Y-81654768D01*
X151787947Y-81654768D01*
X152785947Y-81654768D01*
X154287947Y-81654768D01*
X155285947Y-81654768D01*
X156700398Y-81654768D01*
X155285947Y-80240317D01*
X155285947Y-81654768D01*
X154287947Y-81654768D01*
X154287947Y-80152768D01*
X152785947Y-80152768D01*
X152785947Y-81654768D01*
X151787947Y-81654768D01*
X151787947Y-80152768D01*
X150285947Y-80152768D01*
X150285947Y-81654768D01*
X149287947Y-81654768D01*
X149287947Y-80152768D01*
X147785947Y-80152768D01*
X147785947Y-81654768D01*
X146787947Y-81654768D01*
X146787947Y-80152768D01*
X145285947Y-80152768D01*
X145285947Y-80703205D01*
X141787947Y-80703205D01*
X141787947Y-80152768D01*
X140285947Y-80152768D01*
X140285947Y-81654768D01*
X139287947Y-81654768D01*
X139287947Y-80152768D01*
X137785947Y-80152768D01*
X137785947Y-81654768D01*
X136787947Y-81654768D01*
X136787947Y-80152768D01*
X135285947Y-80152768D01*
X135285947Y-81654768D01*
X134287947Y-81654768D01*
X134287947Y-80152768D01*
X132785947Y-80152768D01*
X132785947Y-81654768D01*
X129287947Y-81654768D01*
X129287947Y-80152768D01*
X127785947Y-80152768D01*
X127785947Y-81654768D01*
X126787947Y-81654768D01*
X126787947Y-80152768D01*
X125285947Y-80152768D01*
X125285947Y-81654768D01*
X124287947Y-81654768D01*
X124287947Y-80152768D01*
X123548268Y-80152768D01*
X123548061Y-81654768D01*
X122550061Y-81654768D01*
X122550406Y-79154768D01*
X123548406Y-79154768D01*
X124287947Y-79154768D01*
X125285947Y-79154768D01*
X126787947Y-79154768D01*
X127785947Y-79154768D01*
X129287947Y-79154768D01*
X130285947Y-79154768D01*
X131787947Y-79154768D01*
X132785947Y-79154768D01*
X134287947Y-79154768D01*
X135285947Y-79154768D01*
X136787947Y-79154768D01*
X137785947Y-79154768D01*
X139287947Y-79154768D01*
X140285947Y-79154768D01*
X141787947Y-79154768D01*
X142785947Y-79154768D01*
X144287947Y-79154768D01*
X145285947Y-79154768D01*
X146787947Y-79154768D01*
X147785947Y-79154768D01*
X149287947Y-79154768D01*
X149287947Y-78860500D01*
X150285947Y-78860500D01*
X150285947Y-79154768D01*
X151787947Y-79154768D01*
X151787947Y-78751181D01*
X151784836Y-78746391D01*
X151781443Y-78740854D01*
X151660663Y-78531654D01*
X151657568Y-78525953D01*
X151639745Y-78490976D01*
X151636951Y-78485119D01*
X151615686Y-78437364D01*
X151613201Y-78431365D01*
X151604476Y-78408639D01*
X151586779Y-78422971D01*
X151581626Y-78426924D01*
X151386187Y-78568918D01*
X151380834Y-78572597D01*
X151347877Y-78593998D01*
X151342342Y-78597390D01*
X151297070Y-78623526D01*
X151291364Y-78626624D01*
X151256383Y-78644446D01*
X151250528Y-78647238D01*
X151029849Y-78745493D01*
X151023852Y-78747977D01*
X150987171Y-78762058D01*
X150981046Y-78764227D01*
X150931326Y-78780380D01*
X150925105Y-78782223D01*
X150887172Y-78792387D01*
X150880860Y-78793902D01*
X150644580Y-78844124D01*
X150638197Y-78845307D01*
X150599418Y-78851449D01*
X150592988Y-78852296D01*
X150541000Y-78857763D01*
X150534523Y-78858273D01*
X150495283Y-78860330D01*
X150488792Y-78860500D01*
X150285947Y-78860500D01*
X149287947Y-78860500D01*
X149287947Y-78523970D01*
X149265236Y-78507470D01*
X149236141Y-78497060D01*
X149230463Y-78494870D01*
X149091336Y-78437241D01*
X149091336Y-78437240D01*
X149071385Y-78428978D01*
X149071357Y-78428964D01*
X148930130Y-78370467D01*
X148875726Y-78326626D01*
X148874479Y-78324796D01*
X148862327Y-78306609D01*
X148798634Y-78264051D01*
X148793657Y-78260547D01*
X148764085Y-78238615D01*
X148759287Y-78234870D01*
X148721405Y-78203781D01*
X148716798Y-78199807D01*
X148689511Y-78175076D01*
X148685102Y-78170878D01*
X148166993Y-77652768D01*
X147785947Y-77652768D01*
X147785947Y-79154768D01*
X146787947Y-79154768D01*
X146787947Y-77652768D01*
X145285947Y-77652768D01*
X145285947Y-79154768D01*
X144287947Y-79154768D01*
X144287947Y-77652768D01*
X142785947Y-77652768D01*
X142785947Y-79154768D01*
X141787947Y-79154768D01*
X141787947Y-77652768D01*
X140285947Y-77652768D01*
X140285947Y-79154768D01*
X139287947Y-79154768D01*
X139287947Y-77652768D01*
X137785947Y-77652768D01*
X137785947Y-79154768D01*
X136787947Y-79154768D01*
X136787947Y-77652768D01*
X135285947Y-77652768D01*
X135285947Y-79154768D01*
X134287947Y-79154768D01*
X134287947Y-77652768D01*
X132785947Y-77652768D01*
X132785947Y-79154768D01*
X131787947Y-79154768D01*
X131787947Y-77652768D01*
X130285947Y-77652768D01*
X130285947Y-79154768D01*
X129287947Y-79154768D01*
X129287947Y-77652768D01*
X127785947Y-77652768D01*
X127785947Y-79154768D01*
X126787947Y-79154768D01*
X126787947Y-77652768D01*
X125285947Y-77652768D01*
X125285947Y-79154768D01*
X124287947Y-79154768D01*
X124287947Y-77652768D01*
X123548613Y-77652768D01*
X123548406Y-79154768D01*
X122550406Y-79154768D01*
X122550751Y-76654768D01*
X123548751Y-76654768D01*
X124287947Y-76654768D01*
X125285947Y-76654768D01*
X126787947Y-76654768D01*
X127785947Y-76654768D01*
X129287947Y-76654768D01*
X130285947Y-76654768D01*
X131787947Y-76654768D01*
X131787947Y-75542628D01*
X132785947Y-75542628D01*
X132785947Y-76654768D01*
X134287947Y-76654768D01*
X135285947Y-76654768D01*
X136787947Y-76654768D01*
X137785947Y-76654768D01*
X139287947Y-76654768D01*
X140285947Y-76654768D01*
X141388677Y-76654768D01*
X141315464Y-76527958D01*
X141312369Y-76522257D01*
X141294546Y-76487280D01*
X141291752Y-76481423D01*
X141270487Y-76433668D01*
X141268002Y-76427669D01*
X141253917Y-76390980D01*
X141251748Y-76384856D01*
X141177094Y-76155095D01*
X141175250Y-76148869D01*
X141165081Y-76110916D01*
X141163565Y-76104600D01*
X141152698Y-76053465D01*
X141151515Y-76047085D01*
X141145373Y-76008302D01*
X141144526Y-76001867D01*
X141119276Y-75761627D01*
X141118767Y-75755157D01*
X141116711Y-75715932D01*
X141116541Y-75709441D01*
X141116541Y-75657167D01*
X141116711Y-75650676D01*
X141118767Y-75611451D01*
X141119276Y-75604981D01*
X141144526Y-75364741D01*
X141145373Y-75358306D01*
X141151515Y-75319523D01*
X141152698Y-75313143D01*
X141163565Y-75262008D01*
X141165081Y-75255692D01*
X141175250Y-75217739D01*
X141177094Y-75211513D01*
X141196181Y-75152768D01*
X140285947Y-75152768D01*
X140285947Y-76654768D01*
X139287947Y-76654768D01*
X139287947Y-75152768D01*
X137785947Y-75152768D01*
X137785947Y-76654768D01*
X136787947Y-76654768D01*
X136787947Y-75152768D01*
X135285947Y-75152768D01*
X135285947Y-76654768D01*
X134287947Y-76654768D01*
X134287947Y-75152768D01*
X133727796Y-75152768D01*
X133682006Y-75190347D01*
X133677207Y-75194092D01*
X133647624Y-75216032D01*
X133642646Y-75219538D01*
X133601896Y-75246765D01*
X133596755Y-75250020D01*
X133565178Y-75268946D01*
X133559884Y-75271945D01*
X133351539Y-75383307D01*
X133346102Y-75386044D01*
X133312805Y-75401792D01*
X133307238Y-75404259D01*
X133261963Y-75423011D01*
X133256288Y-75425201D01*
X133221629Y-75437602D01*
X133215851Y-75439510D01*
X132989792Y-75508085D01*
X132983926Y-75509709D01*
X132948212Y-75518655D01*
X132942274Y-75519988D01*
X132894209Y-75529549D01*
X132888215Y-75530589D01*
X132851784Y-75535994D01*
X132845739Y-75536740D01*
X132785947Y-75542628D01*
X131787947Y-75542628D01*
X131787947Y-75412867D01*
X131767162Y-75404259D01*
X131761595Y-75401792D01*
X131728298Y-75386044D01*
X131722861Y-75383307D01*
X131514516Y-75271945D01*
X131509222Y-75268946D01*
X131477645Y-75250020D01*
X131472504Y-75246765D01*
X131431754Y-75219538D01*
X131426776Y-75216032D01*
X131397193Y-75194092D01*
X131392394Y-75190347D01*
X131346604Y-75152768D01*
X130285947Y-75152768D01*
X130285947Y-76654768D01*
X129287947Y-76654768D01*
X129287947Y-75152768D01*
X127785947Y-75152768D01*
X127785947Y-76654768D01*
X126787947Y-76654768D01*
X126787947Y-75152768D01*
X125285947Y-75152768D01*
X125285947Y-76654768D01*
X124287947Y-76654768D01*
X124287947Y-75152768D01*
X123548958Y-75152768D01*
X123548751Y-76654768D01*
X122550751Y-76654768D01*
X122551096Y-74154768D01*
X123549096Y-74154768D01*
X124287947Y-74154768D01*
X124287947Y-72832218D01*
X124235970Y-72842558D01*
X124179685Y-72840716D01*
X123717165Y-72716787D01*
X123711969Y-72715273D01*
X123680733Y-72705424D01*
X123675604Y-72703682D01*
X123634672Y-72688781D01*
X123634052Y-72688540D01*
X125285947Y-72688540D01*
X125285947Y-74154768D01*
X126787947Y-74154768D01*
X127785947Y-74154768D01*
X129287947Y-74154768D01*
X130285947Y-74154768D01*
X130666519Y-74154768D01*
X130638315Y-74061792D01*
X130636691Y-74055926D01*
X130627745Y-74020212D01*
X130626412Y-74014274D01*
X130616851Y-73966209D01*
X130615811Y-73960215D01*
X130610406Y-73923784D01*
X130609660Y-73917740D01*
X130586505Y-73682635D01*
X130586057Y-73676566D01*
X130584250Y-73639788D01*
X130584101Y-73633703D01*
X130584101Y-73584697D01*
X130584250Y-73578612D01*
X130586057Y-73541834D01*
X130586505Y-73535765D01*
X130609660Y-73300660D01*
X130610406Y-73294616D01*
X130615811Y-73258185D01*
X130616851Y-73252191D01*
X130626412Y-73204126D01*
X130627745Y-73198188D01*
X130636691Y-73162474D01*
X130638315Y-73156608D01*
X130706890Y-72930549D01*
X130708798Y-72924771D01*
X130721199Y-72890112D01*
X130723389Y-72884437D01*
X130742141Y-72839162D01*
X130744608Y-72833595D01*
X130760356Y-72800298D01*
X130763093Y-72794861D01*
X130838499Y-72653784D01*
X130837483Y-72652768D01*
X130285947Y-72652768D01*
X130285947Y-74154768D01*
X129287947Y-74154768D01*
X129287947Y-72652768D01*
X127785947Y-72652768D01*
X127785947Y-74154768D01*
X126787947Y-74154768D01*
X126787947Y-72652768D01*
X125367048Y-72652768D01*
X125325535Y-72672126D01*
X125320584Y-72674304D01*
X125290364Y-72686822D01*
X125285947Y-72688540D01*
X123634052Y-72688540D01*
X123629636Y-72686822D01*
X123599416Y-72674304D01*
X123594465Y-72672126D01*
X123552952Y-72652768D01*
X123549303Y-72652768D01*
X123549096Y-74154768D01*
X122551096Y-74154768D01*
X122552076Y-67047135D01*
X123109500Y-67047135D01*
X123109500Y-68842870D01*
X123109501Y-68842876D01*
X123115908Y-68902483D01*
X123166202Y-69037328D01*
X123166206Y-69037335D01*
X123252452Y-69152544D01*
X123252455Y-69152547D01*
X123367664Y-69238793D01*
X123367671Y-69238797D01*
X123378554Y-69242856D01*
X123499598Y-69288002D01*
X123555531Y-69329873D01*
X123579949Y-69395337D01*
X123565098Y-69463610D01*
X123543947Y-69491865D01*
X123421886Y-69613926D01*
X123286400Y-69807420D01*
X123286399Y-69807422D01*
X123186570Y-70021507D01*
X123186567Y-70021513D01*
X123129364Y-70234999D01*
X123129364Y-70235000D01*
X124026988Y-70235000D01*
X123994075Y-70292007D01*
X123960000Y-70419174D01*
X123960000Y-70550826D01*
X123994075Y-70677993D01*
X124026988Y-70735000D01*
X123129364Y-70735000D01*
X123186567Y-70948486D01*
X123186570Y-70948492D01*
X123286399Y-71162578D01*
X123421894Y-71356082D01*
X123588917Y-71523105D01*
X123782421Y-71658600D01*
X123996507Y-71758429D01*
X123996516Y-71758433D01*
X124210000Y-71815634D01*
X124210000Y-70918012D01*
X124267007Y-70950925D01*
X124394174Y-70985000D01*
X124525826Y-70985000D01*
X124652993Y-70950925D01*
X124710000Y-70918012D01*
X124710000Y-71815633D01*
X124923483Y-71758433D01*
X124923492Y-71758429D01*
X125137578Y-71658600D01*
X125143051Y-71654768D01*
X127785947Y-71654768D01*
X129287947Y-71654768D01*
X129287947Y-70964269D01*
X129265705Y-70738435D01*
X129265257Y-70732366D01*
X129263450Y-70695588D01*
X129263301Y-70689503D01*
X129263301Y-70665000D01*
X130261301Y-70665000D01*
X130279652Y-70851331D01*
X130279653Y-70851333D01*
X130334004Y-71030502D01*
X130422262Y-71195623D01*
X130422264Y-71195626D01*
X130541042Y-71340357D01*
X130685773Y-71459135D01*
X130685776Y-71459137D01*
X130787899Y-71513722D01*
X130850899Y-71547396D01*
X131030069Y-71601747D01*
X131172021Y-71615727D01*
X131236808Y-71641887D01*
X131247548Y-71651449D01*
X131825381Y-72229282D01*
X131858866Y-72290605D01*
X131861700Y-72316963D01*
X131861700Y-72889649D01*
X131842015Y-72956688D01*
X131833553Y-72968314D01*
X131743064Y-73078573D01*
X131743062Y-73078576D01*
X131654804Y-73243697D01*
X131600453Y-73422866D01*
X131600452Y-73422868D01*
X131582101Y-73609200D01*
X131600452Y-73795531D01*
X131600453Y-73795533D01*
X131654804Y-73974702D01*
X131743062Y-74139823D01*
X131743064Y-74139826D01*
X131861842Y-74284557D01*
X132006573Y-74403335D01*
X132006576Y-74403337D01*
X132171697Y-74491595D01*
X132171699Y-74491596D01*
X132350866Y-74545946D01*
X132350868Y-74545947D01*
X132367574Y-74547592D01*
X132537200Y-74564299D01*
X132723531Y-74545947D01*
X132902701Y-74491596D01*
X133067825Y-74403336D01*
X133212557Y-74284557D01*
X133319073Y-74154768D01*
X135285947Y-74154768D01*
X136787947Y-74154768D01*
X137785947Y-74154768D01*
X139287947Y-74154768D01*
X140285947Y-74154768D01*
X141083841Y-74154768D01*
X141077174Y-74149924D01*
X141072021Y-74145971D01*
X141041498Y-74121253D01*
X141036565Y-74117039D01*
X140997717Y-74082061D01*
X140993007Y-74077591D01*
X140965231Y-74049815D01*
X140960762Y-74045106D01*
X140799123Y-73865588D01*
X140794908Y-73860654D01*
X140770194Y-73830136D01*
X140766243Y-73824987D01*
X140735514Y-73782695D01*
X140731835Y-73777342D01*
X140710436Y-73744391D01*
X140707043Y-73738854D01*
X140586263Y-73529654D01*
X140583168Y-73523953D01*
X140565345Y-73488976D01*
X140562551Y-73483119D01*
X140541286Y-73435364D01*
X140538801Y-73429365D01*
X140524716Y-73392676D01*
X140522547Y-73386552D01*
X140447893Y-73156791D01*
X140446049Y-73150565D01*
X140435880Y-73112612D01*
X140434364Y-73106296D01*
X140423497Y-73055161D01*
X140422314Y-73048781D01*
X140416172Y-73009998D01*
X140415325Y-73003563D01*
X140390075Y-72763323D01*
X140389566Y-72756853D01*
X140387510Y-72717628D01*
X140387340Y-72711137D01*
X140387340Y-72658863D01*
X140387500Y-72652768D01*
X140285947Y-72652768D01*
X140285947Y-74154768D01*
X139287947Y-74154768D01*
X139287947Y-72652768D01*
X137785947Y-72652768D01*
X137785947Y-74154768D01*
X136787947Y-74154768D01*
X136787947Y-72652768D01*
X135285947Y-72652768D01*
X135285947Y-74154768D01*
X133319073Y-74154768D01*
X133331336Y-74139825D01*
X133419596Y-73974701D01*
X133473947Y-73795531D01*
X133492299Y-73609200D01*
X133473947Y-73422869D01*
X133419596Y-73243699D01*
X133405440Y-73217214D01*
X133331337Y-73078576D01*
X133331335Y-73078573D01*
X133240847Y-72968314D01*
X133213534Y-72904004D01*
X133212700Y-72889649D01*
X133212700Y-71919266D01*
X133186741Y-71788769D01*
X133186740Y-71788768D01*
X133186740Y-71788764D01*
X133166371Y-71739588D01*
X133135823Y-71665838D01*
X133135822Y-71665837D01*
X133135820Y-71665831D01*
X133130988Y-71658600D01*
X133128428Y-71654768D01*
X135285947Y-71654768D01*
X136787947Y-71654768D01*
X137785947Y-71654768D01*
X139287947Y-71654768D01*
X139287947Y-71219500D01*
X137785947Y-71219500D01*
X137785947Y-71654768D01*
X136787947Y-71654768D01*
X136787947Y-71219500D01*
X135285947Y-71219500D01*
X135285947Y-71654768D01*
X133128428Y-71654768D01*
X133061898Y-71555198D01*
X133061897Y-71555197D01*
X133061895Y-71555194D01*
X132967806Y-71461105D01*
X132202849Y-70696148D01*
X132169364Y-70634825D01*
X132167127Y-70620620D01*
X132153147Y-70478669D01*
X132098796Y-70299499D01*
X132094925Y-70292256D01*
X132010537Y-70134376D01*
X132010535Y-70134373D01*
X131891757Y-69989642D01*
X131747026Y-69870864D01*
X131747023Y-69870862D01*
X131581902Y-69782604D01*
X131402733Y-69728253D01*
X131402731Y-69728252D01*
X131216400Y-69709901D01*
X131030068Y-69728252D01*
X131030066Y-69728253D01*
X130850897Y-69782604D01*
X130685776Y-69870862D01*
X130685773Y-69870864D01*
X130541042Y-69989642D01*
X130422264Y-70134373D01*
X130422262Y-70134376D01*
X130334004Y-70299497D01*
X130279653Y-70478666D01*
X130279652Y-70478668D01*
X130261301Y-70665000D01*
X129263301Y-70665000D01*
X129263301Y-70640497D01*
X129263450Y-70634412D01*
X129265257Y-70597634D01*
X129265705Y-70591565D01*
X129287947Y-70365729D01*
X129287947Y-70152768D01*
X127785947Y-70152768D01*
X127785947Y-71654768D01*
X125143051Y-71654768D01*
X125331082Y-71523105D01*
X125498105Y-71356082D01*
X125633600Y-71162578D01*
X125733429Y-70948492D01*
X125733432Y-70948486D01*
X125790636Y-70735000D01*
X124893012Y-70735000D01*
X124925925Y-70677993D01*
X124960000Y-70550826D01*
X124960000Y-70419174D01*
X124925925Y-70292007D01*
X124893012Y-70235000D01*
X125790636Y-70235000D01*
X125790635Y-70234999D01*
X125733432Y-70021513D01*
X125733429Y-70021507D01*
X125633600Y-69807422D01*
X125633599Y-69807420D01*
X125498113Y-69613926D01*
X125498108Y-69613920D01*
X125376053Y-69491865D01*
X125342568Y-69430542D01*
X125347552Y-69360850D01*
X125389424Y-69304917D01*
X125420400Y-69288002D01*
X125541446Y-69242856D01*
X125552326Y-69238798D01*
X125552326Y-69238797D01*
X125552331Y-69238796D01*
X125667546Y-69152546D01*
X125753796Y-69037331D01*
X125804091Y-68902483D01*
X125810500Y-68842873D01*
X125810500Y-68694500D01*
X125830185Y-68627461D01*
X125882989Y-68581706D01*
X125934500Y-68570500D01*
X131134548Y-68570500D01*
X131201587Y-68590185D01*
X131222229Y-68606819D01*
X132697263Y-70081855D01*
X132697267Y-70081858D01*
X132799708Y-70150308D01*
X132799715Y-70150312D01*
X132860643Y-70175549D01*
X132913548Y-70197463D01*
X132933597Y-70201451D01*
X132967196Y-70208134D01*
X133034392Y-70221501D01*
X133034394Y-70221501D01*
X133163721Y-70221501D01*
X133163741Y-70221500D01*
X141128249Y-70221500D01*
X141178685Y-70232221D01*
X141299792Y-70286142D01*
X141299797Y-70286144D01*
X141484954Y-70325500D01*
X141484955Y-70325500D01*
X141674244Y-70325500D01*
X141674246Y-70325500D01*
X141859403Y-70286144D01*
X142032330Y-70209151D01*
X142185471Y-70097888D01*
X142312133Y-69957216D01*
X142406779Y-69793284D01*
X142465274Y-69613256D01*
X142474770Y-69522897D01*
X142501354Y-69458284D01*
X142510401Y-69448188D01*
X143224771Y-68733819D01*
X143286094Y-68700334D01*
X143312452Y-68697500D01*
X149364499Y-68697500D01*
X149431538Y-68717185D01*
X149477293Y-68769989D01*
X149488499Y-68821500D01*
X149488499Y-69629074D01*
X149479060Y-69676526D01*
X149461738Y-69718344D01*
X149461735Y-69718354D01*
X149454140Y-69756536D01*
X149454141Y-69756537D01*
X149439311Y-69831097D01*
X149439310Y-69831099D01*
X149437700Y-69839192D01*
X149437700Y-70276312D01*
X149418015Y-70343351D01*
X149405850Y-70359284D01*
X149330666Y-70442784D01*
X149236021Y-70606715D01*
X149236018Y-70606722D01*
X149190171Y-70747827D01*
X149177526Y-70786744D01*
X149157740Y-70975000D01*
X149177526Y-71163256D01*
X149177527Y-71163259D01*
X149220876Y-71296675D01*
X149222871Y-71366516D01*
X149186790Y-71426349D01*
X149124089Y-71457177D01*
X149054675Y-71449212D01*
X149015264Y-71422674D01*
X147810198Y-70217608D01*
X147810178Y-70217586D01*
X147718733Y-70126141D01*
X147667509Y-70091915D01*
X147652458Y-70081858D01*
X147616286Y-70057688D01*
X147616283Y-70057686D01*
X147616280Y-70057685D01*
X147535792Y-70024347D01*
X147502453Y-70010537D01*
X147492427Y-70008543D01*
X147442029Y-69998518D01*
X147381610Y-69986500D01*
X147381607Y-69986500D01*
X147381606Y-69986500D01*
X147261748Y-69986500D01*
X147194709Y-69966815D01*
X147169600Y-69945474D01*
X147163873Y-69939114D01*
X147163869Y-69939110D01*
X147010734Y-69827851D01*
X147010729Y-69827848D01*
X146837807Y-69750857D01*
X146837802Y-69750855D01*
X146684892Y-69718354D01*
X146652646Y-69711500D01*
X146463354Y-69711500D01*
X146431155Y-69718344D01*
X146278197Y-69750855D01*
X146278192Y-69750857D01*
X146105270Y-69827848D01*
X146105265Y-69827851D01*
X145952129Y-69939111D01*
X145825466Y-70079785D01*
X145730821Y-70243715D01*
X145730819Y-70243719D01*
X145686790Y-70379226D01*
X145647352Y-70436901D01*
X145582993Y-70464099D01*
X145514147Y-70452184D01*
X145481178Y-70428588D01*
X145447139Y-70394549D01*
X145413654Y-70333226D01*
X145411499Y-70293906D01*
X145411671Y-70292263D01*
X145411674Y-70292256D01*
X145431460Y-70104000D01*
X145411674Y-69915744D01*
X145353179Y-69735716D01*
X145258533Y-69571784D01*
X145131871Y-69431112D01*
X145131870Y-69431111D01*
X144978734Y-69319851D01*
X144978729Y-69319848D01*
X144805807Y-69242857D01*
X144805802Y-69242855D01*
X144660001Y-69211865D01*
X144620646Y-69203500D01*
X144431354Y-69203500D01*
X144398897Y-69210398D01*
X144246197Y-69242855D01*
X144246192Y-69242857D01*
X144073270Y-69319848D01*
X144073265Y-69319851D01*
X143920129Y-69431111D01*
X143793466Y-69571785D01*
X143698821Y-69735715D01*
X143698818Y-69735722D01*
X143640327Y-69915740D01*
X143640326Y-69915744D01*
X143620540Y-70104000D01*
X143640326Y-70292256D01*
X143640327Y-70292259D01*
X143698818Y-70472277D01*
X143698821Y-70472284D01*
X143793467Y-70636216D01*
X143880041Y-70732366D01*
X143920129Y-70776888D01*
X144039178Y-70863382D01*
X144081844Y-70918712D01*
X144087823Y-70988325D01*
X144055217Y-71050120D01*
X143994379Y-71084477D01*
X143924623Y-71080489D01*
X143915857Y-71076979D01*
X143789807Y-71020857D01*
X143789802Y-71020855D01*
X143621112Y-70985000D01*
X143604646Y-70981500D01*
X143415354Y-70981500D01*
X143398888Y-70985000D01*
X143230197Y-71020855D01*
X143230192Y-71020857D01*
X143057270Y-71097848D01*
X143057265Y-71097851D01*
X142904129Y-71209111D01*
X142777466Y-71349785D01*
X142682821Y-71513715D01*
X142682818Y-71513722D01*
X142624327Y-71693739D01*
X142624325Y-71693747D01*
X142624170Y-71695228D01*
X142623841Y-71696026D01*
X142622976Y-71700098D01*
X142622231Y-71699939D01*
X142597582Y-71759841D01*
X142540282Y-71799822D01*
X142475070Y-71803550D01*
X142385446Y-71784500D01*
X142196154Y-71784500D01*
X142176070Y-71788769D01*
X142010997Y-71823855D01*
X142010992Y-71823857D01*
X141838070Y-71900848D01*
X141838065Y-71900851D01*
X141684929Y-72012111D01*
X141558266Y-72152785D01*
X141463621Y-72316715D01*
X141463618Y-72316722D01*
X141411679Y-72476575D01*
X141405126Y-72496744D01*
X141385340Y-72685000D01*
X141405126Y-72873256D01*
X141405127Y-72873259D01*
X141463618Y-73053277D01*
X141463621Y-73053284D01*
X141558267Y-73217216D01*
X141628790Y-73295539D01*
X141684929Y-73357888D01*
X141838065Y-73469148D01*
X141838070Y-73469151D01*
X142010992Y-73546142D01*
X142010997Y-73546144D01*
X142196154Y-73585500D01*
X142255348Y-73585500D01*
X142322387Y-73605185D01*
X142343029Y-73621819D01*
X142358182Y-73636972D01*
X142391667Y-73698295D01*
X142394501Y-73724653D01*
X142394501Y-74984616D01*
X142374816Y-75051655D01*
X142362651Y-75067588D01*
X142287467Y-75151088D01*
X142192822Y-75315019D01*
X142192819Y-75315026D01*
X142134705Y-75493884D01*
X142134327Y-75495048D01*
X142114541Y-75683304D01*
X142134327Y-75871560D01*
X142134328Y-75871563D01*
X142192819Y-76051581D01*
X142192822Y-76051588D01*
X142287468Y-76215520D01*
X142396077Y-76336142D01*
X142414130Y-76356192D01*
X142567266Y-76467452D01*
X142567271Y-76467455D01*
X142740193Y-76544446D01*
X142740198Y-76544448D01*
X142925355Y-76583804D01*
X142925356Y-76583804D01*
X143114645Y-76583804D01*
X143114647Y-76583804D01*
X143299804Y-76544448D01*
X143472731Y-76467455D01*
X143625872Y-76356192D01*
X143752534Y-76215520D01*
X143762392Y-76198444D01*
X143812955Y-76150229D01*
X143881562Y-76137003D01*
X143946427Y-76162968D01*
X143977167Y-76198441D01*
X143996667Y-76232216D01*
X144123329Y-76372888D01*
X144276465Y-76484148D01*
X144276470Y-76484151D01*
X144449392Y-76561142D01*
X144449397Y-76561144D01*
X144634554Y-76600500D01*
X144634555Y-76600500D01*
X144823844Y-76600500D01*
X144823846Y-76600500D01*
X145009003Y-76561144D01*
X145181930Y-76484151D01*
X145335071Y-76372888D01*
X145461733Y-76232216D01*
X145556379Y-76068284D01*
X145614874Y-75888256D01*
X145634660Y-75700000D01*
X145614874Y-75511744D01*
X145556379Y-75331716D01*
X145461733Y-75167784D01*
X145431151Y-75133819D01*
X145386550Y-75084284D01*
X145356320Y-75021292D01*
X145354700Y-75001312D01*
X145354700Y-73132652D01*
X145374385Y-73065613D01*
X145427189Y-73019858D01*
X145496347Y-73009914D01*
X145559903Y-73038939D01*
X145566379Y-73044969D01*
X146510493Y-73989084D01*
X147453002Y-74931593D01*
X147486487Y-74992916D01*
X147481503Y-75062608D01*
X147472710Y-75081271D01*
X147458021Y-75106714D01*
X147402074Y-75278901D01*
X147399526Y-75286744D01*
X147379740Y-75475000D01*
X147399526Y-75663256D01*
X147399527Y-75663259D01*
X147458018Y-75843277D01*
X147458021Y-75843284D01*
X147552667Y-76007216D01*
X147669528Y-76137003D01*
X147679329Y-76147888D01*
X147832465Y-76259148D01*
X147832470Y-76259151D01*
X148005392Y-76336142D01*
X148005395Y-76336143D01*
X148005397Y-76336144D01*
X148190554Y-76375500D01*
X148249748Y-76375500D01*
X148316787Y-76395185D01*
X148337429Y-76411819D01*
X149373463Y-77447855D01*
X149373467Y-77447858D01*
X149475915Y-77516312D01*
X149522238Y-77535499D01*
X149522239Y-77535500D01*
X149522240Y-77535500D01*
X149589748Y-77563463D01*
X149609797Y-77567451D01*
X149680999Y-77581614D01*
X149742910Y-77613999D01*
X149748957Y-77620259D01*
X149762129Y-77634888D01*
X149762135Y-77634893D01*
X149915265Y-77746148D01*
X149915270Y-77746151D01*
X150088192Y-77823142D01*
X150088197Y-77823144D01*
X150273354Y-77862500D01*
X150273355Y-77862500D01*
X150462644Y-77862500D01*
X150462646Y-77862500D01*
X150647803Y-77823144D01*
X150820730Y-77746151D01*
X150973871Y-77634888D01*
X151100533Y-77494216D01*
X151195179Y-77330284D01*
X151253674Y-77150256D01*
X151273460Y-76962000D01*
X151253674Y-76773744D01*
X151195179Y-76593716D01*
X151100533Y-76429784D01*
X150973871Y-76289112D01*
X150973870Y-76289111D01*
X150820734Y-76177851D01*
X150820729Y-76177848D01*
X150647807Y-76100857D01*
X150647802Y-76100855D01*
X150494562Y-76068284D01*
X150462646Y-76061500D01*
X150273354Y-76061500D01*
X150241470Y-76068277D01*
X150088197Y-76100855D01*
X150088192Y-76100857D01*
X149963627Y-76156318D01*
X149894377Y-76165603D01*
X149831100Y-76135975D01*
X149825510Y-76130720D01*
X149541233Y-75846443D01*
X149224158Y-75529367D01*
X149190675Y-75468047D01*
X149188522Y-75454657D01*
X149186819Y-75438450D01*
X149199395Y-75369721D01*
X149247132Y-75318702D01*
X149310141Y-75301500D01*
X150766360Y-75301500D01*
X150833399Y-75321185D01*
X150879154Y-75373989D01*
X150889680Y-75438459D01*
X150885840Y-75475001D01*
X150905626Y-75663257D01*
X150905627Y-75663259D01*
X150905627Y-75663260D01*
X150964118Y-75843278D01*
X150964121Y-75843284D01*
X150964121Y-75843285D01*
X151058767Y-76007217D01*
X151152138Y-76110916D01*
X151185429Y-76147889D01*
X151338565Y-76259149D01*
X151338570Y-76259152D01*
X151511492Y-76336143D01*
X151511495Y-76336144D01*
X151511497Y-76336145D01*
X151696654Y-76375501D01*
X151755848Y-76375501D01*
X151822887Y-76395186D01*
X151843529Y-76411820D01*
X152500181Y-77068472D01*
X152533666Y-77129795D01*
X152536500Y-77156153D01*
X152536500Y-77303757D01*
X152530431Y-77342075D01*
X152488866Y-77470000D01*
X152479526Y-77498744D01*
X152459740Y-77687000D01*
X152479526Y-77875256D01*
X152479527Y-77875259D01*
X152538018Y-78055277D01*
X152538020Y-78055282D01*
X152538021Y-78055284D01*
X152632667Y-78219216D01*
X152727732Y-78324796D01*
X152759329Y-78359888D01*
X152912465Y-78471148D01*
X152912470Y-78471151D01*
X153085392Y-78548142D01*
X153085397Y-78548144D01*
X153270554Y-78587500D01*
X153270555Y-78587500D01*
X153459844Y-78587500D01*
X153459846Y-78587500D01*
X153645003Y-78548144D01*
X153817930Y-78471151D01*
X153971071Y-78359888D01*
X154097733Y-78219216D01*
X154192379Y-78055284D01*
X154208306Y-78006264D01*
X154247741Y-77948592D01*
X154312099Y-77921393D01*
X154380945Y-77933305D01*
X154413917Y-77956903D01*
X158088181Y-81631167D01*
X158121666Y-81692490D01*
X158124500Y-81718848D01*
X158124500Y-84449773D01*
X158104815Y-84516812D01*
X158071623Y-84551348D01*
X157878597Y-84686505D01*
X157711505Y-84853597D01*
X157581575Y-85039158D01*
X157526998Y-85082783D01*
X157457500Y-85089977D01*
X157395145Y-85058454D01*
X157378425Y-85039158D01*
X157248494Y-84853597D01*
X157081402Y-84686506D01*
X157081395Y-84686501D01*
X156887834Y-84550967D01*
X156887830Y-84550965D01*
X156816727Y-84517809D01*
X156673663Y-84451097D01*
X156673659Y-84451096D01*
X156673655Y-84451094D01*
X156445413Y-84389938D01*
X156445403Y-84389936D01*
X156210001Y-84369341D01*
X156209999Y-84369341D01*
X155974596Y-84389936D01*
X155974586Y-84389938D01*
X155746344Y-84451094D01*
X155746335Y-84451098D01*
X155532171Y-84550964D01*
X155532169Y-84550965D01*
X155338600Y-84686503D01*
X155216284Y-84808819D01*
X155154961Y-84842303D01*
X155085269Y-84837319D01*
X155029336Y-84795447D01*
X155012421Y-84764470D01*
X154963354Y-84632913D01*
X154963350Y-84632906D01*
X154877190Y-84517812D01*
X154877187Y-84517809D01*
X154762093Y-84431649D01*
X154762086Y-84431645D01*
X154627379Y-84381403D01*
X154627372Y-84381401D01*
X154567844Y-84375000D01*
X153920000Y-84375000D01*
X153920000Y-85291988D01*
X153862993Y-85259075D01*
X153735826Y-85225000D01*
X153604174Y-85225000D01*
X153477007Y-85259075D01*
X153420000Y-85291988D01*
X153420000Y-84375000D01*
X152772155Y-84375000D01*
X152712627Y-84381401D01*
X152712620Y-84381403D01*
X152577913Y-84431645D01*
X152577906Y-84431649D01*
X152462812Y-84517809D01*
X152462809Y-84517812D01*
X152376649Y-84632906D01*
X152376645Y-84632913D01*
X152326403Y-84767620D01*
X152326401Y-84767627D01*
X152320000Y-84827155D01*
X152320000Y-85475000D01*
X153236988Y-85475000D01*
X153204075Y-85532007D01*
X153170000Y-85659174D01*
X153170000Y-85790826D01*
X153204075Y-85917993D01*
X153236988Y-85975000D01*
X152320000Y-85975000D01*
X152320000Y-86622844D01*
X152326401Y-86682372D01*
X152326403Y-86682379D01*
X152376645Y-86817086D01*
X152376649Y-86817093D01*
X152462809Y-86932187D01*
X152462812Y-86932190D01*
X152577906Y-87018350D01*
X152577913Y-87018354D01*
X152712620Y-87068596D01*
X152712627Y-87068598D01*
X152772155Y-87074999D01*
X152772172Y-87075000D01*
X153420000Y-87075000D01*
X153420000Y-86158012D01*
X153477007Y-86190925D01*
X153604174Y-86225000D01*
X153735826Y-86225000D01*
X153862993Y-86190925D01*
X153920000Y-86158012D01*
X153920000Y-87075000D01*
X154567828Y-87075000D01*
X154567844Y-87074999D01*
X154627372Y-87068598D01*
X154627379Y-87068596D01*
X154762086Y-87018354D01*
X154762093Y-87018350D01*
X154877187Y-86932190D01*
X154877190Y-86932187D01*
X154963350Y-86817093D01*
X154963354Y-86817086D01*
X155012422Y-86685529D01*
X155054293Y-86629595D01*
X155119757Y-86605178D01*
X155188030Y-86620030D01*
X155216285Y-86641181D01*
X155338599Y-86763495D01*
X155435384Y-86831265D01*
X155532165Y-86899032D01*
X155532167Y-86899033D01*
X155532170Y-86899035D01*
X155746337Y-86998903D01*
X155974592Y-87060063D01*
X156151034Y-87075500D01*
X156209999Y-87080659D01*
X156210000Y-87080659D01*
X156210001Y-87080659D01*
X156268966Y-87075500D01*
X156445408Y-87060063D01*
X156673663Y-86998903D01*
X156887830Y-86899035D01*
X157081401Y-86763495D01*
X157248495Y-86596401D01*
X157378425Y-86410842D01*
X157433002Y-86367217D01*
X157502500Y-86360023D01*
X157564855Y-86391546D01*
X157581575Y-86410842D01*
X157711500Y-86596395D01*
X157711505Y-86596401D01*
X157878599Y-86763495D01*
X157975384Y-86831265D01*
X158072165Y-86899032D01*
X158072167Y-86899033D01*
X158072170Y-86899035D01*
X158286337Y-86998903D01*
X158514592Y-87060063D01*
X158691034Y-87075500D01*
X158749999Y-87080659D01*
X158750000Y-87080659D01*
X158750001Y-87080659D01*
X158808966Y-87075500D01*
X158985408Y-87060063D01*
X159213663Y-86998903D01*
X159427830Y-86899035D01*
X159621401Y-86763495D01*
X159788495Y-86596401D01*
X159918425Y-86410842D01*
X159973002Y-86367217D01*
X160042500Y-86360023D01*
X160104855Y-86391546D01*
X160121575Y-86410842D01*
X160251500Y-86596395D01*
X160251505Y-86596401D01*
X160418599Y-86763495D01*
X160515384Y-86831265D01*
X160612165Y-86899032D01*
X160612167Y-86899033D01*
X160612170Y-86899035D01*
X160826337Y-86998903D01*
X161054592Y-87060063D01*
X161231034Y-87075500D01*
X161289999Y-87080659D01*
X161290000Y-87080659D01*
X161290001Y-87080659D01*
X161348966Y-87075500D01*
X161525408Y-87060063D01*
X161753663Y-86998903D01*
X161967830Y-86899035D01*
X162161401Y-86763495D01*
X162328495Y-86596401D01*
X162388573Y-86510601D01*
X163508777Y-86510601D01*
X163740833Y-86510589D01*
X164287947Y-85963476D01*
X164287947Y-85152768D01*
X163568017Y-85152768D01*
X163594695Y-85252334D01*
X163595981Y-85257588D01*
X163603066Y-85289546D01*
X163604121Y-85294854D01*
X163611684Y-85337749D01*
X163612507Y-85343096D01*
X163616778Y-85375539D01*
X163617367Y-85380916D01*
X163641759Y-85659713D01*
X163642113Y-85665110D01*
X163643541Y-85697810D01*
X163643659Y-85703220D01*
X163643659Y-85746780D01*
X163643541Y-85752190D01*
X163642113Y-85784890D01*
X163641759Y-85790287D01*
X163617367Y-86069084D01*
X163616778Y-86074461D01*
X163612507Y-86106904D01*
X163611684Y-86112251D01*
X163604121Y-86155146D01*
X163603066Y-86160454D01*
X163595981Y-86192412D01*
X163594695Y-86197666D01*
X163522259Y-86468008D01*
X163520744Y-86473205D01*
X163510895Y-86504440D01*
X163509154Y-86509568D01*
X163508777Y-86510601D01*
X162388573Y-86510601D01*
X162464035Y-86402830D01*
X162563903Y-86188663D01*
X162625063Y-85960408D01*
X162645659Y-85725000D01*
X162643753Y-85703220D01*
X162625063Y-85489596D01*
X162625063Y-85489592D01*
X162572884Y-85294854D01*
X162563905Y-85261344D01*
X162563904Y-85261343D01*
X162563903Y-85261337D01*
X162464035Y-85047171D01*
X162458731Y-85039595D01*
X162328494Y-84853597D01*
X162161402Y-84686506D01*
X162161401Y-84686505D01*
X162018284Y-84586293D01*
X161968376Y-84551347D01*
X161924751Y-84496770D01*
X161915500Y-84449772D01*
X161915500Y-83250393D01*
X161915499Y-83250389D01*
X161891464Y-83129555D01*
X161891463Y-83129548D01*
X161844311Y-83015714D01*
X161844310Y-83015713D01*
X161844307Y-83015707D01*
X161775859Y-82913268D01*
X161767470Y-82904879D01*
X161688733Y-82826142D01*
X161688732Y-82826141D01*
X161543714Y-82681123D01*
X162785947Y-82681123D01*
X162822872Y-82770269D01*
X162825063Y-82775948D01*
X162837468Y-82810619D01*
X162839377Y-82816398D01*
X162853603Y-82863296D01*
X162855225Y-82869159D01*
X162864173Y-82904879D01*
X162865507Y-82910819D01*
X162899105Y-83079731D01*
X162900146Y-83085728D01*
X162905549Y-83122154D01*
X162906294Y-83128195D01*
X162911097Y-83176964D01*
X162911545Y-83183035D01*
X162913351Y-83219810D01*
X162913500Y-83225892D01*
X162913500Y-84027219D01*
X163041049Y-84154768D01*
X164287947Y-84154768D01*
X165285947Y-84154768D01*
X166096656Y-84154768D01*
X166520573Y-83730851D01*
X166520573Y-82652768D01*
X165285947Y-82652768D01*
X165285947Y-84154768D01*
X164287947Y-84154768D01*
X164287947Y-82652768D01*
X162785947Y-82652768D01*
X162785947Y-82681123D01*
X161543714Y-82681123D01*
X159907195Y-81044605D01*
X162785947Y-81044605D01*
X162785947Y-81654768D01*
X164287947Y-81654768D01*
X165285947Y-81654768D01*
X166520573Y-81654768D01*
X166520573Y-80152768D01*
X165285947Y-80152768D01*
X165285947Y-81654768D01*
X164287947Y-81654768D01*
X164287947Y-80459517D01*
X164245638Y-80506506D01*
X164241169Y-80511215D01*
X164213393Y-80538991D01*
X164208683Y-80543461D01*
X164169835Y-80578439D01*
X164164902Y-80582653D01*
X164134379Y-80607371D01*
X164129226Y-80611324D01*
X163933787Y-80753318D01*
X163928434Y-80756997D01*
X163895477Y-80778398D01*
X163889942Y-80781790D01*
X163844670Y-80807926D01*
X163838964Y-80811024D01*
X163803983Y-80828846D01*
X163798128Y-80831638D01*
X163577449Y-80929893D01*
X163571452Y-80932377D01*
X163534771Y-80946458D01*
X163528646Y-80948627D01*
X163478926Y-80964780D01*
X163472705Y-80966623D01*
X163434772Y-80976787D01*
X163428460Y-80978302D01*
X163192180Y-81028524D01*
X163185797Y-81029707D01*
X163147018Y-81035849D01*
X163140588Y-81036696D01*
X163088600Y-81042163D01*
X163082123Y-81042673D01*
X163042883Y-81044730D01*
X163036392Y-81044900D01*
X162794808Y-81044900D01*
X162788317Y-81044730D01*
X162785947Y-81044605D01*
X159907195Y-81044605D01*
X158918520Y-80055930D01*
X158885036Y-79994608D01*
X158890020Y-79924916D01*
X158931892Y-79868983D01*
X158933228Y-79867997D01*
X159000271Y-79819288D01*
X159003188Y-79816047D01*
X159006000Y-79812926D01*
X159065487Y-79776279D01*
X159098148Y-79771900D01*
X162211852Y-79771900D01*
X162278891Y-79791585D01*
X162304000Y-79812926D01*
X162309726Y-79819285D01*
X162309730Y-79819289D01*
X162462865Y-79930548D01*
X162462870Y-79930551D01*
X162635792Y-80007542D01*
X162635797Y-80007544D01*
X162820954Y-80046900D01*
X162820955Y-80046900D01*
X163010244Y-80046900D01*
X163010246Y-80046900D01*
X163195403Y-80007544D01*
X163368330Y-79930551D01*
X163521471Y-79819288D01*
X163648133Y-79678616D01*
X163742779Y-79514684D01*
X163801274Y-79334656D01*
X163821060Y-79146400D01*
X163801274Y-78958144D01*
X163742779Y-78778116D01*
X163648133Y-78614184D01*
X163521471Y-78473512D01*
X163521470Y-78473511D01*
X163368334Y-78362251D01*
X163368329Y-78362248D01*
X163195407Y-78285257D01*
X163195402Y-78285255D01*
X163174393Y-78280790D01*
X163112911Y-78247598D01*
X163079135Y-78186435D01*
X163083787Y-78116720D01*
X163125392Y-78060588D01*
X163190739Y-78035859D01*
X163200174Y-78035500D01*
X163316607Y-78035500D01*
X163377029Y-78023481D01*
X163437452Y-78011463D01*
X163437455Y-78011461D01*
X163437458Y-78011461D01*
X163470787Y-77997654D01*
X163470786Y-77997654D01*
X163470792Y-77997652D01*
X163551286Y-77964312D01*
X163602509Y-77930084D01*
X163653733Y-77895858D01*
X163740858Y-77808733D01*
X163740858Y-77808731D01*
X163751066Y-77798524D01*
X163751067Y-77798521D01*
X164167661Y-77381928D01*
X164228983Y-77348444D01*
X164298675Y-77353428D01*
X164354608Y-77395300D01*
X164379025Y-77460764D01*
X164379341Y-77469610D01*
X164379341Y-77470000D01*
X164399936Y-77705403D01*
X164399938Y-77705413D01*
X164461094Y-77933655D01*
X164461096Y-77933659D01*
X164461097Y-77933663D01*
X164497375Y-78011461D01*
X164560965Y-78147830D01*
X164560967Y-78147834D01*
X164669281Y-78302521D01*
X164696505Y-78341401D01*
X164863599Y-78508495D01*
X164920221Y-78548142D01*
X165057165Y-78644032D01*
X165057167Y-78644033D01*
X165057170Y-78644035D01*
X165271337Y-78743903D01*
X165271343Y-78743904D01*
X165271344Y-78743905D01*
X165298499Y-78751181D01*
X165499592Y-78805063D01*
X165687918Y-78821539D01*
X165734999Y-78825659D01*
X165735000Y-78825659D01*
X165735001Y-78825659D01*
X165774234Y-78822226D01*
X165970408Y-78805063D01*
X166198663Y-78743903D01*
X166412830Y-78644035D01*
X166606401Y-78508495D01*
X166773495Y-78341401D01*
X166909035Y-78147830D01*
X167008903Y-77933663D01*
X167070063Y-77705408D01*
X167090659Y-77470000D01*
X167070063Y-77234592D01*
X167008903Y-77006337D01*
X166909035Y-76792171D01*
X166901680Y-76781666D01*
X166773494Y-76598597D01*
X166606402Y-76431506D01*
X166606396Y-76431501D01*
X166420842Y-76301575D01*
X166377217Y-76246998D01*
X166370023Y-76177500D01*
X166401546Y-76115145D01*
X166420842Y-76098425D01*
X166494163Y-76047085D01*
X166606401Y-75968495D01*
X166773495Y-75801401D01*
X166909035Y-75607830D01*
X167008903Y-75393663D01*
X167070063Y-75165408D01*
X167090659Y-74930000D01*
X167070063Y-74694592D01*
X167008903Y-74466337D01*
X166909035Y-74252171D01*
X166837442Y-74149924D01*
X166773494Y-74058597D01*
X166606402Y-73891506D01*
X166606396Y-73891501D01*
X166420842Y-73761575D01*
X166377217Y-73706998D01*
X166370023Y-73637500D01*
X166401546Y-73575145D01*
X166420842Y-73558425D01*
X166461931Y-73529654D01*
X166606401Y-73428495D01*
X166773495Y-73261401D01*
X166909035Y-73067830D01*
X167008903Y-72853663D01*
X167070063Y-72625408D01*
X167090659Y-72390000D01*
X167070063Y-72154592D01*
X167008903Y-71926337D01*
X166909035Y-71712171D01*
X166900581Y-71700098D01*
X166773496Y-71518600D01*
X166714031Y-71459135D01*
X166651179Y-71396283D01*
X166617696Y-71334963D01*
X166622680Y-71265271D01*
X166664551Y-71209337D01*
X166695529Y-71192422D01*
X166827086Y-71143354D01*
X166827093Y-71143350D01*
X166942187Y-71057190D01*
X166942190Y-71057187D01*
X167028350Y-70942093D01*
X167028354Y-70942086D01*
X167078596Y-70807379D01*
X167078598Y-70807372D01*
X167084999Y-70747844D01*
X167085000Y-70747827D01*
X167085000Y-70100000D01*
X166168012Y-70100000D01*
X166200925Y-70042993D01*
X166235000Y-69915826D01*
X166235000Y-69784174D01*
X166200925Y-69657007D01*
X166168012Y-69600000D01*
X167085000Y-69600000D01*
X167085000Y-68952172D01*
X167084999Y-68952155D01*
X167078598Y-68892627D01*
X167078596Y-68892620D01*
X167028354Y-68757913D01*
X167028350Y-68757906D01*
X166942190Y-68642812D01*
X166942187Y-68642809D01*
X166827093Y-68556649D01*
X166827086Y-68556645D01*
X166692379Y-68506403D01*
X166692372Y-68506401D01*
X166632844Y-68500000D01*
X165985000Y-68500000D01*
X165985000Y-69416988D01*
X165927993Y-69384075D01*
X165800826Y-69350000D01*
X165669174Y-69350000D01*
X165542007Y-69384075D01*
X165485000Y-69416988D01*
X165485000Y-68500000D01*
X164837155Y-68500000D01*
X164777627Y-68506401D01*
X164777620Y-68506403D01*
X164642913Y-68556645D01*
X164642906Y-68556649D01*
X164527812Y-68642809D01*
X164527809Y-68642812D01*
X164441649Y-68757906D01*
X164441645Y-68757913D01*
X164391403Y-68892620D01*
X164391401Y-68892627D01*
X164385000Y-68952155D01*
X164385000Y-69600000D01*
X165301988Y-69600000D01*
X165269075Y-69657007D01*
X165235000Y-69784174D01*
X165235000Y-69915826D01*
X165269075Y-70042993D01*
X165301988Y-70100000D01*
X164451663Y-70100000D01*
X164384624Y-70080315D01*
X164363982Y-70063681D01*
X161085609Y-66785307D01*
X161085605Y-66785304D01*
X160974975Y-66711383D01*
X160974965Y-66711378D01*
X160852036Y-66660459D01*
X160852028Y-66660457D01*
X160823428Y-66654768D01*
X162785947Y-66654768D01*
X164287947Y-66654768D01*
X165285947Y-66654768D01*
X166520573Y-66654768D01*
X166520573Y-65152768D01*
X165285947Y-65152768D01*
X165285947Y-66654768D01*
X164287947Y-66654768D01*
X164287947Y-65152768D01*
X162785947Y-65152768D01*
X162785947Y-66654768D01*
X160823428Y-66654768D01*
X160721535Y-66634500D01*
X160721531Y-66634500D01*
X155993500Y-66634500D01*
X155926461Y-66614815D01*
X155880706Y-66562011D01*
X155869500Y-66510500D01*
X155869500Y-66481466D01*
X155856537Y-66416301D01*
X155843541Y-66350964D01*
X155792620Y-66228031D01*
X155792618Y-66228028D01*
X155792616Y-66228024D01*
X155718695Y-66117394D01*
X155718692Y-66117390D01*
X155237802Y-65636500D01*
X157785947Y-65636500D01*
X159287947Y-65636500D01*
X160285947Y-65636500D01*
X160746033Y-65636500D01*
X160752115Y-65636649D01*
X160788890Y-65638455D01*
X160794961Y-65638903D01*
X160843731Y-65643706D01*
X160849774Y-65644451D01*
X160886201Y-65649855D01*
X160892196Y-65650896D01*
X161070772Y-65686417D01*
X161076709Y-65687750D01*
X161112437Y-65696699D01*
X161118307Y-65698323D01*
X161165203Y-65712550D01*
X161170980Y-65714459D01*
X161205643Y-65726862D01*
X161211321Y-65729052D01*
X161379522Y-65798724D01*
X161385084Y-65801189D01*
X161418363Y-65816928D01*
X161423799Y-65819665D01*
X161467020Y-65842766D01*
X161472316Y-65845766D01*
X161503908Y-65864701D01*
X161509052Y-65867958D01*
X161660438Y-65969111D01*
X161665414Y-65972616D01*
X161694987Y-65994549D01*
X161699784Y-65998292D01*
X161737667Y-66029381D01*
X161742275Y-66033356D01*
X161769562Y-66058087D01*
X161773971Y-66062285D01*
X161787947Y-66076261D01*
X161787947Y-65152768D01*
X160285947Y-65152768D01*
X160285947Y-65636500D01*
X159287947Y-65636500D01*
X159287947Y-65152768D01*
X157785947Y-65152768D01*
X157785947Y-65636500D01*
X155237802Y-65636500D01*
X153756070Y-64154768D01*
X155285947Y-64154768D01*
X156787947Y-64154768D01*
X157785947Y-64154768D01*
X159287947Y-64154768D01*
X160285947Y-64154768D01*
X161787947Y-64154768D01*
X162785947Y-64154768D01*
X164287947Y-64154768D01*
X165285947Y-64154768D01*
X166520573Y-64154768D01*
X166520573Y-63843149D01*
X165330192Y-62652768D01*
X165285947Y-62652768D01*
X165285947Y-64154768D01*
X164287947Y-64154768D01*
X164287947Y-62652768D01*
X162785947Y-62652768D01*
X162785947Y-64154768D01*
X161787947Y-64154768D01*
X161787947Y-62652768D01*
X160285947Y-62652768D01*
X160285947Y-64154768D01*
X159287947Y-64154768D01*
X159287947Y-62652768D01*
X157785947Y-62652768D01*
X157785947Y-64154768D01*
X156787947Y-64154768D01*
X156787947Y-62652768D01*
X155285947Y-62652768D01*
X155285947Y-64154768D01*
X153756070Y-64154768D01*
X152576609Y-62975307D01*
X152576605Y-62975304D01*
X152465975Y-62901383D01*
X152465965Y-62901378D01*
X152343036Y-62850459D01*
X152343028Y-62850457D01*
X152212535Y-62824500D01*
X152212531Y-62824500D01*
X149172390Y-62824500D01*
X149105351Y-62804815D01*
X149076538Y-62779166D01*
X149062155Y-62761640D01*
X148917426Y-62642864D01*
X148917423Y-62642862D01*
X148752302Y-62554604D01*
X148573133Y-62500253D01*
X148573131Y-62500252D01*
X148386800Y-62481901D01*
X148200468Y-62500252D01*
X148200466Y-62500253D01*
X148021297Y-62554604D01*
X147856176Y-62642862D01*
X147856173Y-62642864D01*
X147711442Y-62761642D01*
X147592664Y-62906373D01*
X147592662Y-62906376D01*
X147504404Y-63071497D01*
X147450053Y-63250666D01*
X147450052Y-63250668D01*
X147431701Y-63437000D01*
X147437940Y-63500346D01*
X147424921Y-63568992D01*
X147376856Y-63619702D01*
X147314537Y-63636500D01*
X146429099Y-63636500D01*
X146362060Y-63616815D01*
X146321712Y-63574500D01*
X146274534Y-63492785D01*
X146147870Y-63352111D01*
X145994734Y-63240851D01*
X145994729Y-63240848D01*
X145821807Y-63163857D01*
X145821802Y-63163855D01*
X145664681Y-63130459D01*
X145636646Y-63124500D01*
X145523456Y-63124500D01*
X145456417Y-63104815D01*
X145410662Y-63052011D01*
X145405525Y-63038818D01*
X145353181Y-62877722D01*
X145353180Y-62877721D01*
X145353179Y-62877716D01*
X145258533Y-62713784D01*
X145131871Y-62573112D01*
X145131870Y-62573111D01*
X144978734Y-62461851D01*
X144978729Y-62461848D01*
X144805807Y-62384857D01*
X144805802Y-62384855D01*
X144660001Y-62353865D01*
X144620646Y-62345500D01*
X144431354Y-62345500D01*
X144398897Y-62352398D01*
X144246197Y-62384855D01*
X144246192Y-62384857D01*
X144073270Y-62461848D01*
X144073265Y-62461851D01*
X143920130Y-62573110D01*
X143920126Y-62573114D01*
X143914400Y-62579474D01*
X143854913Y-62616121D01*
X143822252Y-62620500D01*
X139794148Y-62620500D01*
X139727109Y-62600815D01*
X139702000Y-62579474D01*
X139696273Y-62573114D01*
X139696269Y-62573110D01*
X139543134Y-62461851D01*
X139543129Y-62461848D01*
X139370207Y-62384857D01*
X139370202Y-62384855D01*
X139224401Y-62353865D01*
X139185046Y-62345500D01*
X138995754Y-62345500D01*
X138963297Y-62352398D01*
X138810597Y-62384855D01*
X138810592Y-62384857D01*
X138637670Y-62461848D01*
X138637665Y-62461851D01*
X138484529Y-62573111D01*
X138357866Y-62713785D01*
X138263221Y-62877715D01*
X138263218Y-62877722D01*
X138205375Y-63055746D01*
X138204726Y-63057744D01*
X138200488Y-63098063D01*
X138173904Y-63162677D01*
X138116606Y-63202661D01*
X138077168Y-63209100D01*
X137979754Y-63209100D01*
X137948139Y-63215820D01*
X137794597Y-63248455D01*
X137794592Y-63248457D01*
X137621670Y-63325448D01*
X137621665Y-63325451D01*
X137468529Y-63436711D01*
X137341866Y-63577385D01*
X137247221Y-63741315D01*
X137247218Y-63741322D01*
X137214133Y-63843149D01*
X137188726Y-63921344D01*
X137168940Y-64109600D01*
X137188726Y-64297856D01*
X137188727Y-64297859D01*
X137247218Y-64477877D01*
X137247221Y-64477884D01*
X137341867Y-64641816D01*
X137392352Y-64697885D01*
X137468529Y-64782488D01*
X137621665Y-64893748D01*
X137621670Y-64893751D01*
X137794592Y-64970742D01*
X137794597Y-64970744D01*
X137979754Y-65010100D01*
X137979755Y-65010100D01*
X138169044Y-65010100D01*
X138169046Y-65010100D01*
X138354203Y-64970744D01*
X138527130Y-64893751D01*
X138680271Y-64782488D01*
X138762172Y-64691527D01*
X138821659Y-64654879D01*
X138854322Y-64650500D01*
X144838252Y-64650500D01*
X144905291Y-64670185D01*
X144930400Y-64691526D01*
X144936126Y-64697885D01*
X144936130Y-64697889D01*
X145089265Y-64809148D01*
X145089270Y-64809151D01*
X145262192Y-64886142D01*
X145262197Y-64886144D01*
X145447354Y-64925500D01*
X145447355Y-64925500D01*
X145636644Y-64925500D01*
X145636646Y-64925500D01*
X145802669Y-64890210D01*
X145828450Y-64887501D01*
X145846721Y-64887501D01*
X145846741Y-64887500D01*
X149549548Y-64887500D01*
X149616587Y-64907185D01*
X149637229Y-64923819D01*
X150543242Y-65829832D01*
X150576727Y-65891155D01*
X150571743Y-65960847D01*
X150562949Y-65979512D01*
X150506020Y-66078117D01*
X150506018Y-66078122D01*
X150457310Y-66228031D01*
X150447526Y-66258144D01*
X150442297Y-66307900D01*
X150440092Y-66328876D01*
X150413507Y-66393491D01*
X150356209Y-66433475D01*
X150286390Y-66436135D01*
X150266335Y-66429193D01*
X150185953Y-66393404D01*
X150185949Y-66393402D01*
X150040148Y-66362412D01*
X150000793Y-66354047D01*
X149811501Y-66354047D01*
X149779044Y-66360945D01*
X149626344Y-66393402D01*
X149626339Y-66393404D01*
X149453417Y-66470395D01*
X149453412Y-66470398D01*
X149300277Y-66581657D01*
X149300273Y-66581661D01*
X149294547Y-66588021D01*
X149235060Y-66624668D01*
X149202399Y-66629047D01*
X144712499Y-66629047D01*
X144645460Y-66609362D01*
X144620352Y-66588022D01*
X144573071Y-66535512D01*
X144573069Y-66535510D01*
X144573066Y-66535507D01*
X144573064Y-66535506D01*
X144419934Y-66424251D01*
X144419929Y-66424248D01*
X144247007Y-66347257D01*
X144247002Y-66347255D01*
X144101201Y-66316265D01*
X144061846Y-66307900D01*
X143872554Y-66307900D01*
X143840097Y-66314798D01*
X143687397Y-66347255D01*
X143687392Y-66347257D01*
X143514470Y-66424248D01*
X143514465Y-66424251D01*
X143361329Y-66535511D01*
X143234666Y-66676185D01*
X143140021Y-66840115D01*
X143140018Y-66840122D01*
X143092127Y-66987517D01*
X143081526Y-67020144D01*
X143063096Y-67195500D01*
X143061740Y-67208400D01*
X143072370Y-67309539D01*
X143059800Y-67378269D01*
X143012068Y-67429292D01*
X142949049Y-67446500D01*
X142940389Y-67446500D01*
X142879971Y-67458518D01*
X142819548Y-67470537D01*
X142819543Y-67470538D01*
X142785546Y-67484620D01*
X142772397Y-67490067D01*
X142750169Y-67499274D01*
X142705713Y-67517688D01*
X142695557Y-67524475D01*
X142695449Y-67524547D01*
X142603268Y-67586140D01*
X142559705Y-67629703D01*
X142516142Y-67673267D01*
X142516139Y-67673270D01*
X141701229Y-68488181D01*
X141639906Y-68521666D01*
X141613548Y-68524500D01*
X141484954Y-68524500D01*
X141452497Y-68531398D01*
X141299797Y-68563855D01*
X141299792Y-68563857D01*
X141126870Y-68640848D01*
X141126865Y-68640851D01*
X140973729Y-68752111D01*
X140847065Y-68892785D01*
X140837993Y-68908500D01*
X140787426Y-68956716D01*
X140730606Y-68970500D01*
X133406453Y-68970500D01*
X133339414Y-68950815D01*
X133318772Y-68934181D01*
X132357090Y-67972500D01*
X135285947Y-67972500D01*
X136787947Y-67972500D01*
X137785947Y-67972500D01*
X139287947Y-67972500D01*
X139287947Y-67652768D01*
X137785947Y-67652768D01*
X137785947Y-67972500D01*
X136787947Y-67972500D01*
X136787947Y-67652768D01*
X135285947Y-67652768D01*
X135285947Y-67972500D01*
X132357090Y-67972500D01*
X131937928Y-67553338D01*
X131937925Y-67553334D01*
X131937925Y-67553335D01*
X131930858Y-67546268D01*
X131930858Y-67546267D01*
X131843733Y-67459142D01*
X131843732Y-67459141D01*
X131843731Y-67459140D01*
X131788754Y-67422406D01*
X131750217Y-67396656D01*
X131741286Y-67390688D01*
X131660792Y-67357347D01*
X131627453Y-67343537D01*
X131617427Y-67341543D01*
X131567029Y-67331518D01*
X131506610Y-67319500D01*
X131506607Y-67319500D01*
X131506606Y-67319500D01*
X125934499Y-67319500D01*
X125867460Y-67299815D01*
X125821705Y-67247011D01*
X125810499Y-67195500D01*
X125810499Y-67047129D01*
X125810498Y-67047123D01*
X125810497Y-67047116D01*
X125804091Y-66987517D01*
X125753796Y-66852669D01*
X125753795Y-66852668D01*
X125753793Y-66852664D01*
X125667547Y-66737455D01*
X125667544Y-66737452D01*
X125552335Y-66651206D01*
X125552328Y-66651202D01*
X125417482Y-66600908D01*
X125417483Y-66600908D01*
X125357883Y-66594501D01*
X125357881Y-66594500D01*
X125357873Y-66594500D01*
X125357864Y-66594500D01*
X123562129Y-66594500D01*
X123562123Y-66594501D01*
X123502516Y-66600908D01*
X123367671Y-66651202D01*
X123367664Y-66651206D01*
X123252455Y-66737452D01*
X123252452Y-66737455D01*
X123166206Y-66852664D01*
X123166202Y-66852671D01*
X123115908Y-66987517D01*
X123112401Y-67020144D01*
X123109501Y-67047123D01*
X123109500Y-67047135D01*
X122552076Y-67047135D01*
X122552276Y-65596500D01*
X125285947Y-65596500D01*
X125371248Y-65596500D01*
X125374572Y-65596545D01*
X125394673Y-65597084D01*
X125397993Y-65597217D01*
X125424680Y-65598649D01*
X125427989Y-65598871D01*
X125447982Y-65600481D01*
X125451285Y-65600792D01*
X125555175Y-65611962D01*
X125562843Y-65613029D01*
X125609029Y-65620936D01*
X125616619Y-65622481D01*
X125677330Y-65636826D01*
X125684809Y-65638842D01*
X125729672Y-65652450D01*
X125737012Y-65654929D01*
X125934502Y-65728587D01*
X125942682Y-65731975D01*
X125991419Y-65754233D01*
X125999333Y-65758195D01*
X126061923Y-65792372D01*
X126069537Y-65796890D01*
X126114604Y-65825854D01*
X126121874Y-65830902D01*
X126294173Y-65959886D01*
X126301064Y-65965439D01*
X126341549Y-66000519D01*
X126348028Y-66006551D01*
X126398449Y-66056972D01*
X126404481Y-66063451D01*
X126439561Y-66103936D01*
X126445114Y-66110827D01*
X126574098Y-66283126D01*
X126579146Y-66290396D01*
X126599136Y-66321500D01*
X126787947Y-66321500D01*
X127785947Y-66321500D01*
X129287947Y-66321500D01*
X130285947Y-66321500D01*
X130508291Y-66321500D01*
X130497388Y-66203841D01*
X130497388Y-66180959D01*
X130517908Y-65959515D01*
X130522113Y-65937022D01*
X130582973Y-65723119D01*
X130591239Y-65701781D01*
X130690368Y-65502703D01*
X130702414Y-65483248D01*
X130836436Y-65305775D01*
X130851852Y-65288865D01*
X130866053Y-65275919D01*
X132785947Y-65275919D01*
X132800148Y-65288865D01*
X132815564Y-65305775D01*
X132949586Y-65483248D01*
X132961632Y-65502703D01*
X133060761Y-65701781D01*
X133069027Y-65723119D01*
X133129887Y-65937022D01*
X133134092Y-65959515D01*
X133154612Y-66180959D01*
X133154612Y-66203841D01*
X133134092Y-66425285D01*
X133129887Y-66447778D01*
X133070994Y-66654768D01*
X134287947Y-66654768D01*
X135285947Y-66654768D01*
X136787947Y-66654768D01*
X136787947Y-65989200D01*
X137785947Y-65989200D01*
X137785947Y-66654768D01*
X139287947Y-66654768D01*
X139287947Y-66602280D01*
X140285947Y-66602280D01*
X140418635Y-66426574D01*
X140434051Y-66409664D01*
X140598401Y-66259839D01*
X140616661Y-66246049D01*
X140805743Y-66128974D01*
X140826227Y-66118774D01*
X141033603Y-66038436D01*
X141055612Y-66032174D01*
X141274218Y-65991310D01*
X141297003Y-65989199D01*
X141519395Y-65989199D01*
X141542180Y-65991310D01*
X141760786Y-66032174D01*
X141782795Y-66038436D01*
X141787947Y-66040431D01*
X141787947Y-65648500D01*
X140285947Y-65648500D01*
X140285947Y-66602280D01*
X139287947Y-66602280D01*
X139287947Y-65648500D01*
X139186206Y-65648500D01*
X139092587Y-65716518D01*
X139087234Y-65720197D01*
X139054277Y-65741598D01*
X139048742Y-65744990D01*
X139003470Y-65771126D01*
X138997764Y-65774224D01*
X138962783Y-65792046D01*
X138956928Y-65794838D01*
X138736249Y-65893093D01*
X138730252Y-65895577D01*
X138693571Y-65909658D01*
X138687446Y-65911827D01*
X138637726Y-65927980D01*
X138631505Y-65929823D01*
X138593572Y-65939987D01*
X138587260Y-65941502D01*
X138350980Y-65991724D01*
X138344597Y-65992907D01*
X138305818Y-65999049D01*
X138299388Y-65999896D01*
X138247400Y-66005363D01*
X138240923Y-66005873D01*
X138201683Y-66007930D01*
X138195192Y-66008100D01*
X137953608Y-66008100D01*
X137947117Y-66007930D01*
X137907877Y-66005873D01*
X137901400Y-66005363D01*
X137849412Y-65999896D01*
X137842982Y-65999049D01*
X137804203Y-65992907D01*
X137797820Y-65991724D01*
X137785947Y-65989200D01*
X136787947Y-65989200D01*
X136787947Y-65512630D01*
X136781317Y-65506661D01*
X136776607Y-65502191D01*
X136748831Y-65474415D01*
X136744362Y-65469706D01*
X136582723Y-65290188D01*
X136578508Y-65285254D01*
X136553794Y-65254736D01*
X136549843Y-65249587D01*
X136519114Y-65207295D01*
X136515435Y-65201942D01*
X136494036Y-65168991D01*
X136490643Y-65163454D01*
X136484474Y-65152768D01*
X135285947Y-65152768D01*
X135285947Y-66654768D01*
X134287947Y-66654768D01*
X134287947Y-65152768D01*
X132785947Y-65152768D01*
X132785947Y-65275919D01*
X130866053Y-65275919D01*
X131001143Y-65152768D01*
X130285947Y-65152768D01*
X130285947Y-66321500D01*
X129287947Y-66321500D01*
X129287947Y-65152768D01*
X127785947Y-65152768D01*
X127785947Y-66321500D01*
X126787947Y-66321500D01*
X126787947Y-65152768D01*
X125285947Y-65152768D01*
X125285947Y-65596500D01*
X122552276Y-65596500D01*
X122552475Y-64154768D01*
X123550474Y-64154768D01*
X124287947Y-64154768D01*
X125285947Y-64154768D01*
X126787947Y-64154768D01*
X127785947Y-64154768D01*
X129287947Y-64154768D01*
X130285947Y-64154768D01*
X131787947Y-64154768D01*
X132785947Y-64154768D01*
X134287947Y-64154768D01*
X135285947Y-64154768D01*
X136171767Y-64154768D01*
X136171110Y-64142228D01*
X136170940Y-64135737D01*
X136170940Y-64083463D01*
X136171110Y-64076972D01*
X136173166Y-64037747D01*
X136173675Y-64031277D01*
X136198925Y-63791037D01*
X136199772Y-63784602D01*
X136205914Y-63745819D01*
X136207097Y-63739439D01*
X136217964Y-63688304D01*
X136219480Y-63681988D01*
X136229649Y-63644035D01*
X136231493Y-63637809D01*
X136306147Y-63408048D01*
X136308316Y-63401924D01*
X136322401Y-63365235D01*
X136324886Y-63359236D01*
X136346151Y-63311481D01*
X136348945Y-63305624D01*
X136366768Y-63270647D01*
X136369863Y-63264946D01*
X136490643Y-63055746D01*
X136494036Y-63050209D01*
X136515435Y-63017258D01*
X136519114Y-63011905D01*
X136549843Y-62969613D01*
X136553794Y-62964464D01*
X136578508Y-62933946D01*
X136582723Y-62929012D01*
X136744362Y-62749494D01*
X136748831Y-62744785D01*
X136776607Y-62717009D01*
X136781317Y-62712539D01*
X136787947Y-62706569D01*
X136787947Y-62652768D01*
X135285947Y-62652768D01*
X135285947Y-64154768D01*
X134287947Y-64154768D01*
X134287947Y-62652768D01*
X132785947Y-62652768D01*
X132785947Y-64154768D01*
X131787947Y-64154768D01*
X131787947Y-62652768D01*
X130285947Y-62652768D01*
X130285947Y-64154768D01*
X129287947Y-64154768D01*
X129287947Y-62652768D01*
X127785947Y-62652768D01*
X127785947Y-64154768D01*
X126787947Y-64154768D01*
X126787947Y-62652768D01*
X125285947Y-62652768D01*
X125285947Y-64154768D01*
X124287947Y-64154768D01*
X124287947Y-62848628D01*
X123550551Y-63586023D01*
X123550474Y-64154768D01*
X122552475Y-64154768D01*
X122552599Y-63254654D01*
X122553846Y-63237144D01*
X122556573Y-63218057D01*
X122553500Y-63192551D01*
X122552610Y-63177701D01*
X122552615Y-63144437D01*
X122552614Y-63144432D01*
X122545964Y-63119601D01*
X122542632Y-63102347D01*
X122539838Y-63079147D01*
X122542254Y-63078855D01*
X122544259Y-63021354D01*
X122574262Y-62972737D01*
X123892231Y-61654768D01*
X125481808Y-61654768D01*
X126787947Y-61654768D01*
X127785947Y-61654768D01*
X129287947Y-61654768D01*
X130285947Y-61654768D01*
X131787947Y-61654768D01*
X132785947Y-61654768D01*
X134287947Y-61654768D01*
X135285947Y-61654768D01*
X136787947Y-61654768D01*
X137785947Y-61654768D01*
X138050623Y-61654768D01*
X138072213Y-61639082D01*
X138077566Y-61635403D01*
X138097436Y-61622500D01*
X140285947Y-61622500D01*
X141787947Y-61622500D01*
X142785947Y-61622500D01*
X143533036Y-61622500D01*
X143546123Y-61614002D01*
X143551658Y-61610610D01*
X143596930Y-61584474D01*
X143602636Y-61581376D01*
X143637617Y-61563554D01*
X143643472Y-61560762D01*
X143766055Y-61506183D01*
X145285947Y-61506183D01*
X145408529Y-61560762D01*
X145414383Y-61563554D01*
X145449364Y-61581376D01*
X145455070Y-61584474D01*
X145500342Y-61610610D01*
X145505877Y-61614002D01*
X145538834Y-61635403D01*
X145544187Y-61639082D01*
X145565777Y-61654768D01*
X146787947Y-61654768D01*
X146787947Y-61583089D01*
X147785947Y-61583089D01*
X147934208Y-61538115D01*
X147940074Y-61536491D01*
X147975788Y-61527545D01*
X147981726Y-61526212D01*
X148029791Y-61516651D01*
X148035785Y-61515611D01*
X148072216Y-61510206D01*
X148078260Y-61509460D01*
X148313365Y-61486305D01*
X148319434Y-61485857D01*
X148356212Y-61484050D01*
X148362297Y-61483901D01*
X148411303Y-61483901D01*
X148417388Y-61484050D01*
X148454166Y-61485857D01*
X148460235Y-61486305D01*
X148695340Y-61509460D01*
X148701384Y-61510206D01*
X148737815Y-61515611D01*
X148743809Y-61516651D01*
X148791874Y-61526212D01*
X148797812Y-61527545D01*
X148833526Y-61536491D01*
X148839392Y-61538115D01*
X149065451Y-61606690D01*
X149071229Y-61608598D01*
X149105888Y-61620999D01*
X149111563Y-61623189D01*
X149156838Y-61641941D01*
X149162405Y-61644408D01*
X149184310Y-61654768D01*
X149287947Y-61654768D01*
X150285947Y-61654768D01*
X151787947Y-61654768D01*
X152785947Y-61654768D01*
X154287947Y-61654768D01*
X155285947Y-61654768D01*
X156787947Y-61654768D01*
X157785947Y-61654768D01*
X159287947Y-61654768D01*
X160285947Y-61654768D01*
X161787947Y-61654768D01*
X162785947Y-61654768D01*
X164287947Y-61654768D01*
X164287947Y-61610523D01*
X163738924Y-61061500D01*
X162785947Y-61061500D01*
X162785947Y-61654768D01*
X161787947Y-61654768D01*
X161787947Y-61061500D01*
X160285947Y-61061500D01*
X160285947Y-61654768D01*
X159287947Y-61654768D01*
X159287947Y-61061500D01*
X157785947Y-61061500D01*
X157785947Y-61654768D01*
X156787947Y-61654768D01*
X156787947Y-61061500D01*
X155285947Y-61061500D01*
X155285947Y-61654768D01*
X154287947Y-61654768D01*
X154287947Y-61061500D01*
X152785947Y-61061500D01*
X152785947Y-61654768D01*
X151787947Y-61654768D01*
X151787947Y-61061500D01*
X150285947Y-61061500D01*
X150285947Y-61654768D01*
X149287947Y-61654768D01*
X149287947Y-61061500D01*
X147785947Y-61061500D01*
X147785947Y-61583089D01*
X146787947Y-61583089D01*
X146787947Y-61061500D01*
X145285947Y-61061500D01*
X145285947Y-61506183D01*
X143766055Y-61506183D01*
X143864151Y-61462507D01*
X143870148Y-61460023D01*
X143906829Y-61445942D01*
X143912954Y-61443773D01*
X143962674Y-61427620D01*
X143968895Y-61425777D01*
X144006828Y-61415613D01*
X144013140Y-61414098D01*
X144249420Y-61363876D01*
X144255803Y-61362693D01*
X144287947Y-61357601D01*
X144287947Y-61061500D01*
X142785947Y-61061500D01*
X142785947Y-61622500D01*
X141787947Y-61622500D01*
X141787947Y-61061500D01*
X140285947Y-61061500D01*
X140285947Y-61622500D01*
X138097436Y-61622500D01*
X138110523Y-61614002D01*
X138116058Y-61610610D01*
X138161330Y-61584474D01*
X138167036Y-61581376D01*
X138202017Y-61563554D01*
X138207872Y-61560762D01*
X138428551Y-61462507D01*
X138434548Y-61460023D01*
X138471229Y-61445942D01*
X138477354Y-61443773D01*
X138527074Y-61427620D01*
X138533295Y-61425777D01*
X138571228Y-61415613D01*
X138577540Y-61414098D01*
X138813820Y-61363876D01*
X138820203Y-61362693D01*
X138858982Y-61356551D01*
X138865412Y-61355704D01*
X138917400Y-61350237D01*
X138923877Y-61349727D01*
X138963117Y-61347670D01*
X138969608Y-61347500D01*
X139211192Y-61347500D01*
X139217683Y-61347670D01*
X139256923Y-61349727D01*
X139263400Y-61350237D01*
X139287947Y-61352818D01*
X139287947Y-61061500D01*
X137785947Y-61061500D01*
X137785947Y-61654768D01*
X136787947Y-61654768D01*
X136787947Y-61061500D01*
X135285947Y-61061500D01*
X135285947Y-61654768D01*
X134287947Y-61654768D01*
X134287947Y-61061500D01*
X132785947Y-61061500D01*
X132785947Y-61654768D01*
X131787947Y-61654768D01*
X131787947Y-61061500D01*
X130285947Y-61061500D01*
X130285947Y-61654768D01*
X129287947Y-61654768D01*
X129287947Y-61061500D01*
X127785947Y-61061500D01*
X127785947Y-61654768D01*
X126787947Y-61654768D01*
X126787947Y-61061500D01*
X126137748Y-61061500D01*
X126072754Y-61063820D01*
X125481808Y-61654768D01*
X123892231Y-61654768D01*
X125605915Y-59941084D01*
X125667234Y-59907602D01*
X125736926Y-59912586D01*
G37*
%TD.AperFunction*%
%TD*%
M02*
