%TF.GenerationSoftware,KiCad,Pcbnew,8.0.7*%
%TF.CreationDate,2025-02-10T19:55:19+01:00*%
%TF.ProjectId,0004-MCU-Datalogger,30303034-2d4d-4435-952d-446174616c6f,1*%
%TF.SameCoordinates,Original*%
%TF.FileFunction,Legend,Bot*%
%TF.FilePolarity,Positive*%
%FSLAX46Y46*%
G04 Gerber Fmt 4.6, Leading zero omitted, Abs format (unit mm)*
G04 Created by KiCad (PCBNEW 8.0.7) date 2025-02-10 19:55:19*
%MOMM*%
%LPD*%
G01*
G04 APERTURE LIST*
%ADD10C,0.100000*%
%ADD11C,0.010000*%
G04 APERTURE END LIST*
D10*
G36*
X150194068Y-79670000D02*
G01*
X149921493Y-79670000D01*
X149859539Y-79667839D01*
X149800806Y-79661359D01*
X149745294Y-79650559D01*
X149693003Y-79635439D01*
X149643933Y-79615999D01*
X149598084Y-79592239D01*
X149555456Y-79564158D01*
X149516049Y-79531758D01*
X149480615Y-79495736D01*
X149449905Y-79456913D01*
X149423920Y-79415289D01*
X149402660Y-79370863D01*
X149386124Y-79323636D01*
X149374312Y-79273609D01*
X149367225Y-79220780D01*
X149365039Y-79169302D01*
X149536810Y-79169302D01*
X149537652Y-79201082D01*
X149542794Y-79250986D01*
X149555136Y-79305817D01*
X149574210Y-79355136D01*
X149600016Y-79398942D01*
X149632553Y-79437236D01*
X149651179Y-79454172D01*
X149692475Y-79483046D01*
X149739164Y-79505257D01*
X149791245Y-79520804D01*
X149848718Y-79529689D01*
X149900732Y-79532002D01*
X150031402Y-79532002D01*
X150031402Y-78823942D01*
X149894626Y-78823942D01*
X149851297Y-78825291D01*
X149791544Y-78832374D01*
X149738081Y-78845527D01*
X149690908Y-78864751D01*
X149637795Y-78899827D01*
X149595864Y-78945695D01*
X149565114Y-79002355D01*
X149549390Y-79051933D01*
X149539955Y-79107582D01*
X149536810Y-79169302D01*
X149365039Y-79169302D01*
X149364863Y-79165150D01*
X149366992Y-79107032D01*
X149373377Y-79052664D01*
X149384020Y-79002046D01*
X149398920Y-78955177D01*
X149429251Y-78891904D01*
X149469161Y-78837067D01*
X149518650Y-78790667D01*
X149577717Y-78752704D01*
X149622416Y-78732081D01*
X149671373Y-78715208D01*
X149724586Y-78702085D01*
X149782057Y-78692711D01*
X149843784Y-78687087D01*
X149909769Y-78685212D01*
X150194068Y-78685212D01*
X150194068Y-79670000D01*
G37*
G36*
X148988626Y-78953267D02*
G01*
X149039608Y-78960222D01*
X149088186Y-78971814D01*
X149141821Y-78991199D01*
X149192183Y-79016894D01*
X149192183Y-79156357D01*
X149166523Y-79136092D01*
X149119780Y-79107131D01*
X149070699Y-79086444D01*
X149019281Y-79074032D01*
X148965526Y-79069895D01*
X148939991Y-79071185D01*
X148890178Y-79084230D01*
X148849992Y-79116340D01*
X148827667Y-79166799D01*
X148822644Y-79216685D01*
X149031472Y-79246238D01*
X149072458Y-79253933D01*
X149120835Y-79268753D01*
X149171228Y-79294610D01*
X149210423Y-79328612D01*
X149238419Y-79370759D01*
X149255216Y-79421052D01*
X149260816Y-79479490D01*
X149260587Y-79490980D01*
X149252572Y-79544165D01*
X149233109Y-79590242D01*
X149202197Y-79629211D01*
X149182706Y-79645465D01*
X149137139Y-79669708D01*
X149088624Y-79682105D01*
X149039532Y-79685631D01*
X148997226Y-79682548D01*
X148943567Y-79667874D01*
X148896407Y-79641115D01*
X148855745Y-79602271D01*
X148826063Y-79559357D01*
X148823132Y-79559357D01*
X148823132Y-79670000D01*
X148668771Y-79670000D01*
X148668771Y-79383258D01*
X148822644Y-79383258D01*
X148825636Y-79420780D01*
X148841344Y-79470766D01*
X148870516Y-79513196D01*
X148895902Y-79535742D01*
X148939877Y-79557484D01*
X148990927Y-79564731D01*
X149030840Y-79560015D01*
X149076412Y-79536154D01*
X149097128Y-79510037D01*
X149108408Y-79462149D01*
X149102684Y-79418267D01*
X149073726Y-79376175D01*
X149066922Y-79371687D01*
X149020485Y-79352392D01*
X148970167Y-79342470D01*
X148822644Y-79321709D01*
X148822644Y-79383258D01*
X148668771Y-79383258D01*
X148668771Y-79213021D01*
X148669812Y-79181286D01*
X148678139Y-79123957D01*
X148694793Y-79074819D01*
X148727321Y-79024912D01*
X148772860Y-78987803D01*
X148818660Y-78967328D01*
X148872786Y-78955043D01*
X148935240Y-78950949D01*
X148988626Y-78953267D01*
G37*
G36*
X148107012Y-79661207D02*
G01*
X148153488Y-79677903D01*
X148202329Y-79684772D01*
X148229867Y-79685631D01*
X148288831Y-79680837D01*
X148337801Y-79666454D01*
X148383373Y-79636538D01*
X148414554Y-79592815D01*
X148429545Y-79545832D01*
X148434542Y-79489260D01*
X148434542Y-79091632D01*
X148552023Y-79091632D01*
X148552023Y-78966580D01*
X148434542Y-78966580D01*
X148434542Y-78807578D01*
X148275296Y-78763370D01*
X148275296Y-78966580D01*
X148107012Y-78966580D01*
X148107012Y-79091632D01*
X148275296Y-79091632D01*
X148275296Y-79443098D01*
X148270305Y-79493881D01*
X148252581Y-79532491D01*
X148209725Y-79555967D01*
X148176866Y-79559113D01*
X148128490Y-79546280D01*
X148107012Y-79529316D01*
X148107012Y-79661207D01*
G37*
G36*
X147752757Y-78953267D02*
G01*
X147803739Y-78960222D01*
X147852317Y-78971814D01*
X147905952Y-78991199D01*
X147956315Y-79016894D01*
X147956315Y-79156357D01*
X147930654Y-79136092D01*
X147883911Y-79107131D01*
X147834830Y-79086444D01*
X147783413Y-79074032D01*
X147729657Y-79069895D01*
X147704123Y-79071185D01*
X147654309Y-79084230D01*
X147614124Y-79116340D01*
X147591798Y-79166799D01*
X147586775Y-79216685D01*
X147795603Y-79246238D01*
X147836589Y-79253933D01*
X147884966Y-79268753D01*
X147935359Y-79294610D01*
X147974554Y-79328612D01*
X148002550Y-79370759D01*
X148019348Y-79421052D01*
X148024947Y-79479490D01*
X148024718Y-79490980D01*
X148016704Y-79544165D01*
X147997241Y-79590242D01*
X147966329Y-79629211D01*
X147946837Y-79645465D01*
X147901270Y-79669708D01*
X147852756Y-79682105D01*
X147803663Y-79685631D01*
X147761357Y-79682548D01*
X147707698Y-79667874D01*
X147660538Y-79641115D01*
X147619876Y-79602271D01*
X147590195Y-79559357D01*
X147587264Y-79559357D01*
X147587264Y-79670000D01*
X147432902Y-79670000D01*
X147432902Y-79383258D01*
X147586775Y-79383258D01*
X147589767Y-79420780D01*
X147605475Y-79470766D01*
X147634647Y-79513196D01*
X147660033Y-79535742D01*
X147704008Y-79557484D01*
X147755058Y-79564731D01*
X147794971Y-79560015D01*
X147840543Y-79536154D01*
X147861260Y-79510037D01*
X147872539Y-79462149D01*
X147866815Y-79418267D01*
X147837857Y-79376175D01*
X147831053Y-79371687D01*
X147784617Y-79352392D01*
X147734298Y-79342470D01*
X147586775Y-79321709D01*
X147586775Y-79383258D01*
X147432902Y-79383258D01*
X147432902Y-79213021D01*
X147433943Y-79181286D01*
X147442270Y-79123957D01*
X147458925Y-79074819D01*
X147491452Y-79024912D01*
X147536992Y-78987803D01*
X147582791Y-78967328D01*
X147636917Y-78955043D01*
X147699371Y-78950949D01*
X147752757Y-78953267D01*
G37*
G36*
X146696998Y-79670000D02*
G01*
X146856978Y-79670000D01*
X146856978Y-78622686D01*
X146696998Y-78622686D01*
X146696998Y-79670000D01*
G37*
G36*
X146194171Y-78951822D02*
G01*
X146244050Y-78957161D01*
X146299371Y-78969976D01*
X146349746Y-78989779D01*
X146395175Y-79016573D01*
X146435659Y-79050355D01*
X146459415Y-79076417D01*
X146489111Y-79120046D01*
X146511679Y-79169118D01*
X146527121Y-79223635D01*
X146534545Y-79273224D01*
X146537019Y-79326594D01*
X146536640Y-79346647D01*
X146530944Y-79403805D01*
X146518413Y-79456464D01*
X146499047Y-79504624D01*
X146472847Y-79548285D01*
X146439811Y-79587445D01*
X146421007Y-79604992D01*
X146379934Y-79634908D01*
X146334241Y-79657920D01*
X146283929Y-79674029D01*
X146228997Y-79683234D01*
X146179692Y-79685631D01*
X146148877Y-79684742D01*
X146100191Y-79679311D01*
X146046175Y-79666277D01*
X145996968Y-79646132D01*
X145952569Y-79618878D01*
X145912979Y-79584515D01*
X145895214Y-79564969D01*
X145864926Y-79522362D01*
X145841627Y-79475067D01*
X145825318Y-79423083D01*
X145815999Y-79366411D01*
X145813759Y-79319511D01*
X145977215Y-79319511D01*
X145978449Y-79354173D01*
X145985559Y-79404273D01*
X146001111Y-79452753D01*
X146027773Y-79496831D01*
X146034233Y-79504373D01*
X146075869Y-79537156D01*
X146122685Y-79554187D01*
X146172121Y-79559113D01*
X146183486Y-79558866D01*
X146235960Y-79550217D01*
X146281183Y-79529214D01*
X146319155Y-79495854D01*
X146337831Y-79470475D01*
X146358600Y-79426191D01*
X146370675Y-79374450D01*
X146374109Y-79322198D01*
X146372786Y-79287682D01*
X146365161Y-79237467D01*
X146348481Y-79188347D01*
X146319888Y-79142923D01*
X146309375Y-79131313D01*
X146269342Y-79100859D01*
X146221629Y-79083094D01*
X146172121Y-79077955D01*
X146166286Y-79078016D01*
X146112639Y-79085401D01*
X146067530Y-79105093D01*
X146027773Y-79140969D01*
X146010591Y-79166446D01*
X145991484Y-79211584D01*
X145980375Y-79265030D01*
X145977215Y-79319511D01*
X145813759Y-79319511D01*
X145813572Y-79315603D01*
X145814381Y-79284114D01*
X145819327Y-79234560D01*
X145831197Y-79179929D01*
X145849541Y-79130570D01*
X145874359Y-79086483D01*
X145905652Y-79047669D01*
X145923556Y-79030384D01*
X145963204Y-79000914D01*
X146007969Y-78978246D01*
X146057852Y-78962377D01*
X146112852Y-78953310D01*
X146162595Y-78950949D01*
X146194171Y-78951822D01*
G37*
G36*
X145438115Y-78954658D02*
G01*
X145486855Y-78965786D01*
X145538098Y-78988146D01*
X145583286Y-79020604D01*
X145617201Y-79056461D01*
X145637007Y-79083988D01*
X145661766Y-79129586D01*
X145680582Y-79180354D01*
X145693456Y-79236290D01*
X145699646Y-79286852D01*
X145701709Y-79341004D01*
X145698944Y-79397831D01*
X145690649Y-79450158D01*
X145676825Y-79497986D01*
X145653707Y-79548098D01*
X145623063Y-79592086D01*
X145602623Y-79614011D01*
X145563106Y-79645345D01*
X145518821Y-79667726D01*
X145469767Y-79681155D01*
X145415945Y-79685631D01*
X145396412Y-79685105D01*
X145341558Y-79677220D01*
X145292319Y-79659872D01*
X145248696Y-79633062D01*
X145210688Y-79596789D01*
X145178296Y-79551053D01*
X145175610Y-79551053D01*
X145175610Y-79631165D01*
X145175855Y-79646973D01*
X145181728Y-79705187D01*
X145195432Y-79755371D01*
X145223575Y-79806810D01*
X145263954Y-79845703D01*
X145316568Y-79872049D01*
X145367470Y-79884094D01*
X145426203Y-79888108D01*
X145445767Y-79887565D01*
X145498924Y-79880807D01*
X145546614Y-79868557D01*
X145595402Y-79850393D01*
X145645289Y-79826315D01*
X145645289Y-79968953D01*
X145612456Y-79981900D01*
X145563624Y-79996338D01*
X145511450Y-80006476D01*
X145455933Y-80012313D01*
X145405687Y-80013893D01*
X145358512Y-80012361D01*
X145293458Y-80004317D01*
X145235251Y-79989378D01*
X145183892Y-79967543D01*
X145139381Y-79938814D01*
X145101717Y-79903189D01*
X145070902Y-79860669D01*
X145046935Y-79811254D01*
X145029815Y-79754944D01*
X145019543Y-79691739D01*
X145016119Y-79621639D01*
X145016119Y-79256741D01*
X145174144Y-79256741D01*
X145174144Y-79347843D01*
X145174195Y-79353581D01*
X145180234Y-79407420D01*
X145196339Y-79454818D01*
X145225680Y-79499518D01*
X145260894Y-79530688D01*
X145306573Y-79551640D01*
X145359525Y-79558625D01*
X145407080Y-79552590D01*
X145452174Y-79532013D01*
X145489706Y-79496831D01*
X145503849Y-79476431D01*
X145524944Y-79429548D01*
X145535731Y-79380419D01*
X145538799Y-79331235D01*
X145537553Y-79295129D01*
X145530374Y-79242743D01*
X145514671Y-79191727D01*
X145487752Y-79144877D01*
X145481187Y-79136773D01*
X145443754Y-79104096D01*
X145398641Y-79084490D01*
X145345847Y-79077955D01*
X145310615Y-79081237D01*
X145263491Y-79098467D01*
X145223237Y-79130467D01*
X145201759Y-79157960D01*
X145181048Y-79204293D01*
X145174144Y-79256741D01*
X145016119Y-79256741D01*
X145016119Y-78966580D01*
X145175610Y-78966580D01*
X145175610Y-79064766D01*
X145178296Y-79064766D01*
X145201051Y-79031977D01*
X145238838Y-78995408D01*
X145283544Y-78969733D01*
X145335169Y-78954950D01*
X145384926Y-78950949D01*
X145438115Y-78954658D01*
G37*
G36*
X144594988Y-78954658D02*
G01*
X144643729Y-78965786D01*
X144694972Y-78988146D01*
X144740160Y-79020604D01*
X144774075Y-79056461D01*
X144793881Y-79083988D01*
X144818639Y-79129586D01*
X144837456Y-79180354D01*
X144850330Y-79236290D01*
X144856519Y-79286852D01*
X144858583Y-79341004D01*
X144855818Y-79397831D01*
X144847523Y-79450158D01*
X144833698Y-79497986D01*
X144810581Y-79548098D01*
X144779936Y-79592086D01*
X144759496Y-79614011D01*
X144719980Y-79645345D01*
X144675694Y-79667726D01*
X144626641Y-79681155D01*
X144572818Y-79685631D01*
X144553286Y-79685105D01*
X144498431Y-79677220D01*
X144449192Y-79659872D01*
X144405569Y-79633062D01*
X144367562Y-79596789D01*
X144335170Y-79551053D01*
X144332483Y-79551053D01*
X144332483Y-79631165D01*
X144332728Y-79646973D01*
X144338601Y-79705187D01*
X144352306Y-79755371D01*
X144380449Y-79806810D01*
X144420827Y-79845703D01*
X144473442Y-79872049D01*
X144524344Y-79884094D01*
X144583077Y-79888108D01*
X144602641Y-79887565D01*
X144655798Y-79880807D01*
X144703487Y-79868557D01*
X144752276Y-79850393D01*
X144802162Y-79826315D01*
X144802162Y-79968953D01*
X144769329Y-79981900D01*
X144720498Y-79996338D01*
X144668323Y-80006476D01*
X144612807Y-80012313D01*
X144562560Y-80013893D01*
X144515386Y-80012361D01*
X144450331Y-80004317D01*
X144392125Y-79989378D01*
X144340766Y-79967543D01*
X144296254Y-79938814D01*
X144258591Y-79903189D01*
X144227776Y-79860669D01*
X144203808Y-79811254D01*
X144186689Y-79754944D01*
X144176417Y-79691739D01*
X144172993Y-79621639D01*
X144172993Y-79256741D01*
X144331018Y-79256741D01*
X144331018Y-79347843D01*
X144331068Y-79353581D01*
X144337108Y-79407420D01*
X144353212Y-79454818D01*
X144382553Y-79499518D01*
X144417768Y-79530688D01*
X144463447Y-79551640D01*
X144516398Y-79558625D01*
X144563954Y-79552590D01*
X144609048Y-79532013D01*
X144646580Y-79496831D01*
X144660723Y-79476431D01*
X144681817Y-79429548D01*
X144692604Y-79380419D01*
X144695673Y-79331235D01*
X144694426Y-79295129D01*
X144687248Y-79242743D01*
X144671545Y-79191727D01*
X144644626Y-79144877D01*
X144638061Y-79136773D01*
X144600628Y-79104096D01*
X144555514Y-79084490D01*
X144502721Y-79077955D01*
X144467489Y-79081237D01*
X144420365Y-79098467D01*
X144380111Y-79130467D01*
X144358633Y-79157960D01*
X144337922Y-79204293D01*
X144331018Y-79256741D01*
X144172993Y-79256741D01*
X144172993Y-78966580D01*
X144332483Y-78966580D01*
X144332483Y-79064766D01*
X144335170Y-79064766D01*
X144357925Y-79031977D01*
X144395712Y-78995408D01*
X144440418Y-78969733D01*
X144492043Y-78954950D01*
X144541800Y-78950949D01*
X144594988Y-78954658D01*
G37*
G36*
X143694551Y-78951352D02*
G01*
X143745919Y-78957406D01*
X143793973Y-78970724D01*
X143838712Y-78991306D01*
X143880137Y-79019152D01*
X143918248Y-79054263D01*
X143935620Y-79074121D01*
X143965238Y-79117032D01*
X143988021Y-79164201D01*
X144003970Y-79215630D01*
X144013083Y-79271317D01*
X144015456Y-79320976D01*
X144014681Y-79352809D01*
X144009946Y-79402828D01*
X143998580Y-79457846D01*
X143981014Y-79507402D01*
X143957249Y-79551498D01*
X143927285Y-79590132D01*
X143885400Y-79627343D01*
X143837111Y-79655415D01*
X143790623Y-79672202D01*
X143739429Y-79682274D01*
X143683530Y-79685631D01*
X143626526Y-79683519D01*
X143573850Y-79677182D01*
X143525501Y-79666620D01*
X143474564Y-79648959D01*
X143429518Y-79625547D01*
X143429518Y-79498053D01*
X143435413Y-79502110D01*
X143477695Y-79526904D01*
X143528192Y-79547512D01*
X143581009Y-79559877D01*
X143636147Y-79563998D01*
X143648527Y-79563792D01*
X143700081Y-79557764D01*
X143749388Y-79541278D01*
X143793928Y-79511242D01*
X143800889Y-79504442D01*
X143831534Y-79460802D01*
X143848173Y-79411963D01*
X143854012Y-79360544D01*
X143374563Y-79360544D01*
X143374563Y-79299727D01*
X143374640Y-79289539D01*
X143376944Y-79247948D01*
X143528436Y-79247948D01*
X143854012Y-79247948D01*
X143844931Y-79205182D01*
X143825962Y-79159524D01*
X143795393Y-79118011D01*
X143773456Y-79098691D01*
X143727444Y-79075402D01*
X143678890Y-79068429D01*
X143657723Y-79069586D01*
X143609612Y-79083422D01*
X143568980Y-79115812D01*
X143547914Y-79148971D01*
X143532710Y-79198522D01*
X143528436Y-79247948D01*
X143376944Y-79247948D01*
X143377345Y-79240703D01*
X143385691Y-79186727D01*
X143399602Y-79137800D01*
X143422863Y-79087100D01*
X143453698Y-79043272D01*
X143479943Y-79016675D01*
X143522036Y-78987013D01*
X143570370Y-78966186D01*
X143624945Y-78954194D01*
X143676691Y-78950949D01*
X143694551Y-78951352D01*
G37*
G36*
X142818666Y-79107264D02*
G01*
X142867433Y-79093480D01*
X142901709Y-79091632D01*
X142951534Y-79100700D01*
X142994765Y-79127903D01*
X143019922Y-79156113D01*
X143044910Y-79200792D01*
X143059485Y-79248753D01*
X143066149Y-79297548D01*
X143067306Y-79330990D01*
X143067306Y-79670000D01*
X143226552Y-79670000D01*
X143226552Y-78966580D01*
X143067306Y-78966580D01*
X143067306Y-79107264D01*
X143064619Y-79107264D01*
X143045555Y-79060392D01*
X143018043Y-79018013D01*
X142992811Y-78992226D01*
X142951507Y-78965500D01*
X142902967Y-78951956D01*
X142884612Y-78950949D01*
X142834762Y-78956836D01*
X142818666Y-78963405D01*
X142818666Y-79107264D01*
G37*
G36*
X141377878Y-78966580D02*
G01*
X141585484Y-79670000D01*
X141752302Y-79670000D01*
X141880041Y-79193237D01*
X141888798Y-79144109D01*
X141889811Y-79131444D01*
X141892497Y-79131444D01*
X141901752Y-79180575D01*
X141904954Y-79191772D01*
X142043684Y-79670000D01*
X142207082Y-79670000D01*
X142413956Y-78966580D01*
X142249092Y-78966580D01*
X142121353Y-79473628D01*
X142113767Y-79522501D01*
X142113049Y-79533956D01*
X142108164Y-79533956D01*
X142100313Y-79484382D01*
X142097173Y-79472163D01*
X141955024Y-78966580D01*
X141805303Y-78966580D01*
X141678785Y-79475582D01*
X141670915Y-79525080D01*
X141669992Y-79536154D01*
X141665107Y-79536154D01*
X141657418Y-79486335D01*
X141654849Y-79475582D01*
X141529797Y-78966580D01*
X141377878Y-78966580D01*
G37*
G36*
X141186636Y-78825896D02*
G01*
X141235279Y-78813890D01*
X141253802Y-78800495D01*
X141279219Y-78756789D01*
X141281402Y-78735771D01*
X141268357Y-78688156D01*
X141253802Y-78670558D01*
X141210092Y-78646976D01*
X141186636Y-78644424D01*
X141138786Y-78655679D01*
X141118003Y-78670558D01*
X141092658Y-78712610D01*
X141089915Y-78735771D01*
X141104426Y-78783712D01*
X141118003Y-78799518D01*
X141162512Y-78823320D01*
X141186636Y-78825896D01*
G37*
G36*
X141106524Y-79670000D02*
G01*
X141265770Y-79670000D01*
X141265770Y-78966580D01*
X141106524Y-78966580D01*
X141106524Y-79670000D01*
G37*
G36*
X140529622Y-79661207D02*
G01*
X140576098Y-79677903D01*
X140624939Y-79684772D01*
X140652476Y-79685631D01*
X140711441Y-79680837D01*
X140760411Y-79666454D01*
X140805983Y-79636538D01*
X140837164Y-79592815D01*
X140852155Y-79545832D01*
X140857152Y-79489260D01*
X140857152Y-79091632D01*
X140974633Y-79091632D01*
X140974633Y-78966580D01*
X140857152Y-78966580D01*
X140857152Y-78807578D01*
X140697906Y-78763370D01*
X140697906Y-78966580D01*
X140529622Y-78966580D01*
X140529622Y-79091632D01*
X140697906Y-79091632D01*
X140697906Y-79443098D01*
X140692915Y-79493881D01*
X140675191Y-79532491D01*
X140632335Y-79555967D01*
X140599476Y-79559113D01*
X140551100Y-79546280D01*
X140529622Y-79529316D01*
X140529622Y-79661207D01*
G37*
G36*
X139770271Y-79670000D02*
G01*
X139929518Y-79670000D01*
X139929518Y-79286050D01*
X139931697Y-79237163D01*
X139940549Y-79185221D01*
X139960161Y-79136334D01*
X139995436Y-79097836D01*
X140044057Y-79079300D01*
X140068980Y-79077466D01*
X140118462Y-79085950D01*
X140161762Y-79111401D01*
X140187194Y-79137794D01*
X140214588Y-79183253D01*
X140229624Y-79231491D01*
X140235122Y-79280533D01*
X140235310Y-79292156D01*
X140235310Y-79670000D01*
X140395289Y-79670000D01*
X140395289Y-78622686D01*
X140235310Y-78622686D01*
X140235310Y-79084305D01*
X140232623Y-79084305D01*
X140200268Y-79038985D01*
X140163105Y-79003041D01*
X140121134Y-78976474D01*
X140074354Y-78959283D01*
X140022765Y-78951469D01*
X140004500Y-78950949D01*
X139949603Y-78955417D01*
X139902025Y-78968824D01*
X139852846Y-78998151D01*
X139815104Y-79041443D01*
X139793145Y-79086132D01*
X139778506Y-79139759D01*
X139771186Y-79202323D01*
X139770271Y-79236957D01*
X139770271Y-79670000D01*
G37*
G36*
X149195114Y-81350000D02*
G01*
X149016572Y-81350000D01*
X148931332Y-81092568D01*
X148543962Y-81092568D01*
X148455302Y-81350000D01*
X148276028Y-81350000D01*
X148421314Y-80959211D01*
X148587193Y-80959211D01*
X148888833Y-80959211D01*
X148753523Y-80568178D01*
X148749360Y-80553969D01*
X148739601Y-80505896D01*
X148736914Y-80505896D01*
X148734795Y-80518687D01*
X148723969Y-80568178D01*
X148587193Y-80959211D01*
X148421314Y-80959211D01*
X148642148Y-80365212D01*
X148826307Y-80365212D01*
X149195114Y-81350000D01*
G37*
G36*
X147570166Y-80503942D02*
G01*
X147852999Y-80503942D01*
X147852999Y-81350000D01*
X148016642Y-81350000D01*
X148016642Y-80503942D01*
X148298987Y-80503942D01*
X148298987Y-80365212D01*
X147570166Y-80365212D01*
X147570166Y-80503942D01*
G37*
G36*
X146372399Y-81350000D02*
G01*
X146534577Y-81350000D01*
X146534577Y-80712770D01*
X146533622Y-80660358D01*
X146531132Y-80607355D01*
X146527621Y-80555602D01*
X146524807Y-80521039D01*
X146527738Y-80521039D01*
X146540166Y-80570540D01*
X146554360Y-80613852D01*
X146848429Y-81350000D01*
X146961025Y-81350000D01*
X147255826Y-80619225D01*
X147270105Y-80572290D01*
X147281960Y-80521039D01*
X147284646Y-80521039D01*
X147281448Y-80570507D01*
X147279819Y-80624117D01*
X147279166Y-80673989D01*
X147279029Y-80713991D01*
X147279029Y-81350000D01*
X147430215Y-81350000D01*
X147430215Y-80365212D01*
X147200138Y-80365212D01*
X146941241Y-81021004D01*
X146923347Y-81068360D01*
X146907586Y-81115523D01*
X146902650Y-81133600D01*
X146899231Y-81133600D01*
X146882893Y-81084936D01*
X146865356Y-81036690D01*
X146857954Y-81018318D01*
X146594172Y-80365212D01*
X146372399Y-80365212D01*
X146372399Y-81350000D01*
G37*
G36*
X145879058Y-80631352D02*
G01*
X145930427Y-80637406D01*
X145978480Y-80650724D01*
X146023220Y-80671306D01*
X146064645Y-80699152D01*
X146102755Y-80734263D01*
X146120127Y-80754121D01*
X146149746Y-80797032D01*
X146172529Y-80844201D01*
X146188477Y-80895630D01*
X146197591Y-80951317D01*
X146199964Y-81000976D01*
X146199189Y-81032809D01*
X146194453Y-81082828D01*
X146183087Y-81137846D01*
X146165522Y-81187402D01*
X146141757Y-81231498D01*
X146111792Y-81270132D01*
X146069908Y-81307343D01*
X146021619Y-81335415D01*
X145975131Y-81352202D01*
X145923937Y-81362274D01*
X145868038Y-81365631D01*
X145811034Y-81363519D01*
X145758357Y-81357182D01*
X145710009Y-81346620D01*
X145659072Y-81328959D01*
X145614025Y-81305547D01*
X145614025Y-81178053D01*
X145619920Y-81182110D01*
X145662202Y-81206904D01*
X145712699Y-81227512D01*
X145765517Y-81239877D01*
X145820655Y-81243998D01*
X145833035Y-81243792D01*
X145884589Y-81237764D01*
X145933896Y-81221278D01*
X145978436Y-81191242D01*
X145985396Y-81184442D01*
X146016041Y-81140802D01*
X146032680Y-81091963D01*
X146038519Y-81040544D01*
X145559071Y-81040544D01*
X145559071Y-80979727D01*
X145559148Y-80969539D01*
X145561452Y-80927948D01*
X145712944Y-80927948D01*
X146038519Y-80927948D01*
X146029439Y-80885182D01*
X146010470Y-80839524D01*
X145979901Y-80798011D01*
X145957964Y-80778691D01*
X145911952Y-80755402D01*
X145863397Y-80748429D01*
X145842231Y-80749586D01*
X145794120Y-80763422D01*
X145753488Y-80795812D01*
X145732422Y-80828971D01*
X145717218Y-80878522D01*
X145712944Y-80927948D01*
X145561452Y-80927948D01*
X145561853Y-80920703D01*
X145570199Y-80866727D01*
X145584109Y-80817800D01*
X145607371Y-80767100D01*
X145638205Y-80723272D01*
X145664451Y-80696675D01*
X145706544Y-80667013D01*
X145754878Y-80646186D01*
X145809453Y-80634194D01*
X145861199Y-80630949D01*
X145879058Y-80631352D01*
G37*
G36*
X145192894Y-80634658D02*
G01*
X145241635Y-80645786D01*
X145292878Y-80668146D01*
X145338066Y-80700604D01*
X145371981Y-80736461D01*
X145391787Y-80763988D01*
X145416545Y-80809586D01*
X145435362Y-80860354D01*
X145448236Y-80916290D01*
X145454425Y-80966852D01*
X145456489Y-81021004D01*
X145453724Y-81077831D01*
X145445429Y-81130158D01*
X145431604Y-81177986D01*
X145408487Y-81228098D01*
X145377842Y-81272086D01*
X145357402Y-81294011D01*
X145317886Y-81325345D01*
X145273600Y-81347726D01*
X145224547Y-81361155D01*
X145170724Y-81365631D01*
X145151192Y-81365105D01*
X145096337Y-81357220D01*
X145047098Y-81339872D01*
X145003475Y-81313062D01*
X144965468Y-81276789D01*
X144933076Y-81231053D01*
X144930389Y-81231053D01*
X144930389Y-81311165D01*
X144930634Y-81326973D01*
X144936507Y-81385187D01*
X144950212Y-81435371D01*
X144978355Y-81486810D01*
X145018733Y-81525703D01*
X145071348Y-81552049D01*
X145122250Y-81564094D01*
X145180983Y-81568108D01*
X145200547Y-81567565D01*
X145253704Y-81560807D01*
X145301393Y-81548557D01*
X145350182Y-81530393D01*
X145400068Y-81506315D01*
X145400068Y-81648953D01*
X145367235Y-81661900D01*
X145318404Y-81676338D01*
X145266229Y-81686476D01*
X145210713Y-81692313D01*
X145160466Y-81693893D01*
X145113292Y-81692361D01*
X145048237Y-81684317D01*
X144990031Y-81669378D01*
X144938672Y-81647543D01*
X144894160Y-81618814D01*
X144856497Y-81583189D01*
X144825682Y-81540669D01*
X144801714Y-81491254D01*
X144784595Y-81434944D01*
X144774323Y-81371739D01*
X144770899Y-81301639D01*
X144770899Y-80936741D01*
X144928924Y-80936741D01*
X144928924Y-81027843D01*
X144928974Y-81033581D01*
X144935014Y-81087420D01*
X144951118Y-81134818D01*
X144980459Y-81179518D01*
X145015674Y-81210688D01*
X145061353Y-81231640D01*
X145114304Y-81238625D01*
X145161860Y-81232590D01*
X145206954Y-81212013D01*
X145244486Y-81176831D01*
X145258629Y-81156431D01*
X145279723Y-81109548D01*
X145290510Y-81060419D01*
X145293579Y-81011235D01*
X145292332Y-80975129D01*
X145285154Y-80922743D01*
X145269451Y-80871727D01*
X145242532Y-80824877D01*
X145235967Y-80816773D01*
X145198534Y-80784096D01*
X145153420Y-80764490D01*
X145100627Y-80757955D01*
X145065395Y-80761237D01*
X145018271Y-80778467D01*
X144978017Y-80810467D01*
X144956539Y-80837960D01*
X144935828Y-80884293D01*
X144928924Y-80936741D01*
X144770899Y-80936741D01*
X144770899Y-80646580D01*
X144930389Y-80646580D01*
X144930389Y-80744766D01*
X144933076Y-80744766D01*
X144955831Y-80711977D01*
X144993618Y-80675408D01*
X145038324Y-80649733D01*
X145089949Y-80634950D01*
X145139706Y-80630949D01*
X145192894Y-80634658D01*
G37*
G36*
X144348012Y-80633267D02*
G01*
X144398993Y-80640222D01*
X144447571Y-80651814D01*
X144501206Y-80671199D01*
X144551569Y-80696894D01*
X144551569Y-80836357D01*
X144525908Y-80816092D01*
X144479165Y-80787131D01*
X144430085Y-80766444D01*
X144378667Y-80754032D01*
X144324911Y-80749895D01*
X144299377Y-80751185D01*
X144249564Y-80764230D01*
X144209378Y-80796340D01*
X144187053Y-80846799D01*
X144182029Y-80896685D01*
X144390857Y-80926238D01*
X144431843Y-80933933D01*
X144480221Y-80948753D01*
X144530614Y-80974610D01*
X144569808Y-81008612D01*
X144597804Y-81050759D01*
X144614602Y-81101052D01*
X144620201Y-81159490D01*
X144619972Y-81170980D01*
X144611958Y-81224165D01*
X144592495Y-81270242D01*
X144561583Y-81309211D01*
X144542091Y-81325465D01*
X144496525Y-81349708D01*
X144448010Y-81362105D01*
X144398917Y-81365631D01*
X144356611Y-81362548D01*
X144302953Y-81347874D01*
X144255792Y-81321115D01*
X144215130Y-81282271D01*
X144185449Y-81239357D01*
X144182518Y-81239357D01*
X144182518Y-81350000D01*
X144028156Y-81350000D01*
X144028156Y-81063258D01*
X144182029Y-81063258D01*
X144185021Y-81100780D01*
X144200729Y-81150766D01*
X144229901Y-81193196D01*
X144255287Y-81215742D01*
X144299262Y-81237484D01*
X144350313Y-81244731D01*
X144390225Y-81240015D01*
X144435798Y-81216154D01*
X144456514Y-81190037D01*
X144467794Y-81142149D01*
X144462070Y-81098267D01*
X144433111Y-81056175D01*
X144426308Y-81051687D01*
X144379871Y-81032392D01*
X144329552Y-81022470D01*
X144182029Y-81001709D01*
X144182029Y-81063258D01*
X144028156Y-81063258D01*
X144028156Y-80893021D01*
X144029197Y-80861286D01*
X144037524Y-80803957D01*
X144054179Y-80754819D01*
X144086707Y-80704912D01*
X144132246Y-80667803D01*
X144178045Y-80647328D01*
X144232172Y-80635043D01*
X144294625Y-80630949D01*
X144348012Y-80633267D01*
G37*
G36*
X143856454Y-81312142D02*
G01*
X143856454Y-81160711D01*
X143813172Y-81191260D01*
X143767529Y-81214306D01*
X143719526Y-81229849D01*
X143669161Y-81237888D01*
X143639322Y-81239113D01*
X143587222Y-81235520D01*
X143536675Y-81223098D01*
X143490000Y-81199185D01*
X143482518Y-81193684D01*
X143446649Y-81154930D01*
X143427334Y-81107176D01*
X143423655Y-81070341D01*
X143429911Y-81021087D01*
X143453930Y-80973002D01*
X143495965Y-80936938D01*
X143544755Y-80916068D01*
X143592794Y-80905382D01*
X143648841Y-80900039D01*
X143679866Y-80899371D01*
X143756070Y-80899371D01*
X143756070Y-80771632D01*
X143683286Y-80771632D01*
X143629991Y-80769232D01*
X143573365Y-80759480D01*
X143520071Y-80737876D01*
X143482765Y-80705470D01*
X143459448Y-80654010D01*
X143455895Y-80618004D01*
X143464380Y-80562901D01*
X143494857Y-80516499D01*
X143539707Y-80490397D01*
X143591656Y-80478797D01*
X143633216Y-80476587D01*
X143681942Y-80480770D01*
X143729203Y-80493318D01*
X143774999Y-80514231D01*
X143819329Y-80543510D01*
X143819329Y-80404780D01*
X143773765Y-80383272D01*
X143724694Y-80367046D01*
X143672118Y-80356103D01*
X143616035Y-80350443D01*
X143582413Y-80349581D01*
X143527533Y-80352678D01*
X143477654Y-80361969D01*
X143426775Y-80380173D01*
X143382430Y-80406467D01*
X143372364Y-80414305D01*
X143337743Y-80448957D01*
X143310618Y-80493415D01*
X143296012Y-80543668D01*
X143293230Y-80580390D01*
X143298060Y-80636679D01*
X143312550Y-80686326D01*
X143336700Y-80729330D01*
X143370510Y-80765690D01*
X143413980Y-80795409D01*
X143467110Y-80818484D01*
X143491066Y-80825854D01*
X143491066Y-80828541D01*
X143440615Y-80837212D01*
X143390535Y-80855141D01*
X143347527Y-80881725D01*
X143322783Y-80904256D01*
X143292912Y-80943351D01*
X143271188Y-80992772D01*
X143261955Y-81042635D01*
X143260990Y-81066434D01*
X143265758Y-81122727D01*
X143280063Y-81174065D01*
X143303906Y-81220447D01*
X143337285Y-81261874D01*
X143360641Y-81283321D01*
X143407170Y-81315393D01*
X143451889Y-81336614D01*
X143501074Y-81352047D01*
X143554723Y-81361692D01*
X143612838Y-81365551D01*
X143622958Y-81365631D01*
X143675743Y-81363751D01*
X143724372Y-81358109D01*
X143775853Y-81346774D01*
X143827762Y-81327551D01*
X143856454Y-81312142D01*
G37*
G36*
X142478680Y-81350000D02*
G01*
X143096858Y-81350000D01*
X143096858Y-81273796D01*
X143092763Y-81223169D01*
X143083914Y-81186357D01*
X143065152Y-81139642D01*
X143048743Y-81109665D01*
X143020056Y-81068203D01*
X142997452Y-81041521D01*
X142962890Y-81006221D01*
X142934193Y-80979727D01*
X142895888Y-80946823D01*
X142865560Y-80922086D01*
X142826457Y-80890685D01*
X142796684Y-80866154D01*
X142759399Y-80833258D01*
X142739043Y-80813886D01*
X142705387Y-80775913D01*
X142694346Y-80760642D01*
X142671174Y-80717594D01*
X142665526Y-80702512D01*
X142655909Y-80653831D01*
X142655267Y-80636322D01*
X142660924Y-80587322D01*
X142667235Y-80568178D01*
X142694386Y-80525674D01*
X142700941Y-80519330D01*
X142743187Y-80493312D01*
X142752232Y-80490020D01*
X142801605Y-80480486D01*
X142816712Y-80480006D01*
X142866091Y-80484682D01*
X142916196Y-80498710D01*
X142939566Y-80508339D01*
X142985774Y-80533354D01*
X143026924Y-80563225D01*
X143059734Y-80592602D01*
X143059734Y-80439462D01*
X143018080Y-80411116D01*
X142998917Y-80400139D01*
X142953318Y-80378815D01*
X142934925Y-80372051D01*
X142885761Y-80358704D01*
X142865560Y-80355198D01*
X142815582Y-80350245D01*
X142787891Y-80349581D01*
X142735771Y-80352483D01*
X142684239Y-80362100D01*
X142666991Y-80367166D01*
X142619646Y-80387073D01*
X142576835Y-80416352D01*
X142574423Y-80418457D01*
X142540229Y-80456620D01*
X142516158Y-80500051D01*
X142514828Y-80503210D01*
X142500469Y-80550560D01*
X142494336Y-80599719D01*
X142493823Y-80619958D01*
X142496675Y-80669813D01*
X142506059Y-80718145D01*
X142508722Y-80727180D01*
X142526490Y-80773220D01*
X142550487Y-80816085D01*
X142580468Y-80856140D01*
X142613788Y-80891918D01*
X142616189Y-80894242D01*
X142654124Y-80929476D01*
X142693113Y-80963136D01*
X142701918Y-80970446D01*
X142741668Y-81002259D01*
X142781297Y-81033217D01*
X142821062Y-81065241D01*
X142852371Y-81092812D01*
X142887176Y-81129238D01*
X142903662Y-81151186D01*
X142922267Y-81196898D01*
X142923202Y-81209804D01*
X142923202Y-81213224D01*
X142478680Y-81213224D01*
X142478680Y-81350000D01*
G37*
G36*
X142018278Y-80350040D02*
G01*
X142066895Y-80355531D01*
X142115735Y-80368387D01*
X142122367Y-80370765D01*
X142168638Y-80392246D01*
X142208791Y-80420167D01*
X142243901Y-80456254D01*
X142270585Y-80498569D01*
X142287254Y-80546013D01*
X142292811Y-80597487D01*
X142290999Y-80626300D01*
X142278023Y-80676771D01*
X142254953Y-80719853D01*
X142234406Y-80746201D01*
X142197518Y-80781028D01*
X142153348Y-80810223D01*
X142186660Y-80825451D01*
X142228819Y-80853942D01*
X142251488Y-80875237D01*
X142282553Y-80915003D01*
X142297013Y-80941358D01*
X142314549Y-80989253D01*
X142321349Y-81022282D01*
X142325051Y-81072295D01*
X142324455Y-81092406D01*
X142317323Y-81142182D01*
X142300627Y-81191730D01*
X142294223Y-81204984D01*
X142267122Y-81247586D01*
X142232727Y-81284298D01*
X142218665Y-81295870D01*
X142175041Y-81323893D01*
X142128924Y-81344138D01*
X142098134Y-81353541D01*
X142049144Y-81362609D01*
X141996789Y-81365631D01*
X141965542Y-81364603D01*
X141914749Y-81358054D01*
X141863676Y-81344138D01*
X141845171Y-81337010D01*
X141801019Y-81314625D01*
X141759873Y-81284298D01*
X141749310Y-81274410D01*
X141717146Y-81236015D01*
X141692462Y-81191730D01*
X141684245Y-81171011D01*
X141672273Y-81123467D01*
X141668282Y-81072295D01*
X141668980Y-81058862D01*
X141823620Y-81058862D01*
X141825179Y-81086652D01*
X141836810Y-81134577D01*
X141843908Y-81150819D01*
X141872713Y-81192219D01*
X141884742Y-81203500D01*
X141927424Y-81229099D01*
X141947736Y-81235926D01*
X141996789Y-81242044D01*
X142018210Y-81241059D01*
X142067863Y-81229588D01*
X142083281Y-81222551D01*
X142122574Y-81193196D01*
X142134421Y-81179058D01*
X142157500Y-81135554D01*
X142164942Y-81108741D01*
X142169713Y-81058862D01*
X142168448Y-81034166D01*
X142156768Y-80984368D01*
X142148694Y-80965887D01*
X142120864Y-80925505D01*
X142108728Y-80913767D01*
X142065909Y-80887159D01*
X142045411Y-80879947D01*
X141996789Y-80873482D01*
X141972951Y-80874913D01*
X141925714Y-80888136D01*
X141910296Y-80896120D01*
X141871004Y-80927948D01*
X141859057Y-80942676D01*
X141836077Y-80986810D01*
X141829508Y-81008330D01*
X141823620Y-81058862D01*
X141668980Y-81058862D01*
X141670096Y-81037378D01*
X141679273Y-80988520D01*
X141689062Y-80959188D01*
X141712246Y-80914270D01*
X141731880Y-80887895D01*
X141766956Y-80853698D01*
X141797343Y-80832153D01*
X141842183Y-80810223D01*
X141812477Y-80791386D01*
X141773757Y-80758436D01*
X141742043Y-80719853D01*
X141727292Y-80695131D01*
X141709509Y-80646179D01*
X141706002Y-80614096D01*
X141859280Y-80614096D01*
X141859452Y-80621484D01*
X141870271Y-80669783D01*
X141872402Y-80674536D01*
X141900313Y-80714724D01*
X141902688Y-80717075D01*
X141944276Y-80745010D01*
X141948982Y-80746974D01*
X141998010Y-80756001D01*
X142003382Y-80755906D01*
X142051988Y-80745254D01*
X142055106Y-80743878D01*
X142095707Y-80715457D01*
X142099121Y-80711781D01*
X142125260Y-80670272D01*
X142127836Y-80663731D01*
X142136251Y-80614096D01*
X142136163Y-80608718D01*
X142126237Y-80559385D01*
X142124954Y-80556175D01*
X142098149Y-80514200D01*
X142095832Y-80511791D01*
X142054430Y-80483670D01*
X142046355Y-80480433D01*
X141998010Y-80472435D01*
X141992505Y-80472529D01*
X141943055Y-80483182D01*
X141939907Y-80484556D01*
X141899092Y-80512735D01*
X141895682Y-80516328D01*
X141870027Y-80557920D01*
X141867508Y-80564515D01*
X141859280Y-80614096D01*
X141706002Y-80614096D01*
X141704186Y-80597487D01*
X141709681Y-80546563D01*
X141726168Y-80499302D01*
X141752546Y-80456926D01*
X141787717Y-80420655D01*
X141792689Y-80416560D01*
X141833633Y-80389429D01*
X141881018Y-80368632D01*
X141898124Y-80363143D01*
X141948560Y-80352725D01*
X141998743Y-80349581D01*
X142018278Y-80350040D01*
G37*
G36*
X141489252Y-81350000D02*
G01*
X141326586Y-81350000D01*
X141326586Y-80998778D01*
X141195184Y-80998778D01*
X141174691Y-80998419D01*
X141116431Y-80993023D01*
X141062996Y-80981154D01*
X141014387Y-80962810D01*
X140970603Y-80937991D01*
X140931646Y-80906699D01*
X140898444Y-80870231D01*
X140868391Y-80823019D01*
X140847687Y-80770781D01*
X140837383Y-80722006D01*
X140834396Y-80676378D01*
X141005651Y-80676378D01*
X141011018Y-80728618D01*
X141029318Y-80776991D01*
X141060606Y-80815840D01*
X141079002Y-80830124D01*
X141123127Y-80851429D01*
X141171202Y-80862323D01*
X141220585Y-80865422D01*
X141326586Y-80865422D01*
X141326586Y-80499790D01*
X141207640Y-80499790D01*
X141160299Y-80502549D01*
X141109999Y-80513759D01*
X141062658Y-80538591D01*
X141029519Y-80575840D01*
X141010583Y-80625505D01*
X141005651Y-80676378D01*
X140834396Y-80676378D01*
X140833948Y-80669539D01*
X140836232Y-80625870D01*
X140845002Y-80577670D01*
X140863547Y-80527232D01*
X140891044Y-80483035D01*
X140927493Y-80445080D01*
X140939455Y-80435408D01*
X140986022Y-80406472D01*
X141031761Y-80387753D01*
X141082874Y-80374650D01*
X141139363Y-80367162D01*
X141190543Y-80365212D01*
X141489252Y-80365212D01*
X141489252Y-81350000D01*
G37*
G36*
X146321109Y-82326580D02*
G01*
X146592951Y-83030000D01*
X146765387Y-83030000D01*
X147024528Y-82326580D01*
X146851360Y-82326580D01*
X146695289Y-82818485D01*
X146681579Y-82866313D01*
X146673307Y-82913251D01*
X146671353Y-82913251D01*
X146663476Y-82864830D01*
X146652058Y-82821172D01*
X146488660Y-82326580D01*
X146321109Y-82326580D01*
G37*
G36*
X146216573Y-83030000D02*
G01*
X146057327Y-83030000D01*
X146057327Y-82927418D01*
X146054640Y-82927418D01*
X146031089Y-82961473D01*
X145992587Y-82999454D01*
X145947634Y-83026121D01*
X145896230Y-83041475D01*
X145847034Y-83045631D01*
X145794343Y-83041913D01*
X145745997Y-83030759D01*
X145695085Y-83008348D01*
X145650087Y-82975815D01*
X145616224Y-82939874D01*
X145596418Y-82912278D01*
X145571659Y-82866778D01*
X145552843Y-82816348D01*
X145539969Y-82760990D01*
X145533779Y-82711093D01*
X145531735Y-82658262D01*
X145695359Y-82658262D01*
X145697136Y-82702601D01*
X145705036Y-82755762D01*
X145721477Y-82807430D01*
X145745917Y-82850481D01*
X145749099Y-82854703D01*
X145785039Y-82889556D01*
X145833223Y-82912411D01*
X145884891Y-82919113D01*
X145920978Y-82915785D01*
X145968926Y-82898314D01*
X146009455Y-82865868D01*
X146033187Y-82833945D01*
X146052747Y-82785671D01*
X146058548Y-82735687D01*
X146058548Y-82648736D01*
X146058346Y-82637558D01*
X146051266Y-82585218D01*
X146034074Y-82538793D01*
X146006768Y-82498283D01*
X145967216Y-82463936D01*
X145919756Y-82443846D01*
X145869748Y-82437955D01*
X145827195Y-82442592D01*
X145778692Y-82463200D01*
X145742498Y-82496573D01*
X145728918Y-82515912D01*
X145708663Y-82561173D01*
X145698305Y-82609413D01*
X145695359Y-82658262D01*
X145531735Y-82658262D01*
X145531716Y-82657773D01*
X145534361Y-82600672D01*
X145542295Y-82548070D01*
X145555518Y-82499968D01*
X145577631Y-82449535D01*
X145606943Y-82405226D01*
X145626658Y-82383130D01*
X145665530Y-82351551D01*
X145709966Y-82328994D01*
X145759964Y-82315460D01*
X145815526Y-82310949D01*
X145834893Y-82311495D01*
X145889456Y-82319696D01*
X145938712Y-82337736D01*
X145982661Y-82365617D01*
X146021304Y-82403338D01*
X146054640Y-82450900D01*
X146057327Y-82450900D01*
X146057327Y-81982686D01*
X146216573Y-81982686D01*
X146216573Y-83030000D01*
G37*
G36*
X145076028Y-82311822D02*
G01*
X145125907Y-82317161D01*
X145181228Y-82329976D01*
X145231603Y-82349779D01*
X145277032Y-82376573D01*
X145317515Y-82410355D01*
X145341272Y-82436417D01*
X145370967Y-82480046D01*
X145393536Y-82529118D01*
X145408977Y-82583635D01*
X145416401Y-82633224D01*
X145418876Y-82686594D01*
X145418496Y-82706647D01*
X145412800Y-82763805D01*
X145400270Y-82816464D01*
X145380904Y-82864624D01*
X145354703Y-82908285D01*
X145321667Y-82947445D01*
X145302863Y-82964992D01*
X145261790Y-82994908D01*
X145216098Y-83017920D01*
X145165786Y-83034029D01*
X145110854Y-83043234D01*
X145061549Y-83045631D01*
X145030734Y-83044742D01*
X144982048Y-83039311D01*
X144928032Y-83026277D01*
X144878824Y-83006132D01*
X144834426Y-82978878D01*
X144794835Y-82944515D01*
X144777070Y-82924969D01*
X144746782Y-82882362D01*
X144723484Y-82835067D01*
X144707175Y-82783083D01*
X144697856Y-82726411D01*
X144695616Y-82679511D01*
X144859071Y-82679511D01*
X144860306Y-82714173D01*
X144867415Y-82764273D01*
X144882968Y-82812753D01*
X144909630Y-82856831D01*
X144916090Y-82864373D01*
X144957725Y-82897156D01*
X145004542Y-82914187D01*
X145053977Y-82919113D01*
X145065342Y-82918866D01*
X145117816Y-82910217D01*
X145163039Y-82889214D01*
X145201011Y-82855854D01*
X145219687Y-82830475D01*
X145240456Y-82786191D01*
X145252531Y-82734450D01*
X145255966Y-82682198D01*
X145254642Y-82647682D01*
X145247017Y-82597467D01*
X145230338Y-82548347D01*
X145201744Y-82502923D01*
X145191232Y-82491313D01*
X145151199Y-82460859D01*
X145103486Y-82443094D01*
X145053977Y-82437955D01*
X145048143Y-82438016D01*
X144994495Y-82445401D01*
X144949387Y-82465093D01*
X144909630Y-82500969D01*
X144892448Y-82526446D01*
X144873340Y-82571584D01*
X144862231Y-82625030D01*
X144859071Y-82679511D01*
X144695616Y-82679511D01*
X144695429Y-82675603D01*
X144696238Y-82644114D01*
X144701184Y-82594560D01*
X144713053Y-82539929D01*
X144731397Y-82490570D01*
X144756216Y-82446483D01*
X144787508Y-82407669D01*
X144805413Y-82390384D01*
X144845060Y-82360914D01*
X144889825Y-82338246D01*
X144939708Y-82322377D01*
X144994709Y-82313310D01*
X145044452Y-82310949D01*
X145076028Y-82311822D01*
G37*
G36*
X144018876Y-82393258D02*
G01*
X144398674Y-82905680D01*
X144020341Y-82905680D01*
X144020341Y-83030000D01*
X144621912Y-83030000D01*
X144621912Y-82970160D01*
X144233810Y-82450900D01*
X144585031Y-82450900D01*
X144585031Y-82326580D01*
X144018876Y-82326580D01*
X144018876Y-82393258D01*
G37*
G36*
X143809316Y-82185896D02*
G01*
X143857959Y-82173890D01*
X143876482Y-82160495D01*
X143901899Y-82116789D01*
X143904082Y-82095771D01*
X143891037Y-82048156D01*
X143876482Y-82030558D01*
X143832771Y-82006976D01*
X143809316Y-82004424D01*
X143761466Y-82015679D01*
X143740683Y-82030558D01*
X143715338Y-82072610D01*
X143712595Y-82095771D01*
X143727106Y-82143712D01*
X143740683Y-82159518D01*
X143785192Y-82183320D01*
X143809316Y-82185896D01*
G37*
G36*
X143729204Y-83030000D02*
G01*
X143888450Y-83030000D01*
X143888450Y-82326580D01*
X143729204Y-82326580D01*
X143729204Y-83030000D01*
G37*
G36*
X143019678Y-82996782D02*
G01*
X143063856Y-83018154D01*
X143111880Y-83033419D01*
X143163751Y-83042578D01*
X143219469Y-83045631D01*
X143276058Y-83042196D01*
X143328405Y-83031892D01*
X143376511Y-83014719D01*
X143420374Y-82990676D01*
X143459996Y-82959764D01*
X143472260Y-82947934D01*
X143504964Y-82909262D01*
X143530902Y-82866521D01*
X143550073Y-82819709D01*
X143562478Y-82768828D01*
X143568116Y-82713876D01*
X143568492Y-82694654D01*
X143565970Y-82642132D01*
X143558403Y-82592950D01*
X143542663Y-82538339D01*
X143519660Y-82488536D01*
X143489392Y-82443542D01*
X143465177Y-82416217D01*
X143423904Y-82380442D01*
X143377754Y-82352069D01*
X143326726Y-82331098D01*
X143270821Y-82317528D01*
X143220508Y-82311874D01*
X143188695Y-82310949D01*
X143136361Y-82313692D01*
X143087621Y-82321922D01*
X143037680Y-82337502D01*
X143018946Y-82345631D01*
X143018946Y-82498527D01*
X143061053Y-82469247D01*
X143109605Y-82447952D01*
X143160019Y-82438487D01*
X143175505Y-82437955D01*
X143229485Y-82443345D01*
X143277670Y-82459516D01*
X143320058Y-82486467D01*
X143341102Y-82506099D01*
X143372272Y-82547752D01*
X143393240Y-82596052D01*
X143403315Y-82644565D01*
X143405582Y-82684396D01*
X143401796Y-82735885D01*
X143388487Y-82786987D01*
X143365595Y-82830862D01*
X143345010Y-82856099D01*
X143302921Y-82889329D01*
X143258066Y-82908713D01*
X143206604Y-82918129D01*
X143181611Y-82919113D01*
X143128961Y-82913150D01*
X143078171Y-82895261D01*
X143034050Y-82868965D01*
X143019678Y-82858053D01*
X143019678Y-82996782D01*
G37*
D11*
%TO.C,REF\u002A\u002A*%
X154492906Y-66084949D02*
X154518627Y-66100647D01*
X154545278Y-66122227D01*
X154545278Y-66769684D01*
X154518627Y-66791264D01*
X154487267Y-66808739D01*
X154451466Y-66809575D01*
X154420028Y-66789082D01*
X154416152Y-66784416D01*
X154410686Y-66774949D01*
X154406479Y-66761267D01*
X154403367Y-66740748D01*
X154401187Y-66710768D01*
X154399776Y-66668704D01*
X154398971Y-66611932D01*
X154398607Y-66537830D01*
X154398522Y-66443773D01*
X154398522Y-66122227D01*
X154425173Y-66100647D01*
X154448886Y-66085877D01*
X154471900Y-66079067D01*
X154492906Y-66084949D01*
G36*
X154492906Y-66084949D02*
G01*
X154518627Y-66100647D01*
X154545278Y-66122227D01*
X154545278Y-66769684D01*
X154518627Y-66791264D01*
X154487267Y-66808739D01*
X154451466Y-66809575D01*
X154420028Y-66789082D01*
X154416152Y-66784416D01*
X154410686Y-66774949D01*
X154406479Y-66761267D01*
X154403367Y-66740748D01*
X154401187Y-66710768D01*
X154399776Y-66668704D01*
X154398971Y-66611932D01*
X154398607Y-66537830D01*
X154398522Y-66443773D01*
X154398522Y-66122227D01*
X154425173Y-66100647D01*
X154448886Y-66085877D01*
X154471900Y-66079067D01*
X154492906Y-66084949D01*
G37*
X161623637Y-66083463D02*
X161657791Y-66106776D01*
X161685500Y-66134485D01*
X161685500Y-66447537D01*
X161685459Y-66531567D01*
X161685201Y-66605789D01*
X161684530Y-66662541D01*
X161683252Y-66704512D01*
X161681173Y-66734389D01*
X161678099Y-66754861D01*
X161673834Y-66768614D01*
X161668184Y-66778337D01*
X161660955Y-66786717D01*
X161629491Y-66808181D01*
X161594326Y-66809947D01*
X161561322Y-66790267D01*
X161556016Y-66784398D01*
X161550566Y-66775314D01*
X161546400Y-66761973D01*
X161543346Y-66741757D01*
X161541232Y-66712049D01*
X161539886Y-66670232D01*
X161539138Y-66613689D01*
X161538814Y-66539802D01*
X161538745Y-66445956D01*
X161538784Y-66370294D01*
X161539039Y-66292385D01*
X161539683Y-66232375D01*
X161540887Y-66187648D01*
X161542824Y-66155585D01*
X161545664Y-66133571D01*
X161549579Y-66118987D01*
X161554742Y-66109218D01*
X161561322Y-66101645D01*
X161590506Y-66082623D01*
X161623637Y-66083463D01*
G36*
X161623637Y-66083463D02*
G01*
X161657791Y-66106776D01*
X161685500Y-66134485D01*
X161685500Y-66447537D01*
X161685459Y-66531567D01*
X161685201Y-66605789D01*
X161684530Y-66662541D01*
X161683252Y-66704512D01*
X161681173Y-66734389D01*
X161678099Y-66754861D01*
X161673834Y-66768614D01*
X161668184Y-66778337D01*
X161660955Y-66786717D01*
X161629491Y-66808181D01*
X161594326Y-66809947D01*
X161561322Y-66790267D01*
X161556016Y-66784398D01*
X161550566Y-66775314D01*
X161546400Y-66761973D01*
X161543346Y-66741757D01*
X161541232Y-66712049D01*
X161539886Y-66670232D01*
X161539138Y-66613689D01*
X161538814Y-66539802D01*
X161538745Y-66445956D01*
X161538784Y-66370294D01*
X161539039Y-66292385D01*
X161539683Y-66232375D01*
X161540887Y-66187648D01*
X161542824Y-66155585D01*
X161545664Y-66133571D01*
X161549579Y-66118987D01*
X161554742Y-66109218D01*
X161561322Y-66101645D01*
X161590506Y-66082623D01*
X161623637Y-66083463D01*
G37*
X161092062Y-60842850D02*
X161174813Y-60870053D01*
X161249906Y-60915484D01*
X161321798Y-60981302D01*
X161360346Y-61025567D01*
X161399756Y-61083961D01*
X161424946Y-61144586D01*
X161438361Y-61213865D01*
X161442448Y-61298222D01*
X161442169Y-61344307D01*
X161439960Y-61385450D01*
X161434394Y-61417582D01*
X161424086Y-61448122D01*
X161407648Y-61484489D01*
X161393700Y-61511728D01*
X161335165Y-61597429D01*
X161263119Y-61666617D01*
X161179447Y-61717741D01*
X161086031Y-61749250D01*
X161052934Y-61756225D01*
X161012460Y-61763094D01*
X160979499Y-61764919D01*
X160945198Y-61761947D01*
X160900700Y-61754426D01*
X160849434Y-61742002D01*
X160758934Y-61704112D01*
X160679845Y-61649836D01*
X160614028Y-61581770D01*
X160563340Y-61502511D01*
X160529640Y-61414654D01*
X160514786Y-61320795D01*
X160520636Y-61223530D01*
X160546899Y-61127220D01*
X160591918Y-61038494D01*
X160652873Y-60963419D01*
X160727684Y-60903641D01*
X160814268Y-60860809D01*
X160910543Y-60836571D01*
X161014428Y-60832576D01*
X161092062Y-60842850D01*
G36*
X161092062Y-60842850D02*
G01*
X161174813Y-60870053D01*
X161249906Y-60915484D01*
X161321798Y-60981302D01*
X161360346Y-61025567D01*
X161399756Y-61083961D01*
X161424946Y-61144586D01*
X161438361Y-61213865D01*
X161442448Y-61298222D01*
X161442169Y-61344307D01*
X161439960Y-61385450D01*
X161434394Y-61417582D01*
X161424086Y-61448122D01*
X161407648Y-61484489D01*
X161393700Y-61511728D01*
X161335165Y-61597429D01*
X161263119Y-61666617D01*
X161179447Y-61717741D01*
X161086031Y-61749250D01*
X161052934Y-61756225D01*
X161012460Y-61763094D01*
X160979499Y-61764919D01*
X160945198Y-61761947D01*
X160900700Y-61754426D01*
X160849434Y-61742002D01*
X160758934Y-61704112D01*
X160679845Y-61649836D01*
X160614028Y-61581770D01*
X160563340Y-61502511D01*
X160529640Y-61414654D01*
X160514786Y-61320795D01*
X160520636Y-61223530D01*
X160546899Y-61127220D01*
X160591918Y-61038494D01*
X160652873Y-60963419D01*
X160727684Y-60903641D01*
X160814268Y-60860809D01*
X160910543Y-60836571D01*
X161014428Y-60832576D01*
X161092062Y-60842850D01*
G37*
X153793267Y-66079068D02*
X153887390Y-66079158D01*
X153961905Y-66079498D01*
X154019311Y-66080239D01*
X154062111Y-66081535D01*
X154092804Y-66083537D01*
X154113891Y-66086396D01*
X154127873Y-66090266D01*
X154137250Y-66095298D01*
X154144522Y-66101645D01*
X154163328Y-66134362D01*
X154164775Y-66171939D01*
X154148417Y-66205178D01*
X154147057Y-66206631D01*
X154135854Y-66214992D01*
X154118752Y-66220547D01*
X154091582Y-66223840D01*
X154050178Y-66225418D01*
X153990373Y-66225822D01*
X153851011Y-66225822D01*
X153851011Y-66489589D01*
X153850936Y-66565417D01*
X153850528Y-66632083D01*
X153849546Y-66681867D01*
X153847750Y-66717784D01*
X153844899Y-66742850D01*
X153840753Y-66760081D01*
X153835071Y-66772492D01*
X153827614Y-66783100D01*
X153825324Y-66785906D01*
X153794146Y-66808548D01*
X153759766Y-66810112D01*
X153726834Y-66790267D01*
X153719855Y-66782191D01*
X153714383Y-66771593D01*
X153710363Y-66755749D01*
X153707572Y-66731773D01*
X153705788Y-66696774D01*
X153704789Y-66647864D01*
X153704352Y-66582154D01*
X153704256Y-66496756D01*
X153704256Y-66225822D01*
X153558320Y-66225822D01*
X153547220Y-66225821D01*
X153490702Y-66225596D01*
X153451858Y-66224457D01*
X153426465Y-66221657D01*
X153410304Y-66216450D01*
X153399152Y-66208089D01*
X153388789Y-66195826D01*
X153372941Y-66165138D01*
X153376043Y-66131358D01*
X153401687Y-66098822D01*
X153406629Y-66095105D01*
X153416838Y-66090269D01*
X153432264Y-66086506D01*
X153455386Y-66083683D01*
X153488683Y-66081670D01*
X153534637Y-66080333D01*
X153595728Y-66079542D01*
X153674435Y-66079163D01*
X153773240Y-66079067D01*
X153793267Y-66079068D01*
G36*
X153793267Y-66079068D02*
G01*
X153887390Y-66079158D01*
X153961905Y-66079498D01*
X154019311Y-66080239D01*
X154062111Y-66081535D01*
X154092804Y-66083537D01*
X154113891Y-66086396D01*
X154127873Y-66090266D01*
X154137250Y-66095298D01*
X154144522Y-66101645D01*
X154163328Y-66134362D01*
X154164775Y-66171939D01*
X154148417Y-66205178D01*
X154147057Y-66206631D01*
X154135854Y-66214992D01*
X154118752Y-66220547D01*
X154091582Y-66223840D01*
X154050178Y-66225418D01*
X153990373Y-66225822D01*
X153851011Y-66225822D01*
X153851011Y-66489589D01*
X153850936Y-66565417D01*
X153850528Y-66632083D01*
X153849546Y-66681867D01*
X153847750Y-66717784D01*
X153844899Y-66742850D01*
X153840753Y-66760081D01*
X153835071Y-66772492D01*
X153827614Y-66783100D01*
X153825324Y-66785906D01*
X153794146Y-66808548D01*
X153759766Y-66810112D01*
X153726834Y-66790267D01*
X153719855Y-66782191D01*
X153714383Y-66771593D01*
X153710363Y-66755749D01*
X153707572Y-66731773D01*
X153705788Y-66696774D01*
X153704789Y-66647864D01*
X153704352Y-66582154D01*
X153704256Y-66496756D01*
X153704256Y-66225822D01*
X153558320Y-66225822D01*
X153547220Y-66225821D01*
X153490702Y-66225596D01*
X153451858Y-66224457D01*
X153426465Y-66221657D01*
X153410304Y-66216450D01*
X153399152Y-66208089D01*
X153388789Y-66195826D01*
X153372941Y-66165138D01*
X153376043Y-66131358D01*
X153401687Y-66098822D01*
X153406629Y-66095105D01*
X153416838Y-66090269D01*
X153432264Y-66086506D01*
X153455386Y-66083683D01*
X153488683Y-66081670D01*
X153534637Y-66080333D01*
X153595728Y-66079542D01*
X153674435Y-66079163D01*
X153773240Y-66079067D01*
X153793267Y-66079068D01*
G37*
X153117234Y-66101645D02*
X153122866Y-66107835D01*
X153127956Y-66116041D01*
X153132043Y-66127817D01*
X153135221Y-66145276D01*
X153137587Y-66170530D01*
X153139238Y-66205690D01*
X153140269Y-66252869D01*
X153140777Y-66314177D01*
X153140859Y-66391727D01*
X153140609Y-66487631D01*
X153140125Y-66604000D01*
X153140057Y-66618175D01*
X153139471Y-66679937D01*
X153138148Y-66723620D01*
X153135603Y-66753001D01*
X153131348Y-66771855D01*
X153124896Y-66783959D01*
X153115762Y-66793089D01*
X153082304Y-66810506D01*
X153047356Y-66807604D01*
X153016453Y-66783100D01*
X153007444Y-66769897D01*
X152999992Y-66751361D01*
X152995624Y-66725333D01*
X152993569Y-66686787D01*
X152993056Y-66630700D01*
X152993056Y-66508045D01*
X152496345Y-66508045D01*
X152496345Y-66642871D01*
X152496272Y-66678662D01*
X152495509Y-66724992D01*
X152493333Y-66755526D01*
X152489036Y-66774557D01*
X152481912Y-66786374D01*
X152471255Y-66795271D01*
X152439004Y-66810341D01*
X152403717Y-66807673D01*
X152372986Y-66783100D01*
X152368331Y-66776845D01*
X152362395Y-66766321D01*
X152357864Y-66752391D01*
X152354548Y-66732317D01*
X152352259Y-66703360D01*
X152350808Y-66662780D01*
X152350005Y-66607840D01*
X152349662Y-66535799D01*
X152349589Y-66443920D01*
X152349589Y-66134485D01*
X152377298Y-66106776D01*
X152408677Y-66084533D01*
X152441906Y-66081844D01*
X152473767Y-66101645D01*
X152482053Y-66111415D01*
X152489465Y-66127307D01*
X152493802Y-66151275D01*
X152495838Y-66188148D01*
X152496345Y-66242756D01*
X152496345Y-66361289D01*
X152993056Y-66361289D01*
X152993056Y-66245776D01*
X152993494Y-66194078D01*
X152995458Y-66159554D01*
X152999974Y-66136978D01*
X153008067Y-66121126D01*
X153020765Y-66106776D01*
X153052143Y-66084533D01*
X153085372Y-66081844D01*
X153117234Y-66101645D01*
G36*
X153117234Y-66101645D02*
G01*
X153122866Y-66107835D01*
X153127956Y-66116041D01*
X153132043Y-66127817D01*
X153135221Y-66145276D01*
X153137587Y-66170530D01*
X153139238Y-66205690D01*
X153140269Y-66252869D01*
X153140777Y-66314177D01*
X153140859Y-66391727D01*
X153140609Y-66487631D01*
X153140125Y-66604000D01*
X153140057Y-66618175D01*
X153139471Y-66679937D01*
X153138148Y-66723620D01*
X153135603Y-66753001D01*
X153131348Y-66771855D01*
X153124896Y-66783959D01*
X153115762Y-66793089D01*
X153082304Y-66810506D01*
X153047356Y-66807604D01*
X153016453Y-66783100D01*
X153007444Y-66769897D01*
X152999992Y-66751361D01*
X152995624Y-66725333D01*
X152993569Y-66686787D01*
X152993056Y-66630700D01*
X152993056Y-66508045D01*
X152496345Y-66508045D01*
X152496345Y-66642871D01*
X152496272Y-66678662D01*
X152495509Y-66724992D01*
X152493333Y-66755526D01*
X152489036Y-66774557D01*
X152481912Y-66786374D01*
X152471255Y-66795271D01*
X152439004Y-66810341D01*
X152403717Y-66807673D01*
X152372986Y-66783100D01*
X152368331Y-66776845D01*
X152362395Y-66766321D01*
X152357864Y-66752391D01*
X152354548Y-66732317D01*
X152352259Y-66703360D01*
X152350808Y-66662780D01*
X152350005Y-66607840D01*
X152349662Y-66535799D01*
X152349589Y-66443920D01*
X152349589Y-66134485D01*
X152377298Y-66106776D01*
X152408677Y-66084533D01*
X152441906Y-66081844D01*
X152473767Y-66101645D01*
X152482053Y-66111415D01*
X152489465Y-66127307D01*
X152493802Y-66151275D01*
X152495838Y-66188148D01*
X152496345Y-66242756D01*
X152496345Y-66361289D01*
X152993056Y-66361289D01*
X152993056Y-66245776D01*
X152993494Y-66194078D01*
X152995458Y-66159554D01*
X152999974Y-66136978D01*
X153008067Y-66121126D01*
X153020765Y-66106776D01*
X153052143Y-66084533D01*
X153085372Y-66081844D01*
X153117234Y-66101645D01*
G37*
X157822633Y-66690396D02*
X157820663Y-66723175D01*
X157817735Y-66746095D01*
X157813658Y-66761897D01*
X157808243Y-66773319D01*
X157801303Y-66783100D01*
X157777906Y-66812845D01*
X157612214Y-66812251D01*
X157577418Y-66811953D01*
X157478935Y-66808522D01*
X157397973Y-66800839D01*
X157330879Y-66788282D01*
X157273996Y-66770227D01*
X157223669Y-66746052D01*
X157220310Y-66744135D01*
X157162498Y-66707417D01*
X157120144Y-66670451D01*
X157087328Y-66626966D01*
X157058128Y-66570689D01*
X157053846Y-66561073D01*
X157031269Y-66497887D01*
X157025534Y-66452333D01*
X157174779Y-66452333D01*
X157180392Y-66477061D01*
X157186118Y-66492939D01*
X157219048Y-66552847D01*
X157266386Y-66598600D01*
X157330152Y-66631736D01*
X157412361Y-66653790D01*
X157415155Y-66654292D01*
X157461440Y-66660255D01*
X157517836Y-66664483D01*
X157572774Y-66666089D01*
X157666656Y-66666089D01*
X157666656Y-66225822D01*
X157579167Y-66226270D01*
X157512247Y-66228746D01*
X157419849Y-66239998D01*
X157340534Y-66259537D01*
X157278560Y-66286511D01*
X157247620Y-66307240D01*
X157219500Y-66337006D01*
X157196160Y-66379434D01*
X157189033Y-66395400D01*
X157177209Y-66427902D01*
X157174779Y-66452333D01*
X157025534Y-66452333D01*
X157024297Y-66442509D01*
X157032899Y-66387483D01*
X157057041Y-66325351D01*
X157057837Y-66323658D01*
X157098288Y-66254236D01*
X157148973Y-66197638D01*
X157211698Y-66153070D01*
X157288274Y-66119741D01*
X157380509Y-66096861D01*
X157490212Y-66083636D01*
X157619191Y-66079275D01*
X157622763Y-66079270D01*
X157682783Y-66079410D01*
X157724714Y-66080446D01*
X157752828Y-66083040D01*
X157771397Y-66087853D01*
X157784694Y-66095544D01*
X157796991Y-66106776D01*
X157824700Y-66134485D01*
X157824700Y-66443920D01*
X157824675Y-66505526D01*
X157824450Y-66584311D01*
X157823832Y-66645021D01*
X157823275Y-66666089D01*
X157822633Y-66690396D01*
G36*
X157822633Y-66690396D02*
G01*
X157820663Y-66723175D01*
X157817735Y-66746095D01*
X157813658Y-66761897D01*
X157808243Y-66773319D01*
X157801303Y-66783100D01*
X157777906Y-66812845D01*
X157612214Y-66812251D01*
X157577418Y-66811953D01*
X157478935Y-66808522D01*
X157397973Y-66800839D01*
X157330879Y-66788282D01*
X157273996Y-66770227D01*
X157223669Y-66746052D01*
X157220310Y-66744135D01*
X157162498Y-66707417D01*
X157120144Y-66670451D01*
X157087328Y-66626966D01*
X157058128Y-66570689D01*
X157053846Y-66561073D01*
X157031269Y-66497887D01*
X157025534Y-66452333D01*
X157174779Y-66452333D01*
X157180392Y-66477061D01*
X157186118Y-66492939D01*
X157219048Y-66552847D01*
X157266386Y-66598600D01*
X157330152Y-66631736D01*
X157412361Y-66653790D01*
X157415155Y-66654292D01*
X157461440Y-66660255D01*
X157517836Y-66664483D01*
X157572774Y-66666089D01*
X157666656Y-66666089D01*
X157666656Y-66225822D01*
X157579167Y-66226270D01*
X157512247Y-66228746D01*
X157419849Y-66239998D01*
X157340534Y-66259537D01*
X157278560Y-66286511D01*
X157247620Y-66307240D01*
X157219500Y-66337006D01*
X157196160Y-66379434D01*
X157189033Y-66395400D01*
X157177209Y-66427902D01*
X157174779Y-66452333D01*
X157025534Y-66452333D01*
X157024297Y-66442509D01*
X157032899Y-66387483D01*
X157057041Y-66325351D01*
X157057837Y-66323658D01*
X157098288Y-66254236D01*
X157148973Y-66197638D01*
X157211698Y-66153070D01*
X157288274Y-66119741D01*
X157380509Y-66096861D01*
X157490212Y-66083636D01*
X157619191Y-66079275D01*
X157622763Y-66079270D01*
X157682783Y-66079410D01*
X157724714Y-66080446D01*
X157752828Y-66083040D01*
X157771397Y-66087853D01*
X157784694Y-66095544D01*
X157796991Y-66106776D01*
X157824700Y-66134485D01*
X157824700Y-66443920D01*
X157824675Y-66505526D01*
X157824450Y-66584311D01*
X157823832Y-66645021D01*
X157823275Y-66666089D01*
X157822633Y-66690396D01*
G37*
X164914317Y-66264427D02*
X164914370Y-66345041D01*
X164914122Y-66445956D01*
X164914083Y-66521617D01*
X164913828Y-66599526D01*
X164913184Y-66659536D01*
X164911980Y-66704264D01*
X164910043Y-66736326D01*
X164907203Y-66758340D01*
X164903288Y-66772924D01*
X164898126Y-66782694D01*
X164891545Y-66790267D01*
X164884577Y-66796501D01*
X164871579Y-66803801D01*
X164852431Y-66808554D01*
X164823028Y-66811292D01*
X164779262Y-66812545D01*
X164717028Y-66812845D01*
X164668082Y-66812469D01*
X164561222Y-66808041D01*
X164471994Y-66797953D01*
X164397196Y-66781365D01*
X164333625Y-66757435D01*
X164278079Y-66725321D01*
X164227354Y-66684182D01*
X164221366Y-66678330D01*
X164184499Y-66629821D01*
X164153399Y-66569013D01*
X164131917Y-66504769D01*
X164126636Y-66466026D01*
X164273853Y-66466026D01*
X164292135Y-66516961D01*
X164321805Y-66562878D01*
X164368502Y-66605287D01*
X164429892Y-66635090D01*
X164509038Y-66654226D01*
X164510528Y-66654464D01*
X164559499Y-66660256D01*
X164618193Y-66664396D01*
X164674234Y-66666004D01*
X164767367Y-66666089D01*
X164767367Y-66225822D01*
X164691167Y-66225808D01*
X164688139Y-66225817D01*
X164637019Y-66227782D01*
X164576916Y-66232507D01*
X164520208Y-66239035D01*
X164470250Y-66248331D01*
X164395498Y-66274600D01*
X164337989Y-66313899D01*
X164296488Y-66366933D01*
X164275271Y-66418200D01*
X164273853Y-66466026D01*
X164126636Y-66466026D01*
X164123900Y-66445956D01*
X164125179Y-66424739D01*
X164137491Y-66367323D01*
X164160020Y-66307413D01*
X164189250Y-66253363D01*
X164221667Y-66213532D01*
X164241208Y-66196510D01*
X164295920Y-66157322D01*
X164356223Y-66127193D01*
X164425419Y-66105232D01*
X164506811Y-66090550D01*
X164603700Y-66082259D01*
X164719389Y-66079467D01*
X164758871Y-66079066D01*
X164804582Y-66078653D01*
X164840383Y-66080457D01*
X164867474Y-66086739D01*
X164887056Y-66099759D01*
X164900330Y-66121778D01*
X164908498Y-66155055D01*
X164912760Y-66201851D01*
X164913357Y-66225822D01*
X164914317Y-66264427D01*
G36*
X164914317Y-66264427D02*
G01*
X164914370Y-66345041D01*
X164914122Y-66445956D01*
X164914083Y-66521617D01*
X164913828Y-66599526D01*
X164913184Y-66659536D01*
X164911980Y-66704264D01*
X164910043Y-66736326D01*
X164907203Y-66758340D01*
X164903288Y-66772924D01*
X164898126Y-66782694D01*
X164891545Y-66790267D01*
X164884577Y-66796501D01*
X164871579Y-66803801D01*
X164852431Y-66808554D01*
X164823028Y-66811292D01*
X164779262Y-66812545D01*
X164717028Y-66812845D01*
X164668082Y-66812469D01*
X164561222Y-66808041D01*
X164471994Y-66797953D01*
X164397196Y-66781365D01*
X164333625Y-66757435D01*
X164278079Y-66725321D01*
X164227354Y-66684182D01*
X164221366Y-66678330D01*
X164184499Y-66629821D01*
X164153399Y-66569013D01*
X164131917Y-66504769D01*
X164126636Y-66466026D01*
X164273853Y-66466026D01*
X164292135Y-66516961D01*
X164321805Y-66562878D01*
X164368502Y-66605287D01*
X164429892Y-66635090D01*
X164509038Y-66654226D01*
X164510528Y-66654464D01*
X164559499Y-66660256D01*
X164618193Y-66664396D01*
X164674234Y-66666004D01*
X164767367Y-66666089D01*
X164767367Y-66225822D01*
X164691167Y-66225808D01*
X164688139Y-66225817D01*
X164637019Y-66227782D01*
X164576916Y-66232507D01*
X164520208Y-66239035D01*
X164470250Y-66248331D01*
X164395498Y-66274600D01*
X164337989Y-66313899D01*
X164296488Y-66366933D01*
X164275271Y-66418200D01*
X164273853Y-66466026D01*
X164126636Y-66466026D01*
X164123900Y-66445956D01*
X164125179Y-66424739D01*
X164137491Y-66367323D01*
X164160020Y-66307413D01*
X164189250Y-66253363D01*
X164221667Y-66213532D01*
X164241208Y-66196510D01*
X164295920Y-66157322D01*
X164356223Y-66127193D01*
X164425419Y-66105232D01*
X164506811Y-66090550D01*
X164603700Y-66082259D01*
X164719389Y-66079467D01*
X164758871Y-66079066D01*
X164804582Y-66078653D01*
X164840383Y-66080457D01*
X164867474Y-66086739D01*
X164887056Y-66099759D01*
X164900330Y-66121778D01*
X164908498Y-66155055D01*
X164912760Y-66201851D01*
X164913357Y-66225822D01*
X164914317Y-66264427D01*
G37*
X159969393Y-66077892D02*
X159980801Y-66084029D01*
X159991350Y-66094691D01*
X160002636Y-66108811D01*
X160007089Y-66114772D01*
X160013088Y-66125268D01*
X160017667Y-66139093D01*
X160021019Y-66158998D01*
X160023333Y-66187732D01*
X160024801Y-66228045D01*
X160025613Y-66282687D01*
X160025960Y-66354407D01*
X160026034Y-66445956D01*
X160026011Y-66504486D01*
X160025792Y-66583573D01*
X160025183Y-66644516D01*
X160023992Y-66690062D01*
X160022029Y-66722963D01*
X160019103Y-66745968D01*
X160015023Y-66761826D01*
X160009597Y-66773286D01*
X160002636Y-66783100D01*
X159972208Y-66807493D01*
X159937265Y-66810372D01*
X159900284Y-66791282D01*
X159896100Y-66787807D01*
X159887924Y-66779279D01*
X159881864Y-66767728D01*
X159877481Y-66749896D01*
X159874339Y-66722524D01*
X159872002Y-66682354D01*
X159870031Y-66626128D01*
X159867989Y-66550589D01*
X159862345Y-66331458D01*
X159597056Y-66572099D01*
X159523222Y-66638875D01*
X159458042Y-66696991D01*
X159405848Y-66741949D01*
X159364773Y-66774871D01*
X159332955Y-66796879D01*
X159308526Y-66809094D01*
X159289624Y-66812639D01*
X159274383Y-66808636D01*
X159260939Y-66798207D01*
X159247427Y-66782474D01*
X159241182Y-66773991D01*
X159235550Y-66763413D01*
X159231339Y-66749255D01*
X159228387Y-66728803D01*
X159226532Y-66699342D01*
X159225613Y-66658161D01*
X159225468Y-66602544D01*
X159225935Y-66529779D01*
X159226852Y-66437151D01*
X159230167Y-66122199D01*
X159256818Y-66100633D01*
X159282883Y-66084441D01*
X159315741Y-66081670D01*
X159350272Y-66100623D01*
X159354584Y-66104208D01*
X159362716Y-66112737D01*
X159368745Y-66124329D01*
X159373106Y-66142235D01*
X159376234Y-66169706D01*
X159378563Y-66209994D01*
X159380529Y-66266351D01*
X159382567Y-66342029D01*
X159388211Y-66561878D01*
X159568834Y-66398084D01*
X159655572Y-66319451D01*
X159731343Y-66251058D01*
X159793480Y-66195708D01*
X159843578Y-66152338D01*
X159883235Y-66119881D01*
X159914048Y-66097273D01*
X159937614Y-66083448D01*
X159955530Y-66077343D01*
X159969393Y-66077892D01*
G36*
X159969393Y-66077892D02*
G01*
X159980801Y-66084029D01*
X159991350Y-66094691D01*
X160002636Y-66108811D01*
X160007089Y-66114772D01*
X160013088Y-66125268D01*
X160017667Y-66139093D01*
X160021019Y-66158998D01*
X160023333Y-66187732D01*
X160024801Y-66228045D01*
X160025613Y-66282687D01*
X160025960Y-66354407D01*
X160026034Y-66445956D01*
X160026011Y-66504486D01*
X160025792Y-66583573D01*
X160025183Y-66644516D01*
X160023992Y-66690062D01*
X160022029Y-66722963D01*
X160019103Y-66745968D01*
X160015023Y-66761826D01*
X160009597Y-66773286D01*
X160002636Y-66783100D01*
X159972208Y-66807493D01*
X159937265Y-66810372D01*
X159900284Y-66791282D01*
X159896100Y-66787807D01*
X159887924Y-66779279D01*
X159881864Y-66767728D01*
X159877481Y-66749896D01*
X159874339Y-66722524D01*
X159872002Y-66682354D01*
X159870031Y-66626128D01*
X159867989Y-66550589D01*
X159862345Y-66331458D01*
X159597056Y-66572099D01*
X159523222Y-66638875D01*
X159458042Y-66696991D01*
X159405848Y-66741949D01*
X159364773Y-66774871D01*
X159332955Y-66796879D01*
X159308526Y-66809094D01*
X159289624Y-66812639D01*
X159274383Y-66808636D01*
X159260939Y-66798207D01*
X159247427Y-66782474D01*
X159241182Y-66773991D01*
X159235550Y-66763413D01*
X159231339Y-66749255D01*
X159228387Y-66728803D01*
X159226532Y-66699342D01*
X159225613Y-66658161D01*
X159225468Y-66602544D01*
X159225935Y-66529779D01*
X159226852Y-66437151D01*
X159230167Y-66122199D01*
X159256818Y-66100633D01*
X159282883Y-66084441D01*
X159315741Y-66081670D01*
X159350272Y-66100623D01*
X159354584Y-66104208D01*
X159362716Y-66112737D01*
X159368745Y-66124329D01*
X159373106Y-66142235D01*
X159376234Y-66169706D01*
X159378563Y-66209994D01*
X159380529Y-66266351D01*
X159382567Y-66342029D01*
X159388211Y-66561878D01*
X159568834Y-66398084D01*
X159655572Y-66319451D01*
X159731343Y-66251058D01*
X159793480Y-66195708D01*
X159843578Y-66152338D01*
X159883235Y-66119881D01*
X159914048Y-66097273D01*
X159937614Y-66083448D01*
X159955530Y-66077343D01*
X159969393Y-66077892D01*
G37*
X160766650Y-66084179D02*
X160872657Y-66100494D01*
X160966469Y-66128545D01*
X161045265Y-66167452D01*
X161106219Y-66216334D01*
X161132289Y-66249195D01*
X161161797Y-66298394D01*
X161187068Y-66352252D01*
X161204718Y-66403419D01*
X161211358Y-66444544D01*
X161209798Y-66464259D01*
X161196857Y-66515592D01*
X161173694Y-66572118D01*
X161143802Y-66626035D01*
X161110673Y-66669539D01*
X161100477Y-66679887D01*
X161033392Y-66731662D01*
X160953266Y-66771554D01*
X160867056Y-66795956D01*
X160812092Y-66804068D01*
X160718639Y-66810673D01*
X160628858Y-66808586D01*
X160546369Y-66798340D01*
X160474786Y-66780470D01*
X160417728Y-66755508D01*
X160378811Y-66723988D01*
X160377436Y-66722012D01*
X160370348Y-66696786D01*
X160366109Y-66649535D01*
X160364700Y-66580071D01*
X160365560Y-66517838D01*
X160370280Y-66470456D01*
X160381970Y-66438353D01*
X160403739Y-66418800D01*
X160438698Y-66409070D01*
X160489956Y-66406433D01*
X160560623Y-66408161D01*
X160609243Y-66411173D01*
X160659439Y-66419366D01*
X160691933Y-66433419D01*
X160709392Y-66454654D01*
X160714483Y-66484394D01*
X160714377Y-66488936D01*
X160705675Y-66523730D01*
X160681665Y-66547147D01*
X160640400Y-66560347D01*
X160579931Y-66564489D01*
X160511456Y-66564489D01*
X160511456Y-66602841D01*
X160511506Y-66611976D01*
X160513727Y-66629227D01*
X160522994Y-66639521D01*
X160544375Y-66646459D01*
X160582936Y-66653641D01*
X160588410Y-66654575D01*
X160685360Y-66664478D01*
X160775352Y-66661559D01*
X160856260Y-66646829D01*
X160925959Y-66621299D01*
X160982324Y-66585978D01*
X161023229Y-66541879D01*
X161046551Y-66490012D01*
X161050163Y-66431388D01*
X161044645Y-66402494D01*
X161017961Y-66346604D01*
X160971773Y-66300945D01*
X160906791Y-66266108D01*
X160823729Y-66242690D01*
X160799055Y-66238241D01*
X160709726Y-66227742D01*
X160629919Y-66228971D01*
X160551826Y-66241906D01*
X160516683Y-66248696D01*
X160471245Y-66249713D01*
X160439930Y-66237182D01*
X160419777Y-66210395D01*
X160413393Y-66182148D01*
X160422879Y-66150924D01*
X160432208Y-66137499D01*
X160466443Y-66113967D01*
X160519065Y-66096095D01*
X160587581Y-66084599D01*
X160669500Y-66080192D01*
X160766650Y-66084179D01*
G36*
X160766650Y-66084179D02*
G01*
X160872657Y-66100494D01*
X160966469Y-66128545D01*
X161045265Y-66167452D01*
X161106219Y-66216334D01*
X161132289Y-66249195D01*
X161161797Y-66298394D01*
X161187068Y-66352252D01*
X161204718Y-66403419D01*
X161211358Y-66444544D01*
X161209798Y-66464259D01*
X161196857Y-66515592D01*
X161173694Y-66572118D01*
X161143802Y-66626035D01*
X161110673Y-66669539D01*
X161100477Y-66679887D01*
X161033392Y-66731662D01*
X160953266Y-66771554D01*
X160867056Y-66795956D01*
X160812092Y-66804068D01*
X160718639Y-66810673D01*
X160628858Y-66808586D01*
X160546369Y-66798340D01*
X160474786Y-66780470D01*
X160417728Y-66755508D01*
X160378811Y-66723988D01*
X160377436Y-66722012D01*
X160370348Y-66696786D01*
X160366109Y-66649535D01*
X160364700Y-66580071D01*
X160365560Y-66517838D01*
X160370280Y-66470456D01*
X160381970Y-66438353D01*
X160403739Y-66418800D01*
X160438698Y-66409070D01*
X160489956Y-66406433D01*
X160560623Y-66408161D01*
X160609243Y-66411173D01*
X160659439Y-66419366D01*
X160691933Y-66433419D01*
X160709392Y-66454654D01*
X160714483Y-66484394D01*
X160714377Y-66488936D01*
X160705675Y-66523730D01*
X160681665Y-66547147D01*
X160640400Y-66560347D01*
X160579931Y-66564489D01*
X160511456Y-66564489D01*
X160511456Y-66602841D01*
X160511506Y-66611976D01*
X160513727Y-66629227D01*
X160522994Y-66639521D01*
X160544375Y-66646459D01*
X160582936Y-66653641D01*
X160588410Y-66654575D01*
X160685360Y-66664478D01*
X160775352Y-66661559D01*
X160856260Y-66646829D01*
X160925959Y-66621299D01*
X160982324Y-66585978D01*
X161023229Y-66541879D01*
X161046551Y-66490012D01*
X161050163Y-66431388D01*
X161044645Y-66402494D01*
X161017961Y-66346604D01*
X160971773Y-66300945D01*
X160906791Y-66266108D01*
X160823729Y-66242690D01*
X160799055Y-66238241D01*
X160709726Y-66227742D01*
X160629919Y-66228971D01*
X160551826Y-66241906D01*
X160516683Y-66248696D01*
X160471245Y-66249713D01*
X160439930Y-66237182D01*
X160419777Y-66210395D01*
X160413393Y-66182148D01*
X160422879Y-66150924D01*
X160432208Y-66137499D01*
X160466443Y-66113967D01*
X160519065Y-66096095D01*
X160587581Y-66084599D01*
X160669500Y-66080192D01*
X160766650Y-66084179D01*
G37*
X158817303Y-66108811D02*
X158822252Y-66115495D01*
X158828096Y-66126066D01*
X158832557Y-66140153D01*
X158835821Y-66160478D01*
X158838074Y-66189765D01*
X158839502Y-66230737D01*
X158840292Y-66286117D01*
X158840629Y-66358628D01*
X158840700Y-66450994D01*
X158840671Y-66516911D01*
X158840439Y-66595228D01*
X158839819Y-66655496D01*
X158838626Y-66700393D01*
X158836679Y-66732602D01*
X158833794Y-66754800D01*
X158829788Y-66769669D01*
X158824479Y-66779889D01*
X158817683Y-66788138D01*
X158813168Y-66792795D01*
X158804938Y-66799282D01*
X158793578Y-66804194D01*
X158776310Y-66807749D01*
X158750355Y-66810167D01*
X158712936Y-66811667D01*
X158661273Y-66812467D01*
X158592589Y-66812787D01*
X158504106Y-66812845D01*
X158484431Y-66812838D01*
X158397406Y-66812572D01*
X158329754Y-66811806D01*
X158278799Y-66810392D01*
X158241867Y-66808180D01*
X158216283Y-66805022D01*
X158199371Y-66800769D01*
X158188457Y-66795271D01*
X158177964Y-66785285D01*
X158164703Y-66754168D01*
X158165886Y-66718280D01*
X158182050Y-66686733D01*
X158184239Y-66684457D01*
X158192927Y-66678189D01*
X158206269Y-66673523D01*
X158227252Y-66670227D01*
X158258863Y-66668068D01*
X158304090Y-66666814D01*
X158365920Y-66666231D01*
X158447339Y-66666089D01*
X158693945Y-66666089D01*
X158693945Y-66508045D01*
X158531506Y-66508045D01*
X158495838Y-66507964D01*
X158440068Y-66507167D01*
X158400930Y-66505162D01*
X158374476Y-66501521D01*
X158356759Y-66495812D01*
X158343829Y-66487607D01*
X158340186Y-66484423D01*
X158321778Y-66453448D01*
X158321144Y-66417112D01*
X158338683Y-66383493D01*
X158338745Y-66383424D01*
X158348416Y-66374798D01*
X158361709Y-66368742D01*
X158382417Y-66364811D01*
X158414328Y-66362556D01*
X158461234Y-66361531D01*
X158526924Y-66361289D01*
X158695071Y-66361289D01*
X158691686Y-66296378D01*
X158688300Y-66231467D01*
X158446223Y-66228414D01*
X158421207Y-66228086D01*
X158339587Y-66226606D01*
X158277268Y-66224222D01*
X158231654Y-66220227D01*
X158200152Y-66213913D01*
X158180167Y-66204574D01*
X158169104Y-66191503D01*
X158164369Y-66173992D01*
X158163367Y-66151335D01*
X158163373Y-66148970D01*
X158164527Y-66128939D01*
X158169324Y-66113146D01*
X158180132Y-66101090D01*
X158199317Y-66092267D01*
X158229245Y-66086175D01*
X158272283Y-66082311D01*
X158330799Y-66080174D01*
X158407157Y-66079260D01*
X158503726Y-66079067D01*
X158793906Y-66079067D01*
X158817303Y-66108811D01*
G36*
X158817303Y-66108811D02*
G01*
X158822252Y-66115495D01*
X158828096Y-66126066D01*
X158832557Y-66140153D01*
X158835821Y-66160478D01*
X158838074Y-66189765D01*
X158839502Y-66230737D01*
X158840292Y-66286117D01*
X158840629Y-66358628D01*
X158840700Y-66450994D01*
X158840671Y-66516911D01*
X158840439Y-66595228D01*
X158839819Y-66655496D01*
X158838626Y-66700393D01*
X158836679Y-66732602D01*
X158833794Y-66754800D01*
X158829788Y-66769669D01*
X158824479Y-66779889D01*
X158817683Y-66788138D01*
X158813168Y-66792795D01*
X158804938Y-66799282D01*
X158793578Y-66804194D01*
X158776310Y-66807749D01*
X158750355Y-66810167D01*
X158712936Y-66811667D01*
X158661273Y-66812467D01*
X158592589Y-66812787D01*
X158504106Y-66812845D01*
X158484431Y-66812838D01*
X158397406Y-66812572D01*
X158329754Y-66811806D01*
X158278799Y-66810392D01*
X158241867Y-66808180D01*
X158216283Y-66805022D01*
X158199371Y-66800769D01*
X158188457Y-66795271D01*
X158177964Y-66785285D01*
X158164703Y-66754168D01*
X158165886Y-66718280D01*
X158182050Y-66686733D01*
X158184239Y-66684457D01*
X158192927Y-66678189D01*
X158206269Y-66673523D01*
X158227252Y-66670227D01*
X158258863Y-66668068D01*
X158304090Y-66666814D01*
X158365920Y-66666231D01*
X158447339Y-66666089D01*
X158693945Y-66666089D01*
X158693945Y-66508045D01*
X158531506Y-66508045D01*
X158495838Y-66507964D01*
X158440068Y-66507167D01*
X158400930Y-66505162D01*
X158374476Y-66501521D01*
X158356759Y-66495812D01*
X158343829Y-66487607D01*
X158340186Y-66484423D01*
X158321778Y-66453448D01*
X158321144Y-66417112D01*
X158338683Y-66383493D01*
X158338745Y-66383424D01*
X158348416Y-66374798D01*
X158361709Y-66368742D01*
X158382417Y-66364811D01*
X158414328Y-66362556D01*
X158461234Y-66361531D01*
X158526924Y-66361289D01*
X158695071Y-66361289D01*
X158691686Y-66296378D01*
X158688300Y-66231467D01*
X158446223Y-66228414D01*
X158421207Y-66228086D01*
X158339587Y-66226606D01*
X158277268Y-66224222D01*
X158231654Y-66220227D01*
X158200152Y-66213913D01*
X158180167Y-66204574D01*
X158169104Y-66191503D01*
X158164369Y-66173992D01*
X158163367Y-66151335D01*
X158163373Y-66148970D01*
X158164527Y-66128939D01*
X158169324Y-66113146D01*
X158180132Y-66101090D01*
X158199317Y-66092267D01*
X158229245Y-66086175D01*
X158272283Y-66082311D01*
X158330799Y-66080174D01*
X158407157Y-66079260D01*
X158503726Y-66079067D01*
X158793906Y-66079067D01*
X158817303Y-66108811D01*
G37*
X163494234Y-66079083D02*
X163571331Y-66079275D01*
X163630277Y-66079860D01*
X163673864Y-66081051D01*
X163704883Y-66083064D01*
X163726125Y-66086112D01*
X163740382Y-66090409D01*
X163750445Y-66096172D01*
X163759106Y-66103612D01*
X163760891Y-66105293D01*
X163768135Y-66112832D01*
X163773777Y-66121850D01*
X163778017Y-66134984D01*
X163781056Y-66154872D01*
X163783094Y-66184151D01*
X163784330Y-66225458D01*
X163784965Y-66281431D01*
X163785200Y-66354707D01*
X163785234Y-66447923D01*
X163785197Y-66520713D01*
X163784948Y-66598889D01*
X163784312Y-66659103D01*
X163783115Y-66703982D01*
X163781184Y-66736152D01*
X163778346Y-66758239D01*
X163774427Y-66772870D01*
X163769255Y-66782670D01*
X163762656Y-66790267D01*
X163759322Y-66793444D01*
X163750800Y-66799554D01*
X163738798Y-66804229D01*
X163720587Y-66807659D01*
X163693440Y-66810036D01*
X163654629Y-66811552D01*
X163601424Y-66812398D01*
X163531098Y-66812765D01*
X163440922Y-66812845D01*
X163398814Y-66812833D01*
X163317667Y-66812651D01*
X163255175Y-66812098D01*
X163208609Y-66810982D01*
X163175241Y-66809113D01*
X163152344Y-66806298D01*
X163137188Y-66802346D01*
X163127046Y-66797066D01*
X163119189Y-66790267D01*
X163104463Y-66768667D01*
X163096611Y-66739467D01*
X163102110Y-66715560D01*
X163119189Y-66688667D01*
X163124168Y-66684059D01*
X163133943Y-66677772D01*
X163148059Y-66673146D01*
X163169554Y-66669930D01*
X163201468Y-66667870D01*
X163246842Y-66666712D01*
X163308713Y-66666202D01*
X163390122Y-66666089D01*
X163638478Y-66666089D01*
X163638478Y-66508045D01*
X163477301Y-66508045D01*
X163441483Y-66507899D01*
X163375859Y-66506176D01*
X163328618Y-66501741D01*
X163296883Y-66493637D01*
X163277777Y-66480906D01*
X163268423Y-66462592D01*
X163265945Y-66437738D01*
X163266742Y-66417482D01*
X163271994Y-66395656D01*
X163284788Y-66380304D01*
X163308128Y-66370309D01*
X163345017Y-66364553D01*
X163398459Y-66361919D01*
X163471458Y-66361289D01*
X163639605Y-66361289D01*
X163636219Y-66296378D01*
X163632834Y-66231467D01*
X163385117Y-66228418D01*
X163322526Y-66227539D01*
X163254065Y-66226095D01*
X163203161Y-66224164D01*
X163166908Y-66221514D01*
X163142401Y-66217910D01*
X163126735Y-66213121D01*
X163117006Y-66206913D01*
X163110991Y-66200510D01*
X163097982Y-66168828D01*
X163101543Y-66133142D01*
X163121318Y-66102084D01*
X163124569Y-66099161D01*
X163133549Y-66092810D01*
X163145653Y-66087957D01*
X163163659Y-66084403D01*
X163190347Y-66081946D01*
X163228497Y-66080385D01*
X163280886Y-66079518D01*
X163350294Y-66079146D01*
X163439501Y-66079067D01*
X163494234Y-66079083D01*
G36*
X163494234Y-66079083D02*
G01*
X163571331Y-66079275D01*
X163630277Y-66079860D01*
X163673864Y-66081051D01*
X163704883Y-66083064D01*
X163726125Y-66086112D01*
X163740382Y-66090409D01*
X163750445Y-66096172D01*
X163759106Y-66103612D01*
X163760891Y-66105293D01*
X163768135Y-66112832D01*
X163773777Y-66121850D01*
X163778017Y-66134984D01*
X163781056Y-66154872D01*
X163783094Y-66184151D01*
X163784330Y-66225458D01*
X163784965Y-66281431D01*
X163785200Y-66354707D01*
X163785234Y-66447923D01*
X163785197Y-66520713D01*
X163784948Y-66598889D01*
X163784312Y-66659103D01*
X163783115Y-66703982D01*
X163781184Y-66736152D01*
X163778346Y-66758239D01*
X163774427Y-66772870D01*
X163769255Y-66782670D01*
X163762656Y-66790267D01*
X163759322Y-66793444D01*
X163750800Y-66799554D01*
X163738798Y-66804229D01*
X163720587Y-66807659D01*
X163693440Y-66810036D01*
X163654629Y-66811552D01*
X163601424Y-66812398D01*
X163531098Y-66812765D01*
X163440922Y-66812845D01*
X163398814Y-66812833D01*
X163317667Y-66812651D01*
X163255175Y-66812098D01*
X163208609Y-66810982D01*
X163175241Y-66809113D01*
X163152344Y-66806298D01*
X163137188Y-66802346D01*
X163127046Y-66797066D01*
X163119189Y-66790267D01*
X163104463Y-66768667D01*
X163096611Y-66739467D01*
X163102110Y-66715560D01*
X163119189Y-66688667D01*
X163124168Y-66684059D01*
X163133943Y-66677772D01*
X163148059Y-66673146D01*
X163169554Y-66669930D01*
X163201468Y-66667870D01*
X163246842Y-66666712D01*
X163308713Y-66666202D01*
X163390122Y-66666089D01*
X163638478Y-66666089D01*
X163638478Y-66508045D01*
X163477301Y-66508045D01*
X163441483Y-66507899D01*
X163375859Y-66506176D01*
X163328618Y-66501741D01*
X163296883Y-66493637D01*
X163277777Y-66480906D01*
X163268423Y-66462592D01*
X163265945Y-66437738D01*
X163266742Y-66417482D01*
X163271994Y-66395656D01*
X163284788Y-66380304D01*
X163308128Y-66370309D01*
X163345017Y-66364553D01*
X163398459Y-66361919D01*
X163471458Y-66361289D01*
X163639605Y-66361289D01*
X163636219Y-66296378D01*
X163632834Y-66231467D01*
X163385117Y-66228418D01*
X163322526Y-66227539D01*
X163254065Y-66226095D01*
X163203161Y-66224164D01*
X163166908Y-66221514D01*
X163142401Y-66217910D01*
X163126735Y-66213121D01*
X163117006Y-66206913D01*
X163110991Y-66200510D01*
X163097982Y-66168828D01*
X163101543Y-66133142D01*
X163121318Y-66102084D01*
X163124569Y-66099161D01*
X163133549Y-66092810D01*
X163145653Y-66087957D01*
X163163659Y-66084403D01*
X163190347Y-66081946D01*
X163228497Y-66080385D01*
X163280886Y-66079518D01*
X163350294Y-66079146D01*
X163439501Y-66079067D01*
X163494234Y-66079083D01*
G37*
X154927202Y-66088478D02*
X154945163Y-66106989D01*
X154965763Y-66138071D01*
X154990595Y-66183756D01*
X155021250Y-66246078D01*
X155059320Y-66327071D01*
X155073954Y-66358454D01*
X155103703Y-66421638D01*
X155129797Y-66476244D01*
X155150792Y-66519290D01*
X155165239Y-66547793D01*
X155171691Y-66558770D01*
X155173050Y-66558189D01*
X155183042Y-66544242D01*
X155200333Y-66514704D01*
X155222930Y-66473087D01*
X155248838Y-66422903D01*
X155264811Y-66391414D01*
X155293761Y-66336061D01*
X155316249Y-66297044D01*
X155334465Y-66271566D01*
X155350596Y-66256831D01*
X155366830Y-66250042D01*
X155385357Y-66248400D01*
X155395860Y-66248875D01*
X155411976Y-66253082D01*
X155427290Y-66263946D01*
X155443888Y-66284219D01*
X155463857Y-66316654D01*
X155489283Y-66364004D01*
X155522252Y-66429022D01*
X155531985Y-66448277D01*
X155556443Y-66494946D01*
X155576678Y-66531109D01*
X155590811Y-66553497D01*
X155596960Y-66558845D01*
X155598327Y-66555573D01*
X155607702Y-66534664D01*
X155624562Y-66497725D01*
X155647479Y-66447874D01*
X155675020Y-66388226D01*
X155705755Y-66321898D01*
X155732470Y-66264677D01*
X155762093Y-66202688D01*
X155785164Y-66156949D01*
X155803143Y-66124908D01*
X155817490Y-66104014D01*
X155829666Y-66091718D01*
X155841132Y-66085466D01*
X155850542Y-66082574D01*
X155875647Y-66082425D01*
X155902790Y-66097768D01*
X155904090Y-66098753D01*
X155926174Y-66121388D01*
X155937223Y-66143613D01*
X155937269Y-66144253D01*
X155932728Y-66161915D01*
X155919864Y-66196481D01*
X155900105Y-66244826D01*
X155874881Y-66303825D01*
X155845619Y-66370355D01*
X155813750Y-66441291D01*
X155780701Y-66513507D01*
X155747901Y-66583880D01*
X155716780Y-66649285D01*
X155688765Y-66706597D01*
X155665286Y-66752692D01*
X155647772Y-66784446D01*
X155637651Y-66798733D01*
X155603243Y-66812102D01*
X155561546Y-66805741D01*
X155556181Y-66801044D01*
X155540352Y-66778893D01*
X155518150Y-66742132D01*
X155491733Y-66694415D01*
X155463260Y-66639393D01*
X155383486Y-66480150D01*
X155310299Y-66626742D01*
X155300603Y-66646032D01*
X155273625Y-66698380D01*
X155249596Y-66743170D01*
X155230832Y-66776154D01*
X155219646Y-66793089D01*
X155218500Y-66794332D01*
X155190379Y-66809619D01*
X155155317Y-66811302D01*
X155124276Y-66798733D01*
X155121850Y-66795884D01*
X155109590Y-66775259D01*
X155089852Y-66737708D01*
X155063948Y-66685880D01*
X155033185Y-66622423D01*
X154998875Y-66549985D01*
X154962325Y-66471216D01*
X154942085Y-66427093D01*
X154905312Y-66346365D01*
X154876855Y-66282687D01*
X154855831Y-66233752D01*
X154841354Y-66197257D01*
X154832539Y-66170895D01*
X154828504Y-66152361D01*
X154828362Y-66139352D01*
X154831230Y-66129561D01*
X154845887Y-66108678D01*
X154872490Y-66088377D01*
X154873245Y-66088035D01*
X154892835Y-66081034D01*
X154910290Y-66080504D01*
X154927202Y-66088478D01*
G36*
X154927202Y-66088478D02*
G01*
X154945163Y-66106989D01*
X154965763Y-66138071D01*
X154990595Y-66183756D01*
X155021250Y-66246078D01*
X155059320Y-66327071D01*
X155073954Y-66358454D01*
X155103703Y-66421638D01*
X155129797Y-66476244D01*
X155150792Y-66519290D01*
X155165239Y-66547793D01*
X155171691Y-66558770D01*
X155173050Y-66558189D01*
X155183042Y-66544242D01*
X155200333Y-66514704D01*
X155222930Y-66473087D01*
X155248838Y-66422903D01*
X155264811Y-66391414D01*
X155293761Y-66336061D01*
X155316249Y-66297044D01*
X155334465Y-66271566D01*
X155350596Y-66256831D01*
X155366830Y-66250042D01*
X155385357Y-66248400D01*
X155395860Y-66248875D01*
X155411976Y-66253082D01*
X155427290Y-66263946D01*
X155443888Y-66284219D01*
X155463857Y-66316654D01*
X155489283Y-66364004D01*
X155522252Y-66429022D01*
X155531985Y-66448277D01*
X155556443Y-66494946D01*
X155576678Y-66531109D01*
X155590811Y-66553497D01*
X155596960Y-66558845D01*
X155598327Y-66555573D01*
X155607702Y-66534664D01*
X155624562Y-66497725D01*
X155647479Y-66447874D01*
X155675020Y-66388226D01*
X155705755Y-66321898D01*
X155732470Y-66264677D01*
X155762093Y-66202688D01*
X155785164Y-66156949D01*
X155803143Y-66124908D01*
X155817490Y-66104014D01*
X155829666Y-66091718D01*
X155841132Y-66085466D01*
X155850542Y-66082574D01*
X155875647Y-66082425D01*
X155902790Y-66097768D01*
X155904090Y-66098753D01*
X155926174Y-66121388D01*
X155937223Y-66143613D01*
X155937269Y-66144253D01*
X155932728Y-66161915D01*
X155919864Y-66196481D01*
X155900105Y-66244826D01*
X155874881Y-66303825D01*
X155845619Y-66370355D01*
X155813750Y-66441291D01*
X155780701Y-66513507D01*
X155747901Y-66583880D01*
X155716780Y-66649285D01*
X155688765Y-66706597D01*
X155665286Y-66752692D01*
X155647772Y-66784446D01*
X155637651Y-66798733D01*
X155603243Y-66812102D01*
X155561546Y-66805741D01*
X155556181Y-66801044D01*
X155540352Y-66778893D01*
X155518150Y-66742132D01*
X155491733Y-66694415D01*
X155463260Y-66639393D01*
X155383486Y-66480150D01*
X155310299Y-66626742D01*
X155300603Y-66646032D01*
X155273625Y-66698380D01*
X155249596Y-66743170D01*
X155230832Y-66776154D01*
X155219646Y-66793089D01*
X155218500Y-66794332D01*
X155190379Y-66809619D01*
X155155317Y-66811302D01*
X155124276Y-66798733D01*
X155121850Y-66795884D01*
X155109590Y-66775259D01*
X155089852Y-66737708D01*
X155063948Y-66685880D01*
X155033185Y-66622423D01*
X154998875Y-66549985D01*
X154962325Y-66471216D01*
X154942085Y-66427093D01*
X154905312Y-66346365D01*
X154876855Y-66282687D01*
X154855831Y-66233752D01*
X154841354Y-66197257D01*
X154832539Y-66170895D01*
X154828504Y-66152361D01*
X154828362Y-66139352D01*
X154831230Y-66129561D01*
X154845887Y-66108678D01*
X154872490Y-66088377D01*
X154873245Y-66088035D01*
X154892835Y-66081034D01*
X154910290Y-66080504D01*
X154927202Y-66088478D01*
G37*
X162478353Y-66079936D02*
X162544600Y-66085366D01*
X162599900Y-66094964D01*
X162650783Y-66109825D01*
X162722095Y-66142958D01*
X162773252Y-66185640D01*
X162804075Y-66237705D01*
X162814389Y-66298983D01*
X162813452Y-66330232D01*
X162807660Y-66355029D01*
X162792853Y-66376699D01*
X162764880Y-66404049D01*
X162756902Y-66411378D01*
X162733192Y-66432281D01*
X162710798Y-66449251D01*
X162686765Y-66463205D01*
X162658137Y-66475056D01*
X162621960Y-66485720D01*
X162575280Y-66496111D01*
X162515141Y-66507146D01*
X162438590Y-66519738D01*
X162342671Y-66534804D01*
X162324308Y-66537838D01*
X162261978Y-66551458D01*
X162216760Y-66567192D01*
X162190476Y-66584263D01*
X162184947Y-66601897D01*
X162187568Y-66606168D01*
X162205500Y-66621233D01*
X162233626Y-66637867D01*
X162246426Y-66643857D01*
X162267724Y-66651050D01*
X162294110Y-66655827D01*
X162329954Y-66658646D01*
X162379628Y-66659964D01*
X162447500Y-66660237D01*
X162465285Y-66660164D01*
X162532906Y-66659053D01*
X162597845Y-66656828D01*
X162653470Y-66653762D01*
X162693151Y-66650127D01*
X162728662Y-66646059D01*
X162757915Y-66645276D01*
X162776815Y-66649876D01*
X162791929Y-66660551D01*
X162795585Y-66664144D01*
X162811927Y-66695918D01*
X162810607Y-66731572D01*
X162791650Y-66762190D01*
X162771280Y-66773796D01*
X162735296Y-66786491D01*
X162692872Y-66796541D01*
X162689422Y-66797140D01*
X162646752Y-66802356D01*
X162589366Y-66806730D01*
X162524349Y-66809818D01*
X162458789Y-66811177D01*
X162442557Y-66811218D01*
X162344244Y-66808741D01*
X162264192Y-66800735D01*
X162199013Y-66786203D01*
X162145317Y-66764149D01*
X162099716Y-66733576D01*
X162058823Y-66693486D01*
X162038702Y-66667259D01*
X162027076Y-66637712D01*
X162024167Y-66597995D01*
X162024308Y-66586026D01*
X162028181Y-66553345D01*
X162040565Y-66526819D01*
X162065730Y-66495971D01*
X162086942Y-66473831D01*
X162113338Y-66451285D01*
X162143055Y-66432917D01*
X162179285Y-66417661D01*
X162225217Y-66404449D01*
X162284044Y-66392214D01*
X162358956Y-66379889D01*
X162453145Y-66366406D01*
X162498457Y-66359396D01*
X162566411Y-66344837D01*
X162615547Y-66328337D01*
X162645114Y-66310439D01*
X162654364Y-66291685D01*
X162642548Y-66272615D01*
X162608916Y-66253771D01*
X162605870Y-66252557D01*
X162559511Y-66240479D01*
X162496861Y-66232279D01*
X162423427Y-66228119D01*
X162344717Y-66228161D01*
X162266239Y-66232569D01*
X162193500Y-66241505D01*
X162189573Y-66242154D01*
X162140757Y-66249861D01*
X162108505Y-66253473D01*
X162087508Y-66252876D01*
X162072454Y-66247954D01*
X162058034Y-66238596D01*
X162056864Y-66237725D01*
X162032347Y-66207351D01*
X162027554Y-66171850D01*
X162043360Y-66137269D01*
X162047906Y-66132813D01*
X162077520Y-66117673D01*
X162124502Y-66104550D01*
X162184806Y-66093750D01*
X162254388Y-66085581D01*
X162329203Y-66080351D01*
X162405206Y-66078367D01*
X162478353Y-66079936D01*
G36*
X162478353Y-66079936D02*
G01*
X162544600Y-66085366D01*
X162599900Y-66094964D01*
X162650783Y-66109825D01*
X162722095Y-66142958D01*
X162773252Y-66185640D01*
X162804075Y-66237705D01*
X162814389Y-66298983D01*
X162813452Y-66330232D01*
X162807660Y-66355029D01*
X162792853Y-66376699D01*
X162764880Y-66404049D01*
X162756902Y-66411378D01*
X162733192Y-66432281D01*
X162710798Y-66449251D01*
X162686765Y-66463205D01*
X162658137Y-66475056D01*
X162621960Y-66485720D01*
X162575280Y-66496111D01*
X162515141Y-66507146D01*
X162438590Y-66519738D01*
X162342671Y-66534804D01*
X162324308Y-66537838D01*
X162261978Y-66551458D01*
X162216760Y-66567192D01*
X162190476Y-66584263D01*
X162184947Y-66601897D01*
X162187568Y-66606168D01*
X162205500Y-66621233D01*
X162233626Y-66637867D01*
X162246426Y-66643857D01*
X162267724Y-66651050D01*
X162294110Y-66655827D01*
X162329954Y-66658646D01*
X162379628Y-66659964D01*
X162447500Y-66660237D01*
X162465285Y-66660164D01*
X162532906Y-66659053D01*
X162597845Y-66656828D01*
X162653470Y-66653762D01*
X162693151Y-66650127D01*
X162728662Y-66646059D01*
X162757915Y-66645276D01*
X162776815Y-66649876D01*
X162791929Y-66660551D01*
X162795585Y-66664144D01*
X162811927Y-66695918D01*
X162810607Y-66731572D01*
X162791650Y-66762190D01*
X162771280Y-66773796D01*
X162735296Y-66786491D01*
X162692872Y-66796541D01*
X162689422Y-66797140D01*
X162646752Y-66802356D01*
X162589366Y-66806730D01*
X162524349Y-66809818D01*
X162458789Y-66811177D01*
X162442557Y-66811218D01*
X162344244Y-66808741D01*
X162264192Y-66800735D01*
X162199013Y-66786203D01*
X162145317Y-66764149D01*
X162099716Y-66733576D01*
X162058823Y-66693486D01*
X162038702Y-66667259D01*
X162027076Y-66637712D01*
X162024167Y-66597995D01*
X162024308Y-66586026D01*
X162028181Y-66553345D01*
X162040565Y-66526819D01*
X162065730Y-66495971D01*
X162086942Y-66473831D01*
X162113338Y-66451285D01*
X162143055Y-66432917D01*
X162179285Y-66417661D01*
X162225217Y-66404449D01*
X162284044Y-66392214D01*
X162358956Y-66379889D01*
X162453145Y-66366406D01*
X162498457Y-66359396D01*
X162566411Y-66344837D01*
X162615547Y-66328337D01*
X162645114Y-66310439D01*
X162654364Y-66291685D01*
X162642548Y-66272615D01*
X162608916Y-66253771D01*
X162605870Y-66252557D01*
X162559511Y-66240479D01*
X162496861Y-66232279D01*
X162423427Y-66228119D01*
X162344717Y-66228161D01*
X162266239Y-66232569D01*
X162193500Y-66241505D01*
X162189573Y-66242154D01*
X162140757Y-66249861D01*
X162108505Y-66253473D01*
X162087508Y-66252876D01*
X162072454Y-66247954D01*
X162058034Y-66238596D01*
X162056864Y-66237725D01*
X162032347Y-66207351D01*
X162027554Y-66171850D01*
X162043360Y-66137269D01*
X162047906Y-66132813D01*
X162077520Y-66117673D01*
X162124502Y-66104550D01*
X162184806Y-66093750D01*
X162254388Y-66085581D01*
X162329203Y-66080351D01*
X162405206Y-66078367D01*
X162478353Y-66079936D01*
G37*
X158626211Y-61772033D02*
X158721768Y-61789523D01*
X158886058Y-61834564D01*
X159040089Y-61897656D01*
X159186009Y-61979915D01*
X159325966Y-62082457D01*
X159462108Y-62206399D01*
X159505973Y-62251661D01*
X159618258Y-62383865D01*
X159711472Y-62521832D01*
X159788219Y-62669750D01*
X159851103Y-62831803D01*
X159854920Y-62843391D01*
X159905007Y-63029392D01*
X159938399Y-63225521D01*
X159955084Y-63427568D01*
X159955051Y-63631325D01*
X159938291Y-63832581D01*
X159904792Y-64027128D01*
X159854544Y-64210756D01*
X159810690Y-64328053D01*
X159732848Y-64490951D01*
X159639328Y-64644866D01*
X159532322Y-64786671D01*
X159414019Y-64913239D01*
X159286611Y-65021441D01*
X159209106Y-65074120D01*
X159082225Y-65143750D01*
X158944743Y-65202468D01*
X158803216Y-65247587D01*
X158664202Y-65276422D01*
X158650097Y-65278106D01*
X158606653Y-65281434D01*
X158549223Y-65284275D01*
X158483622Y-65286373D01*
X158415667Y-65287468D01*
X158288878Y-65285140D01*
X158141173Y-65272136D01*
X158003279Y-65247133D01*
X157869514Y-65209318D01*
X157846062Y-65200889D01*
X157798112Y-65181408D01*
X157741640Y-65156473D01*
X157679879Y-65127722D01*
X157616063Y-65096790D01*
X157553426Y-65065315D01*
X157495203Y-65034934D01*
X157444627Y-65007283D01*
X157404933Y-64983999D01*
X157379354Y-64966718D01*
X157371125Y-64957079D01*
X157372576Y-64953984D01*
X157383750Y-64934079D01*
X157404634Y-64898420D01*
X157433765Y-64849459D01*
X157469681Y-64789646D01*
X157510920Y-64721433D01*
X157556017Y-64647271D01*
X157737285Y-64350008D01*
X157783815Y-64394539D01*
X157875223Y-64472865D01*
X157988834Y-64547439D01*
X158106622Y-64601474D01*
X158227059Y-64634290D01*
X158348617Y-64645211D01*
X158390085Y-64643868D01*
X158507580Y-64625612D01*
X158617589Y-64586617D01*
X158718930Y-64527670D01*
X158810421Y-64449557D01*
X158890880Y-64353064D01*
X158959127Y-64238978D01*
X158975408Y-64204724D01*
X159021482Y-64081240D01*
X159056606Y-63942918D01*
X159080697Y-63793561D01*
X159093673Y-63636973D01*
X159095449Y-63476956D01*
X159085943Y-63317314D01*
X159065072Y-63161850D01*
X159032752Y-63014366D01*
X158988899Y-62878667D01*
X158951482Y-62792076D01*
X158886685Y-62678688D01*
X158811272Y-62585070D01*
X158724918Y-62510959D01*
X158627295Y-62456094D01*
X158518077Y-62420212D01*
X158396939Y-62403051D01*
X158327538Y-62401880D01*
X158204668Y-62416141D01*
X158089164Y-62451241D01*
X157982453Y-62506682D01*
X157885964Y-62581964D01*
X157870220Y-62596440D01*
X157839650Y-62622962D01*
X157817309Y-62640138D01*
X157807191Y-62644787D01*
X157805206Y-62642597D01*
X157790741Y-62623721D01*
X157766900Y-62590397D01*
X157735529Y-62545380D01*
X157698474Y-62491425D01*
X157657583Y-62431285D01*
X157614702Y-62367718D01*
X157571678Y-62303476D01*
X157530357Y-62241315D01*
X157492586Y-62183991D01*
X157460212Y-62134257D01*
X157435082Y-62094868D01*
X157419042Y-62068580D01*
X157413939Y-62058147D01*
X157418550Y-62053941D01*
X157437767Y-62048933D01*
X157447338Y-62046386D01*
X157475309Y-62035249D01*
X157516948Y-62016802D01*
X157568495Y-61992725D01*
X157626190Y-61964699D01*
X157637457Y-61959154D01*
X157815187Y-61879889D01*
X157984990Y-61820385D01*
X158148930Y-61780245D01*
X158309071Y-61759071D01*
X158467477Y-61756466D01*
X158626211Y-61772033D01*
G36*
X158626211Y-61772033D02*
G01*
X158721768Y-61789523D01*
X158886058Y-61834564D01*
X159040089Y-61897656D01*
X159186009Y-61979915D01*
X159325966Y-62082457D01*
X159462108Y-62206399D01*
X159505973Y-62251661D01*
X159618258Y-62383865D01*
X159711472Y-62521832D01*
X159788219Y-62669750D01*
X159851103Y-62831803D01*
X159854920Y-62843391D01*
X159905007Y-63029392D01*
X159938399Y-63225521D01*
X159955084Y-63427568D01*
X159955051Y-63631325D01*
X159938291Y-63832581D01*
X159904792Y-64027128D01*
X159854544Y-64210756D01*
X159810690Y-64328053D01*
X159732848Y-64490951D01*
X159639328Y-64644866D01*
X159532322Y-64786671D01*
X159414019Y-64913239D01*
X159286611Y-65021441D01*
X159209106Y-65074120D01*
X159082225Y-65143750D01*
X158944743Y-65202468D01*
X158803216Y-65247587D01*
X158664202Y-65276422D01*
X158650097Y-65278106D01*
X158606653Y-65281434D01*
X158549223Y-65284275D01*
X158483622Y-65286373D01*
X158415667Y-65287468D01*
X158288878Y-65285140D01*
X158141173Y-65272136D01*
X158003279Y-65247133D01*
X157869514Y-65209318D01*
X157846062Y-65200889D01*
X157798112Y-65181408D01*
X157741640Y-65156473D01*
X157679879Y-65127722D01*
X157616063Y-65096790D01*
X157553426Y-65065315D01*
X157495203Y-65034934D01*
X157444627Y-65007283D01*
X157404933Y-64983999D01*
X157379354Y-64966718D01*
X157371125Y-64957079D01*
X157372576Y-64953984D01*
X157383750Y-64934079D01*
X157404634Y-64898420D01*
X157433765Y-64849459D01*
X157469681Y-64789646D01*
X157510920Y-64721433D01*
X157556017Y-64647271D01*
X157737285Y-64350008D01*
X157783815Y-64394539D01*
X157875223Y-64472865D01*
X157988834Y-64547439D01*
X158106622Y-64601474D01*
X158227059Y-64634290D01*
X158348617Y-64645211D01*
X158390085Y-64643868D01*
X158507580Y-64625612D01*
X158617589Y-64586617D01*
X158718930Y-64527670D01*
X158810421Y-64449557D01*
X158890880Y-64353064D01*
X158959127Y-64238978D01*
X158975408Y-64204724D01*
X159021482Y-64081240D01*
X159056606Y-63942918D01*
X159080697Y-63793561D01*
X159093673Y-63636973D01*
X159095449Y-63476956D01*
X159085943Y-63317314D01*
X159065072Y-63161850D01*
X159032752Y-63014366D01*
X158988899Y-62878667D01*
X158951482Y-62792076D01*
X158886685Y-62678688D01*
X158811272Y-62585070D01*
X158724918Y-62510959D01*
X158627295Y-62456094D01*
X158518077Y-62420212D01*
X158396939Y-62403051D01*
X158327538Y-62401880D01*
X158204668Y-62416141D01*
X158089164Y-62451241D01*
X157982453Y-62506682D01*
X157885964Y-62581964D01*
X157870220Y-62596440D01*
X157839650Y-62622962D01*
X157817309Y-62640138D01*
X157807191Y-62644787D01*
X157805206Y-62642597D01*
X157790741Y-62623721D01*
X157766900Y-62590397D01*
X157735529Y-62545380D01*
X157698474Y-62491425D01*
X157657583Y-62431285D01*
X157614702Y-62367718D01*
X157571678Y-62303476D01*
X157530357Y-62241315D01*
X157492586Y-62183991D01*
X157460212Y-62134257D01*
X157435082Y-62094868D01*
X157419042Y-62068580D01*
X157413939Y-62058147D01*
X157418550Y-62053941D01*
X157437767Y-62048933D01*
X157447338Y-62046386D01*
X157475309Y-62035249D01*
X157516948Y-62016802D01*
X157568495Y-61992725D01*
X157626190Y-61964699D01*
X157637457Y-61959154D01*
X157815187Y-61879889D01*
X157984990Y-61820385D01*
X158148930Y-61780245D01*
X158309071Y-61759071D01*
X158467477Y-61756466D01*
X158626211Y-61772033D01*
G37*
X154823494Y-64052711D02*
X154822768Y-64130158D01*
X154814189Y-64281594D01*
X154795333Y-64418283D01*
X154765337Y-64544276D01*
X154723336Y-64663625D01*
X154668469Y-64780381D01*
X154601667Y-64891179D01*
X154510863Y-65004739D01*
X154407208Y-65100211D01*
X154291387Y-65177073D01*
X154164086Y-65234797D01*
X154025989Y-65272858D01*
X153988293Y-65278666D01*
X153909252Y-65284396D01*
X153821129Y-65284583D01*
X153731736Y-65279539D01*
X153648884Y-65269578D01*
X153580387Y-65255012D01*
X153549535Y-65245364D01*
X153472230Y-65215123D01*
X153395179Y-65177617D01*
X153325700Y-65136614D01*
X153271115Y-65095879D01*
X153248416Y-65076505D01*
X153225701Y-65058662D01*
X153214279Y-65051778D01*
X153213037Y-65053424D01*
X153210228Y-65071205D01*
X153208276Y-65104370D01*
X153207545Y-65147733D01*
X153207545Y-65243689D01*
X152349396Y-65243689D01*
X152383661Y-65182974D01*
X152388855Y-65173868D01*
X152397215Y-65159249D01*
X152404788Y-65145173D01*
X152411612Y-65130540D01*
X152417727Y-65114249D01*
X152423173Y-65095198D01*
X152427987Y-65072286D01*
X152432208Y-65044413D01*
X152435877Y-65010478D01*
X152439031Y-64969379D01*
X152441711Y-64920015D01*
X152443954Y-64861286D01*
X152445799Y-64792090D01*
X152447287Y-64711326D01*
X152448455Y-64617894D01*
X152449344Y-64510692D01*
X152449991Y-64388620D01*
X152450436Y-64250576D01*
X152450718Y-64095459D01*
X152450875Y-63922168D01*
X152450948Y-63729603D01*
X152450974Y-63516662D01*
X152450985Y-63380530D01*
X153252700Y-63380530D01*
X153252700Y-64530721D01*
X153323256Y-64577089D01*
X153363917Y-64600791D01*
X153418046Y-64626639D01*
X153467189Y-64644829D01*
X153530665Y-64660551D01*
X153626831Y-64671541D01*
X153711400Y-64663365D01*
X153784719Y-64635805D01*
X153847137Y-64588642D01*
X153899002Y-64521658D01*
X153940660Y-64434633D01*
X153972462Y-64327350D01*
X153975045Y-64315009D01*
X153983500Y-64253772D01*
X153989163Y-64176692D01*
X153992076Y-64089002D01*
X153992283Y-63995934D01*
X153989830Y-63902720D01*
X153984761Y-63814594D01*
X153977119Y-63736788D01*
X153966948Y-63674533D01*
X153965667Y-63668666D01*
X153936626Y-63558121D01*
X153902110Y-63467575D01*
X153860956Y-63394953D01*
X153811999Y-63338181D01*
X153754074Y-63295184D01*
X153722120Y-63279615D01*
X153649284Y-63260722D01*
X153567943Y-63257465D01*
X153482819Y-63269389D01*
X153398633Y-63296040D01*
X153320108Y-63336962D01*
X153252700Y-63380530D01*
X152450985Y-63380530D01*
X152450993Y-63282245D01*
X152451189Y-61597378D01*
X153356517Y-61597378D01*
X153332085Y-61634067D01*
X153325818Y-61643647D01*
X153299708Y-61689981D01*
X153281969Y-61737102D01*
X153270408Y-61792251D01*
X153262831Y-61862667D01*
X153262339Y-61869650D01*
X153260562Y-61907641D01*
X153258944Y-61961576D01*
X153257499Y-62028703D01*
X153256240Y-62106271D01*
X153255180Y-62191528D01*
X153254329Y-62281724D01*
X153253703Y-62374107D01*
X153253312Y-62465925D01*
X153253170Y-62554427D01*
X153253290Y-62636862D01*
X153253683Y-62710479D01*
X153254362Y-62772526D01*
X153255341Y-62820251D01*
X153256632Y-62850904D01*
X153258247Y-62861733D01*
X153266457Y-62857333D01*
X153288147Y-62842362D01*
X153317514Y-62820448D01*
X153366379Y-62786236D01*
X153454625Y-62739714D01*
X153553416Y-62706046D01*
X153666010Y-62684231D01*
X153795664Y-62673265D01*
X153888170Y-62672219D01*
X154009511Y-62682014D01*
X154119599Y-62706174D01*
X154222889Y-62745785D01*
X154323838Y-62801932D01*
X154369003Y-62832883D01*
X154474411Y-62924115D01*
X154566038Y-63033106D01*
X154643832Y-63159726D01*
X154707741Y-63303845D01*
X154757714Y-63465332D01*
X154793698Y-63644059D01*
X154815643Y-63839895D01*
X154821400Y-63995934D01*
X154823494Y-64052711D01*
G36*
X154823494Y-64052711D02*
G01*
X154822768Y-64130158D01*
X154814189Y-64281594D01*
X154795333Y-64418283D01*
X154765337Y-64544276D01*
X154723336Y-64663625D01*
X154668469Y-64780381D01*
X154601667Y-64891179D01*
X154510863Y-65004739D01*
X154407208Y-65100211D01*
X154291387Y-65177073D01*
X154164086Y-65234797D01*
X154025989Y-65272858D01*
X153988293Y-65278666D01*
X153909252Y-65284396D01*
X153821129Y-65284583D01*
X153731736Y-65279539D01*
X153648884Y-65269578D01*
X153580387Y-65255012D01*
X153549535Y-65245364D01*
X153472230Y-65215123D01*
X153395179Y-65177617D01*
X153325700Y-65136614D01*
X153271115Y-65095879D01*
X153248416Y-65076505D01*
X153225701Y-65058662D01*
X153214279Y-65051778D01*
X153213037Y-65053424D01*
X153210228Y-65071205D01*
X153208276Y-65104370D01*
X153207545Y-65147733D01*
X153207545Y-65243689D01*
X152349396Y-65243689D01*
X152383661Y-65182974D01*
X152388855Y-65173868D01*
X152397215Y-65159249D01*
X152404788Y-65145173D01*
X152411612Y-65130540D01*
X152417727Y-65114249D01*
X152423173Y-65095198D01*
X152427987Y-65072286D01*
X152432208Y-65044413D01*
X152435877Y-65010478D01*
X152439031Y-64969379D01*
X152441711Y-64920015D01*
X152443954Y-64861286D01*
X152445799Y-64792090D01*
X152447287Y-64711326D01*
X152448455Y-64617894D01*
X152449344Y-64510692D01*
X152449991Y-64388620D01*
X152450436Y-64250576D01*
X152450718Y-64095459D01*
X152450875Y-63922168D01*
X152450948Y-63729603D01*
X152450974Y-63516662D01*
X152450985Y-63380530D01*
X153252700Y-63380530D01*
X153252700Y-64530721D01*
X153323256Y-64577089D01*
X153363917Y-64600791D01*
X153418046Y-64626639D01*
X153467189Y-64644829D01*
X153530665Y-64660551D01*
X153626831Y-64671541D01*
X153711400Y-64663365D01*
X153784719Y-64635805D01*
X153847137Y-64588642D01*
X153899002Y-64521658D01*
X153940660Y-64434633D01*
X153972462Y-64327350D01*
X153975045Y-64315009D01*
X153983500Y-64253772D01*
X153989163Y-64176692D01*
X153992076Y-64089002D01*
X153992283Y-63995934D01*
X153989830Y-63902720D01*
X153984761Y-63814594D01*
X153977119Y-63736788D01*
X153966948Y-63674533D01*
X153965667Y-63668666D01*
X153936626Y-63558121D01*
X153902110Y-63467575D01*
X153860956Y-63394953D01*
X153811999Y-63338181D01*
X153754074Y-63295184D01*
X153722120Y-63279615D01*
X153649284Y-63260722D01*
X153567943Y-63257465D01*
X153482819Y-63269389D01*
X153398633Y-63296040D01*
X153320108Y-63336962D01*
X153252700Y-63380530D01*
X152450985Y-63380530D01*
X152450993Y-63282245D01*
X152451189Y-61597378D01*
X153356517Y-61597378D01*
X153332085Y-61634067D01*
X153325818Y-61643647D01*
X153299708Y-61689981D01*
X153281969Y-61737102D01*
X153270408Y-61792251D01*
X153262831Y-61862667D01*
X153262339Y-61869650D01*
X153260562Y-61907641D01*
X153258944Y-61961576D01*
X153257499Y-62028703D01*
X153256240Y-62106271D01*
X153255180Y-62191528D01*
X153254329Y-62281724D01*
X153253703Y-62374107D01*
X153253312Y-62465925D01*
X153253170Y-62554427D01*
X153253290Y-62636862D01*
X153253683Y-62710479D01*
X153254362Y-62772526D01*
X153255341Y-62820251D01*
X153256632Y-62850904D01*
X153258247Y-62861733D01*
X153266457Y-62857333D01*
X153288147Y-62842362D01*
X153317514Y-62820448D01*
X153366379Y-62786236D01*
X153454625Y-62739714D01*
X153553416Y-62706046D01*
X153666010Y-62684231D01*
X153795664Y-62673265D01*
X153888170Y-62672219D01*
X154009511Y-62682014D01*
X154119599Y-62706174D01*
X154222889Y-62745785D01*
X154323838Y-62801932D01*
X154369003Y-62832883D01*
X154474411Y-62924115D01*
X154566038Y-63033106D01*
X154643832Y-63159726D01*
X154707741Y-63303845D01*
X154757714Y-63465332D01*
X154793698Y-63644059D01*
X154815643Y-63839895D01*
X154821400Y-63995934D01*
X154823494Y-64052711D01*
G37*
X157365255Y-64453467D02*
X157364761Y-64487363D01*
X157361132Y-64562202D01*
X157353522Y-64624401D01*
X157341188Y-64680984D01*
X157296813Y-64807076D01*
X157233900Y-64921679D01*
X157153738Y-65022568D01*
X157057240Y-65108924D01*
X156945322Y-65179932D01*
X156818897Y-65234776D01*
X156678878Y-65272638D01*
X156642649Y-65278351D01*
X156563655Y-65284313D01*
X156475341Y-65284646D01*
X156385575Y-65279659D01*
X156302222Y-65269666D01*
X156233151Y-65254978D01*
X156146687Y-65224749D01*
X156036786Y-65170057D01*
X155939456Y-65102543D01*
X155877367Y-65051556D01*
X155874105Y-65147622D01*
X155870843Y-65243689D01*
X155447950Y-65243689D01*
X155437043Y-65243686D01*
X155342556Y-65243380D01*
X155255831Y-65242616D01*
X155179337Y-65241451D01*
X155115543Y-65239942D01*
X155066918Y-65238147D01*
X155035933Y-65236121D01*
X155025056Y-65233922D01*
X155025078Y-65233463D01*
X155032114Y-65217910D01*
X155047934Y-65195071D01*
X155052234Y-65189638D01*
X155063277Y-65175606D01*
X155072811Y-65162186D01*
X155080961Y-65147722D01*
X155087852Y-65130556D01*
X155093611Y-65109034D01*
X155098362Y-65081498D01*
X155102231Y-65046292D01*
X155105344Y-65001760D01*
X155107825Y-64946246D01*
X155109800Y-64878093D01*
X155111394Y-64795645D01*
X155112734Y-64697246D01*
X155113944Y-64581239D01*
X155115149Y-64445968D01*
X155116095Y-64334586D01*
X155916878Y-64334586D01*
X155916878Y-64530462D01*
X155961548Y-64586973D01*
X155974285Y-64602212D01*
X156021104Y-64644844D01*
X156081755Y-64680672D01*
X156092397Y-64685850D01*
X156131176Y-64702745D01*
X156166192Y-64712909D01*
X156206222Y-64718325D01*
X156260041Y-64720978D01*
X156278148Y-64721383D01*
X156353511Y-64718540D01*
X156414243Y-64706620D01*
X156465952Y-64684037D01*
X156514246Y-64649211D01*
X156519303Y-64644798D01*
X156567772Y-64589160D01*
X156595959Y-64525333D01*
X156605252Y-64450282D01*
X156598020Y-64378693D01*
X156573296Y-64315645D01*
X156528749Y-64257758D01*
X156473819Y-64210808D01*
X156401394Y-64170961D01*
X156314840Y-64143263D01*
X156212170Y-64127096D01*
X156091394Y-64121842D01*
X156082507Y-64121857D01*
X156027160Y-64122655D01*
X155980236Y-64124488D01*
X155946453Y-64127111D01*
X155930528Y-64130274D01*
X155926443Y-64136741D01*
X155922072Y-64158875D01*
X155919104Y-64197988D01*
X155917414Y-64255939D01*
X155916878Y-64334586D01*
X155116095Y-64334586D01*
X155116475Y-64289778D01*
X155117728Y-64147012D01*
X155119151Y-64001942D01*
X155120676Y-63876027D01*
X155122433Y-63767436D01*
X155124551Y-63674334D01*
X155127160Y-63594891D01*
X155130390Y-63527273D01*
X155134369Y-63469649D01*
X155139228Y-63420185D01*
X155145097Y-63377050D01*
X155152104Y-63338410D01*
X155160380Y-63302434D01*
X155170054Y-63267289D01*
X155181256Y-63231142D01*
X155194116Y-63192161D01*
X155209590Y-63149091D01*
X155252494Y-63056871D01*
X155306235Y-62977099D01*
X155375076Y-62902965D01*
X155452685Y-62839405D01*
X155557261Y-62777725D01*
X155676744Y-62730202D01*
X155812008Y-62696567D01*
X155963926Y-62676552D01*
X156133372Y-62669889D01*
X156191390Y-62670287D01*
X156256898Y-62672335D01*
X156318193Y-62676704D01*
X156379597Y-62684035D01*
X156445432Y-62694969D01*
X156520020Y-62710147D01*
X156607684Y-62730209D01*
X156712745Y-62755797D01*
X156741306Y-62762820D01*
X156816554Y-62780776D01*
X156886888Y-62796820D01*
X156948067Y-62810028D01*
X156995854Y-62819474D01*
X157026011Y-62824231D01*
X157054283Y-62827910D01*
X157080560Y-62833187D01*
X157090559Y-62837942D01*
X157087452Y-62846781D01*
X157076694Y-62874072D01*
X157059364Y-62916906D01*
X157036626Y-62972425D01*
X157009647Y-63037772D01*
X156979590Y-63110089D01*
X156972993Y-63125879D01*
X156934407Y-63216484D01*
X156903268Y-63286217D01*
X156879417Y-63335405D01*
X156862698Y-63364374D01*
X156852954Y-63373452D01*
X156845266Y-63371405D01*
X156818915Y-63361760D01*
X156780482Y-63346190D01*
X156735322Y-63326815D01*
X156640793Y-63288814D01*
X156503980Y-63247780D01*
X156362789Y-63222612D01*
X156324814Y-63218611D01*
X156221559Y-63216447D01*
X156134452Y-63229622D01*
X156062629Y-63258756D01*
X156005231Y-63304466D01*
X155961396Y-63367372D01*
X155930262Y-63448092D01*
X155910970Y-63547245D01*
X155903550Y-63606224D01*
X156065436Y-63599445D01*
X156191995Y-63597813D01*
X156343451Y-63604194D01*
X156491896Y-63618777D01*
X156628078Y-63640882D01*
X156692745Y-63655821D01*
X156824990Y-63698741D01*
X156947262Y-63755340D01*
X157057185Y-63824017D01*
X157152383Y-63903170D01*
X157230480Y-63991196D01*
X157289099Y-64086493D01*
X157313095Y-64138864D01*
X157338732Y-64209590D01*
X157354978Y-64280812D01*
X157363322Y-64359712D01*
X157365190Y-64450282D01*
X157365255Y-64453467D01*
G36*
X157365255Y-64453467D02*
G01*
X157364761Y-64487363D01*
X157361132Y-64562202D01*
X157353522Y-64624401D01*
X157341188Y-64680984D01*
X157296813Y-64807076D01*
X157233900Y-64921679D01*
X157153738Y-65022568D01*
X157057240Y-65108924D01*
X156945322Y-65179932D01*
X156818897Y-65234776D01*
X156678878Y-65272638D01*
X156642649Y-65278351D01*
X156563655Y-65284313D01*
X156475341Y-65284646D01*
X156385575Y-65279659D01*
X156302222Y-65269666D01*
X156233151Y-65254978D01*
X156146687Y-65224749D01*
X156036786Y-65170057D01*
X155939456Y-65102543D01*
X155877367Y-65051556D01*
X155874105Y-65147622D01*
X155870843Y-65243689D01*
X155447950Y-65243689D01*
X155437043Y-65243686D01*
X155342556Y-65243380D01*
X155255831Y-65242616D01*
X155179337Y-65241451D01*
X155115543Y-65239942D01*
X155066918Y-65238147D01*
X155035933Y-65236121D01*
X155025056Y-65233922D01*
X155025078Y-65233463D01*
X155032114Y-65217910D01*
X155047934Y-65195071D01*
X155052234Y-65189638D01*
X155063277Y-65175606D01*
X155072811Y-65162186D01*
X155080961Y-65147722D01*
X155087852Y-65130556D01*
X155093611Y-65109034D01*
X155098362Y-65081498D01*
X155102231Y-65046292D01*
X155105344Y-65001760D01*
X155107825Y-64946246D01*
X155109800Y-64878093D01*
X155111394Y-64795645D01*
X155112734Y-64697246D01*
X155113944Y-64581239D01*
X155115149Y-64445968D01*
X155116095Y-64334586D01*
X155916878Y-64334586D01*
X155916878Y-64530462D01*
X155961548Y-64586973D01*
X155974285Y-64602212D01*
X156021104Y-64644844D01*
X156081755Y-64680672D01*
X156092397Y-64685850D01*
X156131176Y-64702745D01*
X156166192Y-64712909D01*
X156206222Y-64718325D01*
X156260041Y-64720978D01*
X156278148Y-64721383D01*
X156353511Y-64718540D01*
X156414243Y-64706620D01*
X156465952Y-64684037D01*
X156514246Y-64649211D01*
X156519303Y-64644798D01*
X156567772Y-64589160D01*
X156595959Y-64525333D01*
X156605252Y-64450282D01*
X156598020Y-64378693D01*
X156573296Y-64315645D01*
X156528749Y-64257758D01*
X156473819Y-64210808D01*
X156401394Y-64170961D01*
X156314840Y-64143263D01*
X156212170Y-64127096D01*
X156091394Y-64121842D01*
X156082507Y-64121857D01*
X156027160Y-64122655D01*
X155980236Y-64124488D01*
X155946453Y-64127111D01*
X155930528Y-64130274D01*
X155926443Y-64136741D01*
X155922072Y-64158875D01*
X155919104Y-64197988D01*
X155917414Y-64255939D01*
X155916878Y-64334586D01*
X155116095Y-64334586D01*
X155116475Y-64289778D01*
X155117728Y-64147012D01*
X155119151Y-64001942D01*
X155120676Y-63876027D01*
X155122433Y-63767436D01*
X155124551Y-63674334D01*
X155127160Y-63594891D01*
X155130390Y-63527273D01*
X155134369Y-63469649D01*
X155139228Y-63420185D01*
X155145097Y-63377050D01*
X155152104Y-63338410D01*
X155160380Y-63302434D01*
X155170054Y-63267289D01*
X155181256Y-63231142D01*
X155194116Y-63192161D01*
X155209590Y-63149091D01*
X155252494Y-63056871D01*
X155306235Y-62977099D01*
X155375076Y-62902965D01*
X155452685Y-62839405D01*
X155557261Y-62777725D01*
X155676744Y-62730202D01*
X155812008Y-62696567D01*
X155963926Y-62676552D01*
X156133372Y-62669889D01*
X156191390Y-62670287D01*
X156256898Y-62672335D01*
X156318193Y-62676704D01*
X156379597Y-62684035D01*
X156445432Y-62694969D01*
X156520020Y-62710147D01*
X156607684Y-62730209D01*
X156712745Y-62755797D01*
X156741306Y-62762820D01*
X156816554Y-62780776D01*
X156886888Y-62796820D01*
X156948067Y-62810028D01*
X156995854Y-62819474D01*
X157026011Y-62824231D01*
X157054283Y-62827910D01*
X157080560Y-62833187D01*
X157090559Y-62837942D01*
X157087452Y-62846781D01*
X157076694Y-62874072D01*
X157059364Y-62916906D01*
X157036626Y-62972425D01*
X157009647Y-63037772D01*
X156979590Y-63110089D01*
X156972993Y-63125879D01*
X156934407Y-63216484D01*
X156903268Y-63286217D01*
X156879417Y-63335405D01*
X156862698Y-63364374D01*
X156852954Y-63373452D01*
X156845266Y-63371405D01*
X156818915Y-63361760D01*
X156780482Y-63346190D01*
X156735322Y-63326815D01*
X156640793Y-63288814D01*
X156503980Y-63247780D01*
X156362789Y-63222612D01*
X156324814Y-63218611D01*
X156221559Y-63216447D01*
X156134452Y-63229622D01*
X156062629Y-63258756D01*
X156005231Y-63304466D01*
X155961396Y-63367372D01*
X155930262Y-63448092D01*
X155910970Y-63547245D01*
X155903550Y-63606224D01*
X156065436Y-63599445D01*
X156191995Y-63597813D01*
X156343451Y-63604194D01*
X156491896Y-63618777D01*
X156628078Y-63640882D01*
X156692745Y-63655821D01*
X156824990Y-63698741D01*
X156947262Y-63755340D01*
X157057185Y-63824017D01*
X157152383Y-63903170D01*
X157230480Y-63991196D01*
X157289099Y-64086493D01*
X157313095Y-64138864D01*
X157338732Y-64209590D01*
X157354978Y-64280812D01*
X157363322Y-64359712D01*
X157365190Y-64450282D01*
X157365255Y-64453467D01*
G37*
X164913114Y-61921792D02*
X164913559Y-62053011D01*
X164913862Y-62200216D01*
X164914048Y-62364349D01*
X164914142Y-62546352D01*
X164914171Y-62747165D01*
X164914161Y-62967732D01*
X164914136Y-63208992D01*
X164914122Y-63471889D01*
X164914122Y-63514040D01*
X164914146Y-63774668D01*
X164914185Y-64013796D01*
X164914208Y-64232360D01*
X164914187Y-64431295D01*
X164914093Y-64611535D01*
X164913895Y-64774015D01*
X164913563Y-64919670D01*
X164913069Y-65049434D01*
X164912383Y-65164243D01*
X164911476Y-65265030D01*
X164910317Y-65352730D01*
X164908878Y-65428279D01*
X164907129Y-65492611D01*
X164905040Y-65546661D01*
X164902583Y-65591363D01*
X164899727Y-65627652D01*
X164896443Y-65656463D01*
X164892702Y-65678731D01*
X164888474Y-65695390D01*
X164883729Y-65707375D01*
X164878439Y-65715621D01*
X164872573Y-65721062D01*
X164866102Y-65724634D01*
X164858997Y-65727270D01*
X164851228Y-65729906D01*
X164842766Y-65733477D01*
X164838408Y-65735145D01*
X164829895Y-65737111D01*
X164817194Y-65738911D01*
X164799385Y-65740555D01*
X164775549Y-65742047D01*
X164744766Y-65743397D01*
X164706117Y-65744611D01*
X164658682Y-65745697D01*
X164601543Y-65746661D01*
X164533779Y-65747511D01*
X164454471Y-65748253D01*
X164362699Y-65748897D01*
X164257544Y-65749447D01*
X164138087Y-65749913D01*
X164003408Y-65750300D01*
X163852588Y-65750616D01*
X163684706Y-65750869D01*
X163498845Y-65751066D01*
X163294083Y-65751213D01*
X163069502Y-65751318D01*
X162824182Y-65751389D01*
X162557204Y-65751432D01*
X162518821Y-65751437D01*
X162253422Y-65751480D01*
X162009550Y-65751525D01*
X161786283Y-65751548D01*
X161582696Y-65751524D01*
X161397867Y-65751430D01*
X161230873Y-65751243D01*
X161080790Y-65750939D01*
X160946696Y-65750494D01*
X160827666Y-65749885D01*
X160722779Y-65749089D01*
X160631110Y-65748080D01*
X160551737Y-65746837D01*
X160483737Y-65745335D01*
X160426186Y-65743551D01*
X160378162Y-65741461D01*
X160338740Y-65739042D01*
X160306999Y-65736270D01*
X160282014Y-65733121D01*
X160262864Y-65729572D01*
X160248623Y-65725598D01*
X160238371Y-65721178D01*
X160231182Y-65716286D01*
X160226135Y-65710900D01*
X160222305Y-65704996D01*
X160218771Y-65698549D01*
X160214608Y-65691537D01*
X160213525Y-65689687D01*
X160211313Y-65684180D01*
X160209286Y-65675868D01*
X160207438Y-65663809D01*
X160205761Y-65647063D01*
X160204245Y-65624687D01*
X160202883Y-65595740D01*
X160201667Y-65559280D01*
X160200589Y-65514367D01*
X160199640Y-65460057D01*
X160198812Y-65395410D01*
X160198097Y-65319484D01*
X160197487Y-65231338D01*
X160197442Y-65222493D01*
X160488878Y-65222493D01*
X160492760Y-65223765D01*
X160516020Y-65225791D01*
X160558374Y-65227626D01*
X160617632Y-65229227D01*
X160691607Y-65230549D01*
X160778110Y-65231548D01*
X160874952Y-65232180D01*
X160979945Y-65232400D01*
X161678151Y-65232400D01*
X162832590Y-65232400D01*
X162831956Y-65156200D01*
X162833074Y-65114160D01*
X162838804Y-65078334D01*
X162851390Y-65040772D01*
X162873068Y-64992577D01*
X162876289Y-64985897D01*
X162901688Y-64936359D01*
X162928496Y-64888369D01*
X162951417Y-64851466D01*
X162955985Y-64844834D01*
X162978016Y-64813593D01*
X163010193Y-64768654D01*
X163050957Y-64712147D01*
X163098745Y-64646204D01*
X163151998Y-64572957D01*
X163209155Y-64494536D01*
X163268655Y-64413072D01*
X163328937Y-64330698D01*
X163388440Y-64249544D01*
X163445605Y-64171742D01*
X163498870Y-64099423D01*
X163546674Y-64034718D01*
X163587457Y-63979759D01*
X163619658Y-63936676D01*
X163641716Y-63907602D01*
X163652071Y-63894667D01*
X163656544Y-63890351D01*
X163660736Y-63888312D01*
X163664143Y-63890926D01*
X163666825Y-63899986D01*
X163668841Y-63917285D01*
X163670248Y-63944614D01*
X163671105Y-63983765D01*
X163671470Y-64036533D01*
X163671403Y-64104707D01*
X163670960Y-64190082D01*
X163670202Y-64294449D01*
X163669185Y-64419600D01*
X163668808Y-64464300D01*
X163667669Y-64585395D01*
X163666472Y-64686688D01*
X163665136Y-64770262D01*
X163663577Y-64838204D01*
X163661715Y-64892599D01*
X163659466Y-64935532D01*
X163656748Y-64969089D01*
X163653479Y-64995355D01*
X163649578Y-65016416D01*
X163644961Y-65034357D01*
X163636692Y-65060770D01*
X163613083Y-65122772D01*
X163587185Y-65175573D01*
X163562035Y-65212645D01*
X163560839Y-65214075D01*
X163558668Y-65218424D01*
X163560828Y-65222026D01*
X163569144Y-65224951D01*
X163585440Y-65227269D01*
X163611541Y-65229051D01*
X163649271Y-65230367D01*
X163700456Y-65231286D01*
X163766920Y-65231878D01*
X163850487Y-65232215D01*
X163952983Y-65232365D01*
X164076232Y-65232400D01*
X164607796Y-65232400D01*
X164569023Y-65174783D01*
X164562932Y-65165893D01*
X164552476Y-65151069D01*
X164543079Y-65137422D01*
X164534683Y-65123765D01*
X164527233Y-65108911D01*
X164520673Y-65091670D01*
X164514946Y-65070855D01*
X164509995Y-65045280D01*
X164505766Y-65013755D01*
X164502201Y-64975093D01*
X164499244Y-64928107D01*
X164496840Y-64871608D01*
X164494931Y-64804409D01*
X164493462Y-64725322D01*
X164492376Y-64633160D01*
X164491618Y-64526734D01*
X164491130Y-64404857D01*
X164490858Y-64266341D01*
X164490743Y-64109999D01*
X164490731Y-63934642D01*
X164490765Y-63739082D01*
X164490789Y-63522133D01*
X164490780Y-63399513D01*
X164490743Y-63194447D01*
X164490727Y-63010116D01*
X164490788Y-62845334D01*
X164490984Y-62698916D01*
X164491370Y-62569674D01*
X164492005Y-62456422D01*
X164492944Y-62357975D01*
X164494245Y-62273144D01*
X164495964Y-62200744D01*
X164498159Y-62139589D01*
X164500885Y-62088492D01*
X164504201Y-62046267D01*
X164508162Y-62011727D01*
X164512825Y-61983686D01*
X164518247Y-61960958D01*
X164524486Y-61942356D01*
X164531597Y-61926693D01*
X164539638Y-61912784D01*
X164548666Y-61899441D01*
X164558736Y-61885479D01*
X164569907Y-61869711D01*
X164609697Y-61811867D01*
X163549814Y-61811867D01*
X163587811Y-61874966D01*
X163602493Y-61900005D01*
X163617031Y-61927586D01*
X163629127Y-61955700D01*
X163639032Y-61986551D01*
X163646994Y-62022344D01*
X163653261Y-62065283D01*
X163658082Y-62117574D01*
X163661706Y-62181419D01*
X163664381Y-62259025D01*
X163666357Y-62352594D01*
X163667882Y-62464333D01*
X163669204Y-62596445D01*
X163670113Y-62716434D01*
X163670520Y-62833063D01*
X163670267Y-62928531D01*
X163669357Y-63002556D01*
X163667793Y-63054855D01*
X163665579Y-63085149D01*
X163662720Y-63093156D01*
X163659661Y-63089858D01*
X163641506Y-63068408D01*
X163611775Y-63031889D01*
X163572139Y-62982442D01*
X163524271Y-62922207D01*
X163469843Y-62853327D01*
X163410527Y-62777943D01*
X163347995Y-62698196D01*
X163283921Y-62616228D01*
X163219975Y-62534180D01*
X163157831Y-62454194D01*
X163099161Y-62378411D01*
X163045637Y-62308973D01*
X162998930Y-62248021D01*
X162960714Y-62197696D01*
X162932661Y-62160140D01*
X162916443Y-62137495D01*
X162871135Y-62065212D01*
X162831161Y-61985463D01*
X162809630Y-61917188D01*
X162806327Y-61859844D01*
X162811616Y-61811867D01*
X161679856Y-61812117D01*
X161719367Y-61842722D01*
X161728748Y-61850089D01*
X161791683Y-61904438D01*
X161860497Y-61972259D01*
X161937096Y-62055516D01*
X162023388Y-62156178D01*
X162040552Y-62176847D01*
X162081333Y-62226409D01*
X162131088Y-62287326D01*
X162188455Y-62357898D01*
X162252069Y-62436424D01*
X162320569Y-62521204D01*
X162392590Y-62610537D01*
X162466770Y-62702722D01*
X162482017Y-62721702D01*
X162541746Y-62796060D01*
X162616153Y-62888848D01*
X162688631Y-62979388D01*
X162757814Y-63065978D01*
X162822341Y-63146918D01*
X162880847Y-63220506D01*
X162931970Y-63285044D01*
X162974347Y-63338829D01*
X163006615Y-63380162D01*
X163027410Y-63407342D01*
X163035369Y-63418668D01*
X163033611Y-63422771D01*
X163020730Y-63443334D01*
X162996385Y-63479561D01*
X162961747Y-63529824D01*
X162917986Y-63592492D01*
X162866275Y-63665936D01*
X162807784Y-63748527D01*
X162743684Y-63838636D01*
X162675146Y-63934631D01*
X162603343Y-64034885D01*
X162529444Y-64137768D01*
X162454621Y-64241650D01*
X162380045Y-64344901D01*
X162306887Y-64445892D01*
X162236319Y-64542994D01*
X162169511Y-64634577D01*
X162107635Y-64719011D01*
X162051861Y-64794667D01*
X162003362Y-64859916D01*
X161963307Y-64913128D01*
X161932869Y-64952673D01*
X161912444Y-64978026D01*
X161866399Y-65032295D01*
X161816112Y-65088775D01*
X161769315Y-65138669D01*
X161678151Y-65232400D01*
X160979945Y-65232400D01*
X161048856Y-65232349D01*
X161147107Y-65232091D01*
X161236530Y-65231637D01*
X161314833Y-65231010D01*
X161379723Y-65230235D01*
X161428911Y-65229335D01*
X161460104Y-65228334D01*
X161471011Y-65227257D01*
X161469822Y-65224037D01*
X161459676Y-65206452D01*
X161442540Y-65180158D01*
X161434040Y-65167691D01*
X161424829Y-65153622D01*
X161416733Y-65139351D01*
X161409685Y-65123479D01*
X161403617Y-65104609D01*
X161398461Y-65081341D01*
X161394151Y-65052278D01*
X161390619Y-65016021D01*
X161387797Y-64971170D01*
X161385618Y-64916328D01*
X161384014Y-64850097D01*
X161382919Y-64771077D01*
X161382265Y-64677871D01*
X161381984Y-64569079D01*
X161382009Y-64443303D01*
X161382272Y-64299145D01*
X161382706Y-64135207D01*
X161383245Y-63950089D01*
X161383779Y-63771232D01*
X161384305Y-63612374D01*
X161384850Y-63473316D01*
X161385445Y-63352665D01*
X161386119Y-63249028D01*
X161386903Y-63161011D01*
X161387826Y-63087223D01*
X161388919Y-63026269D01*
X161390212Y-62976757D01*
X161391735Y-62937293D01*
X161393519Y-62906484D01*
X161395592Y-62882938D01*
X161397986Y-62865260D01*
X161400730Y-62852059D01*
X161403856Y-62841940D01*
X161407392Y-62833511D01*
X161411291Y-62825375D01*
X161430938Y-62788544D01*
X161449725Y-62758391D01*
X161450772Y-62756908D01*
X161465102Y-62734659D01*
X161471011Y-62721702D01*
X161470004Y-62721249D01*
X161452805Y-62719803D01*
X161416156Y-62718480D01*
X161362462Y-62717316D01*
X161294130Y-62716347D01*
X161213564Y-62715611D01*
X161123170Y-62715142D01*
X161025353Y-62714978D01*
X160579695Y-62714978D01*
X160576620Y-63891845D01*
X160573545Y-65068711D01*
X160546907Y-65127622D01*
X160534985Y-65152183D01*
X160517746Y-65182434D01*
X160504574Y-65199560D01*
X160496576Y-65207591D01*
X160488878Y-65222493D01*
X160197442Y-65222493D01*
X160196974Y-65130029D01*
X160196550Y-65014617D01*
X160196206Y-64884160D01*
X160195934Y-64737716D01*
X160195727Y-64574344D01*
X160195576Y-64393101D01*
X160195472Y-64193048D01*
X160195408Y-63973241D01*
X160195376Y-63732739D01*
X160195367Y-63470602D01*
X160195367Y-61279031D01*
X160233749Y-61240649D01*
X160260855Y-61216911D01*
X160287753Y-61205111D01*
X160324060Y-61202267D01*
X160375989Y-61202267D01*
X160375989Y-61290206D01*
X160377927Y-61340102D01*
X160396699Y-61450523D01*
X160433717Y-61551987D01*
X160486869Y-61643152D01*
X160554046Y-61722673D01*
X160633138Y-61789205D01*
X160722034Y-61841406D01*
X160818625Y-61877930D01*
X160920800Y-61897434D01*
X161026450Y-61898573D01*
X161133464Y-61880005D01*
X161239732Y-61840384D01*
X161336719Y-61782516D01*
X161421793Y-61707684D01*
X161490515Y-61619615D01*
X161541418Y-61520616D01*
X161573035Y-61412993D01*
X161583900Y-61299054D01*
X161583900Y-61202267D01*
X163204253Y-61202267D01*
X163415397Y-61202280D01*
X163619520Y-61202330D01*
X163803186Y-61202430D01*
X163967491Y-61202592D01*
X164113529Y-61202829D01*
X164242394Y-61203153D01*
X164355183Y-61203575D01*
X164452988Y-61204109D01*
X164536904Y-61204767D01*
X164608027Y-61205561D01*
X164667450Y-61206504D01*
X164716268Y-61207608D01*
X164755577Y-61208884D01*
X164786469Y-61210347D01*
X164810041Y-61212007D01*
X164827386Y-61213878D01*
X164839599Y-61215972D01*
X164847775Y-61218300D01*
X164853008Y-61220876D01*
X164859004Y-61224445D01*
X164865779Y-61227978D01*
X164871978Y-61231488D01*
X164877626Y-61235918D01*
X164882747Y-61242208D01*
X164887369Y-61251301D01*
X164891515Y-61264139D01*
X164895213Y-61281662D01*
X164898487Y-61304813D01*
X164901363Y-61334534D01*
X164903867Y-61371765D01*
X164906024Y-61417449D01*
X164907860Y-61472527D01*
X164909400Y-61537941D01*
X164910670Y-61614633D01*
X164911695Y-61703544D01*
X164912501Y-61805617D01*
X164912534Y-61811867D01*
X164913114Y-61921792D01*
G36*
X164913114Y-61921792D02*
G01*
X164913559Y-62053011D01*
X164913862Y-62200216D01*
X164914048Y-62364349D01*
X164914142Y-62546352D01*
X164914171Y-62747165D01*
X164914161Y-62967732D01*
X164914136Y-63208992D01*
X164914122Y-63471889D01*
X164914122Y-63514040D01*
X164914146Y-63774668D01*
X164914185Y-64013796D01*
X164914208Y-64232360D01*
X164914187Y-64431295D01*
X164914093Y-64611535D01*
X164913895Y-64774015D01*
X164913563Y-64919670D01*
X164913069Y-65049434D01*
X164912383Y-65164243D01*
X164911476Y-65265030D01*
X164910317Y-65352730D01*
X164908878Y-65428279D01*
X164907129Y-65492611D01*
X164905040Y-65546661D01*
X164902583Y-65591363D01*
X164899727Y-65627652D01*
X164896443Y-65656463D01*
X164892702Y-65678731D01*
X164888474Y-65695390D01*
X164883729Y-65707375D01*
X164878439Y-65715621D01*
X164872573Y-65721062D01*
X164866102Y-65724634D01*
X164858997Y-65727270D01*
X164851228Y-65729906D01*
X164842766Y-65733477D01*
X164838408Y-65735145D01*
X164829895Y-65737111D01*
X164817194Y-65738911D01*
X164799385Y-65740555D01*
X164775549Y-65742047D01*
X164744766Y-65743397D01*
X164706117Y-65744611D01*
X164658682Y-65745697D01*
X164601543Y-65746661D01*
X164533779Y-65747511D01*
X164454471Y-65748253D01*
X164362699Y-65748897D01*
X164257544Y-65749447D01*
X164138087Y-65749913D01*
X164003408Y-65750300D01*
X163852588Y-65750616D01*
X163684706Y-65750869D01*
X163498845Y-65751066D01*
X163294083Y-65751213D01*
X163069502Y-65751318D01*
X162824182Y-65751389D01*
X162557204Y-65751432D01*
X162518821Y-65751437D01*
X162253422Y-65751480D01*
X162009550Y-65751525D01*
X161786283Y-65751548D01*
X161582696Y-65751524D01*
X161397867Y-65751430D01*
X161230873Y-65751243D01*
X161080790Y-65750939D01*
X160946696Y-65750494D01*
X160827666Y-65749885D01*
X160722779Y-65749089D01*
X160631110Y-65748080D01*
X160551737Y-65746837D01*
X160483737Y-65745335D01*
X160426186Y-65743551D01*
X160378162Y-65741461D01*
X160338740Y-65739042D01*
X160306999Y-65736270D01*
X160282014Y-65733121D01*
X160262864Y-65729572D01*
X160248623Y-65725598D01*
X160238371Y-65721178D01*
X160231182Y-65716286D01*
X160226135Y-65710900D01*
X160222305Y-65704996D01*
X160218771Y-65698549D01*
X160214608Y-65691537D01*
X160213525Y-65689687D01*
X160211313Y-65684180D01*
X160209286Y-65675868D01*
X160207438Y-65663809D01*
X160205761Y-65647063D01*
X160204245Y-65624687D01*
X160202883Y-65595740D01*
X160201667Y-65559280D01*
X160200589Y-65514367D01*
X160199640Y-65460057D01*
X160198812Y-65395410D01*
X160198097Y-65319484D01*
X160197487Y-65231338D01*
X160197442Y-65222493D01*
X160488878Y-65222493D01*
X160492760Y-65223765D01*
X160516020Y-65225791D01*
X160558374Y-65227626D01*
X160617632Y-65229227D01*
X160691607Y-65230549D01*
X160778110Y-65231548D01*
X160874952Y-65232180D01*
X160979945Y-65232400D01*
X161678151Y-65232400D01*
X162832590Y-65232400D01*
X162831956Y-65156200D01*
X162833074Y-65114160D01*
X162838804Y-65078334D01*
X162851390Y-65040772D01*
X162873068Y-64992577D01*
X162876289Y-64985897D01*
X162901688Y-64936359D01*
X162928496Y-64888369D01*
X162951417Y-64851466D01*
X162955985Y-64844834D01*
X162978016Y-64813593D01*
X163010193Y-64768654D01*
X163050957Y-64712147D01*
X163098745Y-64646204D01*
X163151998Y-64572957D01*
X163209155Y-64494536D01*
X163268655Y-64413072D01*
X163328937Y-64330698D01*
X163388440Y-64249544D01*
X163445605Y-64171742D01*
X163498870Y-64099423D01*
X163546674Y-64034718D01*
X163587457Y-63979759D01*
X163619658Y-63936676D01*
X163641716Y-63907602D01*
X163652071Y-63894667D01*
X163656544Y-63890351D01*
X163660736Y-63888312D01*
X163664143Y-63890926D01*
X163666825Y-63899986D01*
X163668841Y-63917285D01*
X163670248Y-63944614D01*
X163671105Y-63983765D01*
X163671470Y-64036533D01*
X163671403Y-64104707D01*
X163670960Y-64190082D01*
X163670202Y-64294449D01*
X163669185Y-64419600D01*
X163668808Y-64464300D01*
X163667669Y-64585395D01*
X163666472Y-64686688D01*
X163665136Y-64770262D01*
X163663577Y-64838204D01*
X163661715Y-64892599D01*
X163659466Y-64935532D01*
X163656748Y-64969089D01*
X163653479Y-64995355D01*
X163649578Y-65016416D01*
X163644961Y-65034357D01*
X163636692Y-65060770D01*
X163613083Y-65122772D01*
X163587185Y-65175573D01*
X163562035Y-65212645D01*
X163560839Y-65214075D01*
X163558668Y-65218424D01*
X163560828Y-65222026D01*
X163569144Y-65224951D01*
X163585440Y-65227269D01*
X163611541Y-65229051D01*
X163649271Y-65230367D01*
X163700456Y-65231286D01*
X163766920Y-65231878D01*
X163850487Y-65232215D01*
X163952983Y-65232365D01*
X164076232Y-65232400D01*
X164607796Y-65232400D01*
X164569023Y-65174783D01*
X164562932Y-65165893D01*
X164552476Y-65151069D01*
X164543079Y-65137422D01*
X164534683Y-65123765D01*
X164527233Y-65108911D01*
X164520673Y-65091670D01*
X164514946Y-65070855D01*
X164509995Y-65045280D01*
X164505766Y-65013755D01*
X164502201Y-64975093D01*
X164499244Y-64928107D01*
X164496840Y-64871608D01*
X164494931Y-64804409D01*
X164493462Y-64725322D01*
X164492376Y-64633160D01*
X164491618Y-64526734D01*
X164491130Y-64404857D01*
X164490858Y-64266341D01*
X164490743Y-64109999D01*
X164490731Y-63934642D01*
X164490765Y-63739082D01*
X164490789Y-63522133D01*
X164490780Y-63399513D01*
X164490743Y-63194447D01*
X164490727Y-63010116D01*
X164490788Y-62845334D01*
X164490984Y-62698916D01*
X164491370Y-62569674D01*
X164492005Y-62456422D01*
X164492944Y-62357975D01*
X164494245Y-62273144D01*
X164495964Y-62200744D01*
X164498159Y-62139589D01*
X164500885Y-62088492D01*
X164504201Y-62046267D01*
X164508162Y-62011727D01*
X164512825Y-61983686D01*
X164518247Y-61960958D01*
X164524486Y-61942356D01*
X164531597Y-61926693D01*
X164539638Y-61912784D01*
X164548666Y-61899441D01*
X164558736Y-61885479D01*
X164569907Y-61869711D01*
X164609697Y-61811867D01*
X163549814Y-61811867D01*
X163587811Y-61874966D01*
X163602493Y-61900005D01*
X163617031Y-61927586D01*
X163629127Y-61955700D01*
X163639032Y-61986551D01*
X163646994Y-62022344D01*
X163653261Y-62065283D01*
X163658082Y-62117574D01*
X163661706Y-62181419D01*
X163664381Y-62259025D01*
X163666357Y-62352594D01*
X163667882Y-62464333D01*
X163669204Y-62596445D01*
X163670113Y-62716434D01*
X163670520Y-62833063D01*
X163670267Y-62928531D01*
X163669357Y-63002556D01*
X163667793Y-63054855D01*
X163665579Y-63085149D01*
X163662720Y-63093156D01*
X163659661Y-63089858D01*
X163641506Y-63068408D01*
X163611775Y-63031889D01*
X163572139Y-62982442D01*
X163524271Y-62922207D01*
X163469843Y-62853327D01*
X163410527Y-62777943D01*
X163347995Y-62698196D01*
X163283921Y-62616228D01*
X163219975Y-62534180D01*
X163157831Y-62454194D01*
X163099161Y-62378411D01*
X163045637Y-62308973D01*
X162998930Y-62248021D01*
X162960714Y-62197696D01*
X162932661Y-62160140D01*
X162916443Y-62137495D01*
X162871135Y-62065212D01*
X162831161Y-61985463D01*
X162809630Y-61917188D01*
X162806327Y-61859844D01*
X162811616Y-61811867D01*
X161679856Y-61812117D01*
X161719367Y-61842722D01*
X161728748Y-61850089D01*
X161791683Y-61904438D01*
X161860497Y-61972259D01*
X161937096Y-62055516D01*
X162023388Y-62156178D01*
X162040552Y-62176847D01*
X162081333Y-62226409D01*
X162131088Y-62287326D01*
X162188455Y-62357898D01*
X162252069Y-62436424D01*
X162320569Y-62521204D01*
X162392590Y-62610537D01*
X162466770Y-62702722D01*
X162482017Y-62721702D01*
X162541746Y-62796060D01*
X162616153Y-62888848D01*
X162688631Y-62979388D01*
X162757814Y-63065978D01*
X162822341Y-63146918D01*
X162880847Y-63220506D01*
X162931970Y-63285044D01*
X162974347Y-63338829D01*
X163006615Y-63380162D01*
X163027410Y-63407342D01*
X163035369Y-63418668D01*
X163033611Y-63422771D01*
X163020730Y-63443334D01*
X162996385Y-63479561D01*
X162961747Y-63529824D01*
X162917986Y-63592492D01*
X162866275Y-63665936D01*
X162807784Y-63748527D01*
X162743684Y-63838636D01*
X162675146Y-63934631D01*
X162603343Y-64034885D01*
X162529444Y-64137768D01*
X162454621Y-64241650D01*
X162380045Y-64344901D01*
X162306887Y-64445892D01*
X162236319Y-64542994D01*
X162169511Y-64634577D01*
X162107635Y-64719011D01*
X162051861Y-64794667D01*
X162003362Y-64859916D01*
X161963307Y-64913128D01*
X161932869Y-64952673D01*
X161912444Y-64978026D01*
X161866399Y-65032295D01*
X161816112Y-65088775D01*
X161769315Y-65138669D01*
X161678151Y-65232400D01*
X160979945Y-65232400D01*
X161048856Y-65232349D01*
X161147107Y-65232091D01*
X161236530Y-65231637D01*
X161314833Y-65231010D01*
X161379723Y-65230235D01*
X161428911Y-65229335D01*
X161460104Y-65228334D01*
X161471011Y-65227257D01*
X161469822Y-65224037D01*
X161459676Y-65206452D01*
X161442540Y-65180158D01*
X161434040Y-65167691D01*
X161424829Y-65153622D01*
X161416733Y-65139351D01*
X161409685Y-65123479D01*
X161403617Y-65104609D01*
X161398461Y-65081341D01*
X161394151Y-65052278D01*
X161390619Y-65016021D01*
X161387797Y-64971170D01*
X161385618Y-64916328D01*
X161384014Y-64850097D01*
X161382919Y-64771077D01*
X161382265Y-64677871D01*
X161381984Y-64569079D01*
X161382009Y-64443303D01*
X161382272Y-64299145D01*
X161382706Y-64135207D01*
X161383245Y-63950089D01*
X161383779Y-63771232D01*
X161384305Y-63612374D01*
X161384850Y-63473316D01*
X161385445Y-63352665D01*
X161386119Y-63249028D01*
X161386903Y-63161011D01*
X161387826Y-63087223D01*
X161388919Y-63026269D01*
X161390212Y-62976757D01*
X161391735Y-62937293D01*
X161393519Y-62906484D01*
X161395592Y-62882938D01*
X161397986Y-62865260D01*
X161400730Y-62852059D01*
X161403856Y-62841940D01*
X161407392Y-62833511D01*
X161411291Y-62825375D01*
X161430938Y-62788544D01*
X161449725Y-62758391D01*
X161450772Y-62756908D01*
X161465102Y-62734659D01*
X161471011Y-62721702D01*
X161470004Y-62721249D01*
X161452805Y-62719803D01*
X161416156Y-62718480D01*
X161362462Y-62717316D01*
X161294130Y-62716347D01*
X161213564Y-62715611D01*
X161123170Y-62715142D01*
X161025353Y-62714978D01*
X160579695Y-62714978D01*
X160576620Y-63891845D01*
X160573545Y-65068711D01*
X160546907Y-65127622D01*
X160534985Y-65152183D01*
X160517746Y-65182434D01*
X160504574Y-65199560D01*
X160496576Y-65207591D01*
X160488878Y-65222493D01*
X160197442Y-65222493D01*
X160196974Y-65130029D01*
X160196550Y-65014617D01*
X160196206Y-64884160D01*
X160195934Y-64737716D01*
X160195727Y-64574344D01*
X160195576Y-64393101D01*
X160195472Y-64193048D01*
X160195408Y-63973241D01*
X160195376Y-63732739D01*
X160195367Y-63470602D01*
X160195367Y-61279031D01*
X160233749Y-61240649D01*
X160260855Y-61216911D01*
X160287753Y-61205111D01*
X160324060Y-61202267D01*
X160375989Y-61202267D01*
X160375989Y-61290206D01*
X160377927Y-61340102D01*
X160396699Y-61450523D01*
X160433717Y-61551987D01*
X160486869Y-61643152D01*
X160554046Y-61722673D01*
X160633138Y-61789205D01*
X160722034Y-61841406D01*
X160818625Y-61877930D01*
X160920800Y-61897434D01*
X161026450Y-61898573D01*
X161133464Y-61880005D01*
X161239732Y-61840384D01*
X161336719Y-61782516D01*
X161421793Y-61707684D01*
X161490515Y-61619615D01*
X161541418Y-61520616D01*
X161573035Y-61412993D01*
X161583900Y-61299054D01*
X161583900Y-61202267D01*
X163204253Y-61202267D01*
X163415397Y-61202280D01*
X163619520Y-61202330D01*
X163803186Y-61202430D01*
X163967491Y-61202592D01*
X164113529Y-61202829D01*
X164242394Y-61203153D01*
X164355183Y-61203575D01*
X164452988Y-61204109D01*
X164536904Y-61204767D01*
X164608027Y-61205561D01*
X164667450Y-61206504D01*
X164716268Y-61207608D01*
X164755577Y-61208884D01*
X164786469Y-61210347D01*
X164810041Y-61212007D01*
X164827386Y-61213878D01*
X164839599Y-61215972D01*
X164847775Y-61218300D01*
X164853008Y-61220876D01*
X164859004Y-61224445D01*
X164865779Y-61227978D01*
X164871978Y-61231488D01*
X164877626Y-61235918D01*
X164882747Y-61242208D01*
X164887369Y-61251301D01*
X164891515Y-61264139D01*
X164895213Y-61281662D01*
X164898487Y-61304813D01*
X164901363Y-61334534D01*
X164903867Y-61371765D01*
X164906024Y-61417449D01*
X164907860Y-61472527D01*
X164909400Y-61537941D01*
X164910670Y-61614633D01*
X164911695Y-61703544D01*
X164912501Y-61805617D01*
X164912534Y-61811867D01*
X164913114Y-61921792D01*
G37*
%TD*%
M02*
