%TF.GenerationSoftware,KiCad,Pcbnew,8.0.7*%
%TF.CreationDate,2025-02-10T19:55:19+01:00*%
%TF.ProjectId,0004-MCU-Datalogger,30303034-2d4d-4435-952d-446174616c6f,1*%
%TF.SameCoordinates,Original*%
%TF.FileFunction,Copper,L1,Top*%
%TF.FilePolarity,Positive*%
%FSLAX46Y46*%
G04 Gerber Fmt 4.6, Leading zero omitted, Abs format (unit mm)*
G04 Created by KiCad (PCBNEW 8.0.7) date 2025-02-10 19:55:19*
%MOMM*%
%LPD*%
G01*
G04 APERTURE LIST*
G04 Aperture macros list*
%AMRoundRect*
0 Rectangle with rounded corners*
0 $1 Rounding radius*
0 $2 $3 $4 $5 $6 $7 $8 $9 X,Y pos of 4 corners*
0 Add a 4 corners polygon primitive as box body*
4,1,4,$2,$3,$4,$5,$6,$7,$8,$9,$2,$3,0*
0 Add four circle primitives for the rounded corners*
1,1,$1+$1,$2,$3*
1,1,$1+$1,$4,$5*
1,1,$1+$1,$6,$7*
1,1,$1+$1,$8,$9*
0 Add four rect primitives between the rounded corners*
20,1,$1+$1,$2,$3,$4,$5,0*
20,1,$1+$1,$4,$5,$6,$7,0*
20,1,$1+$1,$6,$7,$8,$9,0*
20,1,$1+$1,$8,$9,$2,$3,0*%
G04 Aperture macros list end*
%TA.AperFunction,SMDPad,CuDef*%
%ADD10RoundRect,0.250000X0.262500X0.450000X-0.262500X0.450000X-0.262500X-0.450000X0.262500X-0.450000X0*%
%TD*%
%TA.AperFunction,SMDPad,CuDef*%
%ADD11RoundRect,0.073750X-0.911250X-0.221250X0.911250X-0.221250X0.911250X0.221250X-0.911250X0.221250X0*%
%TD*%
%TA.AperFunction,SMDPad,CuDef*%
%ADD12RoundRect,0.250000X-0.262500X-0.450000X0.262500X-0.450000X0.262500X0.450000X-0.262500X0.450000X0*%
%TD*%
%TA.AperFunction,SMDPad,CuDef*%
%ADD13RoundRect,0.150000X-0.650000X-0.150000X0.650000X-0.150000X0.650000X0.150000X-0.650000X0.150000X0*%
%TD*%
%TA.AperFunction,ComponentPad*%
%ADD14R,1.700000X1.700000*%
%TD*%
%TA.AperFunction,ComponentPad*%
%ADD15O,1.700000X1.700000*%
%TD*%
%TA.AperFunction,SMDPad,CuDef*%
%ADD16R,3.500000X2.400000*%
%TD*%
%TA.AperFunction,SMDPad,CuDef*%
%ADD17R,2.400000X3.500000*%
%TD*%
%TA.AperFunction,SMDPad,CuDef*%
%ADD18RoundRect,0.243750X-0.243750X-0.456250X0.243750X-0.456250X0.243750X0.456250X-0.243750X0.456250X0*%
%TD*%
%TA.AperFunction,SMDPad,CuDef*%
%ADD19RoundRect,0.068750X-0.666250X-0.206250X0.666250X-0.206250X0.666250X0.206250X-0.666250X0.206250X0*%
%TD*%
%TA.AperFunction,SMDPad,CuDef*%
%ADD20RoundRect,0.068750X-0.206250X-0.666250X0.206250X-0.666250X0.206250X0.666250X-0.206250X0.666250X0*%
%TD*%
%TA.AperFunction,SMDPad,CuDef*%
%ADD21RoundRect,0.250000X-0.250000X-0.475000X0.250000X-0.475000X0.250000X0.475000X-0.250000X0.475000X0*%
%TD*%
%TA.AperFunction,SMDPad,CuDef*%
%ADD22RoundRect,0.243750X0.243750X0.456250X-0.243750X0.456250X-0.243750X-0.456250X0.243750X-0.456250X0*%
%TD*%
%TA.AperFunction,SMDPad,CuDef*%
%ADD23RoundRect,0.250000X0.250000X0.475000X-0.250000X0.475000X-0.250000X-0.475000X0.250000X-0.475000X0*%
%TD*%
%TA.AperFunction,ViaPad*%
%ADD24C,0.800000*%
%TD*%
%TA.AperFunction,ViaPad*%
%ADD25C,0.900000*%
%TD*%
%TA.AperFunction,Conductor*%
%ADD26C,0.250000*%
%TD*%
%TA.AperFunction,Conductor*%
%ADD27C,0.350000*%
%TD*%
G04 APERTURE END LIST*
D10*
%TO.P,R7,1*%
%TO.N,GND*%
X161210000Y-61595000D03*
%TO.P,R7,2*%
%TO.N,Net-(D2-K)*%
X159385000Y-61595000D03*
%TD*%
D11*
%TO.P,U3,1,X1*%
%TO.N,Net-(U3-X1)*%
X129540000Y-75565000D03*
%TO.P,U3,2,X2*%
%TO.N,Net-(U3-X2)*%
X129540000Y-76835000D03*
%TO.P,U3,3,~{INTA}*%
%TO.N,Net-(U3-~{INTA})*%
X129540000Y-78105000D03*
%TO.P,U3,4,GND*%
%TO.N,GND*%
X129540000Y-79375000D03*
%TO.P,U3,5,SDA*%
%TO.N,/SDA*%
X134490000Y-79375000D03*
%TO.P,U3,6,SCL*%
%TO.N,/SCL*%
X134490000Y-78105000D03*
%TO.P,U3,7,SQW/~INT*%
%TO.N,Net-(U3-SQW{slash}~INT)*%
X134490000Y-76835000D03*
%TO.P,U3,8,VCC*%
%TO.N,/Vcc*%
X134490000Y-75565000D03*
%TD*%
D12*
%TO.P,R2,1*%
%TO.N,/Vcc*%
X141660000Y-61595000D03*
%TO.P,R2,2*%
%TO.N,/RESET*%
X143485000Y-61595000D03*
%TD*%
D13*
%TO.P,U1,1,A0*%
%TO.N,/Vcc*%
X128480000Y-60960000D03*
%TO.P,U1,2,A1*%
X128480000Y-62230000D03*
%TO.P,U1,3,A2*%
X128480000Y-63500000D03*
%TO.P,U1,4,GND*%
%TO.N,GND*%
X128480000Y-64770000D03*
%TO.P,U1,5,SDA*%
%TO.N,/SDA*%
X135680000Y-64770000D03*
%TO.P,U1,6,SCL*%
%TO.N,/SCL*%
X135680000Y-63500000D03*
%TO.P,U1,7,WP*%
%TO.N,GND*%
X135680000Y-62230000D03*
%TO.P,U1,8,VCC*%
%TO.N,/Vcc*%
X135680000Y-60960000D03*
%TD*%
D14*
%TO.P,BT1,1,+*%
%TO.N,/Vcc*%
X124460000Y-67945000D03*
D15*
%TO.P,BT1,2,-*%
%TO.N,GND*%
X124460000Y-70485000D03*
%TD*%
D10*
%TO.P,R3,1*%
%TO.N,/Vcc*%
X153312500Y-73025000D03*
%TO.P,R3,2*%
%TO.N,/SCL*%
X151487500Y-73025000D03*
%TD*%
D14*
%TO.P,J3,1,Pin_1*%
%TO.N,/D2*%
X127645000Y-85725000D03*
D15*
%TO.P,J3,2,Pin_2*%
%TO.N,/D3*%
X130185000Y-85725000D03*
%TO.P,J3,3,Pin_3*%
%TO.N,/D4*%
X132725000Y-85725000D03*
%TO.P,J3,4,Pin_4*%
%TO.N,/D5*%
X135265000Y-85725000D03*
%TO.P,J3,5,Pin_5*%
%TO.N,/D6*%
X137805000Y-85725000D03*
%TO.P,J3,6,Pin_6*%
%TO.N,/D7*%
X140345000Y-85725000D03*
%TO.P,J3,7,Pin_7*%
%TO.N,/D8*%
X142885000Y-85725000D03*
%TO.P,J3,8,Pin_8*%
%TO.N,GND*%
X145425000Y-85725000D03*
%TO.P,J3,9,Pin_9*%
%TO.N,/Vcc*%
X147965000Y-85725000D03*
%TD*%
D16*
%TO.P,Y1,1,1*%
%TO.N,Net-(U4-PB7)*%
X141545000Y-78105000D03*
%TO.P,Y1,2,2*%
%TO.N,Net-(U4-PB6)*%
X146745000Y-78105000D03*
%TD*%
D17*
%TO.P,Y2,1,1*%
%TO.N,Net-(U3-X2)*%
X124460000Y-80705000D03*
%TO.P,Y2,2,2*%
%TO.N,Net-(U3-X1)*%
X124460000Y-75505000D03*
%TD*%
D18*
%TO.P,D2,1,K*%
%TO.N,Net-(D2-K)*%
X159385000Y-64770000D03*
%TO.P,D2,2,A*%
%TO.N,/SCK*%
X161260000Y-64770000D03*
%TD*%
D13*
%TO.P,U2,1,A0*%
%TO.N,/Vcc*%
X128480000Y-67730000D03*
%TO.P,U2,2,A1*%
%TO.N,GND*%
X128480000Y-69000000D03*
%TO.P,U2,3,A2*%
%TO.N,/Vcc*%
X128480000Y-70270000D03*
%TO.P,U2,4,GND*%
%TO.N,GND*%
X128480000Y-71540000D03*
%TO.P,U2,5,SDA*%
%TO.N,/SDA*%
X135680000Y-71540000D03*
%TO.P,U2,6,SCL*%
%TO.N,/SCL*%
X135680000Y-70270000D03*
%TO.P,U2,7,WP*%
%TO.N,GND*%
X135680000Y-69000000D03*
%TO.P,U2,8,VCC*%
%TO.N,/Vcc*%
X135680000Y-67730000D03*
%TD*%
D10*
%TO.P,R4,1*%
%TO.N,/Vcc*%
X147295000Y-61595000D03*
%TO.P,R4,2*%
%TO.N,/SDA*%
X145470000Y-61595000D03*
%TD*%
D14*
%TO.P,J4,1,Pin_1*%
%TO.N,/MISO*%
X160655000Y-76185000D03*
D15*
%TO.P,J4,2,Pin_2*%
%TO.N,/Vcc*%
X158115000Y-76185000D03*
%TO.P,J4,3,Pin_3*%
%TO.N,/SCK*%
X160655000Y-73645000D03*
%TO.P,J4,4,Pin_4*%
%TO.N,/MOSI*%
X158115000Y-73645000D03*
%TO.P,J4,5,Pin_5*%
%TO.N,/RESET*%
X160655000Y-71105000D03*
%TO.P,J4,6,Pin_6*%
%TO.N,GND*%
X158115000Y-71105000D03*
%TD*%
D14*
%TO.P,J1,1,Pin_1*%
%TO.N,GND*%
X165735000Y-69850000D03*
D15*
%TO.P,J1,2,Pin_2*%
%TO.N,/Vcc*%
X165735000Y-72390000D03*
%TO.P,J1,3,Pin_3*%
%TO.N,/SDA*%
X165735000Y-74930000D03*
%TO.P,J1,4,Pin_4*%
%TO.N,/SCL*%
X165735000Y-77470000D03*
%TD*%
D10*
%TO.P,R6,1*%
%TO.N,/Vcc*%
X131087500Y-81915000D03*
%TO.P,R6,2*%
%TO.N,Net-(U3-~{INTA})*%
X129262500Y-81915000D03*
%TD*%
D14*
%TO.P,J2,1,Pin_1*%
%TO.N,GND*%
X153670000Y-85725000D03*
D15*
%TO.P,J2,2,Pin_2*%
%TO.N,/Vcc*%
X156210000Y-85725000D03*
%TO.P,J2,3,Pin_3*%
%TO.N,/RX*%
X158750000Y-85725000D03*
%TO.P,J2,4,Pin_4*%
%TO.N,/TX*%
X161290000Y-85725000D03*
%TD*%
D12*
%TO.P,R5,1*%
%TO.N,/Vcc*%
X133350000Y-81915000D03*
%TO.P,R5,2*%
%TO.N,Net-(U3-SQW{slash}~INT)*%
X135175000Y-81915000D03*
%TD*%
D19*
%TO.P,U4,1,PD3*%
%TO.N,/D3*%
X139975000Y-67050000D03*
%TO.P,U4,2,PD4*%
%TO.N,/D4*%
X139975000Y-67850000D03*
%TO.P,U4,3,GND*%
%TO.N,GND*%
X139975000Y-68650000D03*
%TO.P,U4,4,VCC*%
%TO.N,/Vcc*%
X139975000Y-69450000D03*
%TO.P,U4,5,GND*%
%TO.N,GND*%
X139975000Y-70250000D03*
%TO.P,U4,6,VCC*%
%TO.N,unconnected-(U4-VCC-Pad6)*%
X139975000Y-71050000D03*
%TO.P,U4,7,PB6*%
%TO.N,Net-(U4-PB6)*%
X139975000Y-71850000D03*
%TO.P,U4,8,PB7*%
%TO.N,Net-(U4-PB7)*%
X139975000Y-72650000D03*
D20*
%TO.P,U4,9,PD5*%
%TO.N,/D5*%
X141345000Y-74020000D03*
%TO.P,U4,10,PD6*%
%TO.N,/D6*%
X142145000Y-74020000D03*
%TO.P,U4,11,PD7*%
%TO.N,/D7*%
X142945000Y-74020000D03*
%TO.P,U4,12,PB0*%
%TO.N,/D8*%
X143745000Y-74020000D03*
%TO.P,U4,13,PB1*%
%TO.N,unconnected-(U4-PB1-Pad13)*%
X144545000Y-74020000D03*
%TO.P,U4,14,PB2*%
%TO.N,unconnected-(U4-PB2-Pad14)*%
X145345000Y-74020000D03*
%TO.P,U4,15,PB3*%
%TO.N,/MOSI*%
X146145000Y-74020000D03*
%TO.P,U4,16,PB4*%
%TO.N,/MISO*%
X146945000Y-74020000D03*
D19*
%TO.P,U4,17,PB5*%
%TO.N,/SCK*%
X148315000Y-72650000D03*
%TO.P,U4,18,AVCC*%
%TO.N,/Vcc*%
X148315000Y-71850000D03*
%TO.P,U4,19,ADC6*%
%TO.N,unconnected-(U4-ADC6-Pad19)*%
X148315000Y-71050000D03*
%TO.P,U4,20,AREF*%
%TO.N,Net-(U4-AREF)*%
X148315000Y-70250000D03*
%TO.P,U4,21,GND*%
%TO.N,GND*%
X148315000Y-69450000D03*
%TO.P,U4,22,ADC7*%
%TO.N,unconnected-(U4-ADC7-Pad22)*%
X148315000Y-68650000D03*
%TO.P,U4,23,PC0*%
%TO.N,unconnected-(U4-PC0-Pad23)*%
X148315000Y-67850000D03*
%TO.P,U4,24,PC1*%
%TO.N,unconnected-(U4-PC1-Pad24)*%
X148315000Y-67050000D03*
D20*
%TO.P,U4,25,PC2*%
%TO.N,unconnected-(U4-PC2-Pad25)*%
X146945000Y-65680000D03*
%TO.P,U4,26,PC3*%
%TO.N,unconnected-(U4-PC3-Pad26)*%
X146145000Y-65680000D03*
%TO.P,U4,27,PC4*%
%TO.N,/SDA*%
X145345000Y-65680000D03*
%TO.P,U4,28,PC5*%
%TO.N,/SCL*%
X144545000Y-65680000D03*
%TO.P,U4,29,PC6/~{RESET}*%
%TO.N,/RESET*%
X143745000Y-65680000D03*
%TO.P,U4,30,PD0*%
%TO.N,/RX*%
X142945000Y-65680000D03*
%TO.P,U4,31,PD1*%
%TO.N,/TX*%
X142145000Y-65680000D03*
%TO.P,U4,32,PD2*%
%TO.N,/D2*%
X141345000Y-65680000D03*
%TD*%
D21*
%TO.P,C2,1*%
%TO.N,GND*%
X145735000Y-81915000D03*
%TO.P,C2,2*%
%TO.N,Net-(U4-PB6)*%
X147635000Y-81915000D03*
%TD*%
D22*
%TO.P,D1,1,K*%
%TO.N,Net-(D1-K)*%
X157147500Y-64770000D03*
%TO.P,D1,2,A*%
%TO.N,/Vcc*%
X155272500Y-64770000D03*
%TD*%
D10*
%TO.P,R1,1*%
%TO.N,Net-(D1-K)*%
X157122500Y-61595000D03*
%TO.P,R1,2*%
%TO.N,GND*%
X155297500Y-61595000D03*
%TD*%
D23*
%TO.P,C4,1*%
%TO.N,/Vcc*%
X139712500Y-61595000D03*
%TO.P,C4,2*%
%TO.N,GND*%
X137812500Y-61595000D03*
%TD*%
%TO.P,C5,1*%
%TO.N,/Vcc*%
X151445000Y-61595000D03*
%TO.P,C5,2*%
%TO.N,GND*%
X149545000Y-61595000D03*
%TD*%
%TO.P,C3,1*%
%TO.N,GND*%
X153350000Y-69850000D03*
%TO.P,C3,2*%
%TO.N,Net-(U4-AREF)*%
X151450000Y-69850000D03*
%TD*%
%TO.P,C1,1*%
%TO.N,GND*%
X142555000Y-81915000D03*
%TO.P,C1,2*%
%TO.N,Net-(U4-PB7)*%
X140655000Y-81915000D03*
%TD*%
D24*
%TO.N,/SCL*%
X146558000Y-70612000D03*
X150012400Y-72898000D03*
X151791300Y-75475001D03*
X153365200Y-77687000D03*
X158394400Y-79146400D03*
X162915600Y-79146400D03*
D25*
%TO.N,GND*%
X133400800Y-68605000D03*
X151638000Y-64516000D03*
X131826000Y-66192400D03*
X143694740Y-69383575D03*
X153365200Y-68079547D03*
X144068800Y-81229200D03*
X131084068Y-80515000D03*
X141408199Y-67313199D03*
X146621000Y-69240400D03*
D24*
%TO.N,Net-(U4-PB7)*%
X142290800Y-72685000D03*
X143020001Y-75683304D03*
%TO.N,Net-(U4-PB6)*%
X143510000Y-71882000D03*
X144729200Y-75700000D03*
%TO.N,/Vcc*%
X141579600Y-69425000D03*
X151333200Y-66446400D03*
D25*
X131216400Y-70665000D03*
X148386800Y-63437000D03*
X155194000Y-74168000D03*
X132537200Y-73609200D03*
D24*
X150063200Y-70975000D03*
%TO.N,/SCL*%
X139090400Y-63246000D03*
X144526000Y-63246000D03*
%TO.N,/SDA*%
X138074400Y-64109600D03*
X145542000Y-64025000D03*
%TO.N,/RX*%
X145029347Y-71886653D03*
%TO.N,/TX*%
X144526000Y-70104000D03*
%TO.N,/MISO*%
X150368000Y-76962000D03*
X148285200Y-75475000D03*
%TO.N,/RESET*%
X143967200Y-67208400D03*
X149906147Y-67254547D03*
%TD*%
D26*
%TO.N,/SCL*%
X144545000Y-66415000D02*
X144545000Y-65680000D01*
X145796000Y-67666000D02*
X144545000Y-66415000D01*
X146558000Y-70612000D02*
X145796000Y-69850000D01*
X145796000Y-69850000D02*
X145796000Y-67666000D01*
X150139400Y-73025000D02*
X150012400Y-72898000D01*
X151487500Y-73025000D02*
X150139400Y-73025000D01*
X151487500Y-75171201D02*
X151487500Y-73025000D01*
X154824600Y-79146400D02*
X153365200Y-77687000D01*
X158394400Y-79146400D02*
X154824600Y-79146400D01*
X151791300Y-75475001D02*
X151487500Y-75171201D01*
X165735000Y-77470000D02*
X164058600Y-79146400D01*
X164058600Y-79146400D02*
X162915600Y-79146400D01*
D27*
%TO.N,/Vcc*%
X159512000Y-82423000D02*
X156210000Y-85725000D01*
X159512000Y-77582000D02*
X159512000Y-82423000D01*
X158115000Y-76185000D02*
X159512000Y-77582000D01*
D26*
%TO.N,/SCK*%
X157306000Y-72470000D02*
X156786000Y-71950000D01*
X156786000Y-71950000D02*
X149795306Y-71950000D01*
X149795306Y-71950000D02*
X149095306Y-72650000D01*
X159480000Y-72470000D02*
X157306000Y-72470000D01*
X160655000Y-73645000D02*
X159480000Y-72470000D01*
X149095306Y-72650000D02*
X148315000Y-72650000D01*
D27*
%TO.N,GND*%
X146700000Y-87000000D02*
X145425000Y-85725000D01*
X131375000Y-74435000D02*
X128480000Y-71540000D01*
X153350000Y-69850000D02*
X152200000Y-68700000D01*
X146621000Y-69240400D02*
X146830600Y-69450000D01*
X132792672Y-71540000D02*
X135332672Y-69000000D01*
X131826000Y-64770000D02*
X131826000Y-66192400D01*
X150695000Y-60445000D02*
X154147500Y-60445000D01*
X142828315Y-70250000D02*
X139975000Y-70250000D01*
X144068800Y-81229200D02*
X144068800Y-81991200D01*
X154605000Y-71105000D02*
X153350000Y-69850000D01*
X124460000Y-70485000D02*
X125515000Y-71540000D01*
X143478575Y-69383575D02*
X141408199Y-67313199D01*
X149498000Y-69450000D02*
X148315000Y-69450000D01*
X153365200Y-68079547D02*
X153365200Y-69834800D01*
X141408199Y-67989473D02*
X140747672Y-68650000D01*
X131375000Y-78525000D02*
X131375000Y-74435000D01*
X129944068Y-79375000D02*
X131084068Y-80515000D01*
X135332672Y-69000000D02*
X135680000Y-69000000D01*
X128480000Y-64770000D02*
X131826000Y-64770000D01*
X146830600Y-69450000D02*
X148315000Y-69450000D01*
X156422500Y-60470000D02*
X155297500Y-61595000D01*
X152200000Y-68700000D02*
X150248000Y-68700000D01*
X133400800Y-68605000D02*
X135285000Y-68605000D01*
X128480000Y-71540000D02*
X132792672Y-71540000D01*
X153670000Y-85725000D02*
X152395000Y-87000000D01*
X135285000Y-68605000D02*
X135680000Y-69000000D01*
X125515000Y-71540000D02*
X128480000Y-71540000D01*
X142682000Y-82042000D02*
X142555000Y-81915000D01*
X153365200Y-69834800D02*
X153350000Y-69850000D01*
X140747672Y-68650000D02*
X139975000Y-68650000D01*
X149545000Y-61595000D02*
X150695000Y-60445000D01*
X128480000Y-69000000D02*
X127680001Y-69000000D01*
X125945000Y-69000000D02*
X124460000Y-70485000D01*
X145735000Y-85415000D02*
X145425000Y-85725000D01*
X141408199Y-67313199D02*
X141408199Y-67989473D01*
X158115000Y-71105000D02*
X154605000Y-71105000D01*
X161054000Y-60470000D02*
X156422500Y-60470000D01*
X149545000Y-61595000D02*
X149545000Y-62423000D01*
X161210000Y-60626000D02*
X161054000Y-60470000D01*
X154147500Y-60445000D02*
X155297500Y-61595000D01*
X145735000Y-82042000D02*
X145735000Y-85415000D01*
X144018000Y-82042000D02*
X142682000Y-82042000D01*
X161210000Y-61595000D02*
X161210000Y-60626000D01*
X152395000Y-87000000D02*
X146700000Y-87000000D01*
X130525000Y-79375000D02*
X131375000Y-78525000D01*
X129540000Y-79375000D02*
X130525000Y-79375000D01*
X143694740Y-69383575D02*
X142828315Y-70250000D01*
X135680000Y-62230000D02*
X137177500Y-62230000D01*
X129540000Y-79375000D02*
X129944068Y-79375000D01*
X150248000Y-68700000D02*
X149498000Y-69450000D01*
X144068800Y-81991200D02*
X144018000Y-82042000D01*
X128480000Y-69000000D02*
X125945000Y-69000000D01*
X134366000Y-62230000D02*
X135680000Y-62230000D01*
X161210000Y-61642000D02*
X161210000Y-61595000D01*
X131826000Y-64770000D02*
X134366000Y-62230000D01*
X137177500Y-62230000D02*
X137812500Y-61595000D01*
X144018000Y-82042000D02*
X145735000Y-82042000D01*
X143694740Y-69383575D02*
X143478575Y-69383575D01*
X149545000Y-62423000D02*
X151638000Y-64516000D01*
D26*
%TO.N,Net-(U4-PB7)*%
X140716000Y-82489000D02*
X140655000Y-82550000D01*
X140010000Y-72685000D02*
X139975000Y-72650000D01*
X140716000Y-79569000D02*
X140716000Y-82489000D01*
X142290800Y-72685000D02*
X140010000Y-72685000D01*
X141545000Y-77158305D02*
X141545000Y-78740000D01*
X141545000Y-78740000D02*
X140716000Y-79569000D01*
X143020001Y-75683304D02*
X141545000Y-77158305D01*
%TO.N,Net-(U4-PB6)*%
X143510000Y-71882000D02*
X143478000Y-71850000D01*
X144729200Y-75700000D02*
X144729200Y-76724200D01*
X146745000Y-81660000D02*
X147635000Y-82550000D01*
X143478000Y-71850000D02*
X139975000Y-71850000D01*
X144729200Y-76724200D02*
X146745000Y-78740000D01*
X146745000Y-78740000D02*
X146745000Y-81660000D01*
%TO.N,Net-(U4-AREF)*%
X148315000Y-70250000D02*
X148461000Y-70104000D01*
X151196000Y-70104000D02*
X151450000Y-69850000D01*
X148461000Y-70104000D02*
X151196000Y-70104000D01*
D27*
%TO.N,/Vcc*%
X135680000Y-67730000D02*
X128480000Y-67730000D01*
X129705000Y-69844999D02*
X129705000Y-68491000D01*
D26*
X139975000Y-69450000D02*
X141554600Y-69450000D01*
D27*
X149240000Y-84450000D02*
X154935000Y-84450000D01*
X134490000Y-75565000D02*
X133505000Y-75565000D01*
X154051000Y-73025000D02*
X155194000Y-74168000D01*
X134490000Y-75565000D02*
X134490000Y-75562000D01*
X147965000Y-85725000D02*
X149240000Y-84450000D01*
X146152000Y-60452000D02*
X142803000Y-60452000D01*
X132080000Y-76990000D02*
X132080000Y-80922500D01*
X128480000Y-60960000D02*
X135680000Y-60960000D01*
X147574000Y-62624200D02*
X147574000Y-61874000D01*
X147295000Y-61595000D02*
X146152000Y-60452000D01*
X129279999Y-70270000D02*
X129705000Y-69844999D01*
D26*
X153009600Y-64770000D02*
X151333200Y-66446400D01*
X149188200Y-71850000D02*
X150063200Y-70975000D01*
D27*
X131216400Y-70665000D02*
X130525001Y-70665000D01*
X128944000Y-67730000D02*
X128480000Y-67730000D01*
D26*
X154620000Y-64770000D02*
X155272500Y-64770000D01*
D27*
X127255000Y-66505000D02*
X127255000Y-64377672D01*
X132080000Y-80922500D02*
X131087500Y-81915000D01*
D26*
X151445000Y-61595000D02*
X154620000Y-64770000D01*
D27*
X128480000Y-63500000D02*
X128480000Y-62230000D01*
X130525001Y-70665000D02*
X129705000Y-69844999D01*
D26*
X141554600Y-69450000D02*
X141579600Y-69425000D01*
D27*
X148386800Y-63437000D02*
X147574000Y-62624200D01*
X133350000Y-81915000D02*
X133072500Y-81915000D01*
D26*
X148315000Y-71850000D02*
X149188200Y-71850000D01*
D27*
X128480000Y-60960000D02*
X128480000Y-62230000D01*
X138562500Y-60445000D02*
X139712500Y-61595000D01*
X153312500Y-73025000D02*
X154051000Y-73025000D01*
X128480000Y-70270000D02*
X129279999Y-70270000D01*
D26*
X154620000Y-64770000D02*
X153009600Y-64770000D01*
D27*
X134490000Y-75562000D02*
X132537200Y-73609200D01*
X154935000Y-84450000D02*
X156210000Y-85725000D01*
X136195000Y-60445000D02*
X138562500Y-60445000D01*
X133505000Y-75565000D02*
X132080000Y-76990000D01*
X135680000Y-60960000D02*
X136195000Y-60445000D01*
X128132672Y-63500000D02*
X128480000Y-63500000D01*
X142803000Y-60452000D02*
X141660000Y-61595000D01*
X127255000Y-64377672D02*
X128132672Y-63500000D01*
X129705000Y-68491000D02*
X128944000Y-67730000D01*
X139712500Y-61595000D02*
X141660000Y-61595000D01*
X133072500Y-81915000D02*
X132080000Y-80922500D01*
X128480000Y-67730000D02*
X127255000Y-66505000D01*
D26*
%TO.N,Net-(D1-K)*%
X157122500Y-64745000D02*
X157147500Y-64770000D01*
X157122500Y-61595000D02*
X157122500Y-64745000D01*
%TO.N,/SCL*%
X135680000Y-63500000D02*
X134880001Y-63500000D01*
%TO.N,/SCK*%
X147574874Y-72650000D02*
X148315000Y-72650000D01*
X161260000Y-64770000D02*
X161830000Y-65340000D01*
%TO.N,/SCL*%
X136855000Y-69647000D02*
X136232000Y-70270000D01*
X137065000Y-66791396D02*
X137065000Y-69437000D01*
X135668604Y-65395000D02*
X137065000Y-66791396D01*
X144526000Y-63246000D02*
X144545000Y-63265000D01*
X134555000Y-63825001D02*
X134555000Y-65120908D01*
X134555000Y-65120908D02*
X134829092Y-65395000D01*
X136144000Y-77436000D02*
X136144000Y-74676000D01*
X137160000Y-63500000D02*
X135680000Y-63500000D01*
%TO.N,/SCK*%
X161830000Y-65340000D02*
X161830000Y-72470000D01*
%TO.N,/SCL*%
X139090400Y-63246000D02*
X137414000Y-63246000D01*
X136144000Y-74676000D02*
X134366000Y-72898000D01*
X134880001Y-63500000D02*
X134555000Y-63825001D01*
X144545000Y-63265000D02*
X144545000Y-65680000D01*
%TO.N,/SCK*%
X161830000Y-72470000D02*
X160655000Y-73645000D01*
%TO.N,/SCL*%
X134490000Y-78105000D02*
X135475000Y-78105000D01*
X137414000Y-63246000D02*
X137160000Y-63500000D01*
X134829092Y-65395000D02*
X135668604Y-65395000D01*
X137065000Y-69437000D02*
X136906000Y-69596000D01*
X135475000Y-78105000D02*
X136144000Y-77436000D01*
X136232000Y-70270000D02*
X135680000Y-70270000D01*
X134962000Y-70270000D02*
X135680000Y-70270000D01*
X134366000Y-70866000D02*
X134962000Y-70270000D01*
X134366000Y-72898000D02*
X134366000Y-70866000D01*
%TO.N,Net-(D2-K)*%
X159385000Y-61595000D02*
X159385000Y-64770000D01*
%TO.N,/SDA*%
X145542000Y-64025000D02*
X145542000Y-65483000D01*
X145542000Y-61667000D02*
X145470000Y-61595000D01*
X135680000Y-71540000D02*
X136479999Y-71540000D01*
X136479999Y-71540000D02*
X137515000Y-70504999D01*
X137515000Y-66605000D02*
X135680000Y-64770000D01*
X135475000Y-79375000D02*
X134490000Y-79375000D01*
X137515000Y-70504999D02*
X137515000Y-66605000D01*
X138074400Y-64109600D02*
X137414000Y-64770000D01*
X136652000Y-78198000D02*
X135475000Y-79375000D01*
X145542000Y-65483000D02*
X145345000Y-65680000D01*
X136652000Y-72512000D02*
X136652000Y-78198000D01*
X135680000Y-71540000D02*
X136652000Y-72512000D01*
X137414000Y-64770000D02*
X135680000Y-64770000D01*
X145542000Y-64025000D02*
X145542000Y-61667000D01*
%TO.N,/RX*%
X142945000Y-67211505D02*
X142945000Y-65680000D01*
X145251000Y-68922604D02*
X144351396Y-68023000D01*
X144351396Y-68023000D02*
X143756495Y-68023000D01*
X145251000Y-70404305D02*
X145251000Y-68922604D01*
X143756495Y-68023000D02*
X142945000Y-67211505D01*
X145029347Y-71886653D02*
X145029347Y-70625958D01*
X145029347Y-70625958D02*
X145251000Y-70404305D01*
%TO.N,/TX*%
X144165000Y-68473000D02*
X143570099Y-68473000D01*
X142220000Y-67122901D02*
X142220000Y-65755000D01*
X144526000Y-68834000D02*
X144165000Y-68473000D01*
X143570099Y-68473000D02*
X142220000Y-67122901D01*
X144526000Y-70104000D02*
X144526000Y-68834000D01*
%TO.N,/D2*%
X127645000Y-85725000D02*
X130380000Y-82990000D01*
X137220000Y-71565208D02*
X137965000Y-70820208D01*
X139806000Y-65680000D02*
X141345000Y-65680000D01*
X137965000Y-67521000D02*
X139806000Y-65680000D01*
X137965000Y-70820208D02*
X137965000Y-67521000D01*
X135632600Y-82990000D02*
X137220000Y-81402600D01*
X130380000Y-82990000D02*
X135632600Y-82990000D01*
X137220000Y-81402600D02*
X137220000Y-71565208D01*
%TO.N,/D7*%
X139470000Y-76684000D02*
X139816000Y-76338000D01*
X140345000Y-85725000D02*
X139470000Y-84850000D01*
X142945000Y-74733000D02*
X142945000Y-74020000D01*
X141340000Y-76338000D02*
X142945000Y-74733000D01*
X139816000Y-76338000D02*
X141340000Y-76338000D01*
X139470000Y-84850000D02*
X139470000Y-76684000D01*
%TO.N,/D4*%
X139273038Y-67850000D02*
X139975000Y-67850000D01*
X138865000Y-71193000D02*
X138865000Y-68258038D01*
X132725000Y-85725000D02*
X134376000Y-84074000D01*
X138120000Y-82098000D02*
X138120000Y-71938000D01*
X134376000Y-84074000D02*
X136144000Y-84074000D01*
X138865000Y-68258038D02*
X139273038Y-67850000D01*
X138120000Y-71938000D02*
X138865000Y-71193000D01*
X136144000Y-84074000D02*
X138120000Y-82098000D01*
%TO.N,/D3*%
X138415000Y-67875000D02*
X139240000Y-67050000D01*
X139240000Y-67050000D02*
X139975000Y-67050000D01*
X138415000Y-71006604D02*
X138415000Y-67875000D01*
X137670000Y-71751604D02*
X138415000Y-71006604D01*
X130185000Y-85725000D02*
X132344000Y-83566000D01*
X137670000Y-81786000D02*
X137670000Y-71751604D01*
X132344000Y-83566000D02*
X135890000Y-83566000D01*
X135890000Y-83566000D02*
X137670000Y-81786000D01*
%TO.N,/D8*%
X141680000Y-84520000D02*
X141680000Y-81078000D01*
X142493000Y-80265000D02*
X143620000Y-80265000D01*
X143620000Y-80265000D02*
X143745000Y-80140000D01*
X142885000Y-85725000D02*
X141680000Y-84520000D01*
X143745000Y-80140000D02*
X143745000Y-74020000D01*
X141680000Y-81078000D02*
X142493000Y-80265000D01*
%TO.N,/D5*%
X138570000Y-76060000D02*
X139192000Y-75438000D01*
X140963802Y-75438000D02*
X141345000Y-75056802D01*
X139192000Y-75438000D02*
X140963802Y-75438000D01*
X135265000Y-85725000D02*
X138570000Y-82420000D01*
X138570000Y-82420000D02*
X138570000Y-76060000D01*
X141345000Y-75056802D02*
X141345000Y-74020000D01*
%TO.N,/D6*%
X139378396Y-75888000D02*
X141153604Y-75888000D01*
X139020000Y-76246396D02*
X139378396Y-75888000D01*
X139020000Y-84510000D02*
X139020000Y-76246396D01*
X142145000Y-74896604D02*
X142145000Y-74020000D01*
X137805000Y-85725000D02*
X139020000Y-84510000D01*
X141153604Y-75888000D02*
X142145000Y-74896604D01*
%TO.N,/MOSI*%
X146145000Y-74651252D02*
X146145000Y-74020000D01*
X147693748Y-76200000D02*
X146145000Y-74651252D01*
X157749000Y-73645000D02*
X155194000Y-76200000D01*
X155194000Y-76200000D02*
X147693748Y-76200000D01*
X158115000Y-73645000D02*
X157749000Y-73645000D01*
%TO.N,/MISO*%
X148285200Y-75475000D02*
X148285200Y-75360200D01*
X157210396Y-74820000D02*
X159290000Y-74820000D01*
X150368000Y-76962000D02*
X155068396Y-76962000D01*
X159290000Y-74820000D02*
X160655000Y-76185000D01*
X148285200Y-75360200D02*
X146945000Y-74020000D01*
X155068396Y-76962000D02*
X157210396Y-74820000D01*
%TO.N,/RESET*%
X143745000Y-61855000D02*
X143745000Y-65680000D01*
X159847412Y-71105000D02*
X155996959Y-67254547D01*
X143745000Y-66986200D02*
X143745000Y-65680000D01*
X155996959Y-67254547D02*
X149906147Y-67254547D01*
X143967200Y-67208400D02*
X143745000Y-66986200D01*
X160655000Y-71105000D02*
X159847412Y-71105000D01*
X143485000Y-61595000D02*
X143745000Y-61855000D01*
%TO.N,Net-(U3-SQW{slash}~INT)*%
X133180000Y-79920000D02*
X133180000Y-77716538D01*
X135175000Y-81915000D02*
X133180000Y-79920000D01*
X134061538Y-76835000D02*
X134490000Y-76835000D01*
X133180000Y-77716538D02*
X134061538Y-76835000D01*
%TO.N,Net-(U3-~{INTA})*%
X129540000Y-78105000D02*
X128555000Y-78105000D01*
X128180000Y-80832500D02*
X129262500Y-81915000D01*
X128555000Y-78105000D02*
X128180000Y-78480000D01*
X128180000Y-78480000D02*
X128180000Y-80832500D01*
%TO.N,Net-(U3-X2)*%
X128330000Y-76835000D02*
X129540000Y-76835000D01*
X124460000Y-80705000D02*
X128330000Y-76835000D01*
%TO.N,Net-(U3-X1)*%
X129480000Y-75505000D02*
X129540000Y-75565000D01*
X124460000Y-75505000D02*
X129480000Y-75505000D01*
%TD*%
%TA.AperFunction,Conductor*%
%TO.N,/Vcc*%
G36*
X164324680Y-60041405D02*
G01*
X164370413Y-60070413D01*
X167482254Y-63182254D01*
X167515739Y-63243577D01*
X167518573Y-63269935D01*
X167518573Y-84087041D01*
X167517856Y-84100358D01*
X167517081Y-84107523D01*
X167517102Y-84107652D01*
X167518573Y-84126697D01*
X167518573Y-84161660D01*
X167533328Y-84216728D01*
X167536082Y-84229778D01*
X167536521Y-84232603D01*
X167527365Y-84301870D01*
X167501673Y-84339325D01*
X164351880Y-87489118D01*
X164290557Y-87522603D01*
X164245049Y-87523949D01*
X164204079Y-87517545D01*
X164191142Y-87514809D01*
X164167857Y-87508571D01*
X164167851Y-87508570D01*
X164167850Y-87508570D01*
X164167848Y-87508570D01*
X164156297Y-87508570D01*
X164137150Y-87507083D01*
X164117632Y-87504032D01*
X164117630Y-87504032D01*
X164081810Y-87507869D01*
X164068610Y-87508574D01*
X153140539Y-87509128D01*
X153073499Y-87489447D01*
X153027741Y-87436645D01*
X153017794Y-87367487D01*
X153046816Y-87303930D01*
X153052838Y-87297461D01*
X153238482Y-87111818D01*
X153299805Y-87078333D01*
X153326163Y-87075499D01*
X154567871Y-87075499D01*
X154567872Y-87075499D01*
X154627483Y-87069091D01*
X154762331Y-87018796D01*
X154877546Y-86932546D01*
X154963796Y-86817331D01*
X155013002Y-86685401D01*
X155054872Y-86629468D01*
X155120337Y-86605050D01*
X155188610Y-86619901D01*
X155216865Y-86641053D01*
X155338917Y-86763105D01*
X155532421Y-86898600D01*
X155746507Y-86998429D01*
X155746516Y-86998433D01*
X155960000Y-87055634D01*
X155960000Y-86158012D01*
X156017007Y-86190925D01*
X156144174Y-86225000D01*
X156275826Y-86225000D01*
X156402993Y-86190925D01*
X156460000Y-86158012D01*
X156460000Y-87055633D01*
X156673483Y-86998433D01*
X156673492Y-86998429D01*
X156887578Y-86898600D01*
X157081082Y-86763105D01*
X157248105Y-86596082D01*
X157378119Y-86410405D01*
X157432696Y-86366781D01*
X157502195Y-86359588D01*
X157564549Y-86391110D01*
X157581269Y-86410405D01*
X157711505Y-86596401D01*
X157878599Y-86763495D01*
X157975384Y-86831265D01*
X158072165Y-86899032D01*
X158072167Y-86899033D01*
X158072170Y-86899035D01*
X158286337Y-86998903D01*
X158514592Y-87060063D01*
X158691034Y-87075500D01*
X158749999Y-87080659D01*
X158750000Y-87080659D01*
X158750001Y-87080659D01*
X158808966Y-87075500D01*
X158985408Y-87060063D01*
X159213663Y-86998903D01*
X159427830Y-86899035D01*
X159621401Y-86763495D01*
X159788495Y-86596401D01*
X159918425Y-86410842D01*
X159973002Y-86367217D01*
X160042500Y-86360023D01*
X160104855Y-86391546D01*
X160121575Y-86410842D01*
X160251500Y-86596395D01*
X160251505Y-86596401D01*
X160418599Y-86763495D01*
X160515384Y-86831265D01*
X160612165Y-86899032D01*
X160612167Y-86899033D01*
X160612170Y-86899035D01*
X160826337Y-86998903D01*
X161054592Y-87060063D01*
X161231034Y-87075500D01*
X161289999Y-87080659D01*
X161290000Y-87080659D01*
X161290001Y-87080659D01*
X161348966Y-87075500D01*
X161525408Y-87060063D01*
X161753663Y-86998903D01*
X161967830Y-86899035D01*
X162161401Y-86763495D01*
X162328495Y-86596401D01*
X162388573Y-86510601D01*
X163508777Y-86510601D01*
X163740833Y-86510589D01*
X164287947Y-85963476D01*
X164287947Y-85152768D01*
X163568017Y-85152768D01*
X163594695Y-85252334D01*
X163595981Y-85257588D01*
X163603066Y-85289546D01*
X163604121Y-85294854D01*
X163611684Y-85337749D01*
X163612507Y-85343096D01*
X163616778Y-85375539D01*
X163617367Y-85380916D01*
X163641759Y-85659713D01*
X163642113Y-85665110D01*
X163643541Y-85697810D01*
X163643659Y-85703220D01*
X163643659Y-85746780D01*
X163643541Y-85752190D01*
X163642113Y-85784890D01*
X163641759Y-85790287D01*
X163617367Y-86069084D01*
X163616778Y-86074461D01*
X163612507Y-86106904D01*
X163611684Y-86112251D01*
X163604121Y-86155146D01*
X163603066Y-86160454D01*
X163595981Y-86192412D01*
X163594695Y-86197666D01*
X163522259Y-86468008D01*
X163520744Y-86473205D01*
X163510895Y-86504440D01*
X163509154Y-86509568D01*
X163508777Y-86510601D01*
X162388573Y-86510601D01*
X162464035Y-86402830D01*
X162563903Y-86188663D01*
X162625063Y-85960408D01*
X162645659Y-85725000D01*
X162643753Y-85703220D01*
X162625063Y-85489596D01*
X162625063Y-85489592D01*
X162572884Y-85294854D01*
X162563905Y-85261344D01*
X162563904Y-85261343D01*
X162563903Y-85261337D01*
X162464035Y-85047171D01*
X162458731Y-85039595D01*
X162328494Y-84853597D01*
X162161402Y-84686506D01*
X162161395Y-84686501D01*
X161967834Y-84550967D01*
X161967830Y-84550965D01*
X161908129Y-84523126D01*
X161753663Y-84451097D01*
X161753659Y-84451096D01*
X161753655Y-84451094D01*
X161525413Y-84389938D01*
X161525403Y-84389936D01*
X161290001Y-84369341D01*
X161289999Y-84369341D01*
X161054596Y-84389936D01*
X161054586Y-84389938D01*
X160826344Y-84451094D01*
X160826335Y-84451098D01*
X160612171Y-84550964D01*
X160612169Y-84550965D01*
X160418597Y-84686505D01*
X160251505Y-84853597D01*
X160121575Y-85039158D01*
X160066998Y-85082783D01*
X159997500Y-85089977D01*
X159935145Y-85058454D01*
X159918425Y-85039158D01*
X159788494Y-84853597D01*
X159621402Y-84686506D01*
X159621395Y-84686501D01*
X159427834Y-84550967D01*
X159427830Y-84550965D01*
X159368129Y-84523126D01*
X159213663Y-84451097D01*
X159213659Y-84451096D01*
X159213655Y-84451094D01*
X158985413Y-84389938D01*
X158985403Y-84389936D01*
X158750001Y-84369341D01*
X158749999Y-84369341D01*
X158514596Y-84389936D01*
X158514586Y-84389938D01*
X158286344Y-84451094D01*
X158286335Y-84451098D01*
X158072171Y-84550964D01*
X158072169Y-84550965D01*
X157878597Y-84686505D01*
X157711508Y-84853594D01*
X157581269Y-85039595D01*
X157526692Y-85083219D01*
X157457193Y-85090412D01*
X157394839Y-85058890D01*
X157378119Y-85039594D01*
X157248113Y-84853926D01*
X157248108Y-84853920D01*
X157081082Y-84686894D01*
X156887578Y-84551399D01*
X156673492Y-84451570D01*
X156673486Y-84451567D01*
X156460000Y-84394364D01*
X156460000Y-85291988D01*
X156402993Y-85259075D01*
X156275826Y-85225000D01*
X156144174Y-85225000D01*
X156017007Y-85259075D01*
X155960000Y-85291988D01*
X155960000Y-84394364D01*
X155959999Y-84394364D01*
X155746513Y-84451567D01*
X155746507Y-84451570D01*
X155532422Y-84551399D01*
X155532420Y-84551400D01*
X155338926Y-84686886D01*
X155216865Y-84808947D01*
X155155542Y-84842431D01*
X155085850Y-84837447D01*
X155029917Y-84795575D01*
X155013002Y-84764598D01*
X154963797Y-84632671D01*
X154963793Y-84632664D01*
X154877547Y-84517455D01*
X154877544Y-84517452D01*
X154762335Y-84431206D01*
X154762328Y-84431202D01*
X154627482Y-84380908D01*
X154627483Y-84380908D01*
X154567883Y-84374501D01*
X154567881Y-84374500D01*
X154567873Y-84374500D01*
X154567864Y-84374500D01*
X152772129Y-84374500D01*
X152772123Y-84374501D01*
X152712516Y-84380908D01*
X152577671Y-84431202D01*
X152577664Y-84431206D01*
X152462455Y-84517452D01*
X152462452Y-84517455D01*
X152376206Y-84632664D01*
X152376202Y-84632671D01*
X152325908Y-84767517D01*
X152319501Y-84827116D01*
X152319500Y-84827135D01*
X152319500Y-86068836D01*
X152299815Y-86135875D01*
X152283185Y-86156512D01*
X152151516Y-86288182D01*
X152090196Y-86321666D01*
X152063837Y-86324500D01*
X149363588Y-86324500D01*
X149296549Y-86304815D01*
X149250794Y-86252011D01*
X149240850Y-86182853D01*
X149243813Y-86168406D01*
X149295636Y-85975000D01*
X148398012Y-85975000D01*
X148430925Y-85917993D01*
X148465000Y-85790826D01*
X148465000Y-85659174D01*
X148430925Y-85532007D01*
X148398012Y-85475000D01*
X149295636Y-85475000D01*
X149295635Y-85474999D01*
X149238432Y-85261513D01*
X149238429Y-85261507D01*
X149138600Y-85047422D01*
X149138599Y-85047420D01*
X149003113Y-84853926D01*
X149003108Y-84853920D01*
X148836082Y-84686894D01*
X148642578Y-84551399D01*
X148428492Y-84451570D01*
X148428486Y-84451567D01*
X148215000Y-84394364D01*
X148215000Y-85291988D01*
X148157993Y-85259075D01*
X148030826Y-85225000D01*
X147899174Y-85225000D01*
X147772007Y-85259075D01*
X147715000Y-85291988D01*
X147715000Y-84394364D01*
X147714999Y-84394364D01*
X147501513Y-84451567D01*
X147501507Y-84451570D01*
X147287422Y-84551399D01*
X147287420Y-84551400D01*
X147093926Y-84686886D01*
X147093920Y-84686891D01*
X146926891Y-84853920D01*
X146926890Y-84853922D01*
X146796880Y-85039595D01*
X146742303Y-85083219D01*
X146672804Y-85090412D01*
X146610450Y-85058890D01*
X146593730Y-85039594D01*
X146463494Y-84853597D01*
X146446819Y-84836922D01*
X146413334Y-84775599D01*
X146410500Y-84749241D01*
X146410500Y-84154768D01*
X150285947Y-84154768D01*
X151500067Y-84154768D01*
X151517372Y-84123077D01*
X151521890Y-84115463D01*
X151550854Y-84070396D01*
X151555902Y-84063126D01*
X151672199Y-83907774D01*
X162785947Y-83907774D01*
X162786243Y-83908012D01*
X162819610Y-83936012D01*
X162823678Y-83939580D01*
X162847794Y-83961680D01*
X162851698Y-83965418D01*
X163041049Y-84154768D01*
X164287947Y-84154768D01*
X165285947Y-84154768D01*
X166096656Y-84154768D01*
X166520573Y-83730851D01*
X166520573Y-82652768D01*
X165285947Y-82652768D01*
X165285947Y-84154768D01*
X164287947Y-84154768D01*
X164287947Y-82652768D01*
X162785947Y-82652768D01*
X162785947Y-83907774D01*
X151672199Y-83907774D01*
X151684886Y-83890827D01*
X151690439Y-83883936D01*
X151725519Y-83843451D01*
X151731551Y-83836972D01*
X151781972Y-83786551D01*
X151787947Y-83780988D01*
X151787947Y-83601913D01*
X160285947Y-83601913D01*
X160424292Y-83537402D01*
X160429244Y-83535223D01*
X160459465Y-83522705D01*
X160464500Y-83520747D01*
X160505432Y-83505846D01*
X160510560Y-83504105D01*
X160541795Y-83494256D01*
X160546992Y-83492741D01*
X160817334Y-83420305D01*
X160822588Y-83419019D01*
X160854546Y-83411934D01*
X160859854Y-83410879D01*
X160902749Y-83403316D01*
X160908096Y-83402493D01*
X160940539Y-83398222D01*
X160945916Y-83397633D01*
X161224713Y-83373241D01*
X161230110Y-83372887D01*
X161262810Y-83371459D01*
X161268220Y-83371341D01*
X161311780Y-83371341D01*
X161317190Y-83371459D01*
X161349890Y-83372887D01*
X161355287Y-83373241D01*
X161634084Y-83397633D01*
X161639461Y-83398222D01*
X161671904Y-83402493D01*
X161677251Y-83403316D01*
X161720146Y-83410879D01*
X161725454Y-83411934D01*
X161757412Y-83419019D01*
X161762665Y-83420305D01*
X161787947Y-83427079D01*
X161787947Y-82652768D01*
X160285947Y-82652768D01*
X160285947Y-83601913D01*
X151787947Y-83601913D01*
X151787947Y-83583261D01*
X157785947Y-83583261D01*
X157884292Y-83537402D01*
X157889244Y-83535223D01*
X157919465Y-83522705D01*
X157924500Y-83520747D01*
X157965432Y-83505846D01*
X157970560Y-83504105D01*
X158001795Y-83494256D01*
X158006992Y-83492741D01*
X158277334Y-83420305D01*
X158282588Y-83419019D01*
X158314546Y-83411934D01*
X158319854Y-83410879D01*
X158362749Y-83403316D01*
X158368096Y-83402493D01*
X158400539Y-83398222D01*
X158405916Y-83397633D01*
X158684713Y-83373241D01*
X158690110Y-83372887D01*
X158722810Y-83371459D01*
X158728220Y-83371341D01*
X158771780Y-83371341D01*
X158777190Y-83371459D01*
X158809890Y-83372887D01*
X158815287Y-83373241D01*
X159094084Y-83397633D01*
X159099461Y-83398222D01*
X159131904Y-83402493D01*
X159137251Y-83403316D01*
X159180146Y-83410879D01*
X159185454Y-83411934D01*
X159217412Y-83419019D01*
X159222666Y-83420305D01*
X159287947Y-83437796D01*
X159287947Y-82652768D01*
X157785947Y-82652768D01*
X157785947Y-83583261D01*
X151787947Y-83583261D01*
X151787947Y-83565161D01*
X155285947Y-83565161D01*
X155344466Y-83537874D01*
X155349416Y-83535696D01*
X155379636Y-83523178D01*
X155384674Y-83521218D01*
X155425605Y-83506318D01*
X155430729Y-83504578D01*
X155461962Y-83494729D01*
X155467160Y-83493214D01*
X155929682Y-83369281D01*
X155985967Y-83367439D01*
X156210000Y-83412002D01*
X156434033Y-83367439D01*
X156490318Y-83369281D01*
X156787947Y-83449030D01*
X156787947Y-82652768D01*
X155285947Y-82652768D01*
X155285947Y-83565161D01*
X151787947Y-83565161D01*
X151787947Y-83376500D01*
X152785947Y-83376500D01*
X154287947Y-83376500D01*
X154287947Y-82652768D01*
X152785947Y-82652768D01*
X152785947Y-83376500D01*
X151787947Y-83376500D01*
X151787947Y-82652768D01*
X150285947Y-82652768D01*
X150285947Y-84154768D01*
X146410500Y-84154768D01*
X146410500Y-83076867D01*
X146430185Y-83009828D01*
X146449386Y-82988656D01*
X146448549Y-82987819D01*
X146487277Y-82949091D01*
X146577712Y-82858656D01*
X146579461Y-82855819D01*
X146581169Y-82854283D01*
X146582193Y-82852989D01*
X146582414Y-82853163D01*
X146631406Y-82809096D01*
X146700368Y-82797872D01*
X146764451Y-82825713D01*
X146790537Y-82855817D01*
X146792288Y-82858656D01*
X146916344Y-82982712D01*
X147065666Y-83074814D01*
X147232203Y-83129999D01*
X147334991Y-83140500D01*
X147401414Y-83140499D01*
X147448871Y-83149939D01*
X147452549Y-83151463D01*
X147573388Y-83175499D01*
X147573392Y-83175500D01*
X147573393Y-83175500D01*
X147696608Y-83175500D01*
X147696609Y-83175499D01*
X147817451Y-83151463D01*
X147821134Y-83149937D01*
X147868585Y-83140499D01*
X147935002Y-83140499D01*
X147935008Y-83140499D01*
X148037797Y-83129999D01*
X148204334Y-83074814D01*
X148353656Y-82982712D01*
X148477712Y-82858656D01*
X148569814Y-82709334D01*
X148624999Y-82542797D01*
X148635500Y-82440009D01*
X148635499Y-81654768D01*
X150285947Y-81654768D01*
X151787947Y-81654768D01*
X152785947Y-81654768D01*
X154287947Y-81654768D01*
X155285947Y-81654768D01*
X156787947Y-81654768D01*
X156787947Y-80950119D01*
X157785947Y-80950119D01*
X157785947Y-81654768D01*
X159287947Y-81654768D01*
X160285947Y-81654768D01*
X161787947Y-81654768D01*
X161787947Y-81044605D01*
X162785947Y-81044605D01*
X162785947Y-81654768D01*
X164287947Y-81654768D01*
X164287947Y-80756089D01*
X164233466Y-80766927D01*
X164210749Y-80765810D01*
X164193645Y-80767496D01*
X164187566Y-80767945D01*
X164150791Y-80769751D01*
X164144709Y-80769900D01*
X163908564Y-80769900D01*
X163895477Y-80778398D01*
X163889942Y-80781790D01*
X163844670Y-80807926D01*
X163838964Y-80811024D01*
X163803983Y-80828846D01*
X163798128Y-80831638D01*
X163577449Y-80929893D01*
X163571452Y-80932377D01*
X163534771Y-80946458D01*
X163528646Y-80948627D01*
X163478926Y-80964780D01*
X163472705Y-80966623D01*
X163434772Y-80976787D01*
X163428460Y-80978302D01*
X163192180Y-81028524D01*
X163185797Y-81029707D01*
X163147018Y-81035849D01*
X163140588Y-81036696D01*
X163088600Y-81042163D01*
X163082123Y-81042673D01*
X163042883Y-81044730D01*
X163036392Y-81044900D01*
X162794808Y-81044900D01*
X162788317Y-81044730D01*
X162785947Y-81044605D01*
X161787947Y-81044605D01*
X161787947Y-80673787D01*
X161701974Y-80611325D01*
X161696821Y-80607371D01*
X161666298Y-80582653D01*
X161661365Y-80578439D01*
X161622517Y-80543461D01*
X161617807Y-80538991D01*
X161590031Y-80511215D01*
X161585562Y-80506506D01*
X161423923Y-80326988D01*
X161419708Y-80322054D01*
X161394994Y-80291536D01*
X161391043Y-80286387D01*
X161360314Y-80244095D01*
X161356635Y-80238742D01*
X161341235Y-80215028D01*
X165285947Y-80215028D01*
X165285947Y-81654768D01*
X166520573Y-81654768D01*
X166520573Y-80152768D01*
X165348203Y-80152768D01*
X165303128Y-80197842D01*
X165303112Y-80197863D01*
X165285947Y-80215028D01*
X161341235Y-80215028D01*
X161335236Y-80205791D01*
X161331843Y-80200254D01*
X161304428Y-80152768D01*
X160285947Y-80152768D01*
X160285947Y-81654768D01*
X159287947Y-81654768D01*
X159287947Y-80826215D01*
X159282783Y-80828846D01*
X159276928Y-80831638D01*
X159056249Y-80929893D01*
X159050252Y-80932377D01*
X159013571Y-80946458D01*
X159007446Y-80948627D01*
X158957726Y-80964780D01*
X158951505Y-80966623D01*
X158913572Y-80976787D01*
X158907260Y-80978302D01*
X158670980Y-81028524D01*
X158664597Y-81029707D01*
X158625818Y-81035849D01*
X158619388Y-81036696D01*
X158567400Y-81042163D01*
X158560923Y-81042673D01*
X158521683Y-81044730D01*
X158515192Y-81044900D01*
X158273608Y-81044900D01*
X158267117Y-81044730D01*
X158227877Y-81042673D01*
X158221400Y-81042163D01*
X158169412Y-81036696D01*
X158162982Y-81035849D01*
X158124203Y-81029707D01*
X158117820Y-81028524D01*
X157881540Y-80978302D01*
X157875228Y-80976787D01*
X157837295Y-80966623D01*
X157831074Y-80964780D01*
X157785947Y-80950119D01*
X156787947Y-80950119D01*
X156787947Y-80769900D01*
X155285947Y-80769900D01*
X155285947Y-81654768D01*
X154287947Y-81654768D01*
X154287947Y-80681231D01*
X154282868Y-80679272D01*
X154123761Y-80613368D01*
X154118197Y-80610901D01*
X154084918Y-80595161D01*
X154079484Y-80592426D01*
X154036263Y-80569325D01*
X154030968Y-80566326D01*
X153999375Y-80547391D01*
X153994230Y-80544133D01*
X153851034Y-80448451D01*
X153846060Y-80444948D01*
X153816487Y-80423016D01*
X153811687Y-80419270D01*
X153773805Y-80388181D01*
X153769198Y-80384207D01*
X153741911Y-80359476D01*
X153737502Y-80355278D01*
X153621111Y-80238887D01*
X153621049Y-80238823D01*
X153534994Y-80152768D01*
X152785947Y-80152768D01*
X152785947Y-81654768D01*
X151787947Y-81654768D01*
X151787947Y-80152768D01*
X150285947Y-80152768D01*
X150285947Y-81654768D01*
X148635499Y-81654768D01*
X148635499Y-81389992D01*
X148633448Y-81369917D01*
X148624999Y-81287203D01*
X148624998Y-81287200D01*
X148578167Y-81145875D01*
X148569814Y-81120666D01*
X148477712Y-80971344D01*
X148353656Y-80847288D01*
X148241967Y-80778398D01*
X148204336Y-80755187D01*
X148204331Y-80755185D01*
X148180798Y-80747387D01*
X148037797Y-80700001D01*
X148037795Y-80700000D01*
X147935016Y-80689500D01*
X147935009Y-80689500D01*
X147494500Y-80689500D01*
X147427461Y-80669815D01*
X147381706Y-80617011D01*
X147370500Y-80565500D01*
X147370500Y-79929499D01*
X147390185Y-79862460D01*
X147442989Y-79816705D01*
X147494500Y-79805499D01*
X148542871Y-79805499D01*
X148542872Y-79805499D01*
X148602483Y-79799091D01*
X148737331Y-79748796D01*
X148852546Y-79662546D01*
X148938796Y-79547331D01*
X148989091Y-79412483D01*
X148995500Y-79352873D01*
X148995500Y-78860500D01*
X150285947Y-78860500D01*
X150285947Y-79154768D01*
X151787947Y-79154768D01*
X151787947Y-78751181D01*
X151784836Y-78746391D01*
X151781443Y-78740854D01*
X151691751Y-78585500D01*
X151360964Y-78585500D01*
X151347877Y-78593998D01*
X151342342Y-78597390D01*
X151297070Y-78623526D01*
X151291364Y-78626624D01*
X151256383Y-78644446D01*
X151250528Y-78647238D01*
X151029849Y-78745493D01*
X151023852Y-78747977D01*
X150987171Y-78762058D01*
X150981046Y-78764227D01*
X150931326Y-78780380D01*
X150925105Y-78782223D01*
X150887172Y-78792387D01*
X150880860Y-78793902D01*
X150644580Y-78844124D01*
X150638197Y-78845307D01*
X150599418Y-78851449D01*
X150592988Y-78852296D01*
X150541000Y-78857763D01*
X150534523Y-78858273D01*
X150495283Y-78860330D01*
X150488792Y-78860500D01*
X150285947Y-78860500D01*
X148995500Y-78860500D01*
X148995499Y-76949499D01*
X149015184Y-76882461D01*
X149067987Y-76836706D01*
X149119499Y-76825500D01*
X149339171Y-76825500D01*
X149406210Y-76845185D01*
X149451965Y-76897989D01*
X149461354Y-76955502D01*
X149462540Y-76955502D01*
X149462540Y-76961997D01*
X149462540Y-76962000D01*
X149482326Y-77150256D01*
X149482327Y-77150259D01*
X149540818Y-77330277D01*
X149540821Y-77330284D01*
X149635467Y-77494216D01*
X149737185Y-77607185D01*
X149762129Y-77634888D01*
X149915265Y-77746148D01*
X149915270Y-77746151D01*
X150088192Y-77823142D01*
X150088197Y-77823144D01*
X150273354Y-77862500D01*
X150273355Y-77862500D01*
X150462644Y-77862500D01*
X150462646Y-77862500D01*
X150647803Y-77823144D01*
X150820730Y-77746151D01*
X150973871Y-77634888D01*
X150976788Y-77631647D01*
X150979600Y-77628526D01*
X151039087Y-77591879D01*
X151071748Y-77587500D01*
X152337632Y-77587500D01*
X152404671Y-77607185D01*
X152450426Y-77659989D01*
X152460952Y-77698535D01*
X152479526Y-77875256D01*
X152479527Y-77875259D01*
X152538018Y-78055277D01*
X152538021Y-78055284D01*
X152632667Y-78219216D01*
X152692129Y-78285255D01*
X152759329Y-78359888D01*
X152912465Y-78471148D01*
X152912470Y-78471151D01*
X153085392Y-78548142D01*
X153085397Y-78548144D01*
X153270554Y-78587500D01*
X153329748Y-78587500D01*
X153396787Y-78607185D01*
X153417429Y-78623819D01*
X154335616Y-79542006D01*
X154335645Y-79542037D01*
X154425863Y-79632255D01*
X154425867Y-79632258D01*
X154528307Y-79700707D01*
X154528316Y-79700712D01*
X154549339Y-79709420D01*
X154642148Y-79747863D01*
X154654439Y-79750307D01*
X154660160Y-79751446D01*
X154660173Y-79751448D01*
X154660187Y-79751451D01*
X154762991Y-79771899D01*
X154762992Y-79771900D01*
X154762993Y-79771900D01*
X154762994Y-79771900D01*
X157690652Y-79771900D01*
X157757691Y-79791585D01*
X157782800Y-79812926D01*
X157788526Y-79819285D01*
X157788530Y-79819289D01*
X157941665Y-79930548D01*
X157941670Y-79930551D01*
X158114592Y-80007542D01*
X158114597Y-80007544D01*
X158299754Y-80046900D01*
X158299755Y-80046900D01*
X158489044Y-80046900D01*
X158489046Y-80046900D01*
X158674203Y-80007544D01*
X158847130Y-79930551D01*
X159000271Y-79819288D01*
X159126933Y-79678616D01*
X159221579Y-79514684D01*
X159280074Y-79334656D01*
X159299860Y-79146400D01*
X162010140Y-79146400D01*
X162029926Y-79334656D01*
X162029927Y-79334659D01*
X162088418Y-79514677D01*
X162088421Y-79514684D01*
X162183067Y-79678616D01*
X162297312Y-79805498D01*
X162309729Y-79819288D01*
X162462865Y-79930548D01*
X162462870Y-79930551D01*
X162635792Y-80007542D01*
X162635797Y-80007544D01*
X162820954Y-80046900D01*
X162820955Y-80046900D01*
X163010244Y-80046900D01*
X163010246Y-80046900D01*
X163195403Y-80007544D01*
X163368330Y-79930551D01*
X163521471Y-79819288D01*
X163524388Y-79816047D01*
X163527200Y-79812926D01*
X163586687Y-79776279D01*
X163619348Y-79771900D01*
X164120208Y-79771900D01*
X164120208Y-79771899D01*
X164223013Y-79751451D01*
X164241052Y-79747863D01*
X164291096Y-79727134D01*
X164354886Y-79700712D01*
X164424581Y-79654142D01*
X164457333Y-79632258D01*
X164544458Y-79545133D01*
X164544458Y-79545131D01*
X164554666Y-79534924D01*
X164554668Y-79534921D01*
X165279353Y-78810235D01*
X165340674Y-78776752D01*
X165399125Y-78778143D01*
X165399271Y-78778182D01*
X165499592Y-78805063D01*
X165687918Y-78821539D01*
X165734999Y-78825659D01*
X165735000Y-78825659D01*
X165735001Y-78825659D01*
X165774234Y-78822226D01*
X165970408Y-78805063D01*
X166198663Y-78743903D01*
X166412830Y-78644035D01*
X166606401Y-78508495D01*
X166773495Y-78341401D01*
X166909035Y-78147830D01*
X167008903Y-77933663D01*
X167070063Y-77705408D01*
X167090659Y-77470000D01*
X167085020Y-77405553D01*
X167076036Y-77302864D01*
X167070063Y-77234592D01*
X167013401Y-77023124D01*
X167008905Y-77006344D01*
X167008904Y-77006343D01*
X167008903Y-77006337D01*
X166909035Y-76792171D01*
X166833994Y-76685000D01*
X166773494Y-76598597D01*
X166606402Y-76431506D01*
X166606396Y-76431501D01*
X166420842Y-76301575D01*
X166377217Y-76246998D01*
X166370023Y-76177500D01*
X166401546Y-76115145D01*
X166420842Y-76098425D01*
X166572822Y-75992007D01*
X166606401Y-75968495D01*
X166773495Y-75801401D01*
X166909035Y-75607830D01*
X167008903Y-75393663D01*
X167070063Y-75165408D01*
X167090659Y-74930000D01*
X167070063Y-74694592D01*
X167008903Y-74466337D01*
X166909035Y-74252171D01*
X166899088Y-74237964D01*
X166773494Y-74058597D01*
X166606402Y-73891506D01*
X166606401Y-73891505D01*
X166420405Y-73761269D01*
X166376781Y-73706692D01*
X166369588Y-73637193D01*
X166401110Y-73574839D01*
X166420405Y-73558119D01*
X166606082Y-73428105D01*
X166773105Y-73261082D01*
X166908600Y-73067578D01*
X167008429Y-72853492D01*
X167008432Y-72853486D01*
X167065636Y-72640000D01*
X166168012Y-72640000D01*
X166200925Y-72582993D01*
X166235000Y-72455826D01*
X166235000Y-72324174D01*
X166200925Y-72197007D01*
X166168012Y-72140000D01*
X167065636Y-72140000D01*
X167065635Y-72139999D01*
X167008432Y-71926513D01*
X167008429Y-71926507D01*
X166908600Y-71712422D01*
X166908599Y-71712420D01*
X166773113Y-71518926D01*
X166773108Y-71518920D01*
X166651053Y-71396865D01*
X166617568Y-71335542D01*
X166622552Y-71265850D01*
X166664424Y-71209917D01*
X166695400Y-71193002D01*
X166784847Y-71159641D01*
X166827326Y-71143798D01*
X166827326Y-71143797D01*
X166827331Y-71143796D01*
X166942546Y-71057546D01*
X167028796Y-70942331D01*
X167079091Y-70807483D01*
X167085500Y-70747873D01*
X167085499Y-68952128D01*
X167079091Y-68892517D01*
X167060564Y-68842844D01*
X167028797Y-68757671D01*
X167028793Y-68757664D01*
X166942547Y-68642455D01*
X166942544Y-68642452D01*
X166827335Y-68556206D01*
X166827328Y-68556202D01*
X166692482Y-68505908D01*
X166692483Y-68505908D01*
X166632883Y-68499501D01*
X166632881Y-68499500D01*
X166632873Y-68499500D01*
X166632864Y-68499500D01*
X164837129Y-68499500D01*
X164837123Y-68499501D01*
X164777516Y-68505908D01*
X164642671Y-68556202D01*
X164642664Y-68556206D01*
X164527455Y-68642452D01*
X164527452Y-68642455D01*
X164441206Y-68757664D01*
X164441202Y-68757671D01*
X164390908Y-68892517D01*
X164384501Y-68952116D01*
X164384501Y-68952123D01*
X164384500Y-68952135D01*
X164384500Y-70747870D01*
X164384501Y-70747876D01*
X164390908Y-70807483D01*
X164441202Y-70942328D01*
X164441206Y-70942335D01*
X164527452Y-71057544D01*
X164527455Y-71057547D01*
X164642664Y-71143793D01*
X164642671Y-71143797D01*
X164704902Y-71167007D01*
X164774598Y-71193002D01*
X164830531Y-71234873D01*
X164854949Y-71300337D01*
X164840098Y-71368610D01*
X164818947Y-71396865D01*
X164696886Y-71518926D01*
X164561400Y-71712420D01*
X164561399Y-71712422D01*
X164461570Y-71926507D01*
X164461567Y-71926513D01*
X164404364Y-72139999D01*
X164404364Y-72140000D01*
X165301988Y-72140000D01*
X165269075Y-72197007D01*
X165235000Y-72324174D01*
X165235000Y-72455826D01*
X165269075Y-72582993D01*
X165301988Y-72640000D01*
X164404364Y-72640000D01*
X164461567Y-72853486D01*
X164461570Y-72853492D01*
X164561399Y-73067578D01*
X164696894Y-73261082D01*
X164863917Y-73428105D01*
X165049595Y-73558119D01*
X165093219Y-73612696D01*
X165100412Y-73682195D01*
X165068890Y-73744549D01*
X165049595Y-73761269D01*
X164863594Y-73891508D01*
X164696505Y-74058597D01*
X164560965Y-74252169D01*
X164560964Y-74252171D01*
X164461098Y-74466335D01*
X164461094Y-74466344D01*
X164399938Y-74694586D01*
X164399936Y-74694596D01*
X164379341Y-74929999D01*
X164379341Y-74930000D01*
X164399936Y-75165403D01*
X164399938Y-75165413D01*
X164461094Y-75393655D01*
X164461096Y-75393659D01*
X164461097Y-75393663D01*
X164516159Y-75511744D01*
X164560965Y-75607830D01*
X164560967Y-75607834D01*
X164696501Y-75801395D01*
X164696506Y-75801402D01*
X164863597Y-75968493D01*
X164863603Y-75968498D01*
X165049158Y-76098425D01*
X165092783Y-76153002D01*
X165099977Y-76222500D01*
X165068454Y-76284855D01*
X165049158Y-76301575D01*
X164863597Y-76431505D01*
X164696505Y-76598597D01*
X164560965Y-76792169D01*
X164560964Y-76792171D01*
X164461098Y-77006335D01*
X164461094Y-77006344D01*
X164399938Y-77234586D01*
X164399936Y-77234596D01*
X164379341Y-77469995D01*
X164379341Y-77470000D01*
X164399936Y-77705403D01*
X164399938Y-77705413D01*
X164426856Y-77805872D01*
X164425193Y-77875722D01*
X164394762Y-77925646D01*
X163835829Y-78484581D01*
X163774506Y-78518066D01*
X163748148Y-78520900D01*
X163619348Y-78520900D01*
X163552309Y-78501215D01*
X163527200Y-78479874D01*
X163521473Y-78473514D01*
X163521469Y-78473510D01*
X163368334Y-78362251D01*
X163368329Y-78362248D01*
X163195407Y-78285257D01*
X163195402Y-78285255D01*
X163049601Y-78254265D01*
X163010246Y-78245900D01*
X162820954Y-78245900D01*
X162788497Y-78252798D01*
X162635797Y-78285255D01*
X162635792Y-78285257D01*
X162462870Y-78362248D01*
X162462865Y-78362251D01*
X162309729Y-78473511D01*
X162183066Y-78614185D01*
X162088421Y-78778115D01*
X162088421Y-78778116D01*
X162030751Y-78955606D01*
X162029926Y-78958144D01*
X162010140Y-79146400D01*
X159299860Y-79146400D01*
X159280074Y-78958144D01*
X159221579Y-78778116D01*
X159126933Y-78614184D01*
X159000271Y-78473512D01*
X159000270Y-78473511D01*
X158847134Y-78362251D01*
X158847129Y-78362248D01*
X158674207Y-78285257D01*
X158674202Y-78285255D01*
X158528401Y-78254265D01*
X158489046Y-78245900D01*
X158299754Y-78245900D01*
X158267297Y-78252798D01*
X158114597Y-78285255D01*
X158114592Y-78285257D01*
X157941670Y-78362248D01*
X157941665Y-78362251D01*
X157788530Y-78473510D01*
X157788526Y-78473514D01*
X157782800Y-78479874D01*
X157723313Y-78516521D01*
X157690652Y-78520900D01*
X155135052Y-78520900D01*
X155068013Y-78501215D01*
X155047371Y-78484581D01*
X154361971Y-77799181D01*
X154328486Y-77737858D01*
X154333470Y-77668166D01*
X154375342Y-77612233D01*
X154440806Y-77587816D01*
X154449652Y-77587500D01*
X155130004Y-77587500D01*
X155130004Y-77587499D01*
X155225318Y-77568541D01*
X155225319Y-77568541D01*
X155233905Y-77566832D01*
X155250848Y-77563463D01*
X155300892Y-77542734D01*
X155364682Y-77516312D01*
X155433991Y-77470000D01*
X155467129Y-77447858D01*
X155554254Y-77360733D01*
X155554254Y-77360731D01*
X155564462Y-77350524D01*
X155564463Y-77350521D01*
X156569412Y-76345573D01*
X156630731Y-76312091D01*
X156700423Y-76317075D01*
X156756356Y-76358947D01*
X156777879Y-76415276D01*
X156779492Y-76414992D01*
X156780432Y-76420326D01*
X156841566Y-76648483D01*
X156841570Y-76648492D01*
X156941399Y-76862578D01*
X157076894Y-77056082D01*
X157243917Y-77223105D01*
X157437421Y-77358600D01*
X157651507Y-77458429D01*
X157651516Y-77458433D01*
X157865000Y-77515634D01*
X157865000Y-76618012D01*
X157922007Y-76650925D01*
X158049174Y-76685000D01*
X158180826Y-76685000D01*
X158307993Y-76650925D01*
X158365000Y-76618012D01*
X158365000Y-77515633D01*
X158578483Y-77458433D01*
X158578492Y-77458429D01*
X158792578Y-77358600D01*
X158986078Y-77223108D01*
X159108133Y-77101053D01*
X159169456Y-77067568D01*
X159239148Y-77072552D01*
X159295082Y-77114423D01*
X159311997Y-77145401D01*
X159361202Y-77277328D01*
X159361206Y-77277335D01*
X159447452Y-77392544D01*
X159447455Y-77392547D01*
X159562664Y-77478793D01*
X159562671Y-77478797D01*
X159697517Y-77529091D01*
X159697516Y-77529091D01*
X159704444Y-77529835D01*
X159757127Y-77535500D01*
X161552872Y-77535499D01*
X161612483Y-77529091D01*
X161747331Y-77478796D01*
X161862546Y-77392546D01*
X161948796Y-77277331D01*
X161999091Y-77142483D01*
X162005500Y-77082873D01*
X162005499Y-75287128D01*
X161999091Y-75227517D01*
X161996441Y-75220413D01*
X161971211Y-75152768D01*
X162994806Y-75152768D01*
X162999212Y-75193755D01*
X162999523Y-75197064D01*
X163001135Y-75217101D01*
X163001357Y-75220413D01*
X163002786Y-75247095D01*
X163002919Y-75250413D01*
X163003455Y-75270464D01*
X163003499Y-75273778D01*
X163003500Y-76654768D01*
X163527009Y-76654768D01*
X163530747Y-76644500D01*
X163532705Y-76639465D01*
X163545223Y-76609244D01*
X163547402Y-76604292D01*
X163665676Y-76350655D01*
X163668070Y-76345801D01*
X163683186Y-76316765D01*
X163685788Y-76312022D01*
X163707567Y-76274301D01*
X163710372Y-76269679D01*
X163727954Y-76242080D01*
X163730960Y-76237581D01*
X163757274Y-76199999D01*
X163730957Y-76162415D01*
X163727950Y-76157916D01*
X163710358Y-76130302D01*
X163707549Y-76125673D01*
X163685771Y-76087949D01*
X163683171Y-76083209D01*
X163668064Y-76054188D01*
X163665672Y-76049337D01*
X163547402Y-75795708D01*
X163545223Y-75790756D01*
X163532705Y-75760535D01*
X163530747Y-75755500D01*
X163515846Y-75714568D01*
X163514105Y-75709440D01*
X163504256Y-75678205D01*
X163502741Y-75673008D01*
X163430305Y-75402666D01*
X163429019Y-75397412D01*
X163421934Y-75365454D01*
X163420879Y-75360146D01*
X163413316Y-75317251D01*
X163412493Y-75311904D01*
X163408222Y-75279461D01*
X163407633Y-75274084D01*
X163397019Y-75152768D01*
X162994806Y-75152768D01*
X161971211Y-75152768D01*
X161948797Y-75092671D01*
X161948793Y-75092664D01*
X161862547Y-74977455D01*
X161862544Y-74977452D01*
X161747335Y-74891206D01*
X161747328Y-74891202D01*
X161615917Y-74842189D01*
X161559983Y-74800318D01*
X161535566Y-74734853D01*
X161550418Y-74666580D01*
X161571563Y-74638332D01*
X161693495Y-74516401D01*
X161829035Y-74322830D01*
X161907404Y-74154768D01*
X162949754Y-74154768D01*
X163512778Y-74154768D01*
X163514105Y-74150560D01*
X163515846Y-74145432D01*
X163530747Y-74104500D01*
X163532705Y-74099465D01*
X163545223Y-74069244D01*
X163547402Y-74064292D01*
X163665676Y-73810655D01*
X163668070Y-73805801D01*
X163683186Y-73776765D01*
X163685788Y-73772022D01*
X163707567Y-73734301D01*
X163710372Y-73729679D01*
X163727954Y-73702080D01*
X163730960Y-73697581D01*
X163757578Y-73659564D01*
X163731392Y-73622166D01*
X163728384Y-73617664D01*
X163710792Y-73590048D01*
X163707987Y-73585424D01*
X163686208Y-73547700D01*
X163683606Y-73542958D01*
X163668499Y-73513937D01*
X163666107Y-73509086D01*
X163547874Y-73255535D01*
X163545696Y-73250584D01*
X163533178Y-73220364D01*
X163531218Y-73215326D01*
X163516318Y-73174395D01*
X163514578Y-73169271D01*
X163504729Y-73138038D01*
X163503214Y-73132840D01*
X163417264Y-72812073D01*
X163405507Y-72871183D01*
X163404173Y-72877123D01*
X163395223Y-72912853D01*
X163393599Y-72918720D01*
X163379372Y-72965618D01*
X163377463Y-72971398D01*
X163365060Y-73006060D01*
X163362870Y-73011736D01*
X163340013Y-73066916D01*
X163340014Y-73066917D01*
X163287572Y-73193527D01*
X163282367Y-73204530D01*
X163247622Y-73269531D01*
X163241365Y-73279970D01*
X163211289Y-73324979D01*
X163132052Y-73443565D01*
X163128549Y-73448539D01*
X163106616Y-73478113D01*
X163102871Y-73482912D01*
X163071782Y-73520795D01*
X163067805Y-73525405D01*
X163043072Y-73552693D01*
X163038876Y-73557101D01*
X163007270Y-73588706D01*
X163008541Y-73617810D01*
X163008659Y-73623220D01*
X163008659Y-73666780D01*
X163008541Y-73672190D01*
X163007113Y-73704890D01*
X163006759Y-73710287D01*
X162982367Y-73989084D01*
X162981778Y-73994461D01*
X162977507Y-74026904D01*
X162976684Y-74032251D01*
X162969121Y-74075146D01*
X162968066Y-74080454D01*
X162960981Y-74112412D01*
X162959695Y-74117666D01*
X162949754Y-74154768D01*
X161907404Y-74154768D01*
X161928903Y-74108663D01*
X161990063Y-73880408D01*
X162010659Y-73645000D01*
X162008753Y-73623220D01*
X162002583Y-73552693D01*
X161990063Y-73409592D01*
X161972428Y-73343780D01*
X161963143Y-73309125D01*
X161964806Y-73239276D01*
X161995235Y-73189353D01*
X162228729Y-72955860D01*
X162228733Y-72955858D01*
X162315858Y-72868733D01*
X162360945Y-72801256D01*
X162381497Y-72770498D01*
X162381499Y-72770495D01*
X162382494Y-72769004D01*
X162384311Y-72766286D01*
X162384312Y-72766285D01*
X162417981Y-72685000D01*
X162431463Y-72652452D01*
X162452549Y-72546443D01*
X162455500Y-72531607D01*
X162455500Y-72408393D01*
X162455500Y-65278394D01*
X162431463Y-65157548D01*
X162429483Y-65152768D01*
X163445871Y-65152768D01*
X163446294Y-65156195D01*
X163451097Y-65204964D01*
X163451545Y-65211035D01*
X163453351Y-65247810D01*
X163453500Y-65253892D01*
X163453500Y-66654768D01*
X164287947Y-66654768D01*
X165285947Y-66654768D01*
X166520573Y-66654768D01*
X166520573Y-65152768D01*
X165285947Y-65152768D01*
X165285947Y-66654768D01*
X164287947Y-66654768D01*
X164287947Y-65152768D01*
X163445871Y-65152768D01*
X162429483Y-65152768D01*
X162401109Y-65084267D01*
X162393661Y-65066285D01*
X162384315Y-65043721D01*
X162384308Y-65043708D01*
X162315858Y-64941267D01*
X162315855Y-64941263D01*
X162284319Y-64909727D01*
X162250834Y-64848404D01*
X162248000Y-64822046D01*
X162248000Y-64264157D01*
X162247999Y-64264144D01*
X162237587Y-64162225D01*
X162182862Y-63997075D01*
X162182858Y-63997069D01*
X162182857Y-63997066D01*
X162091528Y-63849000D01*
X162091525Y-63848996D01*
X161968503Y-63725974D01*
X161968499Y-63725971D01*
X161820433Y-63634642D01*
X161820427Y-63634639D01*
X161820425Y-63634638D01*
X161769732Y-63617840D01*
X161655276Y-63579913D01*
X161553355Y-63569500D01*
X161553348Y-63569500D01*
X160966652Y-63569500D01*
X160966644Y-63569500D01*
X160864723Y-63579913D01*
X160699577Y-63634637D01*
X160699566Y-63634642D01*
X160551500Y-63725971D01*
X160551496Y-63725974D01*
X160428474Y-63848996D01*
X160428471Y-63849000D01*
X160428038Y-63849703D01*
X160427614Y-63850083D01*
X160423993Y-63854664D01*
X160423210Y-63854045D01*
X160376090Y-63896428D01*
X160307128Y-63907649D01*
X160243046Y-63879806D01*
X160221157Y-63854544D01*
X160221007Y-63854664D01*
X160218359Y-63851315D01*
X160216962Y-63849703D01*
X160216528Y-63849000D01*
X160216527Y-63848999D01*
X160216526Y-63848997D01*
X160093503Y-63725974D01*
X160093502Y-63725973D01*
X160093500Y-63725971D01*
X160069401Y-63711106D01*
X160022677Y-63659157D01*
X160010500Y-63605569D01*
X160010500Y-63166617D01*
X162820373Y-63166617D01*
X162822701Y-63169084D01*
X162851712Y-63201682D01*
X162856349Y-63207208D01*
X162892379Y-63252774D01*
X162896687Y-63258560D01*
X162921726Y-63294318D01*
X162925690Y-63300346D01*
X163047527Y-63497873D01*
X163051136Y-63504123D01*
X163071854Y-63542550D01*
X163075091Y-63548995D01*
X163099639Y-63601642D01*
X163102495Y-63608264D01*
X163118604Y-63648814D01*
X163121070Y-63655590D01*
X163193497Y-63874157D01*
X163195449Y-63880635D01*
X163206185Y-63920131D01*
X163207781Y-63926704D01*
X163219179Y-63979955D01*
X163220412Y-63986598D01*
X163226782Y-64027005D01*
X163227653Y-64033713D01*
X163240020Y-64154768D01*
X164287947Y-64154768D01*
X165285947Y-64154768D01*
X166520573Y-64154768D01*
X166520573Y-63810149D01*
X165363192Y-62652768D01*
X165285947Y-62652768D01*
X165285947Y-64154768D01*
X164287947Y-64154768D01*
X164287947Y-62652768D01*
X163113102Y-62652768D01*
X163095523Y-62705818D01*
X163093056Y-62712596D01*
X163076946Y-62753147D01*
X163074091Y-62759766D01*
X163049544Y-62812412D01*
X163046306Y-62818860D01*
X163025588Y-62857285D01*
X163021981Y-62863532D01*
X162899379Y-63062303D01*
X162895413Y-63068333D01*
X162870372Y-63104093D01*
X162866066Y-63109877D01*
X162830036Y-63155444D01*
X162825398Y-63160971D01*
X162820373Y-63166617D01*
X160010500Y-63166617D01*
X160010500Y-62772087D01*
X160030185Y-62705048D01*
X160069402Y-62666548D01*
X160116156Y-62637712D01*
X160209819Y-62544049D01*
X160271142Y-62510564D01*
X160340834Y-62515548D01*
X160385181Y-62544049D01*
X160478844Y-62637712D01*
X160628166Y-62729814D01*
X160794703Y-62784999D01*
X160897491Y-62795500D01*
X161522508Y-62795499D01*
X161522516Y-62795498D01*
X161522519Y-62795498D01*
X161599149Y-62787670D01*
X161625297Y-62784999D01*
X161791834Y-62729814D01*
X161941156Y-62637712D01*
X162065212Y-62513656D01*
X162157314Y-62364334D01*
X162212499Y-62197797D01*
X162223000Y-62095009D01*
X162222999Y-61094992D01*
X162222080Y-61086000D01*
X162219577Y-61061500D01*
X163220510Y-61061500D01*
X163220959Y-61079143D01*
X163220999Y-61082295D01*
X163221000Y-61654768D01*
X164287947Y-61654768D01*
X164287947Y-61577523D01*
X163771924Y-61061500D01*
X163220510Y-61061500D01*
X162219577Y-61061500D01*
X162212499Y-60992203D01*
X162212498Y-60992200D01*
X162211935Y-60990500D01*
X162157314Y-60825666D01*
X162065212Y-60676344D01*
X161941156Y-60552288D01*
X161922066Y-60540513D01*
X161875344Y-60488567D01*
X161865548Y-60459171D01*
X161859540Y-60428964D01*
X161837111Y-60374815D01*
X161808623Y-60306038D01*
X161808622Y-60306037D01*
X161808620Y-60306031D01*
X161775450Y-60256389D01*
X161754574Y-60189713D01*
X161773059Y-60122333D01*
X161825038Y-60075643D01*
X161878554Y-60063500D01*
X164072843Y-60063500D01*
X164077268Y-60063579D01*
X164131987Y-60065533D01*
X164131997Y-60065530D01*
X164140077Y-60064760D01*
X164140116Y-60065178D01*
X164141886Y-60064977D01*
X164141832Y-60064561D01*
X164149888Y-60063500D01*
X164149892Y-60063500D01*
X164202823Y-60049316D01*
X164207014Y-60048274D01*
X164254938Y-60037250D01*
X164324680Y-60041405D01*
G37*
%TD.AperFunction*%
%TA.AperFunction,Conductor*%
G36*
X132262082Y-81605429D02*
G01*
X132306430Y-81633930D01*
X132337500Y-81665000D01*
X133226000Y-81665000D01*
X133293039Y-81684685D01*
X133338794Y-81737489D01*
X133350000Y-81789000D01*
X133350000Y-82041000D01*
X133330315Y-82108039D01*
X133277511Y-82153794D01*
X133226000Y-82165000D01*
X132337501Y-82165000D01*
X132306431Y-82196070D01*
X132245107Y-82229554D01*
X132175416Y-82224569D01*
X132131069Y-82196069D01*
X132100000Y-82165000D01*
X131211500Y-82165000D01*
X131144461Y-82145315D01*
X131098706Y-82092511D01*
X131087500Y-82041000D01*
X131087500Y-81789000D01*
X131107185Y-81721961D01*
X131159989Y-81676206D01*
X131211500Y-81665000D01*
X132099997Y-81665000D01*
X132131067Y-81633930D01*
X132192390Y-81600445D01*
X132262082Y-81605429D01*
G37*
%TD.AperFunction*%
%TA.AperFunction,Conductor*%
G36*
X133659833Y-71730653D02*
G01*
X133715767Y-71772524D01*
X133740184Y-71837989D01*
X133740500Y-71846835D01*
X133740500Y-72959608D01*
X133742845Y-72971398D01*
X133749500Y-73004854D01*
X133764537Y-73080452D01*
X133770770Y-73095500D01*
X133770770Y-73095501D01*
X133811685Y-73194281D01*
X133811687Y-73194285D01*
X133841774Y-73239311D01*
X133841775Y-73239313D01*
X133880140Y-73296731D01*
X133880141Y-73296732D01*
X133880142Y-73296733D01*
X133967267Y-73383858D01*
X133967268Y-73383858D01*
X133974335Y-73390925D01*
X133974334Y-73390925D01*
X133974338Y-73390928D01*
X135141729Y-74558319D01*
X135175214Y-74619642D01*
X135170230Y-74689334D01*
X135128358Y-74745267D01*
X135062894Y-74769684D01*
X135054048Y-74770000D01*
X134740000Y-74770000D01*
X134740000Y-75441000D01*
X134720315Y-75508039D01*
X134667511Y-75553794D01*
X134616000Y-75565000D01*
X134490000Y-75565000D01*
X134490000Y-75691000D01*
X134470315Y-75758039D01*
X134417511Y-75803794D01*
X134366000Y-75815000D01*
X133005000Y-75815000D01*
X133005000Y-75823863D01*
X133019768Y-75936028D01*
X133019769Y-75936032D01*
X133077578Y-76075598D01*
X133114797Y-76124102D01*
X133139991Y-76189272D01*
X133125953Y-76257716D01*
X133114798Y-76275074D01*
X133077143Y-76324147D01*
X133019282Y-76463837D01*
X133019281Y-76463841D01*
X133004500Y-76576105D01*
X133004500Y-76956085D01*
X132984815Y-77023124D01*
X132968181Y-77043766D01*
X132781270Y-77230677D01*
X132781267Y-77230680D01*
X132737704Y-77274242D01*
X132694142Y-77317804D01*
X132679165Y-77340218D01*
X132664290Y-77362482D01*
X132664289Y-77362483D01*
X132625690Y-77420248D01*
X132625685Y-77420257D01*
X132603347Y-77474189D01*
X132603347Y-77474190D01*
X132578538Y-77534083D01*
X132578535Y-77534093D01*
X132554500Y-77654927D01*
X132554500Y-79981611D01*
X132578535Y-80102444D01*
X132578540Y-80102461D01*
X132625684Y-80216278D01*
X132625687Y-80216284D01*
X132635546Y-80231038D01*
X132635547Y-80231040D01*
X132694141Y-80318732D01*
X132694144Y-80318736D01*
X132785586Y-80410178D01*
X132785608Y-80410198D01*
X132917410Y-80542000D01*
X132950895Y-80603323D01*
X132945911Y-80673015D01*
X132904039Y-80728948D01*
X132868734Y-80747387D01*
X132768378Y-80780642D01*
X132768375Y-80780643D01*
X132619154Y-80872684D01*
X132495184Y-80996654D01*
X132403143Y-81145875D01*
X132403141Y-81145880D01*
X132347994Y-81312302D01*
X132347993Y-81312309D01*
X132342107Y-81369920D01*
X132315710Y-81434612D01*
X132258529Y-81474762D01*
X132188718Y-81477624D01*
X132128441Y-81442290D01*
X132096837Y-81379976D01*
X132095391Y-81369917D01*
X132089505Y-81312303D01*
X132034358Y-81145880D01*
X132034356Y-81145875D01*
X131959417Y-81024380D01*
X131940977Y-80956987D01*
X131955599Y-80900828D01*
X131959192Y-80894106D01*
X131966464Y-80880501D01*
X132020815Y-80701331D01*
X132039167Y-80515000D01*
X132020815Y-80328669D01*
X131966464Y-80149499D01*
X131941322Y-80102461D01*
X131878205Y-79984376D01*
X131878203Y-79984373D01*
X131759425Y-79839642D01*
X131614694Y-79720864D01*
X131614691Y-79720862D01*
X131449174Y-79632392D01*
X131399330Y-79583430D01*
X131383869Y-79515292D01*
X131407701Y-79449613D01*
X131419932Y-79435367D01*
X131899695Y-78955606D01*
X131910639Y-78939225D01*
X131932087Y-78907129D01*
X131971917Y-78847517D01*
X131973620Y-78844969D01*
X132001311Y-78778116D01*
X132024541Y-78722036D01*
X132050500Y-78591531D01*
X132050500Y-78458469D01*
X132050500Y-75306136D01*
X133005000Y-75306136D01*
X133005000Y-75315000D01*
X134240000Y-75315000D01*
X134240000Y-74770000D01*
X133541136Y-74770000D01*
X133428971Y-74784768D01*
X133428967Y-74784769D01*
X133289401Y-74842578D01*
X133169547Y-74934547D01*
X133077578Y-75054401D01*
X133019769Y-75193967D01*
X133019768Y-75193971D01*
X133005000Y-75306136D01*
X132050500Y-75306136D01*
X132050500Y-74368469D01*
X132050500Y-74368466D01*
X132024541Y-74237969D01*
X132024540Y-74237968D01*
X132024540Y-74237964D01*
X132019169Y-74224998D01*
X131973623Y-74115038D01*
X131973622Y-74115037D01*
X131973620Y-74115031D01*
X131966583Y-74104500D01*
X131899698Y-74004398D01*
X131899697Y-74004397D01*
X131899695Y-74004394D01*
X131805606Y-73910305D01*
X130322482Y-72427181D01*
X130288997Y-72365858D01*
X130293981Y-72296166D01*
X130335853Y-72240233D01*
X130401317Y-72215816D01*
X130410163Y-72215500D01*
X132859204Y-72215500D01*
X132859205Y-72215499D01*
X132989708Y-72189541D01*
X133112641Y-72138620D01*
X133223278Y-72064695D01*
X133528819Y-71759154D01*
X133590142Y-71725669D01*
X133659833Y-71730653D01*
G37*
%TD.AperFunction*%
%TA.AperFunction,Conductor*%
G36*
X156542587Y-72595185D02*
G01*
X156563229Y-72611819D01*
X156817016Y-72865606D01*
X156817045Y-72865637D01*
X156872450Y-72921042D01*
X156905935Y-72982365D01*
X156900951Y-73052057D01*
X156897151Y-73061127D01*
X156841099Y-73181330D01*
X156841094Y-73181344D01*
X156779938Y-73409586D01*
X156779936Y-73409596D01*
X156759341Y-73644999D01*
X156759341Y-73645005D01*
X156762753Y-73684016D01*
X156748985Y-73752515D01*
X156726906Y-73782501D01*
X154971229Y-75538181D01*
X154909906Y-75571666D01*
X154883548Y-75574500D01*
X152818868Y-75574500D01*
X152751829Y-75554815D01*
X152706074Y-75502011D01*
X152695547Y-75463462D01*
X152693186Y-75441000D01*
X152676974Y-75286745D01*
X152618479Y-75106717D01*
X152523833Y-74942785D01*
X152397171Y-74802113D01*
X152397170Y-74802112D01*
X152244032Y-74690850D01*
X152186563Y-74665263D01*
X152133326Y-74620012D01*
X152113006Y-74553163D01*
X152113000Y-74551984D01*
X152113000Y-74202087D01*
X152132685Y-74135048D01*
X152171902Y-74096548D01*
X152218656Y-74067712D01*
X152312675Y-73973692D01*
X152373994Y-73940210D01*
X152443686Y-73945194D01*
X152488034Y-73973695D01*
X152581654Y-74067315D01*
X152730875Y-74159356D01*
X152730880Y-74159358D01*
X152897302Y-74214505D01*
X152897309Y-74214506D01*
X153000019Y-74224999D01*
X153562500Y-74224999D01*
X153624972Y-74224999D01*
X153624986Y-74224998D01*
X153727697Y-74214505D01*
X153894119Y-74159358D01*
X153894124Y-74159356D01*
X154043345Y-74067315D01*
X154167315Y-73943345D01*
X154259356Y-73794124D01*
X154259358Y-73794119D01*
X154314505Y-73627697D01*
X154314506Y-73627690D01*
X154324999Y-73524986D01*
X154325000Y-73524973D01*
X154325000Y-73275000D01*
X153562500Y-73275000D01*
X153562500Y-74224999D01*
X153000019Y-74224999D01*
X153062499Y-74224998D01*
X153062500Y-74224998D01*
X153062500Y-73149000D01*
X153082185Y-73081961D01*
X153134989Y-73036206D01*
X153186500Y-73025000D01*
X153312500Y-73025000D01*
X153312500Y-72899000D01*
X153332185Y-72831961D01*
X153384989Y-72786206D01*
X153436500Y-72775000D01*
X154324999Y-72775000D01*
X154324999Y-72699500D01*
X154344684Y-72632461D01*
X154397488Y-72586706D01*
X154448999Y-72575500D01*
X156475548Y-72575500D01*
X156542587Y-72595185D01*
G37*
%TD.AperFunction*%
%TA.AperFunction,Conductor*%
G36*
X125736926Y-59912586D02*
G01*
X125781273Y-59941087D01*
X125803686Y-59963500D01*
X125803689Y-59963502D01*
X125810135Y-59968448D01*
X125809879Y-59968780D01*
X125811312Y-59969840D01*
X125811556Y-59969499D01*
X125818174Y-59974211D01*
X125818176Y-59974213D01*
X125856468Y-59994534D01*
X125866521Y-59999869D01*
X125870395Y-60002014D01*
X125917816Y-60029393D01*
X125925327Y-60032504D01*
X125925165Y-60032893D01*
X125926821Y-60033545D01*
X125926969Y-60033150D01*
X125934584Y-60035991D01*
X125980192Y-60046481D01*
X125987943Y-60048264D01*
X125992189Y-60049320D01*
X126045108Y-60063500D01*
X126045111Y-60063500D01*
X126053168Y-60064561D01*
X126053113Y-60064977D01*
X126054883Y-60065178D01*
X126054923Y-60064760D01*
X126063003Y-60065530D01*
X126063013Y-60065533D01*
X126117732Y-60063579D01*
X126122157Y-60063500D01*
X127362085Y-60063500D01*
X127429124Y-60083185D01*
X127474879Y-60135989D01*
X127484823Y-60205147D01*
X127455798Y-60268703D01*
X127434064Y-60286838D01*
X127434607Y-60287537D01*
X127428438Y-60292321D01*
X127312321Y-60408438D01*
X127312314Y-60408447D01*
X127228718Y-60549801D01*
X127182899Y-60707513D01*
X127182704Y-60709998D01*
X127182705Y-60710000D01*
X129777295Y-60710000D01*
X129777295Y-60709998D01*
X129777100Y-60707513D01*
X129731281Y-60549801D01*
X129647685Y-60408447D01*
X129647678Y-60408438D01*
X129531561Y-60292321D01*
X129525393Y-60287537D01*
X129526823Y-60285693D01*
X129487114Y-60243170D01*
X129474606Y-60174429D01*
X129501248Y-60109838D01*
X129558581Y-60069904D01*
X129597915Y-60063500D01*
X134562085Y-60063500D01*
X134629124Y-60083185D01*
X134674879Y-60135989D01*
X134684823Y-60205147D01*
X134655798Y-60268703D01*
X134634064Y-60286838D01*
X134634607Y-60287537D01*
X134628438Y-60292321D01*
X134512321Y-60408438D01*
X134512314Y-60408447D01*
X134428718Y-60549801D01*
X134382899Y-60707513D01*
X134382704Y-60709998D01*
X134382705Y-60710000D01*
X135556000Y-60710000D01*
X135623039Y-60729685D01*
X135668794Y-60782489D01*
X135680000Y-60834000D01*
X135680000Y-61086000D01*
X135660315Y-61153039D01*
X135607511Y-61198794D01*
X135556000Y-61210000D01*
X134382705Y-61210000D01*
X134382704Y-61210001D01*
X134382899Y-61212486D01*
X134428719Y-61370200D01*
X134431815Y-61377354D01*
X134429802Y-61378224D01*
X134444233Y-61435105D01*
X134422073Y-61501367D01*
X134367606Y-61545129D01*
X134320319Y-61554500D01*
X134299467Y-61554500D01*
X134168969Y-61580458D01*
X134168959Y-61580461D01*
X134046038Y-61631376D01*
X134046025Y-61631383D01*
X133976057Y-61678135D01*
X133970515Y-61681838D01*
X133935391Y-61705306D01*
X133935390Y-61705307D01*
X131582518Y-64058181D01*
X131521195Y-64091666D01*
X131494837Y-64094500D01*
X129839681Y-64094500D01*
X129772642Y-64074815D01*
X129726887Y-64022011D01*
X129716943Y-63952853D01*
X129729272Y-63917824D01*
X129728185Y-63917354D01*
X129731280Y-63910200D01*
X129777100Y-63752486D01*
X129777295Y-63750001D01*
X129777295Y-63750000D01*
X127182705Y-63750000D01*
X127182704Y-63750001D01*
X127182899Y-63752486D01*
X127228718Y-63910198D01*
X127312314Y-64051552D01*
X127317100Y-64057722D01*
X127314640Y-64059629D01*
X127341210Y-64108288D01*
X127336226Y-64177980D01*
X127315162Y-64210781D01*
X127316699Y-64211974D01*
X127311915Y-64218140D01*
X127228255Y-64359603D01*
X127228254Y-64359606D01*
X127182402Y-64517426D01*
X127182401Y-64517432D01*
X127179500Y-64554298D01*
X127179500Y-64985701D01*
X127182401Y-65022567D01*
X127182402Y-65022573D01*
X127228254Y-65180393D01*
X127228255Y-65180396D01*
X127311917Y-65321862D01*
X127311923Y-65321870D01*
X127428129Y-65438076D01*
X127428133Y-65438079D01*
X127428135Y-65438081D01*
X127569602Y-65521744D01*
X127611224Y-65533836D01*
X127727426Y-65567597D01*
X127727429Y-65567597D01*
X127727431Y-65567598D01*
X127764306Y-65570500D01*
X127764314Y-65570500D01*
X129195686Y-65570500D01*
X129195694Y-65570500D01*
X129232569Y-65567598D01*
X129232571Y-65567597D01*
X129232573Y-65567597D01*
X129309793Y-65545162D01*
X129390398Y-65521744D01*
X129490121Y-65462767D01*
X129553242Y-65445500D01*
X130947180Y-65445500D01*
X131014219Y-65465185D01*
X131059974Y-65517989D01*
X131069918Y-65587147D01*
X131043033Y-65648165D01*
X131031864Y-65661773D01*
X131031862Y-65661776D01*
X130943604Y-65826897D01*
X130889253Y-66006066D01*
X130889252Y-66006068D01*
X130870901Y-66192400D01*
X130889252Y-66378731D01*
X130889253Y-66378733D01*
X130943604Y-66557902D01*
X131031862Y-66723023D01*
X131031864Y-66723026D01*
X131150642Y-66867757D01*
X131295373Y-66986535D01*
X131295376Y-66986537D01*
X131437160Y-67062321D01*
X131460499Y-67074796D01*
X131633185Y-67127180D01*
X131639666Y-67129146D01*
X131639668Y-67129147D01*
X131656374Y-67130792D01*
X131826000Y-67147499D01*
X132012331Y-67129147D01*
X132191501Y-67074796D01*
X132356625Y-66986536D01*
X132501357Y-66867757D01*
X132620136Y-66723025D01*
X132708396Y-66557901D01*
X132762747Y-66378731D01*
X132781099Y-66192400D01*
X132762747Y-66006069D01*
X132708396Y-65826899D01*
X132657896Y-65732419D01*
X132620137Y-65661776D01*
X132620135Y-65661773D01*
X132529647Y-65551514D01*
X132502334Y-65487204D01*
X132501500Y-65472849D01*
X132501500Y-65101162D01*
X132521185Y-65034123D01*
X132537814Y-65013486D01*
X133717819Y-63833480D01*
X133779142Y-63799996D01*
X133848834Y-63804980D01*
X133904767Y-63846852D01*
X133929184Y-63912316D01*
X133929500Y-63921162D01*
X133929500Y-65059301D01*
X133929500Y-65182515D01*
X133931813Y-65194142D01*
X133933115Y-65200687D01*
X133933115Y-65200689D01*
X133951811Y-65294685D01*
X133953538Y-65303363D01*
X134000685Y-65417189D01*
X134000687Y-65417192D01*
X134000688Y-65417194D01*
X134024445Y-65452747D01*
X134027022Y-65456604D01*
X134027023Y-65456606D01*
X134069140Y-65519639D01*
X134069141Y-65519640D01*
X134069142Y-65519641D01*
X134156267Y-65606766D01*
X134156269Y-65606767D01*
X134375798Y-65826297D01*
X134430360Y-65880859D01*
X134472099Y-65908748D01*
X134532807Y-65949312D01*
X134571887Y-65965499D01*
X134571888Y-65965500D01*
X134571889Y-65965500D01*
X134646640Y-65996463D01*
X134666689Y-66000451D01*
X134694917Y-66006066D01*
X134767484Y-66020501D01*
X134767486Y-66020501D01*
X134896813Y-66020501D01*
X134896833Y-66020500D01*
X135358152Y-66020500D01*
X135425191Y-66040185D01*
X135445833Y-66056819D01*
X136107333Y-66718319D01*
X136140818Y-66779642D01*
X136135834Y-66849334D01*
X136093962Y-66905267D01*
X136028498Y-66929684D01*
X136019652Y-66930000D01*
X135930000Y-66930000D01*
X135930000Y-67606000D01*
X135910315Y-67673039D01*
X135857511Y-67718794D01*
X135806000Y-67730000D01*
X135680000Y-67730000D01*
X135680000Y-67851879D01*
X135660315Y-67918918D01*
X135607511Y-67964673D01*
X135538353Y-67974617D01*
X135508549Y-67966441D01*
X135501548Y-67963541D01*
X135482036Y-67955459D01*
X135482032Y-67955458D01*
X135482028Y-67955457D01*
X135351535Y-67929500D01*
X135351531Y-67929500D01*
X134120351Y-67929500D01*
X134053312Y-67909815D01*
X134041686Y-67901353D01*
X133931426Y-67810864D01*
X133931423Y-67810862D01*
X133766302Y-67722604D01*
X133587133Y-67668253D01*
X133587131Y-67668252D01*
X133400800Y-67649901D01*
X133214468Y-67668252D01*
X133214466Y-67668253D01*
X133035297Y-67722604D01*
X132870176Y-67810862D01*
X132870173Y-67810864D01*
X132725442Y-67929642D01*
X132606664Y-68074373D01*
X132606662Y-68074376D01*
X132518404Y-68239497D01*
X132464053Y-68418666D01*
X132464052Y-68418668D01*
X132445701Y-68605000D01*
X132464052Y-68791331D01*
X132464053Y-68791333D01*
X132518404Y-68970502D01*
X132606662Y-69135623D01*
X132606664Y-69135626D01*
X132725442Y-69280357D01*
X132870173Y-69399135D01*
X132870176Y-69399137D01*
X133035297Y-69487395D01*
X133035299Y-69487396D01*
X133214466Y-69541746D01*
X133214468Y-69541747D01*
X133232820Y-69543554D01*
X133400800Y-69560099D01*
X133517884Y-69548567D01*
X133586530Y-69561586D01*
X133637240Y-69609651D01*
X133653915Y-69677501D01*
X133631259Y-69743596D01*
X133617719Y-69759651D01*
X132549190Y-70828181D01*
X132487867Y-70861666D01*
X132461509Y-70864500D01*
X129839681Y-70864500D01*
X129772642Y-70844815D01*
X129726887Y-70792011D01*
X129716943Y-70722853D01*
X129729272Y-70687824D01*
X129728185Y-70687354D01*
X129731280Y-70680200D01*
X129777100Y-70522486D01*
X129777295Y-70520001D01*
X129777295Y-70520000D01*
X127182705Y-70520000D01*
X127182704Y-70520001D01*
X127182899Y-70522486D01*
X127228719Y-70680200D01*
X127231815Y-70687354D01*
X127229802Y-70688224D01*
X127244233Y-70745105D01*
X127222073Y-70811367D01*
X127167606Y-70855129D01*
X127120319Y-70864500D01*
X125917433Y-70864500D01*
X125850394Y-70844815D01*
X125804639Y-70792011D01*
X125795125Y-70725847D01*
X125794591Y-70725801D01*
X125794790Y-70723518D01*
X125794695Y-70722853D01*
X125795034Y-70720728D01*
X125795061Y-70720413D01*
X125795063Y-70720408D01*
X125815659Y-70485000D01*
X125814546Y-70472284D01*
X125810803Y-70429500D01*
X125795063Y-70249592D01*
X125783086Y-70204893D01*
X125784749Y-70135043D01*
X125815178Y-70085121D01*
X126188482Y-69711819D01*
X126249805Y-69678334D01*
X126276163Y-69675500D01*
X127120319Y-69675500D01*
X127187358Y-69695185D01*
X127233113Y-69747989D01*
X127243057Y-69817147D01*
X127230727Y-69852175D01*
X127231815Y-69852646D01*
X127228719Y-69859799D01*
X127182899Y-70017513D01*
X127182704Y-70019998D01*
X127182705Y-70020000D01*
X129777295Y-70020000D01*
X129777295Y-70019998D01*
X129777100Y-70017513D01*
X129731281Y-69859801D01*
X129647685Y-69718447D01*
X129642900Y-69712278D01*
X129645366Y-69710364D01*
X129618802Y-69661776D01*
X129623749Y-69592082D01*
X129644856Y-69559232D01*
X129643301Y-69558026D01*
X129648077Y-69551868D01*
X129648081Y-69551865D01*
X129650165Y-69548342D01*
X129683547Y-69491895D01*
X129731744Y-69410398D01*
X129774787Y-69262244D01*
X129777597Y-69252573D01*
X129777598Y-69252567D01*
X129777909Y-69248620D01*
X129780500Y-69215694D01*
X129780500Y-68784306D01*
X129777598Y-68747431D01*
X129770538Y-68723132D01*
X129736693Y-68606637D01*
X129731744Y-68589602D01*
X129648081Y-68448135D01*
X129648078Y-68448132D01*
X129643298Y-68441969D01*
X129645635Y-68440155D01*
X129618798Y-68391050D01*
X129620715Y-68364104D01*
X130705495Y-68364104D01*
X130743079Y-68493465D01*
X130744690Y-68499586D01*
X130753482Y-68536851D01*
X130754777Y-68543043D01*
X130763936Y-68593183D01*
X130764914Y-68599439D01*
X130769865Y-68637426D01*
X130770523Y-68643724D01*
X130776772Y-68723132D01*
X130777059Y-68727997D01*
X130778405Y-68762294D01*
X130778500Y-68767157D01*
X130778500Y-69154768D01*
X131531393Y-69154768D01*
X131501915Y-69057592D01*
X131500291Y-69051726D01*
X131491345Y-69016012D01*
X131490012Y-69010074D01*
X131480451Y-68962009D01*
X131479411Y-68956015D01*
X131474006Y-68919584D01*
X131473260Y-68913540D01*
X131450105Y-68678435D01*
X131449657Y-68672366D01*
X131447850Y-68635588D01*
X131447701Y-68629503D01*
X131447701Y-68580497D01*
X131447850Y-68574412D01*
X131449657Y-68537634D01*
X131450105Y-68531565D01*
X131473260Y-68296460D01*
X131474006Y-68290416D01*
X131479411Y-68253985D01*
X131480451Y-68247991D01*
X131490012Y-68199926D01*
X131491345Y-68193988D01*
X131500291Y-68158274D01*
X131501914Y-68152409D01*
X131511968Y-68119262D01*
X131511416Y-68119194D01*
X131474985Y-68113789D01*
X131468991Y-68112749D01*
X131420926Y-68103188D01*
X131414988Y-68101855D01*
X131379274Y-68092909D01*
X131373408Y-68091285D01*
X131147349Y-68022710D01*
X131141571Y-68020802D01*
X131106912Y-68008401D01*
X131101237Y-68006211D01*
X131055962Y-67987459D01*
X131050395Y-67984992D01*
X131017098Y-67969244D01*
X131011661Y-67966507D01*
X130803316Y-67855145D01*
X130798022Y-67852146D01*
X130788606Y-67846502D01*
X130788778Y-67847840D01*
X130770026Y-68086184D01*
X130769368Y-68092481D01*
X130764417Y-68130475D01*
X130763439Y-68136732D01*
X130754280Y-68186876D01*
X130752984Y-68193071D01*
X130744192Y-68230334D01*
X130742582Y-68236454D01*
X130705495Y-68364104D01*
X129620715Y-68364104D01*
X129623756Y-68321356D01*
X129644554Y-68288998D01*
X129642903Y-68287717D01*
X129647686Y-68281550D01*
X129731281Y-68140198D01*
X129777100Y-67982486D01*
X129777295Y-67980001D01*
X129777295Y-67980000D01*
X127182705Y-67980000D01*
X127182704Y-67980001D01*
X127182899Y-67982486D01*
X127228719Y-68140200D01*
X127231815Y-68147354D01*
X127229802Y-68148224D01*
X127244233Y-68205105D01*
X127222073Y-68271367D01*
X127167606Y-68315129D01*
X127120319Y-68324500D01*
X125934000Y-68324500D01*
X125866961Y-68304815D01*
X125821206Y-68252011D01*
X125810000Y-68200500D01*
X125810000Y-68195000D01*
X124893012Y-68195000D01*
X124925925Y-68137993D01*
X124960000Y-68010826D01*
X124960000Y-67879174D01*
X124925925Y-67752007D01*
X124893012Y-67695000D01*
X125810000Y-67695000D01*
X125810000Y-67479998D01*
X127182704Y-67479998D01*
X127182705Y-67480000D01*
X128230000Y-67480000D01*
X128730000Y-67480000D01*
X129777295Y-67480000D01*
X129777295Y-67479998D01*
X134382704Y-67479998D01*
X134382705Y-67480000D01*
X135430000Y-67480000D01*
X135430000Y-66930000D01*
X134964350Y-66930000D01*
X134927510Y-66932899D01*
X134927504Y-66932900D01*
X134769806Y-66978716D01*
X134769803Y-66978717D01*
X134628447Y-67062314D01*
X134628438Y-67062321D01*
X134512321Y-67178438D01*
X134512314Y-67178447D01*
X134428718Y-67319801D01*
X134382899Y-67477513D01*
X134382704Y-67479998D01*
X129777295Y-67479998D01*
X129777100Y-67477513D01*
X129731281Y-67319801D01*
X129647685Y-67178447D01*
X129647678Y-67178438D01*
X129531561Y-67062321D01*
X129531552Y-67062314D01*
X129390196Y-66978717D01*
X129390193Y-66978716D01*
X129232495Y-66932900D01*
X129232489Y-66932899D01*
X129195649Y-66930000D01*
X128730000Y-66930000D01*
X128730000Y-67480000D01*
X128230000Y-67480000D01*
X128230000Y-66930000D01*
X127764350Y-66930000D01*
X127727510Y-66932899D01*
X127727504Y-66932900D01*
X127569806Y-66978716D01*
X127569803Y-66978717D01*
X127428447Y-67062314D01*
X127428438Y-67062321D01*
X127312321Y-67178438D01*
X127312314Y-67178447D01*
X127228718Y-67319801D01*
X127182899Y-67477513D01*
X127182704Y-67479998D01*
X125810000Y-67479998D01*
X125810000Y-67047172D01*
X125809999Y-67047155D01*
X125803598Y-66987627D01*
X125803596Y-66987620D01*
X125753354Y-66852913D01*
X125753350Y-66852906D01*
X125667190Y-66737812D01*
X125667187Y-66737809D01*
X125552093Y-66651649D01*
X125552086Y-66651645D01*
X125417379Y-66601403D01*
X125417372Y-66601401D01*
X125357844Y-66595000D01*
X124710000Y-66595000D01*
X124710000Y-67511988D01*
X124652993Y-67479075D01*
X124525826Y-67445000D01*
X124394174Y-67445000D01*
X124267007Y-67479075D01*
X124210000Y-67511988D01*
X124210000Y-66595000D01*
X123562155Y-66595000D01*
X123502627Y-66601401D01*
X123502620Y-66601403D01*
X123367913Y-66651645D01*
X123367906Y-66651649D01*
X123252812Y-66737809D01*
X123252809Y-66737812D01*
X123166649Y-66852906D01*
X123166645Y-66852913D01*
X123116403Y-66987620D01*
X123116401Y-66987627D01*
X123110000Y-67047155D01*
X123110000Y-67695000D01*
X124026988Y-67695000D01*
X123994075Y-67752007D01*
X123960000Y-67879174D01*
X123960000Y-68010826D01*
X123994075Y-68137993D01*
X124026988Y-68195000D01*
X123110000Y-68195000D01*
X123110000Y-68842844D01*
X123116401Y-68902372D01*
X123116403Y-68902379D01*
X123166645Y-69037086D01*
X123166649Y-69037093D01*
X123252809Y-69152187D01*
X123252812Y-69152190D01*
X123367906Y-69238350D01*
X123367913Y-69238354D01*
X123499470Y-69287421D01*
X123555403Y-69329292D01*
X123579821Y-69394756D01*
X123564970Y-69463029D01*
X123543819Y-69491284D01*
X123421503Y-69613600D01*
X123285965Y-69807169D01*
X123285964Y-69807171D01*
X123228240Y-69930961D01*
X123186721Y-70020000D01*
X123186098Y-70021335D01*
X123186094Y-70021344D01*
X123124938Y-70249586D01*
X123124936Y-70249596D01*
X123104341Y-70484999D01*
X123104341Y-70485000D01*
X123124936Y-70720403D01*
X123124938Y-70720413D01*
X123186094Y-70948655D01*
X123186096Y-70948659D01*
X123186097Y-70948663D01*
X123277088Y-71143793D01*
X123285965Y-71162830D01*
X123285967Y-71162834D01*
X123394281Y-71317521D01*
X123421505Y-71356401D01*
X123588599Y-71523495D01*
X123654755Y-71569818D01*
X123782165Y-71659032D01*
X123782167Y-71659033D01*
X123782170Y-71659035D01*
X123996337Y-71758903D01*
X123996343Y-71758904D01*
X123996344Y-71758905D01*
X124047172Y-71772524D01*
X124224592Y-71820063D01*
X124412918Y-71836539D01*
X124459999Y-71840659D01*
X124460000Y-71840659D01*
X124460001Y-71840659D01*
X124478939Y-71839001D01*
X124695408Y-71820063D01*
X124712899Y-71815376D01*
X124740103Y-71808087D01*
X124809953Y-71809748D01*
X124859879Y-71840180D01*
X124990305Y-71970606D01*
X125084394Y-72064695D01*
X125084397Y-72064697D01*
X125084398Y-72064698D01*
X125195020Y-72138613D01*
X125195023Y-72138614D01*
X125195031Y-72138620D01*
X125195037Y-72138622D01*
X125195038Y-72138623D01*
X125317959Y-72189538D01*
X125317964Y-72189540D01*
X125317968Y-72189540D01*
X125317969Y-72189541D01*
X125448466Y-72215500D01*
X125448469Y-72215500D01*
X127406758Y-72215500D01*
X127469878Y-72232767D01*
X127569602Y-72291744D01*
X127611224Y-72303836D01*
X127727426Y-72337597D01*
X127727429Y-72337597D01*
X127727431Y-72337598D01*
X127764306Y-72340500D01*
X128273837Y-72340500D01*
X128340876Y-72360185D01*
X128361518Y-72376819D01*
X130542518Y-74557819D01*
X130576003Y-74619142D01*
X130571019Y-74688834D01*
X130529147Y-74744767D01*
X130463683Y-74769184D01*
X130454837Y-74769500D01*
X128591111Y-74769500D01*
X128478848Y-74784279D01*
X128478837Y-74784282D01*
X128339148Y-74842143D01*
X128323856Y-74853877D01*
X128258687Y-74879070D01*
X128248371Y-74879500D01*
X126284499Y-74879500D01*
X126217460Y-74859815D01*
X126171705Y-74807011D01*
X126160499Y-74755500D01*
X126160499Y-73707129D01*
X126160498Y-73707123D01*
X126159472Y-73697581D01*
X126154091Y-73647517D01*
X126153152Y-73645000D01*
X126103797Y-73512671D01*
X126103793Y-73512664D01*
X126017547Y-73397455D01*
X126017544Y-73397452D01*
X125902335Y-73311206D01*
X125902328Y-73311202D01*
X125767482Y-73260908D01*
X125767483Y-73260908D01*
X125707883Y-73254501D01*
X125707881Y-73254500D01*
X125707873Y-73254500D01*
X125707864Y-73254500D01*
X123212129Y-73254500D01*
X123212123Y-73254501D01*
X123152516Y-73260908D01*
X123017671Y-73311202D01*
X123017664Y-73311206D01*
X122902455Y-73397452D01*
X122902452Y-73397455D01*
X122816206Y-73512664D01*
X122816203Y-73512669D01*
X122791363Y-73579270D01*
X122749491Y-73635203D01*
X122684027Y-73659620D01*
X122615754Y-73644768D01*
X122566349Y-73595363D01*
X122551181Y-73535921D01*
X122552276Y-65597000D01*
X125285947Y-65597000D01*
X125371177Y-65597000D01*
X125374491Y-65597044D01*
X125394539Y-65597580D01*
X125397855Y-65597713D01*
X125424542Y-65599142D01*
X125427856Y-65599364D01*
X125447905Y-65600977D01*
X125451217Y-65601289D01*
X125555069Y-65612455D01*
X125562738Y-65613522D01*
X125608916Y-65621428D01*
X125616501Y-65622972D01*
X125677212Y-65637315D01*
X125684695Y-65639332D01*
X125729564Y-65652942D01*
X125736904Y-65655421D01*
X125934261Y-65729030D01*
X125942441Y-65732419D01*
X125991177Y-65754677D01*
X125999091Y-65758638D01*
X126061681Y-65792815D01*
X126069295Y-65797333D01*
X126114362Y-65826297D01*
X126121632Y-65831345D01*
X126293816Y-65960243D01*
X126300707Y-65965796D01*
X126341192Y-66000876D01*
X126347671Y-66006908D01*
X126398092Y-66057329D01*
X126404124Y-66063808D01*
X126439204Y-66104293D01*
X126444757Y-66111184D01*
X126573655Y-66283368D01*
X126578703Y-66290638D01*
X126607667Y-66335705D01*
X126612185Y-66343319D01*
X126646362Y-66405909D01*
X126650323Y-66413823D01*
X126655097Y-66424278D01*
X126744937Y-66334439D01*
X126750616Y-66329106D01*
X126785981Y-66297928D01*
X126787947Y-66296301D01*
X126787947Y-66204352D01*
X126785672Y-66202470D01*
X126750307Y-66171292D01*
X126744628Y-66165959D01*
X126584041Y-66005372D01*
X126578708Y-65999693D01*
X126547530Y-65964328D01*
X126542564Y-65958325D01*
X126504109Y-65908748D01*
X126499529Y-65902445D01*
X126473037Y-65863461D01*
X126468865Y-65856886D01*
X126353269Y-65661423D01*
X126349517Y-65654599D01*
X126328122Y-65612611D01*
X126324806Y-65605564D01*
X126299887Y-65547984D01*
X126297018Y-65540739D01*
X126281045Y-65496374D01*
X126278638Y-65488964D01*
X126216921Y-65276535D01*
X126215310Y-65270414D01*
X126206518Y-65233149D01*
X126205223Y-65226957D01*
X126196064Y-65176817D01*
X126195086Y-65170561D01*
X126192767Y-65152768D01*
X125285947Y-65152768D01*
X125285947Y-65597000D01*
X122552276Y-65597000D01*
X122552475Y-64154768D01*
X123550474Y-64154768D01*
X124287947Y-64154768D01*
X125285947Y-64154768D01*
X126248499Y-64154768D01*
X126254502Y-64134104D01*
X126217417Y-64006453D01*
X126215808Y-64000334D01*
X126207016Y-63963071D01*
X126205720Y-63956876D01*
X126196561Y-63906732D01*
X126195583Y-63900475D01*
X126190632Y-63862481D01*
X126189974Y-63856184D01*
X126171222Y-63617840D01*
X126177684Y-63567487D01*
X126201087Y-63500000D01*
X126177684Y-63432513D01*
X126171222Y-63382160D01*
X126189974Y-63143816D01*
X126190632Y-63137519D01*
X126195583Y-63099525D01*
X126196561Y-63093268D01*
X126205720Y-63043124D01*
X126207016Y-63036929D01*
X126215808Y-62999666D01*
X126217417Y-62993547D01*
X126254762Y-62865000D01*
X126217417Y-62736453D01*
X126215808Y-62730334D01*
X126207016Y-62693071D01*
X126205720Y-62686876D01*
X126199490Y-62652768D01*
X125285947Y-62652768D01*
X125285947Y-64154768D01*
X124287947Y-64154768D01*
X124287947Y-62848628D01*
X123550551Y-63586023D01*
X123550474Y-64154768D01*
X122552475Y-64154768D01*
X122552599Y-63254654D01*
X122553846Y-63237144D01*
X122556573Y-63218057D01*
X122553500Y-63192551D01*
X122552610Y-63177701D01*
X122552611Y-63169084D01*
X122552615Y-63144437D01*
X122552449Y-63143816D01*
X122545964Y-63119601D01*
X122542632Y-63102347D01*
X122539838Y-63079147D01*
X122542254Y-63078855D01*
X122544259Y-63021354D01*
X122574262Y-62972737D01*
X123066998Y-62480001D01*
X127182704Y-62480001D01*
X127182899Y-62482486D01*
X127228718Y-62640198D01*
X127312314Y-62781552D01*
X127317100Y-62787722D01*
X127314753Y-62789542D01*
X127341564Y-62838642D01*
X127336580Y-62908334D01*
X127315541Y-62941069D01*
X127317100Y-62942278D01*
X127312314Y-62948447D01*
X127228718Y-63089801D01*
X127182899Y-63247513D01*
X127182704Y-63249998D01*
X127182705Y-63250000D01*
X128230000Y-63250000D01*
X128730000Y-63250000D01*
X129777295Y-63250000D01*
X129777295Y-63249998D01*
X129777100Y-63247513D01*
X129731281Y-63089801D01*
X129647685Y-62948447D01*
X129642900Y-62942278D01*
X129645252Y-62940453D01*
X129618445Y-62891405D01*
X129623402Y-62821712D01*
X129644465Y-62788936D01*
X129642900Y-62787722D01*
X129647685Y-62781552D01*
X129731281Y-62640198D01*
X129777100Y-62482486D01*
X129777295Y-62480001D01*
X129777295Y-62480000D01*
X128730000Y-62480000D01*
X128730000Y-63250000D01*
X128230000Y-63250000D01*
X128230000Y-62480000D01*
X127182705Y-62480000D01*
X127182704Y-62480001D01*
X123066998Y-62480001D01*
X124336998Y-61210001D01*
X127182704Y-61210001D01*
X127182899Y-61212486D01*
X127228718Y-61370198D01*
X127312314Y-61511552D01*
X127317100Y-61517722D01*
X127314753Y-61519542D01*
X127341564Y-61568642D01*
X127336580Y-61638334D01*
X127315541Y-61671069D01*
X127317100Y-61672278D01*
X127312314Y-61678447D01*
X127228718Y-61819801D01*
X127182899Y-61977513D01*
X127182704Y-61979998D01*
X127182705Y-61980000D01*
X128230000Y-61980000D01*
X128730000Y-61980000D01*
X129777295Y-61980000D01*
X129777295Y-61979998D01*
X129777100Y-61977513D01*
X129731281Y-61819801D01*
X129647685Y-61678447D01*
X129642900Y-61672278D01*
X129645252Y-61670453D01*
X129618445Y-61621405D01*
X129620323Y-61595000D01*
X130705235Y-61595000D01*
X130722600Y-61654768D01*
X131787947Y-61654768D01*
X131787947Y-61061500D01*
X130786681Y-61061500D01*
X130788778Y-61077840D01*
X130770026Y-61316184D01*
X130769368Y-61322481D01*
X130764417Y-61360475D01*
X130763439Y-61366732D01*
X130754280Y-61416876D01*
X130752984Y-61423071D01*
X130744192Y-61460334D01*
X130742582Y-61466454D01*
X130705235Y-61595000D01*
X129620323Y-61595000D01*
X129623402Y-61551712D01*
X129644465Y-61518936D01*
X129642900Y-61517722D01*
X129647685Y-61511552D01*
X129731281Y-61370198D01*
X129777100Y-61212486D01*
X129777295Y-61210001D01*
X129777295Y-61210000D01*
X128730000Y-61210000D01*
X128730000Y-61980000D01*
X128230000Y-61980000D01*
X128230000Y-61210000D01*
X127182705Y-61210000D01*
X127182704Y-61210001D01*
X124336998Y-61210001D01*
X125605915Y-59941084D01*
X125667234Y-59907602D01*
X125736926Y-59912586D01*
G37*
%TD.AperFunction*%
%TA.AperFunction,Conductor*%
G36*
X150565548Y-70749185D02*
G01*
X150604046Y-70788400D01*
X150607288Y-70793656D01*
X150731344Y-70917712D01*
X150880666Y-71009814D01*
X151047203Y-71064999D01*
X151149991Y-71075500D01*
X151750008Y-71075499D01*
X151750016Y-71075498D01*
X151750019Y-71075498D01*
X151806302Y-71069748D01*
X151852797Y-71064999D01*
X152019334Y-71009814D01*
X152168656Y-70917712D01*
X152292712Y-70793656D01*
X152294461Y-70790819D01*
X152296169Y-70789283D01*
X152297193Y-70787989D01*
X152297414Y-70788163D01*
X152346406Y-70744096D01*
X152415368Y-70732872D01*
X152479451Y-70760713D01*
X152505537Y-70790817D01*
X152507288Y-70793656D01*
X152631344Y-70917712D01*
X152780666Y-71009814D01*
X152947203Y-71064999D01*
X153049991Y-71075500D01*
X153568836Y-71075499D01*
X153635875Y-71095183D01*
X153656517Y-71111818D01*
X153657518Y-71112819D01*
X153691003Y-71174142D01*
X153686019Y-71243834D01*
X153644147Y-71299767D01*
X153578683Y-71324184D01*
X153569837Y-71324500D01*
X149856912Y-71324500D01*
X149733699Y-71324500D01*
X149698688Y-71331463D01*
X149629098Y-71325236D01*
X149573921Y-71282372D01*
X149550677Y-71216482D01*
X149550499Y-71209876D01*
X149550499Y-70853499D01*
X149570184Y-70786461D01*
X149622988Y-70740706D01*
X149674499Y-70729500D01*
X150498509Y-70729500D01*
X150565548Y-70749185D01*
G37*
%TD.AperFunction*%
%TA.AperFunction,Conductor*%
G36*
X149888875Y-60083185D02*
G01*
X149934630Y-60135989D01*
X149944574Y-60205147D01*
X149915549Y-60268703D01*
X149909517Y-60275181D01*
X149851517Y-60333181D01*
X149790194Y-60366666D01*
X149763836Y-60369500D01*
X149244998Y-60369500D01*
X149244980Y-60369501D01*
X149142203Y-60380000D01*
X149142200Y-60380001D01*
X148975668Y-60435185D01*
X148975663Y-60435187D01*
X148826342Y-60527289D01*
X148702289Y-60651342D01*
X148610187Y-60800663D01*
X148610185Y-60800668D01*
X148555001Y-60967204D01*
X148555000Y-60967205D01*
X148548079Y-61034956D01*
X148521683Y-61099648D01*
X148464502Y-61139799D01*
X148394691Y-61142662D01*
X148334414Y-61107328D01*
X148302809Y-61045015D01*
X148301363Y-61034955D01*
X148297005Y-60992302D01*
X148241858Y-60825880D01*
X148241856Y-60825875D01*
X148149815Y-60676654D01*
X148025845Y-60552684D01*
X147876624Y-60460643D01*
X147876619Y-60460641D01*
X147710197Y-60405494D01*
X147710190Y-60405493D01*
X147607486Y-60395000D01*
X147545000Y-60395000D01*
X147545000Y-62794999D01*
X147607472Y-62794999D01*
X147607486Y-62794998D01*
X147710197Y-62784505D01*
X147876619Y-62729358D01*
X147876624Y-62729356D01*
X148025845Y-62637315D01*
X148149815Y-62513345D01*
X148241856Y-62364124D01*
X148241858Y-62364119D01*
X148297005Y-62197697D01*
X148297006Y-62197689D01*
X148301363Y-62155043D01*
X148327758Y-62090351D01*
X148384938Y-62050199D01*
X148454749Y-62047335D01*
X148515026Y-62082668D01*
X148546632Y-62144980D01*
X148548079Y-62155041D01*
X148555001Y-62222797D01*
X148555001Y-62222799D01*
X148610185Y-62389331D01*
X148610187Y-62389336D01*
X148623580Y-62411050D01*
X148702288Y-62538656D01*
X148826344Y-62662712D01*
X148916315Y-62718206D01*
X148954320Y-62754853D01*
X149020304Y-62853605D01*
X149020307Y-62853609D01*
X150651549Y-64484850D01*
X150685034Y-64546173D01*
X150687271Y-64560376D01*
X150701253Y-64702332D01*
X150701253Y-64702333D01*
X150755604Y-64881502D01*
X150843862Y-65046623D01*
X150843864Y-65046626D01*
X150962642Y-65191357D01*
X151107373Y-65310135D01*
X151107376Y-65310137D01*
X151272497Y-65398395D01*
X151272499Y-65398396D01*
X151427779Y-65445500D01*
X151451666Y-65452746D01*
X151451668Y-65452747D01*
X151468374Y-65454392D01*
X151638000Y-65471099D01*
X151824331Y-65452747D01*
X152003501Y-65398396D01*
X152168625Y-65310136D01*
X152210445Y-65275815D01*
X154285000Y-65275815D01*
X154295407Y-65377673D01*
X154350094Y-65542709D01*
X154350096Y-65542714D01*
X154441370Y-65690691D01*
X154564308Y-65813629D01*
X154712285Y-65904903D01*
X154712290Y-65904905D01*
X154877326Y-65959592D01*
X154979184Y-65969999D01*
X154979197Y-65970000D01*
X155022500Y-65970000D01*
X155022500Y-65020000D01*
X154285000Y-65020000D01*
X154285000Y-65275815D01*
X152210445Y-65275815D01*
X152313357Y-65191357D01*
X152432136Y-65046625D01*
X152520396Y-64881501D01*
X152574747Y-64702331D01*
X152593099Y-64516000D01*
X152574747Y-64329669D01*
X152554882Y-64264184D01*
X154285000Y-64264184D01*
X154285000Y-64520000D01*
X155022500Y-64520000D01*
X155022500Y-63570000D01*
X154979184Y-63570000D01*
X154877326Y-63580407D01*
X154712290Y-63635094D01*
X154712285Y-63635096D01*
X154564308Y-63726370D01*
X154441370Y-63849308D01*
X154350096Y-63997285D01*
X154350094Y-63997290D01*
X154295407Y-64162326D01*
X154285000Y-64264184D01*
X152554882Y-64264184D01*
X152520396Y-64150499D01*
X152518259Y-64146500D01*
X152432137Y-63985376D01*
X152432135Y-63985373D01*
X152313357Y-63840642D01*
X152168626Y-63721864D01*
X152168623Y-63721862D01*
X152003502Y-63633604D01*
X151824332Y-63579253D01*
X151682376Y-63565271D01*
X151617589Y-63539110D01*
X151606850Y-63529549D01*
X151108980Y-63031679D01*
X151075495Y-62970356D01*
X151080479Y-62900664D01*
X151122351Y-62844731D01*
X151187815Y-62820314D01*
X151194938Y-62820059D01*
X151194999Y-62819999D01*
X151695000Y-62819999D01*
X151744972Y-62819999D01*
X151744986Y-62819998D01*
X151847697Y-62809505D01*
X152014119Y-62754358D01*
X152014124Y-62754356D01*
X152163345Y-62662315D01*
X152287315Y-62538345D01*
X152379356Y-62389124D01*
X152379358Y-62389119D01*
X152434505Y-62222697D01*
X152434506Y-62222690D01*
X152444999Y-62119986D01*
X152445000Y-62119973D01*
X152445000Y-61845000D01*
X151695000Y-61845000D01*
X151695000Y-62819999D01*
X151194999Y-62819999D01*
X151195000Y-62819998D01*
X151195000Y-61719000D01*
X151214685Y-61651961D01*
X151267489Y-61606206D01*
X151319000Y-61595000D01*
X151445000Y-61595000D01*
X151445000Y-61469000D01*
X151464685Y-61401961D01*
X151517489Y-61356206D01*
X151569000Y-61345000D01*
X152444999Y-61345000D01*
X152444999Y-61244500D01*
X152464684Y-61177461D01*
X152517488Y-61131706D01*
X152568999Y-61120500D01*
X153816337Y-61120500D01*
X153883376Y-61140185D01*
X153904018Y-61156819D01*
X154248181Y-61500982D01*
X154281666Y-61562305D01*
X154284500Y-61588663D01*
X154284500Y-62095001D01*
X154284501Y-62095019D01*
X154295000Y-62197796D01*
X154295001Y-62197799D01*
X154350185Y-62364331D01*
X154350187Y-62364336D01*
X154379000Y-62411050D01*
X154442288Y-62513656D01*
X154566344Y-62637712D01*
X154715666Y-62729814D01*
X154882203Y-62784999D01*
X154984991Y-62795500D01*
X155610008Y-62795499D01*
X155610016Y-62795498D01*
X155610019Y-62795498D01*
X155686649Y-62787670D01*
X155712797Y-62784999D01*
X155879334Y-62729814D01*
X156028656Y-62637712D01*
X156122319Y-62544049D01*
X156183642Y-62510564D01*
X156253334Y-62515548D01*
X156297681Y-62544049D01*
X156391344Y-62637712D01*
X156438096Y-62666548D01*
X156484820Y-62718494D01*
X156497000Y-62772087D01*
X156497000Y-63620990D01*
X156477315Y-63688029D01*
X156444037Y-63720700D01*
X156444664Y-63721493D01*
X156438996Y-63725974D01*
X156315974Y-63848996D01*
X156315967Y-63849005D01*
X156315234Y-63850194D01*
X156314519Y-63850836D01*
X156311493Y-63854664D01*
X156310838Y-63854146D01*
X156263280Y-63896911D01*
X156194316Y-63908123D01*
X156130238Y-63880271D01*
X156108238Y-63854877D01*
X156108112Y-63854977D01*
X156105885Y-63852161D01*
X156104163Y-63850173D01*
X156103630Y-63849309D01*
X155980691Y-63726370D01*
X155832714Y-63635096D01*
X155832709Y-63635094D01*
X155667673Y-63580407D01*
X155565815Y-63570000D01*
X155522500Y-63570000D01*
X155522500Y-65970000D01*
X155565803Y-65970000D01*
X155565815Y-65969999D01*
X155667673Y-65959592D01*
X155832709Y-65904905D01*
X155832714Y-65904903D01*
X155980691Y-65813629D01*
X156103628Y-65690692D01*
X156104159Y-65689832D01*
X156104680Y-65689363D01*
X156108112Y-65685023D01*
X156108853Y-65685608D01*
X156156101Y-65643102D01*
X156225063Y-65631872D01*
X156289148Y-65659708D01*
X156311413Y-65685398D01*
X156311493Y-65685336D01*
X156312890Y-65687103D01*
X156315238Y-65689812D01*
X156315968Y-65690995D01*
X156315974Y-65691003D01*
X156438996Y-65814025D01*
X156439000Y-65814028D01*
X156587066Y-65905357D01*
X156587069Y-65905358D01*
X156587075Y-65905362D01*
X156752225Y-65960087D01*
X156854152Y-65970500D01*
X156854157Y-65970500D01*
X157440843Y-65970500D01*
X157440848Y-65970500D01*
X157542775Y-65960087D01*
X157707925Y-65905362D01*
X157856003Y-65814026D01*
X157979026Y-65691003D01*
X158070362Y-65542925D01*
X158125087Y-65377775D01*
X158135500Y-65275848D01*
X158135500Y-64264152D01*
X158125087Y-64162225D01*
X158070362Y-63997075D01*
X158070358Y-63997069D01*
X158070357Y-63997066D01*
X157979028Y-63849000D01*
X157979027Y-63848999D01*
X157979026Y-63848997D01*
X157856003Y-63725974D01*
X157856002Y-63725973D01*
X157856001Y-63725972D01*
X157806901Y-63695686D01*
X157760178Y-63643738D01*
X157748000Y-63590149D01*
X157748000Y-62772087D01*
X157767685Y-62705048D01*
X157806902Y-62666548D01*
X157853656Y-62637712D01*
X157977712Y-62513656D01*
X158069814Y-62364334D01*
X158124999Y-62197797D01*
X158130392Y-62145005D01*
X158156788Y-62080314D01*
X158213968Y-62040163D01*
X158283779Y-62037299D01*
X158344056Y-62072633D01*
X158375661Y-62134945D01*
X158377108Y-62145006D01*
X158382501Y-62197797D01*
X158382501Y-62197799D01*
X158437685Y-62364331D01*
X158437687Y-62364336D01*
X158466500Y-62411050D01*
X158529788Y-62513656D01*
X158653844Y-62637712D01*
X158700596Y-62666548D01*
X158747320Y-62718494D01*
X158759500Y-62772087D01*
X158759500Y-63605569D01*
X158739815Y-63672608D01*
X158700599Y-63711106D01*
X158676499Y-63725971D01*
X158553471Y-63849000D01*
X158462142Y-63997066D01*
X158462137Y-63997077D01*
X158407413Y-64162223D01*
X158397000Y-64264144D01*
X158397000Y-65275855D01*
X158407413Y-65377775D01*
X158462137Y-65542922D01*
X158462142Y-65542933D01*
X158553471Y-65690999D01*
X158553474Y-65691003D01*
X158676496Y-65814025D01*
X158676500Y-65814028D01*
X158824566Y-65905357D01*
X158824569Y-65905358D01*
X158824575Y-65905362D01*
X158989725Y-65960087D01*
X159091652Y-65970500D01*
X159091657Y-65970500D01*
X159678343Y-65970500D01*
X159678348Y-65970500D01*
X159780275Y-65960087D01*
X159945425Y-65905362D01*
X160093503Y-65814026D01*
X160216526Y-65691003D01*
X160216958Y-65690301D01*
X160217381Y-65689921D01*
X160221007Y-65685336D01*
X160221790Y-65685955D01*
X160268902Y-65643575D01*
X160337864Y-65632349D01*
X160401948Y-65660188D01*
X160423842Y-65685455D01*
X160423993Y-65685336D01*
X160426643Y-65688687D01*
X160428040Y-65690299D01*
X160428469Y-65690995D01*
X160428475Y-65691004D01*
X160551496Y-65814025D01*
X160551500Y-65814028D01*
X160699566Y-65905357D01*
X160699569Y-65905358D01*
X160699575Y-65905362D01*
X160864725Y-65960087D01*
X160966652Y-65970500D01*
X161080500Y-65970500D01*
X161147539Y-65990185D01*
X161193294Y-66042989D01*
X161204500Y-66094500D01*
X161204500Y-69692496D01*
X161184815Y-69759535D01*
X161132011Y-69805290D01*
X161062853Y-69815234D01*
X161048408Y-69812271D01*
X160890416Y-69769939D01*
X160890412Y-69769938D01*
X160890408Y-69769937D01*
X160890406Y-69769936D01*
X160890403Y-69769936D01*
X160655001Y-69749341D01*
X160654999Y-69749341D01*
X160419596Y-69769936D01*
X160419586Y-69769938D01*
X160191344Y-69831094D01*
X160191335Y-69831098D01*
X159977171Y-69930964D01*
X159977169Y-69930965D01*
X159815840Y-70043928D01*
X159749633Y-70066255D01*
X159681866Y-70049244D01*
X159657036Y-70030034D01*
X156487157Y-66860155D01*
X156487137Y-66860133D01*
X156395692Y-66768688D01*
X156329062Y-66724168D01*
X156293245Y-66700235D01*
X156293246Y-66700235D01*
X156293244Y-66700234D01*
X156249093Y-66681947D01*
X156204941Y-66663659D01*
X156179411Y-66653084D01*
X156179407Y-66653083D01*
X156179403Y-66653082D01*
X156080103Y-66633330D01*
X156080102Y-66633330D01*
X156058570Y-66629047D01*
X156058566Y-66629047D01*
X156058565Y-66629047D01*
X150609895Y-66629047D01*
X150542856Y-66609362D01*
X150517747Y-66588021D01*
X150512020Y-66581661D01*
X150512016Y-66581657D01*
X150358881Y-66470398D01*
X150358876Y-66470395D01*
X150185954Y-66393404D01*
X150185949Y-66393402D01*
X150040148Y-66362412D01*
X150000793Y-66354047D01*
X149811501Y-66354047D01*
X149779044Y-66360945D01*
X149626344Y-66393402D01*
X149505853Y-66447049D01*
X149436603Y-66456333D01*
X149379932Y-66432145D01*
X149268332Y-66346511D01*
X149177083Y-66308715D01*
X149129854Y-66289152D01*
X149115942Y-66287320D01*
X149018568Y-66274500D01*
X149018561Y-66274500D01*
X147844499Y-66274500D01*
X147777460Y-66254815D01*
X147731705Y-66202011D01*
X147720499Y-66150500D01*
X147720499Y-64976437D01*
X147705849Y-64865153D01*
X147705848Y-64865152D01*
X147705848Y-64865146D01*
X147648489Y-64726669D01*
X147557244Y-64607756D01*
X147438331Y-64516511D01*
X147437638Y-64516224D01*
X147397770Y-64499710D01*
X147299854Y-64459152D01*
X147188561Y-64444500D01*
X146701437Y-64444500D01*
X146590153Y-64459150D01*
X146582300Y-64461255D01*
X146581788Y-64459345D01*
X146522969Y-64465662D01*
X146507723Y-64461185D01*
X146507705Y-64461256D01*
X146499856Y-64459153D01*
X146499854Y-64459152D01*
X146499851Y-64459151D01*
X146492004Y-64457049D01*
X146492478Y-64455277D01*
X146437925Y-64431135D01*
X146399461Y-64372806D01*
X146398639Y-64302941D01*
X146400077Y-64298189D01*
X146427674Y-64213256D01*
X146447460Y-64025000D01*
X146427674Y-63836744D01*
X146369179Y-63656716D01*
X146274533Y-63492784D01*
X146199350Y-63409284D01*
X146169120Y-63346292D01*
X146167500Y-63326312D01*
X146167500Y-62722730D01*
X146187185Y-62655691D01*
X146203813Y-62635054D01*
X146295175Y-62543692D01*
X146356494Y-62510210D01*
X146426186Y-62515194D01*
X146470534Y-62543695D01*
X146564154Y-62637315D01*
X146713375Y-62729356D01*
X146713380Y-62729358D01*
X146879802Y-62784505D01*
X146879809Y-62784506D01*
X146982519Y-62794999D01*
X147044999Y-62794998D01*
X147045000Y-62794998D01*
X147045000Y-60395000D01*
X147044999Y-60394999D01*
X146982528Y-60395000D01*
X146982511Y-60395001D01*
X146879802Y-60405494D01*
X146713380Y-60460641D01*
X146713375Y-60460643D01*
X146564157Y-60552682D01*
X146470534Y-60646305D01*
X146409210Y-60679789D01*
X146339519Y-60674805D01*
X146295172Y-60646304D01*
X146201157Y-60552289D01*
X146201156Y-60552288D01*
X146051834Y-60460186D01*
X145885297Y-60405001D01*
X145885295Y-60405000D01*
X145782510Y-60394500D01*
X145157498Y-60394500D01*
X145157480Y-60394501D01*
X145054703Y-60405000D01*
X145054700Y-60405001D01*
X144888168Y-60460185D01*
X144888163Y-60460187D01*
X144738842Y-60552289D01*
X144614789Y-60676342D01*
X144583039Y-60727818D01*
X144531091Y-60774542D01*
X144462128Y-60785765D01*
X144398046Y-60757921D01*
X144371961Y-60727818D01*
X144360971Y-60710000D01*
X144340212Y-60676344D01*
X144216156Y-60552288D01*
X144066834Y-60460186D01*
X143900297Y-60405001D01*
X143900295Y-60405000D01*
X143797510Y-60394500D01*
X143172498Y-60394500D01*
X143172480Y-60394501D01*
X143069703Y-60405000D01*
X143069700Y-60405001D01*
X142903168Y-60460185D01*
X142903163Y-60460187D01*
X142753845Y-60552287D01*
X142659827Y-60646305D01*
X142598503Y-60679789D01*
X142528812Y-60674805D01*
X142484465Y-60646304D01*
X142390845Y-60552684D01*
X142241624Y-60460643D01*
X142241619Y-60460641D01*
X142075197Y-60405494D01*
X142075190Y-60405493D01*
X141972486Y-60395000D01*
X141910000Y-60395000D01*
X141910000Y-62794999D01*
X141972472Y-62794999D01*
X141972486Y-62794998D01*
X142075197Y-62784505D01*
X142241619Y-62729358D01*
X142241624Y-62729356D01*
X142390842Y-62637317D01*
X142484464Y-62543695D01*
X142545787Y-62510210D01*
X142615479Y-62515194D01*
X142659827Y-62543695D01*
X142753844Y-62637712D01*
X142903166Y-62729814D01*
X143034504Y-62773335D01*
X143091949Y-62813108D01*
X143118772Y-62877624D01*
X143119500Y-62891041D01*
X143119500Y-64320500D01*
X143099815Y-64387539D01*
X143047011Y-64433294D01*
X142995500Y-64444500D01*
X142701437Y-64444500D01*
X142590153Y-64459150D01*
X142582300Y-64461255D01*
X142581788Y-64459345D01*
X142522969Y-64465662D01*
X142507723Y-64461185D01*
X142507705Y-64461256D01*
X142499855Y-64459152D01*
X142499854Y-64459152D01*
X142388561Y-64444500D01*
X141901437Y-64444500D01*
X141790153Y-64459150D01*
X141782300Y-64461255D01*
X141781788Y-64459345D01*
X141722969Y-64465662D01*
X141707723Y-64461185D01*
X141707705Y-64461256D01*
X141699855Y-64459152D01*
X141699854Y-64459152D01*
X141588561Y-64444500D01*
X141101437Y-64444500D01*
X140990153Y-64459150D01*
X140990145Y-64459152D01*
X140851670Y-64516510D01*
X140732756Y-64607756D01*
X140641510Y-64726670D01*
X140584152Y-64865145D01*
X140584152Y-64865146D01*
X140573417Y-64946686D01*
X140545150Y-65010582D01*
X140486826Y-65049053D01*
X140450478Y-65054500D01*
X139867607Y-65054500D01*
X139744393Y-65054500D01*
X139685145Y-65066285D01*
X139685144Y-65066284D01*
X139623555Y-65078535D01*
X139623545Y-65078538D01*
X139509716Y-65125687D01*
X139509707Y-65125692D01*
X139407268Y-65194140D01*
X139374452Y-65226957D01*
X139320142Y-65281267D01*
X139320139Y-65281270D01*
X138265346Y-66336062D01*
X138204023Y-66369547D01*
X138134331Y-66364563D01*
X138078398Y-66322691D01*
X138072718Y-66313765D01*
X138072697Y-66313780D01*
X138051103Y-66281464D01*
X138051102Y-66281463D01*
X138000858Y-66206267D01*
X138000856Y-66206264D01*
X137910637Y-66116045D01*
X137910606Y-66116016D01*
X137401075Y-65606485D01*
X137367590Y-65545162D01*
X137372574Y-65475470D01*
X137414446Y-65419537D01*
X137469894Y-65398012D01*
X137469631Y-65396689D01*
X137502718Y-65390107D01*
X137564718Y-65377775D01*
X137564719Y-65377775D01*
X137575392Y-65375651D01*
X137596452Y-65371463D01*
X137633138Y-65356267D01*
X137710286Y-65324312D01*
X137761509Y-65290084D01*
X137812733Y-65255858D01*
X137899858Y-65168733D01*
X137899858Y-65168731D01*
X137910066Y-65158524D01*
X137910069Y-65158520D01*
X138022173Y-65046418D01*
X138083496Y-65012934D01*
X138109853Y-65010100D01*
X138169044Y-65010100D01*
X138169046Y-65010100D01*
X138354203Y-64970744D01*
X138527130Y-64893751D01*
X138680271Y-64782488D01*
X138806933Y-64641816D01*
X138901579Y-64477884D01*
X138960074Y-64297856D01*
X138964311Y-64257539D01*
X138990894Y-64192925D01*
X139048191Y-64152940D01*
X139087632Y-64146500D01*
X139185044Y-64146500D01*
X139185046Y-64146500D01*
X139370203Y-64107144D01*
X139543130Y-64030151D01*
X139696271Y-63918888D01*
X139822933Y-63778216D01*
X139917579Y-63614284D01*
X139976074Y-63434256D01*
X139995860Y-63246000D01*
X139976074Y-63057744D01*
X139949936Y-62977302D01*
X139947942Y-62907463D01*
X139984022Y-62847630D01*
X140046723Y-62816802D01*
X140055267Y-62815628D01*
X140115196Y-62809506D01*
X140281619Y-62754358D01*
X140281624Y-62754356D01*
X140430845Y-62662315D01*
X140554816Y-62538344D01*
X140554817Y-62538342D01*
X140582171Y-62493996D01*
X140634119Y-62447271D01*
X140703081Y-62436048D01*
X140767164Y-62463892D01*
X140793249Y-62493995D01*
X140805184Y-62513345D01*
X140929154Y-62637315D01*
X141078375Y-62729356D01*
X141078380Y-62729358D01*
X141244802Y-62784505D01*
X141244809Y-62784506D01*
X141347519Y-62794999D01*
X141409999Y-62794998D01*
X141410000Y-62794998D01*
X141410000Y-61845000D01*
X139836500Y-61845000D01*
X139769461Y-61825315D01*
X139723706Y-61772511D01*
X139712500Y-61721000D01*
X139712500Y-61595000D01*
X139586500Y-61595000D01*
X139519461Y-61575315D01*
X139473706Y-61522511D01*
X139462500Y-61471000D01*
X139462500Y-61345000D01*
X139962500Y-61345000D01*
X141410000Y-61345000D01*
X141410000Y-60395000D01*
X141409999Y-60394999D01*
X141347528Y-60395000D01*
X141347511Y-60395001D01*
X141244802Y-60405494D01*
X141078380Y-60460641D01*
X141078375Y-60460643D01*
X140929154Y-60552684D01*
X140805182Y-60676656D01*
X140793248Y-60696005D01*
X140741299Y-60742729D01*
X140672336Y-60753950D01*
X140608255Y-60726106D01*
X140582172Y-60696004D01*
X140554819Y-60651659D01*
X140554816Y-60651655D01*
X140430845Y-60527684D01*
X140281624Y-60435643D01*
X140281619Y-60435641D01*
X140115197Y-60380494D01*
X140115190Y-60380493D01*
X140012486Y-60370000D01*
X139962500Y-60370000D01*
X139962500Y-61345000D01*
X139462500Y-61345000D01*
X139462500Y-60370000D01*
X139462499Y-60369999D01*
X139412529Y-60370000D01*
X139412511Y-60370001D01*
X139309802Y-60380494D01*
X139143380Y-60435641D01*
X139143375Y-60435643D01*
X138994154Y-60527684D01*
X138870183Y-60651655D01*
X138870179Y-60651660D01*
X138868326Y-60654665D01*
X138866518Y-60656290D01*
X138865702Y-60657323D01*
X138865525Y-60657183D01*
X138816374Y-60701385D01*
X138747411Y-60712601D01*
X138683331Y-60684752D01*
X138657253Y-60654653D01*
X138657237Y-60654628D01*
X138655212Y-60651344D01*
X138531156Y-60527288D01*
X138381834Y-60435186D01*
X138215297Y-60380001D01*
X138215295Y-60380000D01*
X138112510Y-60369500D01*
X137512498Y-60369500D01*
X137512480Y-60369501D01*
X137409703Y-60380000D01*
X137409700Y-60380001D01*
X137243168Y-60435185D01*
X137243163Y-60435187D01*
X137093841Y-60527290D01*
X137088181Y-60531766D01*
X137086786Y-60530002D01*
X137035018Y-60558257D01*
X136965327Y-60553259D01*
X136909402Y-60511377D01*
X136901951Y-60500207D01*
X136847684Y-60408446D01*
X136847678Y-60408438D01*
X136731561Y-60292321D01*
X136725393Y-60287537D01*
X136726823Y-60285693D01*
X136687114Y-60243170D01*
X136674606Y-60174429D01*
X136701248Y-60109838D01*
X136758581Y-60069904D01*
X136797915Y-60063500D01*
X149821836Y-60063500D01*
X149888875Y-60083185D01*
G37*
%TD.AperFunction*%
%TA.AperFunction,Conductor*%
G36*
X141789669Y-68665816D02*
G01*
X141834016Y-68694317D01*
X142502518Y-69362819D01*
X142536003Y-69424142D01*
X142531019Y-69493834D01*
X142489147Y-69549767D01*
X142423683Y-69574184D01*
X142414837Y-69574500D01*
X141006898Y-69574500D01*
X140939859Y-69554815D01*
X140931388Y-69548857D01*
X140930714Y-69548339D01*
X140889539Y-69491895D01*
X140885416Y-69422147D01*
X140919656Y-69361242D01*
X140930748Y-69351634D01*
X141047244Y-69262244D01*
X141047247Y-69262239D01*
X141050867Y-69259462D01*
X141066393Y-69249453D01*
X141067637Y-69248621D01*
X141067641Y-69248620D01*
X141109130Y-69220897D01*
X141175808Y-69200020D01*
X141178021Y-69200000D01*
X141209147Y-69200000D01*
X141212990Y-69195617D01*
X141221358Y-69141952D01*
X141245847Y-69107125D01*
X141658658Y-68694314D01*
X141719977Y-68660832D01*
X141789669Y-68665816D01*
G37*
%TD.AperFunction*%
%TD*%
M02*
