%TF.GenerationSoftware,KiCad,Pcbnew,8.0.7*%
%TF.CreationDate,2025-02-10T19:55:19+01:00*%
%TF.ProjectId,0004-MCU-Datalogger,30303034-2d4d-4435-952d-446174616c6f,1*%
%TF.SameCoordinates,Original*%
%TF.FileFunction,Paste,Top*%
%TF.FilePolarity,Positive*%
%FSLAX46Y46*%
G04 Gerber Fmt 4.6, Leading zero omitted, Abs format (unit mm)*
G04 Created by KiCad (PCBNEW 8.0.7) date 2025-02-10 19:55:19*
%MOMM*%
%LPD*%
G01*
G04 APERTURE LIST*
G04 Aperture macros list*
%AMRoundRect*
0 Rectangle with rounded corners*
0 $1 Rounding radius*
0 $2 $3 $4 $5 $6 $7 $8 $9 X,Y pos of 4 corners*
0 Add a 4 corners polygon primitive as box body*
4,1,4,$2,$3,$4,$5,$6,$7,$8,$9,$2,$3,0*
0 Add four circle primitives for the rounded corners*
1,1,$1+$1,$2,$3*
1,1,$1+$1,$4,$5*
1,1,$1+$1,$6,$7*
1,1,$1+$1,$8,$9*
0 Add four rect primitives between the rounded corners*
20,1,$1+$1,$2,$3,$4,$5,0*
20,1,$1+$1,$4,$5,$6,$7,0*
20,1,$1+$1,$6,$7,$8,$9,0*
20,1,$1+$1,$8,$9,$2,$3,0*%
G04 Aperture macros list end*
%ADD10RoundRect,0.250000X0.262500X0.450000X-0.262500X0.450000X-0.262500X-0.450000X0.262500X-0.450000X0*%
%ADD11RoundRect,0.073750X-0.911250X-0.221250X0.911250X-0.221250X0.911250X0.221250X-0.911250X0.221250X0*%
%ADD12RoundRect,0.250000X-0.262500X-0.450000X0.262500X-0.450000X0.262500X0.450000X-0.262500X0.450000X0*%
%ADD13RoundRect,0.150000X-0.650000X-0.150000X0.650000X-0.150000X0.650000X0.150000X-0.650000X0.150000X0*%
%ADD14R,3.500000X2.400000*%
%ADD15R,2.400000X3.500000*%
%ADD16RoundRect,0.243750X-0.243750X-0.456250X0.243750X-0.456250X0.243750X0.456250X-0.243750X0.456250X0*%
%ADD17RoundRect,0.068750X-0.666250X-0.206250X0.666250X-0.206250X0.666250X0.206250X-0.666250X0.206250X0*%
%ADD18RoundRect,0.068750X-0.206250X-0.666250X0.206250X-0.666250X0.206250X0.666250X-0.206250X0.666250X0*%
%ADD19RoundRect,0.250000X-0.250000X-0.475000X0.250000X-0.475000X0.250000X0.475000X-0.250000X0.475000X0*%
%ADD20RoundRect,0.243750X0.243750X0.456250X-0.243750X0.456250X-0.243750X-0.456250X0.243750X-0.456250X0*%
%ADD21RoundRect,0.250000X0.250000X0.475000X-0.250000X0.475000X-0.250000X-0.475000X0.250000X-0.475000X0*%
G04 APERTURE END LIST*
D10*
%TO.C,R7*%
X161210000Y-61595000D03*
X159385000Y-61595000D03*
%TD*%
D11*
%TO.C,U3*%
X129540000Y-75565000D03*
X129540000Y-76835000D03*
X129540000Y-78105000D03*
X129540000Y-79375000D03*
X134490000Y-79375000D03*
X134490000Y-78105000D03*
X134490000Y-76835000D03*
X134490000Y-75565000D03*
%TD*%
D12*
%TO.C,R2*%
X141660000Y-61595000D03*
X143485000Y-61595000D03*
%TD*%
D13*
%TO.C,U1*%
X128480000Y-60960000D03*
X128480000Y-62230000D03*
X128480000Y-63500000D03*
X128480000Y-64770000D03*
X135680000Y-64770000D03*
X135680000Y-63500000D03*
X135680000Y-62230000D03*
X135680000Y-60960000D03*
%TD*%
D10*
%TO.C,R3*%
X153312500Y-73025000D03*
X151487500Y-73025000D03*
%TD*%
D14*
%TO.C,Y1*%
X141545000Y-78105000D03*
X146745000Y-78105000D03*
%TD*%
D15*
%TO.C,Y2*%
X124460000Y-80705000D03*
X124460000Y-75505000D03*
%TD*%
D16*
%TO.C,D2*%
X159385000Y-64770000D03*
X161260000Y-64770000D03*
%TD*%
D13*
%TO.C,U2*%
X128480000Y-67730000D03*
X128480000Y-69000000D03*
X128480000Y-70270000D03*
X128480000Y-71540000D03*
X135680000Y-71540000D03*
X135680000Y-70270000D03*
X135680000Y-69000000D03*
X135680000Y-67730000D03*
%TD*%
D10*
%TO.C,R4*%
X147295000Y-61595000D03*
X145470000Y-61595000D03*
%TD*%
%TO.C,R6*%
X131087500Y-81915000D03*
X129262500Y-81915000D03*
%TD*%
D12*
%TO.C,R5*%
X133350000Y-81915000D03*
X135175000Y-81915000D03*
%TD*%
D17*
%TO.C,U4*%
X139975000Y-67050000D03*
X139975000Y-67850000D03*
X139975000Y-68650000D03*
X139975000Y-69450000D03*
X139975000Y-70250000D03*
X139975000Y-71050000D03*
X139975000Y-71850000D03*
X139975000Y-72650000D03*
D18*
X141345000Y-74020000D03*
X142145000Y-74020000D03*
X142945000Y-74020000D03*
X143745000Y-74020000D03*
X144545000Y-74020000D03*
X145345000Y-74020000D03*
X146145000Y-74020000D03*
X146945000Y-74020000D03*
D17*
X148315000Y-72650000D03*
X148315000Y-71850000D03*
X148315000Y-71050000D03*
X148315000Y-70250000D03*
X148315000Y-69450000D03*
X148315000Y-68650000D03*
X148315000Y-67850000D03*
X148315000Y-67050000D03*
D18*
X146945000Y-65680000D03*
X146145000Y-65680000D03*
X145345000Y-65680000D03*
X144545000Y-65680000D03*
X143745000Y-65680000D03*
X142945000Y-65680000D03*
X142145000Y-65680000D03*
X141345000Y-65680000D03*
%TD*%
D19*
%TO.C,C2*%
X145735000Y-81915000D03*
X147635000Y-81915000D03*
%TD*%
D20*
%TO.C,D1*%
X157147500Y-64770000D03*
X155272500Y-64770000D03*
%TD*%
D10*
%TO.C,R1*%
X157122500Y-61595000D03*
X155297500Y-61595000D03*
%TD*%
D21*
%TO.C,C4*%
X139712500Y-61595000D03*
X137812500Y-61595000D03*
%TD*%
%TO.C,C5*%
X151445000Y-61595000D03*
X149545000Y-61595000D03*
%TD*%
%TO.C,C3*%
X153350000Y-69850000D03*
X151450000Y-69850000D03*
%TD*%
%TO.C,C1*%
X142555000Y-81915000D03*
X140655000Y-81915000D03*
%TD*%
M02*
